<svg xmlns="http://www.w3.org/2000/svg" width="175" height="175" viewBox="0 0 175 175">
  <g id="Group_2727" data-name="Group 2727" transform="translate(-380 270.5)">
    <rect id="Rectangle_1108" data-name="Rectangle 1108" width="7" height="7" transform="translate(380 -270.5)"/>
    <rect id="Rectangle_1109" data-name="Rectangle 1109" width="7" height="7" transform="translate(387 -270.5)"/>
    <rect id="Rectangle_1110" data-name="Rectangle 1110" width="7" height="7" transform="translate(394 -270.5)"/>
    <rect id="Rectangle_1111" data-name="Rectangle 1111" width="7" height="7" transform="translate(401 -270.5)"/>
    <rect id="Rectangle_1112" data-name="Rectangle 1112" width="7" height="7" transform="translate(408 -270.5)"/>
    <rect id="Rectangle_1113" data-name="Rectangle 1113" width="7" height="7" transform="translate(415 -270.5)"/>
    <rect id="Rectangle_1114" data-name="Rectangle 1114" width="7" height="7" transform="translate(422 -270.5)"/>
    <rect id="Rectangle_1115" data-name="Rectangle 1115" width="7" height="7" transform="translate(436 -270.5)"/>
    <rect id="Rectangle_1116" data-name="Rectangle 1116" width="7" height="7" transform="translate(457 -270.5)"/>
    <rect id="Rectangle_1117" data-name="Rectangle 1117" width="7" height="7" transform="translate(464 -270.5)"/>
    <rect id="Rectangle_1118" data-name="Rectangle 1118" width="7" height="7" transform="translate(478 -270.5)"/>
    <rect id="Rectangle_1119" data-name="Rectangle 1119" width="7" height="7" transform="translate(492 -270.5)"/>
    <rect id="Rectangle_1120" data-name="Rectangle 1120" width="7" height="7" transform="translate(506 -270.5)"/>
    <rect id="Rectangle_1121" data-name="Rectangle 1121" width="7" height="7" transform="translate(513 -270.5)"/>
    <rect id="Rectangle_1122" data-name="Rectangle 1122" width="7" height="7" transform="translate(520 -270.5)"/>
    <rect id="Rectangle_1123" data-name="Rectangle 1123" width="7" height="7" transform="translate(527 -270.5)"/>
    <rect id="Rectangle_1124" data-name="Rectangle 1124" width="7" height="7" transform="translate(534 -270.5)"/>
    <rect id="Rectangle_1125" data-name="Rectangle 1125" width="7" height="7" transform="translate(541 -270.5)"/>
    <rect id="Rectangle_1126" data-name="Rectangle 1126" width="7" height="7" transform="translate(548 -270.5)"/>
    <rect id="Rectangle_1127" data-name="Rectangle 1127" width="7" height="7" transform="translate(380 -263.5)"/>
    <rect id="Rectangle_1128" data-name="Rectangle 1128" width="7" height="7" transform="translate(422 -263.5)"/>
    <rect id="Rectangle_1129" data-name="Rectangle 1129" width="7" height="7" transform="translate(436 -263.5)"/>
    <rect id="Rectangle_1130" data-name="Rectangle 1130" width="7" height="7" transform="translate(443 -263.5)"/>
    <rect id="Rectangle_1131" data-name="Rectangle 1131" width="7" height="7" transform="translate(450 -263.5)"/>
    <rect id="Rectangle_1132" data-name="Rectangle 1132" width="7" height="7" transform="translate(464 -263.5)"/>
    <rect id="Rectangle_1133" data-name="Rectangle 1133" width="7" height="7" transform="translate(471 -263.5)"/>
    <rect id="Rectangle_1134" data-name="Rectangle 1134" width="7" height="7" transform="translate(478 -263.5)"/>
    <rect id="Rectangle_1135" data-name="Rectangle 1135" width="7" height="7" transform="translate(506 -263.5)"/>
    <rect id="Rectangle_1136" data-name="Rectangle 1136" width="7" height="7" transform="translate(548 -263.5)"/>
    <rect id="Rectangle_1137" data-name="Rectangle 1137" width="7" height="7" transform="translate(380 -256.5)"/>
    <rect id="Rectangle_1138" data-name="Rectangle 1138" width="7" height="7" transform="translate(394 -256.5)"/>
    <rect id="Rectangle_1139" data-name="Rectangle 1139" width="7" height="7" transform="translate(401 -256.5)"/>
    <rect id="Rectangle_1140" data-name="Rectangle 1140" width="7" height="7" transform="translate(408 -256.5)"/>
    <rect id="Rectangle_1141" data-name="Rectangle 1141" width="7" height="7" transform="translate(422 -256.5)"/>
    <rect id="Rectangle_1142" data-name="Rectangle 1142" width="7" height="7" transform="translate(450 -256.5)"/>
    <rect id="Rectangle_1143" data-name="Rectangle 1143" width="7" height="7" transform="translate(457 -256.5)"/>
    <rect id="Rectangle_1144" data-name="Rectangle 1144" width="7" height="7" transform="translate(464 -256.5)"/>
    <rect id="Rectangle_1145" data-name="Rectangle 1145" width="7" height="7" transform="translate(471 -256.5)"/>
    <rect id="Rectangle_1146" data-name="Rectangle 1146" width="7" height="7" transform="translate(478 -256.5)"/>
    <rect id="Rectangle_1147" data-name="Rectangle 1147" width="7" height="7" transform="translate(506 -256.5)"/>
    <rect id="Rectangle_1148" data-name="Rectangle 1148" width="7" height="7" transform="translate(520 -256.5)"/>
    <rect id="Rectangle_1149" data-name="Rectangle 1149" width="7" height="7" transform="translate(527 -256.5)"/>
    <rect id="Rectangle_1150" data-name="Rectangle 1150" width="7" height="7" transform="translate(534 -256.5)"/>
    <rect id="Rectangle_1151" data-name="Rectangle 1151" width="7" height="7" transform="translate(548 -256.5)"/>
    <rect id="Rectangle_1152" data-name="Rectangle 1152" width="7" height="7" transform="translate(380 -249.5)"/>
    <rect id="Rectangle_1153" data-name="Rectangle 1153" width="7" height="7" transform="translate(394 -249.5)"/>
    <rect id="Rectangle_1154" data-name="Rectangle 1154" width="7" height="7" transform="translate(401 -249.5)"/>
    <rect id="Rectangle_1155" data-name="Rectangle 1155" width="7" height="7" transform="translate(408 -249.5)"/>
    <rect id="Rectangle_1156" data-name="Rectangle 1156" width="7" height="7" transform="translate(422 -249.5)"/>
    <rect id="Rectangle_1157" data-name="Rectangle 1157" width="7" height="7" transform="translate(450 -249.5)"/>
    <rect id="Rectangle_1158" data-name="Rectangle 1158" width="7" height="7" transform="translate(471 -249.5)"/>
    <rect id="Rectangle_1159" data-name="Rectangle 1159" width="7" height="7" transform="translate(478 -249.5)"/>
    <rect id="Rectangle_1160" data-name="Rectangle 1160" width="7" height="7" transform="translate(485 -249.5)"/>
    <rect id="Rectangle_1161" data-name="Rectangle 1161" width="7" height="7" transform="translate(506 -249.5)"/>
    <rect id="Rectangle_1162" data-name="Rectangle 1162" width="7" height="7" transform="translate(520 -249.5)"/>
    <rect id="Rectangle_1163" data-name="Rectangle 1163" width="7" height="7" transform="translate(527 -249.5)"/>
    <rect id="Rectangle_1164" data-name="Rectangle 1164" width="7" height="7" transform="translate(534 -249.5)"/>
    <rect id="Rectangle_1165" data-name="Rectangle 1165" width="7" height="7" transform="translate(548 -249.5)"/>
    <rect id="Rectangle_1166" data-name="Rectangle 1166" width="7" height="7" transform="translate(380 -242.5)"/>
    <rect id="Rectangle_1167" data-name="Rectangle 1167" width="7" height="7" transform="translate(394 -242.5)"/>
    <rect id="Rectangle_1168" data-name="Rectangle 1168" width="7" height="7" transform="translate(401 -242.5)"/>
    <rect id="Rectangle_1169" data-name="Rectangle 1169" width="7" height="7" transform="translate(408 -242.5)"/>
    <rect id="Rectangle_1170" data-name="Rectangle 1170" width="7" height="7" transform="translate(422 -242.5)"/>
    <rect id="Rectangle_1171" data-name="Rectangle 1171" width="7" height="7" transform="translate(436 -242.5)"/>
    <rect id="Rectangle_1172" data-name="Rectangle 1172" width="7" height="7" transform="translate(443 -242.5)"/>
    <rect id="Rectangle_1173" data-name="Rectangle 1173" width="7" height="7" transform="translate(450 -242.5)"/>
    <rect id="Rectangle_1174" data-name="Rectangle 1174" width="7" height="7" transform="translate(457 -242.5)"/>
    <rect id="Rectangle_1175" data-name="Rectangle 1175" width="7" height="7" transform="translate(478 -242.5)"/>
    <rect id="Rectangle_1176" data-name="Rectangle 1176" width="7" height="7" transform="translate(506 -242.5)"/>
    <rect id="Rectangle_1177" data-name="Rectangle 1177" width="7" height="7" transform="translate(520 -242.5)"/>
    <rect id="Rectangle_1178" data-name="Rectangle 1178" width="7" height="7" transform="translate(527 -242.5)"/>
    <rect id="Rectangle_1179" data-name="Rectangle 1179" width="7" height="7" transform="translate(534 -242.5)"/>
    <rect id="Rectangle_1180" data-name="Rectangle 1180" width="7" height="7" transform="translate(548 -242.5)"/>
    <rect id="Rectangle_1181" data-name="Rectangle 1181" width="7" height="7" transform="translate(380 -235.5)"/>
    <rect id="Rectangle_1182" data-name="Rectangle 1182" width="7" height="7" transform="translate(422 -235.5)"/>
    <rect id="Rectangle_1183" data-name="Rectangle 1183" width="7" height="7" transform="translate(436 -235.5)"/>
    <rect id="Rectangle_1184" data-name="Rectangle 1184" width="7" height="7" transform="translate(457 -235.5)"/>
    <rect id="Rectangle_1185" data-name="Rectangle 1185" width="7" height="7" transform="translate(471 -235.5)"/>
    <rect id="Rectangle_1186" data-name="Rectangle 1186" width="7" height="7" transform="translate(492 -235.5)"/>
    <rect id="Rectangle_1187" data-name="Rectangle 1187" width="7" height="7" transform="translate(506 -235.5)"/>
    <rect id="Rectangle_1188" data-name="Rectangle 1188" width="7" height="7" transform="translate(548 -235.5)"/>
    <rect id="Rectangle_1189" data-name="Rectangle 1189" width="7" height="7" transform="translate(380 -228.5)"/>
    <rect id="Rectangle_1190" data-name="Rectangle 1190" width="7" height="7" transform="translate(387 -228.5)"/>
    <rect id="Rectangle_1191" data-name="Rectangle 1191" width="7" height="7" transform="translate(394 -228.5)"/>
    <rect id="Rectangle_1192" data-name="Rectangle 1192" width="7" height="7" transform="translate(401 -228.5)"/>
    <rect id="Rectangle_1193" data-name="Rectangle 1193" width="7" height="7" transform="translate(408 -228.5)"/>
    <rect id="Rectangle_1194" data-name="Rectangle 1194" width="7" height="7" transform="translate(415 -228.5)"/>
    <rect id="Rectangle_1195" data-name="Rectangle 1195" width="7" height="7" transform="translate(422 -228.5)"/>
    <rect id="Rectangle_1196" data-name="Rectangle 1196" width="7" height="7" transform="translate(436 -228.5)"/>
    <rect id="Rectangle_1197" data-name="Rectangle 1197" width="7" height="7" transform="translate(450 -228.5)"/>
    <rect id="Rectangle_1198" data-name="Rectangle 1198" width="7" height="7" transform="translate(464 -228.5)"/>
    <rect id="Rectangle_1199" data-name="Rectangle 1199" width="7" height="7" transform="translate(478 -228.5)"/>
    <rect id="Rectangle_1200" data-name="Rectangle 1200" width="7" height="7" transform="translate(492 -228.5)"/>
    <rect id="Rectangle_1201" data-name="Rectangle 1201" width="7" height="7" transform="translate(506 -228.5)"/>
    <rect id="Rectangle_1202" data-name="Rectangle 1202" width="7" height="7" transform="translate(513 -228.5)"/>
    <rect id="Rectangle_1203" data-name="Rectangle 1203" width="7" height="7" transform="translate(520 -228.5)"/>
    <rect id="Rectangle_1204" data-name="Rectangle 1204" width="7" height="7" transform="translate(527 -228.5)"/>
    <rect id="Rectangle_1205" data-name="Rectangle 1205" width="7" height="7" transform="translate(534 -228.5)"/>
    <rect id="Rectangle_1206" data-name="Rectangle 1206" width="7" height="7" transform="translate(541 -228.5)"/>
    <rect id="Rectangle_1207" data-name="Rectangle 1207" width="7" height="7" transform="translate(548 -228.5)"/>
    <rect id="Rectangle_1208" data-name="Rectangle 1208" width="7" height="7" transform="translate(436 -221.5)"/>
    <rect id="Rectangle_1209" data-name="Rectangle 1209" width="7" height="7" transform="translate(450 -221.5)"/>
    <rect id="Rectangle_1210" data-name="Rectangle 1210" width="7" height="7" transform="translate(457 -221.5)"/>
    <rect id="Rectangle_1211" data-name="Rectangle 1211" width="7" height="7" transform="translate(464 -221.5)"/>
    <rect id="Rectangle_1212" data-name="Rectangle 1212" width="7" height="7" transform="translate(478 -221.5)"/>
    <rect id="Rectangle_1213" data-name="Rectangle 1213" width="7" height="7" transform="translate(380 -214.5)"/>
    <rect id="Rectangle_1214" data-name="Rectangle 1214" width="7" height="7" transform="translate(387 -214.5)"/>
    <rect id="Rectangle_1215" data-name="Rectangle 1215" width="7" height="7" transform="translate(394 -214.5)"/>
    <rect id="Rectangle_1216" data-name="Rectangle 1216" width="7" height="7" transform="translate(415 -214.5)"/>
    <rect id="Rectangle_1217" data-name="Rectangle 1217" width="7" height="7" transform="translate(422 -214.5)"/>
    <rect id="Rectangle_1218" data-name="Rectangle 1218" width="7" height="7" transform="translate(436 -214.5)"/>
    <rect id="Rectangle_1219" data-name="Rectangle 1219" width="7" height="7" transform="translate(443 -214.5)"/>
    <rect id="Rectangle_1220" data-name="Rectangle 1220" width="7" height="7" transform="translate(450 -214.5)"/>
    <rect id="Rectangle_1221" data-name="Rectangle 1221" width="7" height="7" transform="translate(492 -214.5)"/>
    <rect id="Rectangle_1222" data-name="Rectangle 1222" width="7" height="7" transform="translate(499 -214.5)"/>
    <rect id="Rectangle_1223" data-name="Rectangle 1223" width="7" height="7" transform="translate(506 -214.5)"/>
    <rect id="Rectangle_1224" data-name="Rectangle 1224" width="7" height="7" transform="translate(513 -214.5)"/>
    <rect id="Rectangle_1225" data-name="Rectangle 1225" width="7" height="7" transform="translate(520 -214.5)"/>
    <rect id="Rectangle_1226" data-name="Rectangle 1226" width="7" height="7" transform="translate(541 -214.5)"/>
    <rect id="Rectangle_1227" data-name="Rectangle 1227" width="7" height="7" transform="translate(548 -214.5)"/>
    <rect id="Rectangle_1228" data-name="Rectangle 1228" width="7" height="7" transform="translate(380 -207.5)"/>
    <rect id="Rectangle_1229" data-name="Rectangle 1229" width="7" height="7" transform="translate(394 -207.5)"/>
    <rect id="Rectangle_1230" data-name="Rectangle 1230" width="7" height="7" transform="translate(401 -207.5)"/>
    <rect id="Rectangle_1231" data-name="Rectangle 1231" width="7" height="7" transform="translate(415 -207.5)"/>
    <rect id="Rectangle_1232" data-name="Rectangle 1232" width="7" height="7" transform="translate(443 -207.5)"/>
    <rect id="Rectangle_1233" data-name="Rectangle 1233" width="7" height="7" transform="translate(450 -207.5)"/>
    <rect id="Rectangle_1234" data-name="Rectangle 1234" width="7" height="7" transform="translate(478 -207.5)"/>
    <rect id="Rectangle_1235" data-name="Rectangle 1235" width="7" height="7" transform="translate(485 -207.5)"/>
    <rect id="Rectangle_1236" data-name="Rectangle 1236" width="7" height="7" transform="translate(492 -207.5)"/>
    <rect id="Rectangle_1237" data-name="Rectangle 1237" width="7" height="7" transform="translate(499 -207.5)"/>
    <rect id="Rectangle_1238" data-name="Rectangle 1238" width="7" height="7" transform="translate(506 -207.5)"/>
    <rect id="Rectangle_1239" data-name="Rectangle 1239" width="7" height="7" transform="translate(513 -207.5)"/>
    <rect id="Rectangle_1240" data-name="Rectangle 1240" width="7" height="7" transform="translate(527 -207.5)"/>
    <rect id="Rectangle_1241" data-name="Rectangle 1241" width="7" height="7" transform="translate(541 -207.5)"/>
    <rect id="Rectangle_1242" data-name="Rectangle 1242" width="7" height="7" transform="translate(548 -207.5)"/>
    <rect id="Rectangle_1243" data-name="Rectangle 1243" width="7" height="7" transform="translate(380 -200.5)"/>
    <rect id="Rectangle_1244" data-name="Rectangle 1244" width="7" height="7" transform="translate(387 -200.5)"/>
    <rect id="Rectangle_1245" data-name="Rectangle 1245" width="7" height="7" transform="translate(408 -200.5)"/>
    <rect id="Rectangle_1246" data-name="Rectangle 1246" width="7" height="7" transform="translate(415 -200.5)"/>
    <rect id="Rectangle_1247" data-name="Rectangle 1247" width="7" height="7" transform="translate(422 -200.5)"/>
    <rect id="Rectangle_1248" data-name="Rectangle 1248" width="7" height="7" transform="translate(429 -200.5)"/>
    <rect id="Rectangle_1249" data-name="Rectangle 1249" width="7" height="7" transform="translate(457 -200.5)"/>
    <rect id="Rectangle_1250" data-name="Rectangle 1250" width="7" height="7" transform="translate(478 -200.5)"/>
    <rect id="Rectangle_1251" data-name="Rectangle 1251" width="7" height="7" transform="translate(485 -200.5)"/>
    <rect id="Rectangle_1252" data-name="Rectangle 1252" width="7" height="7" transform="translate(506 -200.5)"/>
    <rect id="Rectangle_1253" data-name="Rectangle 1253" width="7" height="7" transform="translate(527 -200.5)"/>
    <rect id="Rectangle_1254" data-name="Rectangle 1254" width="7" height="7" transform="translate(534 -200.5)"/>
    <rect id="Rectangle_1255" data-name="Rectangle 1255" width="7" height="7" transform="translate(548 -200.5)"/>
    <rect id="Rectangle_1256" data-name="Rectangle 1256" width="7" height="7" transform="translate(394 -193.5)"/>
    <rect id="Rectangle_1257" data-name="Rectangle 1257" width="7" height="7" transform="translate(401 -193.5)"/>
    <rect id="Rectangle_1258" data-name="Rectangle 1258" width="7" height="7" transform="translate(408 -193.5)"/>
    <rect id="Rectangle_1259" data-name="Rectangle 1259" width="7" height="7" transform="translate(415 -193.5)"/>
    <rect id="Rectangle_1260" data-name="Rectangle 1260" width="7" height="7" transform="translate(443 -193.5)"/>
    <rect id="Rectangle_1261" data-name="Rectangle 1261" width="7" height="7" transform="translate(485 -193.5)"/>
    <rect id="Rectangle_1262" data-name="Rectangle 1262" width="7" height="7" transform="translate(492 -193.5)"/>
    <rect id="Rectangle_1263" data-name="Rectangle 1263" width="7" height="7" transform="translate(499 -193.5)"/>
    <rect id="Rectangle_1264" data-name="Rectangle 1264" width="7" height="7" transform="translate(506 -193.5)"/>
    <rect id="Rectangle_1265" data-name="Rectangle 1265" width="7" height="7" transform="translate(513 -193.5)"/>
    <rect id="Rectangle_1266" data-name="Rectangle 1266" width="7" height="7" transform="translate(527 -193.5)"/>
    <rect id="Rectangle_1267" data-name="Rectangle 1267" width="7" height="7" transform="translate(387 -186.5)"/>
    <rect id="Rectangle_1268" data-name="Rectangle 1268" width="7" height="7" transform="translate(408 -186.5)"/>
    <rect id="Rectangle_1269" data-name="Rectangle 1269" width="7" height="7" transform="translate(422 -186.5)"/>
    <rect id="Rectangle_1270" data-name="Rectangle 1270" width="7" height="7" transform="translate(429 -186.5)"/>
    <rect id="Rectangle_1271" data-name="Rectangle 1271" width="7" height="7" transform="translate(436 -186.5)"/>
    <rect id="Rectangle_1272" data-name="Rectangle 1272" width="7" height="7" transform="translate(443 -186.5)"/>
    <rect id="Rectangle_1273" data-name="Rectangle 1273" width="7" height="7" transform="translate(457 -186.5)"/>
    <rect id="Rectangle_1274" data-name="Rectangle 1274" width="7" height="7" transform="translate(464 -186.5)"/>
    <rect id="Rectangle_1275" data-name="Rectangle 1275" width="7" height="7" transform="translate(478 -186.5)"/>
    <rect id="Rectangle_1276" data-name="Rectangle 1276" width="7" height="7" transform="translate(492 -186.5)"/>
    <rect id="Rectangle_1277" data-name="Rectangle 1277" width="7" height="7" transform="translate(499 -186.5)"/>
    <rect id="Rectangle_1278" data-name="Rectangle 1278" width="7" height="7" transform="translate(506 -186.5)"/>
    <rect id="Rectangle_1279" data-name="Rectangle 1279" width="7" height="7" transform="translate(548 -186.5)"/>
    <rect id="Rectangle_1280" data-name="Rectangle 1280" width="7" height="7" transform="translate(387 -179.5)"/>
    <rect id="Rectangle_1281" data-name="Rectangle 1281" width="7" height="7" transform="translate(394 -179.5)"/>
    <rect id="Rectangle_1282" data-name="Rectangle 1282" width="7" height="7" transform="translate(401 -179.5)"/>
    <rect id="Rectangle_1283" data-name="Rectangle 1283" width="7" height="7" transform="translate(408 -179.5)"/>
    <rect id="Rectangle_1284" data-name="Rectangle 1284" width="7" height="7" transform="translate(415 -179.5)"/>
    <rect id="Rectangle_1285" data-name="Rectangle 1285" width="7" height="7" transform="translate(436 -179.5)"/>
    <rect id="Rectangle_1286" data-name="Rectangle 1286" width="7" height="7" transform="translate(464 -179.5)"/>
    <rect id="Rectangle_1287" data-name="Rectangle 1287" width="7" height="7" transform="translate(471 -179.5)"/>
    <rect id="Rectangle_1288" data-name="Rectangle 1288" width="7" height="7" transform="translate(485 -179.5)"/>
    <rect id="Rectangle_1289" data-name="Rectangle 1289" width="7" height="7" transform="translate(492 -179.5)"/>
    <rect id="Rectangle_1290" data-name="Rectangle 1290" width="7" height="7" transform="translate(506 -179.5)"/>
    <rect id="Rectangle_1291" data-name="Rectangle 1291" width="7" height="7" transform="translate(513 -179.5)"/>
    <rect id="Rectangle_1292" data-name="Rectangle 1292" width="7" height="7" transform="translate(541 -179.5)"/>
    <rect id="Rectangle_1293" data-name="Rectangle 1293" width="7" height="7" transform="translate(548 -179.5)"/>
    <rect id="Rectangle_1294" data-name="Rectangle 1294" width="7" height="7" transform="translate(380 -172.5)"/>
    <rect id="Rectangle_1295" data-name="Rectangle 1295" width="7" height="7" transform="translate(387 -172.5)"/>
    <rect id="Rectangle_1296" data-name="Rectangle 1296" width="7" height="7" transform="translate(394 -172.5)"/>
    <rect id="Rectangle_1297" data-name="Rectangle 1297" width="7" height="7" transform="translate(408 -172.5)"/>
    <rect id="Rectangle_1298" data-name="Rectangle 1298" width="7" height="7" transform="translate(422 -172.5)"/>
    <rect id="Rectangle_1299" data-name="Rectangle 1299" width="7" height="7" transform="translate(429 -172.5)"/>
    <rect id="Rectangle_1300" data-name="Rectangle 1300" width="7" height="7" transform="translate(443 -172.5)"/>
    <rect id="Rectangle_1301" data-name="Rectangle 1301" width="7" height="7" transform="translate(450 -172.5)"/>
    <rect id="Rectangle_1302" data-name="Rectangle 1302" width="7" height="7" transform="translate(464 -172.5)"/>
    <rect id="Rectangle_1303" data-name="Rectangle 1303" width="7" height="7" transform="translate(485 -172.5)"/>
    <rect id="Rectangle_1304" data-name="Rectangle 1304" width="7" height="7" transform="translate(527 -172.5)"/>
    <rect id="Rectangle_1305" data-name="Rectangle 1305" width="7" height="7" transform="translate(534 -172.5)"/>
    <rect id="Rectangle_1306" data-name="Rectangle 1306" width="7" height="7" transform="translate(548 -172.5)"/>
    <rect id="Rectangle_1307" data-name="Rectangle 1307" width="7" height="7" transform="translate(415 -165.5)"/>
    <rect id="Rectangle_1308" data-name="Rectangle 1308" width="7" height="7" transform="translate(443 -165.5)"/>
    <rect id="Rectangle_1309" data-name="Rectangle 1309" width="7" height="7" transform="translate(450 -165.5)"/>
    <rect id="Rectangle_1310" data-name="Rectangle 1310" width="7" height="7" transform="translate(457 -165.5)"/>
    <rect id="Rectangle_1311" data-name="Rectangle 1311" width="7" height="7" transform="translate(464 -165.5)"/>
    <rect id="Rectangle_1312" data-name="Rectangle 1312" width="7" height="7" transform="translate(478 -165.5)"/>
    <rect id="Rectangle_1313" data-name="Rectangle 1313" width="7" height="7" transform="translate(485 -165.5)"/>
    <rect id="Rectangle_1314" data-name="Rectangle 1314" width="7" height="7" transform="translate(506 -165.5)"/>
    <rect id="Rectangle_1315" data-name="Rectangle 1315" width="7" height="7" transform="translate(513 -165.5)"/>
    <rect id="Rectangle_1316" data-name="Rectangle 1316" width="7" height="7" transform="translate(380 -158.5)"/>
    <rect id="Rectangle_1317" data-name="Rectangle 1317" width="7" height="7" transform="translate(387 -158.5)"/>
    <rect id="Rectangle_1318" data-name="Rectangle 1318" width="7" height="7" transform="translate(394 -158.5)"/>
    <rect id="Rectangle_1319" data-name="Rectangle 1319" width="7" height="7" transform="translate(415 -158.5)"/>
    <rect id="Rectangle_1320" data-name="Rectangle 1320" width="7" height="7" transform="translate(422 -158.5)"/>
    <rect id="Rectangle_1321" data-name="Rectangle 1321" width="7" height="7" transform="translate(429 -158.5)"/>
    <rect id="Rectangle_1322" data-name="Rectangle 1322" width="7" height="7" transform="translate(436 -158.5)"/>
    <rect id="Rectangle_1323" data-name="Rectangle 1323" width="7" height="7" transform="translate(450 -158.5)"/>
    <rect id="Rectangle_1324" data-name="Rectangle 1324" width="7" height="7" transform="translate(471 -158.5)"/>
    <rect id="Rectangle_1325" data-name="Rectangle 1325" width="7" height="7" transform="translate(478 -158.5)"/>
    <rect id="Rectangle_1326" data-name="Rectangle 1326" width="7" height="7" transform="translate(485 -158.5)"/>
    <rect id="Rectangle_1327" data-name="Rectangle 1327" width="7" height="7" transform="translate(492 -158.5)"/>
    <rect id="Rectangle_1328" data-name="Rectangle 1328" width="7" height="7" transform="translate(499 -158.5)"/>
    <rect id="Rectangle_1329" data-name="Rectangle 1329" width="7" height="7" transform="translate(506 -158.5)"/>
    <rect id="Rectangle_1330" data-name="Rectangle 1330" width="7" height="7" transform="translate(513 -158.5)"/>
    <rect id="Rectangle_1331" data-name="Rectangle 1331" width="7" height="7" transform="translate(520 -158.5)"/>
    <rect id="Rectangle_1332" data-name="Rectangle 1332" width="7" height="7" transform="translate(541 -158.5)"/>
    <rect id="Rectangle_1333" data-name="Rectangle 1333" width="7" height="7" transform="translate(436 -151.5)"/>
    <rect id="Rectangle_1334" data-name="Rectangle 1334" width="7" height="7" transform="translate(443 -151.5)"/>
    <rect id="Rectangle_1335" data-name="Rectangle 1335" width="7" height="7" transform="translate(450 -151.5)"/>
    <rect id="Rectangle_1336" data-name="Rectangle 1336" width="7" height="7" transform="translate(471 -151.5)"/>
    <rect id="Rectangle_1337" data-name="Rectangle 1337" width="7" height="7" transform="translate(492 -151.5)"/>
    <rect id="Rectangle_1338" data-name="Rectangle 1338" width="7" height="7" transform="translate(520 -151.5)"/>
    <rect id="Rectangle_1339" data-name="Rectangle 1339" width="7" height="7" transform="translate(534 -151.5)"/>
    <rect id="Rectangle_1340" data-name="Rectangle 1340" width="7" height="7" transform="translate(548 -151.5)"/>
    <rect id="Rectangle_1341" data-name="Rectangle 1341" width="7" height="7" transform="translate(380 -144.5)"/>
    <rect id="Rectangle_1342" data-name="Rectangle 1342" width="7" height="7" transform="translate(387 -144.5)"/>
    <rect id="Rectangle_1343" data-name="Rectangle 1343" width="7" height="7" transform="translate(394 -144.5)"/>
    <rect id="Rectangle_1344" data-name="Rectangle 1344" width="7" height="7" transform="translate(401 -144.5)"/>
    <rect id="Rectangle_1345" data-name="Rectangle 1345" width="7" height="7" transform="translate(408 -144.5)"/>
    <rect id="Rectangle_1346" data-name="Rectangle 1346" width="7" height="7" transform="translate(415 -144.5)"/>
    <rect id="Rectangle_1347" data-name="Rectangle 1347" width="7" height="7" transform="translate(422 -144.5)"/>
    <rect id="Rectangle_1348" data-name="Rectangle 1348" width="7" height="7" transform="translate(457 -144.5)"/>
    <rect id="Rectangle_1349" data-name="Rectangle 1349" width="7" height="7" transform="translate(492 -144.5)"/>
    <rect id="Rectangle_1350" data-name="Rectangle 1350" width="7" height="7" transform="translate(506 -144.5)"/>
    <rect id="Rectangle_1351" data-name="Rectangle 1351" width="7" height="7" transform="translate(520 -144.5)"/>
    <rect id="Rectangle_1352" data-name="Rectangle 1352" width="7" height="7" transform="translate(527 -144.5)"/>
    <rect id="Rectangle_1353" data-name="Rectangle 1353" width="7" height="7" transform="translate(548 -144.5)"/>
    <rect id="Rectangle_1354" data-name="Rectangle 1354" width="7" height="7" transform="translate(380 -137.5)"/>
    <rect id="Rectangle_1355" data-name="Rectangle 1355" width="7" height="7" transform="translate(422 -137.5)"/>
    <rect id="Rectangle_1356" data-name="Rectangle 1356" width="7" height="7" transform="translate(436 -137.5)"/>
    <rect id="Rectangle_1357" data-name="Rectangle 1357" width="7" height="7" transform="translate(443 -137.5)"/>
    <rect id="Rectangle_1358" data-name="Rectangle 1358" width="7" height="7" transform="translate(450 -137.5)"/>
    <rect id="Rectangle_1359" data-name="Rectangle 1359" width="7" height="7" transform="translate(471 -137.5)"/>
    <rect id="Rectangle_1360" data-name="Rectangle 1360" width="7" height="7" transform="translate(485 -137.5)"/>
    <rect id="Rectangle_1361" data-name="Rectangle 1361" width="7" height="7" transform="translate(492 -137.5)"/>
    <rect id="Rectangle_1362" data-name="Rectangle 1362" width="7" height="7" transform="translate(520 -137.5)"/>
    <rect id="Rectangle_1363" data-name="Rectangle 1363" width="7" height="7" transform="translate(541 -137.5)"/>
    <rect id="Rectangle_1364" data-name="Rectangle 1364" width="7" height="7" transform="translate(380 -130.5)"/>
    <rect id="Rectangle_1365" data-name="Rectangle 1365" width="7" height="7" transform="translate(394 -130.5)"/>
    <rect id="Rectangle_1366" data-name="Rectangle 1366" width="7" height="7" transform="translate(401 -130.5)"/>
    <rect id="Rectangle_1367" data-name="Rectangle 1367" width="7" height="7" transform="translate(408 -130.5)"/>
    <rect id="Rectangle_1368" data-name="Rectangle 1368" width="7" height="7" transform="translate(422 -130.5)"/>
    <rect id="Rectangle_1369" data-name="Rectangle 1369" width="7" height="7" transform="translate(450 -130.5)"/>
    <rect id="Rectangle_1370" data-name="Rectangle 1370" width="7" height="7" transform="translate(457 -130.5)"/>
    <rect id="Rectangle_1371" data-name="Rectangle 1371" width="7" height="7" transform="translate(464 -130.5)"/>
    <rect id="Rectangle_1372" data-name="Rectangle 1372" width="7" height="7" transform="translate(471 -130.5)"/>
    <rect id="Rectangle_1373" data-name="Rectangle 1373" width="7" height="7" transform="translate(485 -130.5)"/>
    <rect id="Rectangle_1374" data-name="Rectangle 1374" width="7" height="7" transform="translate(492 -130.5)"/>
    <rect id="Rectangle_1375" data-name="Rectangle 1375" width="7" height="7" transform="translate(499 -130.5)"/>
    <rect id="Rectangle_1376" data-name="Rectangle 1376" width="7" height="7" transform="translate(506 -130.5)"/>
    <rect id="Rectangle_1377" data-name="Rectangle 1377" width="7" height="7" transform="translate(513 -130.5)"/>
    <rect id="Rectangle_1378" data-name="Rectangle 1378" width="7" height="7" transform="translate(520 -130.5)"/>
    <rect id="Rectangle_1379" data-name="Rectangle 1379" width="7" height="7" transform="translate(527 -130.5)"/>
    <rect id="Rectangle_1380" data-name="Rectangle 1380" width="7" height="7" transform="translate(548 -130.5)"/>
    <rect id="Rectangle_1381" data-name="Rectangle 1381" width="7" height="7" transform="translate(380 -123.5)"/>
    <rect id="Rectangle_1382" data-name="Rectangle 1382" width="7" height="7" transform="translate(394 -123.5)"/>
    <rect id="Rectangle_1383" data-name="Rectangle 1383" width="7" height="7" transform="translate(401 -123.5)"/>
    <rect id="Rectangle_1384" data-name="Rectangle 1384" width="7" height="7" transform="translate(408 -123.5)"/>
    <rect id="Rectangle_1385" data-name="Rectangle 1385" width="7" height="7" transform="translate(422 -123.5)"/>
    <rect id="Rectangle_1386" data-name="Rectangle 1386" width="7" height="7" transform="translate(443 -123.5)"/>
    <rect id="Rectangle_1387" data-name="Rectangle 1387" width="7" height="7" transform="translate(450 -123.5)"/>
    <rect id="Rectangle_1388" data-name="Rectangle 1388" width="7" height="7" transform="translate(464 -123.5)"/>
    <rect id="Rectangle_1389" data-name="Rectangle 1389" width="7" height="7" transform="translate(499 -123.5)"/>
    <rect id="Rectangle_1390" data-name="Rectangle 1390" width="7" height="7" transform="translate(513 -123.5)"/>
    <rect id="Rectangle_1391" data-name="Rectangle 1391" width="7" height="7" transform="translate(520 -123.5)"/>
    <rect id="Rectangle_1392" data-name="Rectangle 1392" width="7" height="7" transform="translate(527 -123.5)"/>
    <rect id="Rectangle_1393" data-name="Rectangle 1393" width="7" height="7" transform="translate(534 -123.5)"/>
    <rect id="Rectangle_1394" data-name="Rectangle 1394" width="7" height="7" transform="translate(541 -123.5)"/>
    <rect id="Rectangle_1395" data-name="Rectangle 1395" width="7" height="7" transform="translate(380 -116.5)"/>
    <rect id="Rectangle_1396" data-name="Rectangle 1396" width="7" height="7" transform="translate(394 -116.5)"/>
    <rect id="Rectangle_1397" data-name="Rectangle 1397" width="7" height="7" transform="translate(401 -116.5)"/>
    <rect id="Rectangle_1398" data-name="Rectangle 1398" width="7" height="7" transform="translate(408 -116.5)"/>
    <rect id="Rectangle_1399" data-name="Rectangle 1399" width="7" height="7" transform="translate(422 -116.5)"/>
    <rect id="Rectangle_1400" data-name="Rectangle 1400" width="7" height="7" transform="translate(436 -116.5)"/>
    <rect id="Rectangle_1401" data-name="Rectangle 1401" width="7" height="7" transform="translate(450 -116.5)"/>
    <rect id="Rectangle_1402" data-name="Rectangle 1402" width="7" height="7" transform="translate(464 -116.5)"/>
    <rect id="Rectangle_1403" data-name="Rectangle 1403" width="7" height="7" transform="translate(471 -116.5)"/>
    <rect id="Rectangle_1404" data-name="Rectangle 1404" width="7" height="7" transform="translate(478 -116.5)"/>
    <rect id="Rectangle_1405" data-name="Rectangle 1405" width="7" height="7" transform="translate(492 -116.5)"/>
    <rect id="Rectangle_1406" data-name="Rectangle 1406" width="7" height="7" transform="translate(520 -116.5)"/>
    <rect id="Rectangle_1407" data-name="Rectangle 1407" width="7" height="7" transform="translate(541 -116.5)"/>
    <rect id="Rectangle_1408" data-name="Rectangle 1408" width="7" height="7" transform="translate(548 -116.5)"/>
    <rect id="Rectangle_1409" data-name="Rectangle 1409" width="7" height="7" transform="translate(380 -109.5)"/>
    <rect id="Rectangle_1410" data-name="Rectangle 1410" width="7" height="7" transform="translate(422 -109.5)"/>
    <rect id="Rectangle_1411" data-name="Rectangle 1411" width="7" height="7" transform="translate(436 -109.5)"/>
    <rect id="Rectangle_1412" data-name="Rectangle 1412" width="7" height="7" transform="translate(450 -109.5)"/>
    <rect id="Rectangle_1413" data-name="Rectangle 1413" width="7" height="7" transform="translate(457 -109.5)"/>
    <rect id="Rectangle_1414" data-name="Rectangle 1414" width="7" height="7" transform="translate(464 -109.5)"/>
    <rect id="Rectangle_1415" data-name="Rectangle 1415" width="7" height="7" transform="translate(478 -109.5)"/>
    <rect id="Rectangle_1416" data-name="Rectangle 1416" width="7" height="7" transform="translate(492 -109.5)"/>
    <rect id="Rectangle_1417" data-name="Rectangle 1417" width="7" height="7" transform="translate(513 -109.5)"/>
    <rect id="Rectangle_1418" data-name="Rectangle 1418" width="7" height="7" transform="translate(520 -109.5)"/>
    <rect id="Rectangle_1419" data-name="Rectangle 1419" width="7" height="7" transform="translate(380 -102.5)"/>
    <rect id="Rectangle_1420" data-name="Rectangle 1420" width="7" height="7" transform="translate(387 -102.5)"/>
    <rect id="Rectangle_1421" data-name="Rectangle 1421" width="7" height="7" transform="translate(394 -102.5)"/>
    <rect id="Rectangle_1422" data-name="Rectangle 1422" width="7" height="7" transform="translate(401 -102.5)"/>
    <rect id="Rectangle_1423" data-name="Rectangle 1423" width="7" height="7" transform="translate(408 -102.5)"/>
    <rect id="Rectangle_1424" data-name="Rectangle 1424" width="7" height="7" transform="translate(415 -102.5)"/>
    <rect id="Rectangle_1425" data-name="Rectangle 1425" width="7" height="7" transform="translate(422 -102.5)"/>
    <rect id="Rectangle_1426" data-name="Rectangle 1426" width="7" height="7" transform="translate(436 -102.5)"/>
    <rect id="Rectangle_1427" data-name="Rectangle 1427" width="7" height="7" transform="translate(471 -102.5)"/>
    <rect id="Rectangle_1428" data-name="Rectangle 1428" width="7" height="7" transform="translate(478 -102.5)"/>
    <rect id="Rectangle_1429" data-name="Rectangle 1429" width="7" height="7" transform="translate(492 -102.5)"/>
    <rect id="Rectangle_1430" data-name="Rectangle 1430" width="7" height="7" transform="translate(527 -102.5)"/>
    <rect id="Rectangle_1431" data-name="Rectangle 1431" width="7" height="7" transform="translate(548 -102.5)"/>
  </g>
</svg>
