<?xml version="1.0" encoding="utf-8"?>
<!-- Generator: Adobe Illustrator 24.0.1, SVG Export Plug-In . SVG Version: 6.00 Build 0)  -->
<svg version="1.1" id="Foreground_Layer" xmlns="http://www.w3.org/2000/svg" xmlns:xlink="http://www.w3.org/1999/xlink" x="0px"
	 y="0px" viewBox="0 0 108 108" style="enable-background:new 0 0 108 108;" xml:space="preserve">
<style type="text/css">
	.st0{fill:#FFFFFF;}
</style>
<g>
	<g>
		<path class="st0" d="M72.9,54.8l0-1.7c0-0.1,0.1-0.3,0.2-0.3h0.1c0-0.2,0-0.5-0.1-0.8l-0.1,0c-0.1,0-0.2-0.1-0.2-0.2l-0.3-1.7
			c0-0.1,0-0.3,0.1-0.3l0.1,0c-0.1-0.3-0.1-0.5-0.2-0.8l-0.1,0c-0.1,0-0.2,0-0.3-0.2l-0.5-1.6c0-0.1,0-0.3,0.1-0.3l0.1,0
			c-0.1-0.3-0.2-0.5-0.3-0.8l-0.1,0c-0.1,0-0.2,0-0.3-0.1l-0.8-1.5c-0.1-0.1,0-0.3,0.1-0.3l0.1,0c-0.1-0.2-0.3-0.5-0.4-0.7l-0.1,0.1
			c-0.1,0.1-0.2,0-0.3-0.1l-1-1.4c-0.1-0.1-0.1-0.3,0-0.3l0.1-0.1c-0.2-0.2-0.4-0.4-0.5-0.6l-0.1,0.1c-0.1,0.1-0.2,0.1-0.3,0
			L66.8,40c-0.1-0.1-0.1-0.2,0-0.3l0.1-0.1c-0.2-0.2-0.4-0.4-0.6-0.5l-0.1,0.1c-0.1,0.1-0.2,0.1-0.3,0l-1.4-1
			c-0.1-0.1-0.2-0.2-0.1-0.3l0.1-0.1c-0.2-0.1-0.5-0.3-0.7-0.4l0,0.1c0,0.1-0.2,0.1-0.3,0.1l-1.5-0.8c-0.1-0.1-0.2-0.2-0.1-0.3
			l0-0.1c-0.2-0.1-0.5-0.2-0.8-0.3l0,0.1c0,0.1-0.2,0.1-0.3,0.1L59,35.7c-0.1,0-0.2-0.2-0.2-0.3l0-0.1c-0.3-0.1-0.5-0.1-0.8-0.2
			l0,0.1c0,0.1-0.1,0.2-0.3,0.1l-1.7-0.3c-0.1,0-0.2-0.1-0.2-0.2l0-0.1c-0.3,0-0.6,0-0.8-0.1v0.1c0,0.1-0.1,0.2-0.3,0.2l-1.7,0
			c-0.1,0-0.3-0.1-0.3-0.2l0-0.1c-0.3,0-0.5,0-0.8,0.1l0,0.1c0,0.1-0.1,0.2-0.2,0.2l-1.7,0.3c-0.1,0-0.3,0-0.3-0.1l0-0.1
			c-0.3,0.1-0.5,0.1-0.8,0.2l0,0.1c0,0.1,0,0.2-0.2,0.3l-1.6,0.5c-0.1,0-0.3,0-0.3-0.1l0-0.1c-0.3,0.1-0.5,0.2-0.8,0.3l0,0.1
			c0,0.1,0,0.2-0.1,0.3l-1.5,0.8c-0.1,0.1-0.3,0-0.3-0.1l0-0.1c-0.2,0.1-0.5,0.3-0.7,0.4l0.1,0.1c0.1,0.1,0,0.2-0.1,0.3l-1.4,1
			c-0.1,0.1-0.3,0.1-0.3,0l-0.1-0.1c-0.2,0.2-0.4,0.4-0.6,0.5l0.1,0.1c0.1,0.1,0.1,0.2,0,0.3L40,41.2c-0.1,0.1-0.2,0.1-0.3,0
			l-0.1-0.1c-0.2,0.2-0.4,0.4-0.5,0.6l0.1,0.1c0.1,0.1,0.1,0.2,0,0.3l-1,1.4c-0.1,0.1-0.2,0.2-0.3,0.1l-0.1-0.1
			c-0.1,0.2-0.3,0.5-0.4,0.7l0.1,0c0.1,0,0.1,0.2,0.1,0.3l-0.8,1.5c-0.1,0.1-0.2,0.2-0.3,0.1l-0.1,0c-0.1,0.2-0.2,0.5-0.3,0.8l0.1,0
			c0.1,0,0.1,0.2,0.1,0.3l-0.5,1.6c0,0.1-0.2,0.2-0.3,0.2l-0.1,0c-0.1,0.3-0.1,0.5-0.2,0.8l0.1,0c0.1,0,0.2,0.1,0.1,0.3l-0.3,1.7
			c0,0.1-0.1,0.2-0.2,0.2l-0.1,0c0,0.3,0,0.6-0.1,0.8h0.1c0.1,0,0.2,0.1,0.2,0.3l0,1.7c0,0.1-0.1,0.3-0.2,0.3l-0.1,0
			c0,0.3,0,0.5,0.1,0.8l0.1,0c0.1,0,0.2,0.1,0.2,0.2l0.3,1.7c0,0.1,0,0.3-0.1,0.3l-0.1,0c0.1,0.3,0.1,0.5,0.2,0.8l0.1,0
			c0.1,0,0.2,0,0.3,0.2l0.5,1.6c0,0.1,0,0.3-0.1,0.3L36,61c0.1,0.3,0.2,0.5,0.3,0.8l0.1,0c0.1,0,0.2,0,0.3,0.1l0.8,1.5
			c0.1,0.1,0,0.3-0.1,0.3l-0.1,0c0.1,0.2,0.3,0.5,0.4,0.7l0.1-0.1c0.1-0.1,0.2,0,0.3,0.1l1,1.4c0.1,0.1,0.1,0.3,0,0.3l-0.1,0.1
			c0.2,0.2,0.4,0.4,0.5,0.6l0.1-0.1c0.1-0.1,0.2-0.1,0.3,0l1.2,1.2c0.1,0.1,0.1,0.2,0,0.3l-0.1,0.1c0.2,0.2,0.4,0.4,0.6,0.5l0.1-0.1
			c0.1-0.1,0.2-0.1,0.3,0l1.4,1c0.1,0.1,0.2,0.2,0.1,0.3l-0.1,0.1c0.2,0.1,0.5,0.3,0.7,0.4l0-0.1c0-0.1,0.2-0.1,0.3-0.1l1.5,0.8
			c0.1,0.1,0.2,0.2,0.1,0.3l0,0.1c0.2,0.1,0.5,0.2,0.8,0.3l0-0.1c0-0.1,0.2-0.1,0.3-0.1l1.6,0.5c0.1,0,0.2,0.2,0.2,0.3l0,0.1
			c0.3,0.1,0.5,0.1,0.8,0.2l0-0.1c0-0.1,0.1-0.2,0.3-0.1l1.7,0.3c0.1,0,0.2,0.1,0.2,0.2l0,0.1c0.3,0,0.5,0,0.8,0.1l0-0.1
			c0-0.1,0.1-0.2,0.3-0.2l1.7,0c0.1,0,0.3,0.1,0.3,0.2v0.1c0.2,0,0.5,0,0.8-0.1l0-0.1c0-0.1,0.1-0.2,0.2-0.2l1.7-0.3
			c0.1,0,0.3,0,0.3,0.1l0,0.1c0.3-0.1,0.5-0.1,0.8-0.2l0-0.1c0-0.1,0-0.2,0.2-0.3l1.6-0.5c0.1,0,0.3,0,0.3,0.1l0,0.1
			c0.3-0.1,0.5-0.2,0.8-0.3l0-0.1c0-0.1,0-0.2,0.1-0.3l1.5-0.8c0.1-0.1,0.3,0,0.3,0.1l0,0.1c0.2-0.1,0.5-0.3,0.7-0.4l-0.1-0.1
			c-0.1-0.1,0-0.2,0.1-0.3l1.4-1c0.1-0.1,0.3-0.1,0.3,0l0.1,0.1c0.2-0.2,0.4-0.4,0.6-0.5l-0.1-0.1c-0.1-0.1-0.1-0.2,0-0.3l1.2-1.2
			c0.1-0.1,0.2-0.1,0.3,0l0.1,0.1c0.2-0.2,0.4-0.4,0.5-0.6l-0.1-0.1c-0.1-0.1-0.1-0.2,0-0.3l1-1.4c0.1-0.1,0.2-0.2,0.3-0.1l0.1,0.1
			c0.1-0.2,0.3-0.5,0.4-0.7l-0.1,0c-0.1,0-0.1-0.2-0.1-0.3l0.8-1.5c0.1-0.1,0.2-0.2,0.3-0.1l0.1,0c0.1-0.2,0.2-0.5,0.3-0.8l-0.1,0
			c-0.1,0-0.1-0.2-0.1-0.3l0.5-1.6c0-0.1,0.2-0.2,0.3-0.2l0.1,0c0.1-0.3,0.1-0.5,0.2-0.8l-0.1,0c-0.1,0-0.2-0.1-0.1-0.3l0.3-1.7
			c0-0.1,0.1-0.2,0.2-0.2l0.1,0c0-0.3,0-0.5,0.1-0.8l-0.1,0C73,55.1,72.9,55,72.9,54.8z M54,72.4c-10.2,0-18.4-8.2-18.4-18.4
			c0-10.2,8.2-18.4,18.4-18.4c10.2,0,18.4,8.2,18.4,18.4C72.4,64.2,64.2,72.4,54,72.4z"/>
		<path class="st0" d="M51.7,75.3c-0.1-0.1-0.1-0.1-0.2-0.2c-0.1,0-0.2-0.1-0.3-0.1c-0.1,0-0.2,0-0.3,0c-0.1,0-0.2,0.1-0.2,0.1
			c-0.1,0.1-0.1,0.1-0.2,0.2c-0.1,0.1-0.1,0.2-0.1,0.4l0,0.3c0,0.1,0,0.3,0,0.4c0,0.1,0.1,0.2,0.1,0.3c0.1,0.1,0.1,0.1,0.2,0.2
			c0.1,0,0.2,0.1,0.3,0.1c0.1,0,0.2,0,0.3,0c0.1,0,0.2-0.1,0.2-0.1c0.1-0.1,0.1-0.1,0.2-0.2c0.1-0.1,0.1-0.2,0.1-0.4l0-0.3
			c0-0.1,0-0.3,0-0.4C51.8,75.5,51.8,75.4,51.7,75.3z"/>
		<path class="st0" d="M42.3,73.3c0,0.1,0,0.1,0,0.1c0,0,0,0.1,0,0.1c0,0,0,0.1,0,0.1c0,0,0,0.1,0,0.2c0,0,0.1-0.1,0.1-0.1
			c0,0,0.1-0.1,0.1-0.1c0,0,0.1-0.1,0.1-0.1c0,0,0.1-0.1,0.1-0.1l0.5-0.4l-0.7-0.4L42.3,73.3z"/>
		<path class="st0" d="M48.2,75.7c-0.1,0.1-0.2,0.1-0.2,0.3l0,0.1c0,0.1,0,0.2,0.1,0.3c0.1,0.1,0.2,0.2,0.4,0.2l0.5,0.1l0.2-0.9
			l-0.5-0.1C48.4,75.6,48.3,75.6,48.2,75.7z"/>
		<path class="st0" d="M58.3,75.7c0-0.1-0.1-0.3-0.1-0.4c-0.1-0.1-0.1-0.2-0.2-0.2C57.9,75,57.8,75,57.7,75c-0.1,0-0.2,0-0.3,0
			c-0.1,0-0.2,0-0.3,0.1c-0.1,0-0.1,0.1-0.2,0.2c-0.1,0.1-0.1,0.2-0.1,0.3c0,0.1,0,0.2,0,0.4l0,0.3c0,0.1,0.1,0.3,0.1,0.4
			c0.1,0.1,0.1,0.2,0.2,0.2c0.1,0.1,0.2,0.1,0.2,0.1c0.1,0,0.2,0,0.3,0c0.1,0,0.2,0,0.3-0.1c0.1,0,0.1-0.1,0.2-0.2
			c0.1-0.1,0.1-0.2,0.1-0.3c0-0.1,0-0.2,0-0.4L58.3,75.7z"/>
		<path class="st0" d="M42.1,35c0-0.1,0-0.2-0.1-0.3l0-0.1c-0.1-0.1-0.2-0.2-0.3-0.2c-0.1,0-0.2,0-0.4,0.1l-0.5,0.3l0.5,0.8l0.4-0.3
			C42,35.2,42.1,35.1,42.1,35z"/>
		<path class="st0" d="M61.6,75.5L61.6,75.5c0.1,0.2,0.2,0.3,0.3,0.3c0.1,0,0.3,0,0.4,0l0.5-0.2l-0.3-0.9L62,74.8
			C61.6,75,61.5,75.2,61.6,75.5z"/>
		<path class="st0" d="M65.8,73.1c0,0.1,0,0.2,0.1,0.3l0,0.1c0.1,0.1,0.2,0.2,0.3,0.2c0.1,0,0.2,0,0.4-0.1l0.5-0.3l-0.5-0.8
			l-0.4,0.3C66,72.9,65.9,73,65.8,73.1z"/>
		<path class="st0" d="M49.6,32.3c0,0.1,0.1,0.3,0.1,0.4c0.1,0.1,0.1,0.2,0.2,0.2C50,33,50.1,33,50.2,33c0.1,0,0.2,0,0.3,0
			c0.1,0,0.2,0,0.3-0.1c0.1,0,0.1-0.1,0.2-0.2c0.1-0.1,0.1-0.2,0.1-0.3c0-0.1,0-0.2,0-0.4L51,31.8c0-0.1-0.1-0.3-0.1-0.4
			c-0.1-0.1-0.1-0.2-0.2-0.2c-0.1-0.1-0.2-0.1-0.3-0.1c-0.1,0-0.2,0-0.3,0c-0.1,0-0.2,0-0.3,0.1c-0.1,0-0.1,0.1-0.2,0.2
			c-0.1,0.1-0.1,0.2-0.1,0.3c0,0.1,0,0.2,0,0.4L49.6,32.3z"/>
		<path class="st0" d="M46.3,32.6L46.3,32.6c-0.1-0.2-0.2-0.3-0.3-0.3c-0.1,0-0.3,0-0.4,0l-0.5,0.2l0.4,0.9l0.5-0.2
			C46.3,33.1,46.5,32.9,46.3,32.6z"/>
		<path class="st0" d="M56.2,32.6c0.1,0.1,0.1,0.1,0.2,0.2c0.1,0,0.2,0.1,0.3,0.1c0.1,0,0.2,0,0.3,0c0.1,0,0.2-0.1,0.2-0.1
			c0.1-0.1,0.1-0.1,0.2-0.2c0-0.1,0.1-0.2,0.1-0.4l0-0.3c0-0.2,0-0.3,0-0.4c0-0.1-0.1-0.2-0.1-0.3c-0.1-0.1-0.1-0.1-0.2-0.2
			c-0.1,0-0.2-0.1-0.3-0.1c-0.1,0-0.2,0-0.3,0c-0.1,0-0.2,0.1-0.2,0.1c-0.1,0.1-0.1,0.1-0.2,0.2c0,0.1-0.1,0.2-0.1,0.4l0,0.3
			c0,0.2,0,0.3,0,0.4C56.1,32.5,56.1,32.6,56.2,32.6z"/>
		<path class="st0" d="M33.3,44.5c0.1,0.1,0.2,0.2,0.3,0.2l0.3,0.1c0.1,0.1,0.3,0.1,0.4,0.1c0.1,0,0.2,0,0.3,0
			c0.1,0,0.2-0.1,0.2-0.1c0.1-0.1,0.1-0.1,0.2-0.2c0-0.1,0.1-0.2,0.1-0.3c0-0.1,0-0.2,0-0.3c0-0.1-0.1-0.2-0.2-0.3
			c-0.1-0.1-0.2-0.2-0.3-0.2l-0.3-0.1c-0.1-0.1-0.3-0.1-0.4-0.1c-0.1,0-0.2,0-0.3,0c-0.1,0-0.2,0.1-0.2,0.1
			c-0.1,0.1-0.1,0.1-0.2,0.2c0,0.1-0.1,0.2-0.1,0.3c0,0.1,0,0.2,0,0.3C33.2,44.3,33.2,44.4,33.3,44.5z"/>
		<path class="st0" d="M59.8,32.3c0.1-0.1,0.2-0.1,0.2-0.3l0-0.1c0-0.1,0-0.2-0.1-0.3c-0.1-0.1-0.2-0.2-0.4-0.2L59,31.3l-0.2,0.9
			l0.5,0.1C59.5,32.3,59.7,32.3,59.8,32.3z"/>
		<path class="st0" d="M33.3,48.5c0-0.1-0.1-0.2-0.2-0.2c-0.1-0.1-0.2-0.1-0.4-0.1l-0.3-0.1c-0.1,0-0.3,0-0.4,0
			c-0.1,0-0.2,0-0.3,0.1c-0.1,0.1-0.1,0.1-0.2,0.2c-0.1,0.1-0.1,0.2-0.1,0.3l-0.1,0.5l1.9,0.5l0.1-0.5c0-0.1,0-0.2,0-0.3
			C33.4,48.7,33.3,48.6,33.3,48.5z"/>
		<path class="st0" d="M54.1,29.1c-13.8,0-25,11.1-25.1,24.8c0,13.7,11.1,24.9,24.9,25c13.8,0,25-11.1,25.1-24.8
			C79,40.3,67.9,29.2,54.1,29.1z M77.2,49.3l-0.3,0.1l-0.3-1.3l-0.8,0.2l0.3,1.2l-0.3,0.1l-0.3-1.2l-0.8,0.2l0.3,1.3L74.7,50
			l-0.4-1.7l2.5-0.6L77.2,49.3z M76,45.3l-1.8,1.5l2.3,0l0.1,0.4l-2.8-0.1l-0.1-0.3l2.1-1.8L76,45.3z M75.6,44.5l-2.4,1.1l-0.2-0.3
			l2.4-1.1L75.6,44.5z M74.7,42.7l-2,1.1l0.6,1.1L73,45l-0.8-1.5l2.3-1.2L74.7,42.7z M71.9,39c0.1,0,0.3,0.1,0.4,0.1
			c0.1,0.1,0.2,0.2,0.3,0.3c0.1,0.1,0.2,0.3,0.2,0.4c0.1,0.1,0.1,0.3,0.1,0.5l-0.3,0c0-0.1,0-0.3-0.1-0.4c0-0.1-0.1-0.2-0.2-0.3
			c-0.1-0.2-0.3-0.3-0.5-0.3c-0.2,0-0.4,0.1-0.6,0.3L71,39.8c-0.2,0.2-0.4,0.4-0.4,0.6c0,0.2,0,0.4,0.2,0.6c0.1,0.1,0.1,0.2,0.2,0.2
			c0.1,0.1,0.1,0.1,0.2,0.1l0.6-0.5l-0.4-0.5l0.2-0.2l0.6,0.8l-1,0.8c-0.1,0-0.3-0.1-0.4-0.2c-0.1-0.1-0.2-0.2-0.4-0.4
			c-0.1-0.1-0.2-0.3-0.2-0.4c-0.1-0.1-0.1-0.3-0.1-0.4c0-0.1,0.1-0.3,0.1-0.4c0.1-0.1,0.2-0.3,0.3-0.4l0.3-0.2
			c0.1-0.1,0.3-0.2,0.4-0.2C71.6,39,71.8,39,71.9,39z M70.3,37l-0.5,2c0,0,0,0.1-0.1,0.2c0,0.1-0.1,0.1-0.1,0.2l1.5-1.5l0.2,0.2
			l-1.8,1.8l-0.3-0.3l0.5-2c0-0.1,0-0.1,0.1-0.2c0-0.1,0-0.1,0.1-0.2l-1.5,1.5l-0.2-0.2l1.8-1.8L70.3,37z M69.5,36.2l-1.7,2
			l-0.3-0.2l1.7-2L69.5,36.2z M67,34.2l0.3,0.2l-0.6,2.2l1.9-1.3l0.3,0.2l-2.4,1.5l-0.3-0.2L67,34.2z M66.1,33.8l-0.4,2.8l-0.3-0.2
			l0.1-0.8L64.6,35L64,35.5l-0.3-0.2l2.2-1.7L66.1,33.8z M62.2,34c0,0.1,0.1,0.1,0.1,0.2c0,0.1,0.1,0.1,0.1,0.2
			c0.1,0.1,0.1,0.1,0.2,0.1c0.1,0,0.1,0.1,0.2,0.1c0.2,0.1,0.3,0.1,0.4,0.1c0.1,0,0.2-0.1,0.2-0.2l0-0.1c0-0.1,0-0.1,0-0.2
			c0,0,0-0.1,0-0.1c0-0.1-0.1-0.1-0.1-0.2c-0.1-0.1-0.1-0.1-0.2-0.2c-0.1-0.1-0.2-0.2-0.3-0.2c-0.1-0.1-0.2-0.2-0.2-0.2
			c-0.1-0.1-0.1-0.2-0.1-0.3c0-0.1,0-0.2,0.1-0.3l0-0.1c0-0.1,0.1-0.2,0.2-0.2c0.1-0.1,0.2-0.1,0.2-0.1c0.1,0,0.2,0,0.3,0
			c0.1,0,0.3,0,0.4,0.1c0.2,0.1,0.3,0.1,0.4,0.2c0.1,0.1,0.2,0.2,0.3,0.3l-0.3,0.2c-0.1-0.1-0.1-0.2-0.2-0.3
			c-0.1-0.1-0.2-0.1-0.3-0.2c-0.2-0.1-0.3-0.1-0.4-0.1c-0.1,0-0.2,0.1-0.2,0.2l0,0.1c0,0.1,0,0.1,0,0.2c0,0,0,0.1,0.1,0.1
			c0,0,0.1,0.1,0.1,0.2c0.1,0.1,0.1,0.1,0.2,0.2c0.1,0.1,0.2,0.2,0.3,0.3c0.1,0.1,0.1,0.2,0.2,0.3c0,0.1,0.1,0.2,0,0.2
			c0,0.1,0,0.2-0.1,0.2l0,0.1c0,0.1-0.1,0.2-0.2,0.3C63.5,35,63.4,35,63.3,35c-0.1,0-0.2,0-0.3,0c-0.1,0-0.2-0.1-0.4-0.1
			c-0.2-0.1-0.3-0.2-0.4-0.3c-0.1-0.1-0.2-0.2-0.3-0.4L62.2,34z M58.7,30.9l1,0.2c0.1,0,0.2,0.1,0.3,0.1c0.1,0.1,0.2,0.1,0.2,0.2
			c0.1,0.1,0.1,0.2,0.1,0.3c0,0.1,0,0.2,0,0.3l0,0.1c0,0.1-0.1,0.3-0.2,0.4c-0.1,0.1-0.2,0.1-0.4,0.2l0.3,1.2l-0.4-0.1l-0.2-1.2
			l-0.6-0.2l-0.3,1.1l-0.4-0.1L58.7,30.9z M55.7,32l0-0.4c0-0.2,0.1-0.3,0.1-0.5c0.1-0.1,0.2-0.2,0.3-0.3c0.1-0.1,0.2-0.1,0.4-0.2
			c0.1,0,0.3,0,0.4,0c0.2,0,0.3,0.1,0.4,0.1c0.1,0.1,0.2,0.1,0.3,0.3c0.1,0.1,0.1,0.2,0.2,0.4c0,0.1,0,0.3,0,0.5l0,0.4
			c0,0.2-0.1,0.4-0.1,0.5c-0.1,0.1-0.2,0.2-0.3,0.3c-0.1,0.1-0.2,0.1-0.4,0.2c-0.1,0-0.3,0-0.4,0c-0.2,0-0.3-0.1-0.4-0.1
			C56.1,33,56,33,55.9,32.8c-0.1-0.1-0.1-0.2-0.2-0.4C55.7,32.3,55.7,32.1,55.7,32z M53.7,30.4l1.7,0l0,0.3l-1.3,0l0,0.9l1.2,0
			l0,0.3l-1.2,0l0,1.1l-0.4,0L53.7,30.4z M49.2,31.5c0-0.1,0.1-0.3,0.2-0.4c0.1-0.1,0.2-0.2,0.3-0.3c0.1-0.1,0.3-0.1,0.4-0.1
			c0.2,0,0.3,0,0.4,0c0.1,0,0.3,0.1,0.4,0.2c0.1,0.1,0.2,0.2,0.3,0.3c0.1,0.1,0.1,0.3,0.2,0.5l0.1,0.4c0,0.2,0,0.4,0,0.5
			c0,0.1-0.1,0.3-0.2,0.4c-0.1,0.1-0.2,0.2-0.3,0.3c-0.1,0.1-0.3,0.1-0.4,0.1c-0.2,0-0.3,0-0.4,0c-0.1,0-0.3-0.1-0.4-0.2
			c-0.1-0.1-0.2-0.2-0.3-0.3c-0.1-0.1-0.1-0.3-0.2-0.5L49.2,32C49.2,31.8,49.2,31.7,49.2,31.5z M48.6,31l0.1,0.3l-0.8,0.2l0.6,2.2
			l-0.4,0.1l-0.6-2.2l-0.8,0.2l-0.1-0.3L48.6,31z M45.6,32c0.1-0.1,0.3-0.1,0.4-0.1c0.1,0,0.2,0,0.3,0c0.1,0,0.2,0.1,0.2,0.2
			c0.1,0.1,0.1,0.2,0.2,0.3l0,0.1c0,0.1,0.1,0.2,0.1,0.3c0,0.1,0,0.2-0.1,0.3c0,0.1-0.1,0.2-0.2,0.3c-0.1,0.1-0.2,0.1-0.3,0.2
			l-0.6,0.2l0.4,0.9l-0.3,0.1l-0.9-2.4L45.6,32z M42.6,33.4l1.2,0.8l0.1-1.4l0.4-0.2l-0.1,1.8l0.5,0.9l-0.3,0.2l-0.5-0.9l-1.5-1
			L42.6,33.4z M41.2,34.2c0.1-0.1,0.2-0.1,0.3-0.2c0.1,0,0.2,0,0.3,0c0.1,0,0.2,0,0.3,0.1c0.1,0.1,0.1,0.1,0.2,0.2l0.1,0.1
			c0.1,0.1,0.1,0.3,0.1,0.4c0,0.1-0.1,0.3-0.1,0.4l1.1,0.7l-0.3,0.2l-1-0.6l-0.6,0.4l0.6,0.9L41.8,37l-1.4-2.2L41.2,34.2z
			 M38.7,36.4c0-0.1,0.1-0.3,0.1-0.4c0.1-0.1,0.2-0.2,0.3-0.3c0.1-0.1,0.3-0.2,0.4-0.3c0.1-0.1,0.3-0.1,0.4-0.1l0,0.3
			c-0.2,0-0.3,0-0.4,0.1c-0.1,0-0.2,0.1-0.3,0.2c-0.1,0.1-0.1,0.1-0.2,0.2c0,0.1-0.1,0.2-0.1,0.3c0,0.1,0,0.2,0.1,0.3
			c0,0.1,0.1,0.2,0.2,0.3l0.2,0.2c0.1,0.1,0.2,0.2,0.3,0.3c0.1,0.1,0.2,0.1,0.3,0.1c0.1,0,0.2,0,0.3,0c0.1,0,0.2-0.1,0.3-0.1
			c0.1-0.1,0.2-0.2,0.3-0.3C41,37.1,41,37,41,36.8l0.3,0.1c0,0.2-0.1,0.3-0.2,0.5c-0.1,0.1-0.2,0.3-0.4,0.4
			c-0.1,0.1-0.3,0.2-0.4,0.2c-0.1,0-0.3,0.1-0.4,0.1c-0.1,0-0.3-0.1-0.4-0.1c-0.1-0.1-0.3-0.2-0.4-0.3L39,37.3
			c-0.1-0.1-0.2-0.3-0.3-0.4C38.7,36.7,38.7,36.6,38.7,36.4z M37.9,38.5l0.3,0.3l-0.3,0.3l-0.3-0.3L37.9,38.5z M34.5,40.8l2,0.2
			c0.1,0,0.1,0,0.2,0c0.1,0,0.2,0,0.2,0l-1.7-1.2l0.2-0.3l2.1,1.5l-0.2,0.3l-2-0.2c-0.1,0-0.1,0-0.2,0c-0.1,0-0.1,0-0.2,0l1.7,1.2
			l-0.2,0.3l-2.1-1.5L34.5,40.8z M33.9,41.7l2.2,1.3L36,43.4L33.8,42L33.9,41.7z M32.8,43.9c0-0.1,0.1-0.3,0.1-0.4
			c0.1-0.1,0.2-0.3,0.3-0.4c0.1-0.1,0.2-0.2,0.3-0.2c0.1,0,0.3-0.1,0.4,0c0.2,0,0.3,0.1,0.5,0.1l0.4,0.2c0.2,0.1,0.3,0.2,0.4,0.3
			c0.1,0.1,0.2,0.2,0.2,0.4c0,0.1,0.1,0.3,0,0.4c0,0.1-0.1,0.3-0.1,0.4c-0.1,0.1-0.2,0.3-0.3,0.4c-0.1,0.1-0.2,0.2-0.3,0.2
			c-0.1,0-0.3,0.1-0.4,0c-0.2,0-0.3-0.1-0.5-0.2L33.4,45c-0.2-0.1-0.3-0.2-0.4-0.3c-0.1-0.1-0.2-0.2-0.2-0.4
			C32.8,44.2,32.8,44.1,32.8,43.9z M31.9,45.9c0.1-0.2,0.1-0.3,0.2-0.4c0.1-0.1,0.2-0.2,0.3-0.3l0.2,0.3c-0.1,0.1-0.2,0.2-0.3,0.3
			c-0.1,0.1-0.1,0.2-0.2,0.3c0,0.1-0.1,0.2,0,0.3c0,0.1,0,0.2,0.1,0.3c0,0.1,0.1,0.2,0.2,0.2c0.1,0.1,0.2,0.1,0.3,0.2l0.3,0.1
			c0.1,0.1,0.3,0.1,0.4,0.1c0.1,0,0.2,0,0.3,0c0.1,0,0.2-0.1,0.2-0.2c0.1-0.1,0.1-0.2,0.1-0.2c0-0.1,0.1-0.3,0.1-0.4
			c0-0.1,0-0.3-0.1-0.4l0.3-0.1c0.1,0.2,0.1,0.3,0.1,0.5c0,0.2,0,0.3-0.1,0.5c-0.1,0.2-0.1,0.3-0.2,0.4c-0.1,0.1-0.2,0.2-0.3,0.2
			c-0.1,0.1-0.3,0.1-0.4,0.1c-0.2,0-0.3,0-0.5-0.1l-0.4-0.1c-0.2-0.1-0.3-0.1-0.4-0.2c-0.1-0.1-0.2-0.2-0.3-0.3
			c-0.1-0.1-0.1-0.3-0.1-0.4C31.8,46.2,31.8,46,31.9,45.9z M31.1,48.6c0.1-0.4,0.2-0.6,0.5-0.8c0.2-0.1,0.5-0.2,0.9-0.1l0.4,0.1
			c0.4,0.1,0.6,0.2,0.7,0.5c0.1,0.2,0.2,0.5,0.1,0.9L33.4,50l-2.5-0.6L31.1,48.6z M30.7,51c0-0.2,0.1-0.3,0.1-0.4
			c0.1-0.1,0.1-0.2,0.2-0.4l0.3,0.2c-0.1,0.1-0.1,0.2-0.2,0.3c0,0.1-0.1,0.2-0.1,0.3c0,0.2,0,0.3,0.1,0.4c0.1,0.1,0.1,0.2,0.2,0.2
			l0.1,0c0.1,0,0.1,0,0.2,0c0,0,0.1-0.1,0.1-0.1c0,0,0.1-0.1,0.1-0.2c0-0.1,0.1-0.2,0.1-0.3c0.1-0.2,0.1-0.3,0.2-0.4
			c0.1-0.1,0.1-0.2,0.2-0.2c0.1-0.1,0.1-0.1,0.2-0.1c0.1,0,0.2,0,0.2,0l0.1,0c0.1,0,0.2,0.1,0.3,0.1c0.1,0.1,0.1,0.1,0.2,0.2
			c0.1,0.1,0.1,0.2,0.1,0.3c0,0.1,0,0.3,0,0.4c0,0.2-0.1,0.4-0.2,0.5c-0.1,0.2-0.2,0.3-0.3,0.4L32.6,52c0,0,0.1-0.1,0.1-0.2
			c0-0.1,0.1-0.1,0.1-0.2c0-0.1,0.1-0.1,0.1-0.2c0-0.1,0-0.1,0-0.2c0-0.2,0-0.3-0.1-0.4c-0.1-0.1-0.1-0.2-0.2-0.2l-0.1,0
			c-0.1,0-0.1,0-0.2,0c0,0-0.1,0-0.1,0.1c0,0-0.1,0.1-0.1,0.2c0,0.1-0.1,0.2-0.1,0.3c0,0.1-0.1,0.2-0.1,0.3c0,0.1-0.1,0.2-0.2,0.3
			c-0.1,0.1-0.1,0.1-0.2,0.2c-0.1,0-0.2,0-0.3,0l-0.1,0c-0.1,0-0.2,0-0.2-0.1c-0.1,0-0.1-0.1-0.2-0.2c-0.1-0.1-0.1-0.2-0.1-0.3
			C30.6,51.3,30.6,51.1,30.7,51z M32.1,53.7l0,0.4l-0.4,0l0-0.4L32.1,53.7z M30.6,56.9c0-0.2,0-0.3,0-0.5c0-0.1,0.1-0.3,0.1-0.4
			l0.3,0.1C31,56.3,31,56.4,31,56.5c0,0.1,0,0.2,0,0.3c0,0.2,0.1,0.3,0.2,0.4c0.1,0.1,0.2,0.1,0.3,0.1l0.1,0c0.1,0,0.1,0,0.1-0.1
			c0,0,0.1-0.1,0.1-0.1c0-0.1,0-0.1,0.1-0.2c0-0.1,0-0.2,0-0.3c0-0.2,0-0.3,0.1-0.4c0-0.1,0.1-0.2,0.1-0.3c0.1-0.1,0.1-0.1,0.2-0.2
			c0.1,0,0.1-0.1,0.2-0.1l0.1,0c0.1,0,0.2,0,0.3,0c0.1,0,0.2,0.1,0.2,0.2c0.1,0.1,0.1,0.2,0.2,0.3c0,0.1,0.1,0.2,0.1,0.4
			c0,0.2,0,0.4,0,0.5c0,0.2-0.1,0.3-0.2,0.4l-0.3-0.1c0-0.1,0.1-0.1,0.1-0.2c0-0.1,0-0.1,0.1-0.2c0-0.1,0-0.1,0-0.2
			c0-0.1,0-0.1,0-0.2c0-0.2-0.1-0.3-0.2-0.4c-0.1-0.1-0.2-0.1-0.3-0.1l-0.1,0c-0.1,0-0.1,0-0.1,0c0,0-0.1,0.1-0.1,0.1
			c0,0.1-0.1,0.1-0.1,0.2c0,0.1,0,0.2,0,0.3c0,0.1,0,0.3,0,0.4c0,0.1-0.1,0.2-0.1,0.3c0,0.1-0.1,0.2-0.2,0.2
			c-0.1,0.1-0.2,0.1-0.3,0.1l-0.1,0c-0.1,0-0.2,0-0.3,0c-0.1,0-0.2-0.1-0.2-0.1c-0.1-0.1-0.1-0.2-0.2-0.3
			C30.7,57.2,30.7,57.1,30.6,56.9z M30.9,58.4l0.3-0.1l0.3,1.3l0.8-0.2L32,58.3l0.3-0.1l0.3,1.2l0.8-0.2l-0.3-1.3l0.3-0.1l0.4,1.7
			l-2.5,0.6L30.9,58.4z M32,62.4l1.8-1.4l-2.3-0.1l-0.1-0.4l2.8,0.1l0.1,0.3l-2.1,1.8L32,62.4z M32.4,63.2l2.4-1l0.1,0.3l-2.4,1
			L32.4,63.2z M33.3,65.1l2-1.1l-0.6-1.1l0.3-0.1l0.8,1.5l-2.3,1.2L33.3,65.1z M36.1,68.8c-0.1,0-0.3-0.1-0.4-0.1
			c-0.1-0.1-0.2-0.2-0.3-0.3c-0.1-0.1-0.2-0.3-0.2-0.4C35,67.8,35,67.6,35,67.5l0.3,0c0,0.1,0,0.3,0.1,0.4c0,0.1,0.1,0.2,0.2,0.3
			c0.1,0.2,0.3,0.3,0.5,0.3c0.2,0,0.4-0.1,0.6-0.2L37,68c0.2-0.2,0.4-0.4,0.4-0.6c0-0.2,0-0.4-0.2-0.6c-0.1-0.1-0.1-0.2-0.2-0.2
			c-0.1-0.1-0.1-0.1-0.2-0.1L36.2,67l0.4,0.5l-0.2,0.2l-0.6-0.8l1-0.8c0.1,0,0.3,0.1,0.4,0.2c0.1,0.1,0.2,0.2,0.3,0.4
			c0.1,0.1,0.2,0.3,0.2,0.4c0.1,0.1,0.1,0.3,0.1,0.4c0,0.1-0.1,0.3-0.1,0.4c-0.1,0.1-0.2,0.3-0.3,0.4l-0.3,0.2
			c-0.1,0.1-0.3,0.2-0.4,0.2C36.4,68.8,36.2,68.9,36.1,68.8z M37.6,70.9l0.5-2c0,0,0-0.1,0.1-0.2c0-0.1,0.1-0.1,0.1-0.2L36.8,70
			l-0.2-0.2l1.9-1.8l0.3,0.3l-0.5,2c0,0.1,0,0.1-0.1,0.2c0,0.1-0.1,0.1-0.1,0.2l1.5-1.5l0.2,0.2l-1.9,1.8L37.6,70.9z M38.4,71.6
			l1.7-2l0.3,0.2l-1.7,2L38.4,71.6z M41,73.6l-0.3-0.2l0.7-2.2l-1.9,1.2l-0.3-0.2l2.4-1.5l0.3,0.2L41,73.6z M41.8,74.1l0.5-2.7
			l0.3,0.2l-0.1,0.8l0.9,0.5l0.6-0.5l0.3,0.2l-2.2,1.7L41.8,74.1z M45.7,73.8c0-0.1-0.1-0.1-0.1-0.2c0-0.1-0.1-0.1-0.1-0.2
			c-0.1-0.1-0.1-0.1-0.2-0.1c-0.1,0-0.1-0.1-0.2-0.1c-0.2-0.1-0.3-0.1-0.4-0.1c-0.1,0-0.2,0.1-0.2,0.2l0,0.1c0,0.1,0,0.1,0,0.1
			c0,0,0,0.1,0,0.1c0,0.1,0.1,0.1,0.1,0.2c0.1,0.1,0.1,0.1,0.2,0.2c0.1,0.1,0.2,0.2,0.3,0.2c0.1,0.1,0.2,0.2,0.2,0.2
			c0,0.1,0.1,0.2,0.1,0.3c0,0.1,0,0.2-0.1,0.3l0,0.1c0,0.1-0.1,0.2-0.2,0.2c-0.1,0.1-0.2,0.1-0.2,0.1c-0.1,0-0.2,0-0.3,0
			c-0.1,0-0.3-0.1-0.4-0.1c-0.1-0.1-0.3-0.1-0.4-0.2c-0.1-0.1-0.2-0.2-0.3-0.3l0.3-0.2c0.1,0.1,0.1,0.2,0.2,0.3
			c0.1,0.1,0.2,0.1,0.3,0.2c0.2,0.1,0.3,0.1,0.4,0.1c0.1,0,0.2-0.1,0.2-0.2l0-0.1c0-0.1,0-0.1,0-0.2c0,0,0-0.1-0.1-0.1
			c0-0.1-0.1-0.1-0.1-0.2c-0.1-0.1-0.1-0.1-0.2-0.2c-0.1-0.1-0.2-0.2-0.3-0.3c-0.1-0.1-0.1-0.2-0.2-0.3c0-0.1-0.1-0.2,0-0.2
			c0-0.1,0-0.2,0.1-0.2l0-0.1c0.1-0.1,0.1-0.2,0.2-0.3c0.1-0.1,0.2-0.1,0.3-0.1c0.1,0,0.2,0,0.3,0c0.1,0,0.2,0.1,0.4,0.1
			c0.2,0.1,0.3,0.2,0.4,0.3c0.1,0.1,0.2,0.2,0.3,0.4L45.7,73.8z M49.2,77.1l-0.9-0.2c-0.1,0-0.2-0.1-0.3-0.1
			c-0.1-0.1-0.2-0.1-0.2-0.2c-0.1-0.1-0.1-0.2-0.1-0.3c0-0.1,0-0.2,0-0.3l0-0.1c0-0.1,0.1-0.3,0.2-0.3c0.1-0.1,0.2-0.1,0.4-0.2
			L48,74.1l0.4,0.1l0.2,1.2l0.6,0.2l0.3-1.1l0.4,0.1L49.2,77.1z M52.2,76l-0.1,0.4c0,0.2-0.1,0.3-0.1,0.5c-0.1,0.1-0.2,0.2-0.3,0.3
			c-0.1,0.1-0.2,0.1-0.4,0.2c-0.1,0-0.3,0-0.4,0c-0.2,0-0.3-0.1-0.4-0.1c-0.1-0.1-0.2-0.2-0.3-0.3c-0.1-0.1-0.1-0.2-0.2-0.4
			c0-0.1,0-0.3,0-0.5l0.1-0.4c0-0.2,0.1-0.4,0.1-0.5c0.1-0.1,0.2-0.2,0.3-0.3c0.1-0.1,0.2-0.1,0.4-0.2c0.1,0,0.3,0,0.4,0
			c0.2,0,0.3,0.1,0.4,0.1c0.1,0.1,0.2,0.1,0.3,0.3c0.1,0.1,0.1,0.2,0.2,0.4C52.2,75.6,52.2,75.8,52.2,76z M54.2,77.6l-1.7,0l0-0.3
			l1.3,0l0-0.9l-1.2,0l0-0.3l1.2,0l0-1.1l0.4,0L54.2,77.6z M58.7,76.5c0,0.1-0.1,0.3-0.2,0.4c-0.1,0.1-0.2,0.2-0.3,0.3
			c-0.1,0.1-0.3,0.1-0.4,0.1c-0.2,0-0.3,0-0.4,0c-0.1,0-0.3-0.1-0.4-0.2c-0.1-0.1-0.2-0.2-0.3-0.3c-0.1-0.1-0.1-0.3-0.2-0.5
			l-0.1-0.4c0-0.2,0-0.4,0-0.5c0-0.1,0.1-0.3,0.2-0.4c0.1-0.1,0.2-0.2,0.3-0.3c0.1-0.1,0.3-0.1,0.4-0.1c0.2,0,0.3,0,0.4,0
			c0.1,0,0.3,0.1,0.4,0.2c0.1,0.1,0.2,0.2,0.3,0.3c0.1,0.1,0.1,0.3,0.2,0.5l0.1,0.4C58.8,76.2,58.8,76.3,58.7,76.5z M59.3,77
			l-0.1-0.3l0.8-0.2l-0.6-2.2l0.4-0.1l0.6,2.2l0.8-0.2l0.1,0.3L59.3,77z M62.4,76c-0.1,0.1-0.3,0.1-0.4,0.1c-0.1,0-0.2,0-0.3,0
			c-0.1,0-0.2-0.1-0.2-0.2c-0.1-0.1-0.1-0.2-0.2-0.3l0-0.1c0-0.1-0.1-0.2-0.1-0.3c0-0.1,0-0.2,0.1-0.3c0-0.1,0.1-0.2,0.2-0.3
			c0.1-0.1,0.2-0.1,0.3-0.2l0.6-0.2L62,73.4l0.3-0.1l0.9,2.4L62.4,76z M65.3,74.7l-1.2-0.8l-0.1,1.4l-0.4,0.2l0.1-1.8l-0.5-0.9
			l0.3-0.2l0.5,0.9l1.5,1L65.3,74.7z M66.7,73.8c-0.1,0.1-0.2,0.1-0.3,0.2c-0.1,0-0.2,0-0.3,0c-0.1,0-0.2,0-0.3-0.1
			c-0.1-0.1-0.1-0.1-0.2-0.2l-0.1-0.1c-0.1-0.1-0.1-0.3-0.1-0.4c0-0.1,0.1-0.3,0.1-0.4l-1.1-0.7l0.3-0.2l1,0.6l0.6-0.4l-0.6-0.9
			l0.3-0.2l1.4,2.2L66.7,73.8z M69.2,71.7c0,0.1-0.1,0.3-0.1,0.4c-0.1,0.1-0.2,0.2-0.3,0.3c-0.1,0.1-0.3,0.2-0.4,0.3
			c-0.1,0.1-0.3,0.1-0.4,0.1l0-0.3c0.2,0,0.3,0,0.4-0.1c0.1,0,0.2-0.1,0.3-0.2c0.1-0.1,0.1-0.1,0.2-0.2c0-0.1,0.1-0.2,0.1-0.3
			c0-0.1,0-0.2-0.1-0.3c0-0.1-0.1-0.2-0.2-0.3l-0.2-0.2c-0.1-0.1-0.2-0.2-0.3-0.3c-0.1-0.1-0.2-0.1-0.3-0.1c-0.1,0-0.2,0-0.3,0
			c-0.1,0-0.2,0.1-0.3,0.1c-0.1,0.1-0.2,0.2-0.3,0.3c-0.1,0.1-0.1,0.2-0.1,0.4l-0.3-0.1c0-0.2,0.1-0.3,0.2-0.5s0.2-0.3,0.4-0.4
			c0.1-0.1,0.3-0.2,0.4-0.2c0.1,0,0.3-0.1,0.4,0c0.1,0,0.3,0.1,0.4,0.1c0.1,0.1,0.3,0.2,0.4,0.3l0.2,0.3c0.1,0.1,0.2,0.3,0.3,0.4
			C69.2,71.4,69.3,71.5,69.2,71.7z M69.2,66.4L69,66.3c-0.2,0.2-0.4,0.4-0.5,0.6l0.1,0.1c0.1,0.1,0.1,0.2,0,0.3l-1.2,1.2
			c-0.1,0.1-0.2,0.1-0.3,0l-0.1-0.1c-0.2,0.2-0.4,0.4-0.6,0.6l0.1,0.1c0.1,0.1,0,0.2-0.1,0.3l-1.4,1c-0.1,0.1-0.3,0.1-0.3,0
			l-0.1-0.1c-0.2,0.2-0.5,0.3-0.7,0.4l0.1,0.1c0,0.1,0,0.2-0.1,0.3L62.2,72c-0.1,0.1-0.3,0-0.3-0.1l-0.1-0.1
			c-0.3,0.1-0.5,0.2-0.8,0.3l0.1,0.2c0,0.1,0,0.2-0.2,0.3L59.3,73c-0.1,0-0.3,0-0.3-0.1l-0.1-0.2c-0.3,0.1-0.5,0.1-0.8,0.2l0,0.2
			c0,0.1-0.1,0.2-0.2,0.2l-1.7,0.3c-0.1,0-0.3,0-0.3-0.1l0-0.2c-0.3,0-0.6,0-0.8,0.1l0,0.2c0,0.1-0.1,0.2-0.3,0.2l-1.7,0
			c-0.1,0-0.3-0.1-0.3-0.2l0-0.2c-0.3,0-0.6,0-0.8-0.1l0,0.2c0,0.1-0.1,0.2-0.3,0.1l-1.7-0.3c-0.1,0-0.2-0.1-0.2-0.2l0-0.2
			c-0.3-0.1-0.5-0.1-0.8-0.2L49,72.9c0,0.1-0.2,0.1-0.3,0.1l-1.6-0.5c-0.1,0-0.2-0.2-0.2-0.3l0.1-0.2c-0.3-0.1-0.5-0.2-0.8-0.3
			l-0.1,0.1c0,0.1-0.2,0.1-0.3,0.1l-1.5-0.8c-0.1-0.1-0.2-0.2-0.1-0.3l0.1-0.1c-0.2-0.1-0.5-0.3-0.7-0.4l-0.1,0.1
			c-0.1,0.1-0.2,0.1-0.3,0l-1.4-1c-0.1-0.1-0.2-0.2-0.1-0.3l0.1-0.1c-0.2-0.2-0.4-0.4-0.6-0.6l-0.1,0.1c-0.1,0.1-0.2,0.1-0.3,0
			l-1.2-1.2c-0.1-0.1-0.1-0.2,0-0.3l0.1-0.1c-0.2-0.2-0.4-0.4-0.5-0.6l-0.1,0.1c-0.1,0.1-0.2,0-0.3-0.1l-1-1.4
			c-0.1-0.1-0.1-0.3,0-0.3l0.1-0.1c-0.2-0.2-0.3-0.5-0.4-0.7l-0.1,0.1c-0.1,0-0.2,0-0.3-0.1L36,62.2c-0.1-0.1,0-0.3,0.1-0.3l0.1-0.1
			c-0.1-0.3-0.2-0.5-0.3-0.8l-0.2,0.1c-0.1,0-0.2,0-0.3-0.2L35,59.3c0-0.1,0-0.3,0.1-0.3l0.2-0.1c-0.1-0.3-0.1-0.5-0.2-0.8l-0.2,0
			c-0.1,0-0.2-0.1-0.2-0.2l-0.3-1.7c0-0.1,0-0.3,0.1-0.3l0.2,0c0-0.3,0-0.6-0.1-0.8l-0.2,0c-0.1,0-0.2-0.1-0.2-0.3l0-1.7
			c0-0.1,0.1-0.3,0.2-0.3h0.2c0-0.2,0-0.6,0.1-0.8l-0.2,0c-0.1,0-0.2-0.1-0.1-0.3l0.3-1.7c0-0.1,0.1-0.2,0.2-0.2l0.2,0
			c0.1-0.3,0.1-0.5,0.2-0.8L35.1,49c-0.1,0-0.1-0.2-0.1-0.3l0.5-1.6c0-0.1,0.2-0.2,0.3-0.2l0.2,0.1c0.1-0.3,0.2-0.5,0.3-0.8
			l-0.1-0.1C36,46,36,45.9,36,45.8l0.8-1.5c0.1-0.1,0.2-0.2,0.3-0.1l0.1,0.1c0.1-0.2,0.3-0.5,0.4-0.7l-0.1-0.1
			c-0.1-0.1-0.1-0.2,0-0.3l1-1.4c0.1-0.1,0.2-0.2,0.3-0.1l0.1,0.1c0.2-0.2,0.4-0.4,0.5-0.6l-0.1-0.1c-0.1-0.1-0.1-0.2,0-0.3l1.2-1.2
			c0.1-0.1,0.2-0.1,0.3,0l0.1,0.1c0.2-0.2,0.4-0.4,0.6-0.6l-0.1-0.1c-0.1-0.1,0-0.2,0.1-0.3l1.4-1c0.1-0.1,0.3-0.1,0.3,0l0.1,0.1
			c0.2-0.2,0.5-0.3,0.7-0.4l-0.1-0.1c0-0.1,0-0.2,0.1-0.3l1.5-0.8c0.1-0.1,0.3,0,0.3,0.1l0.1,0.1c0.3-0.1,0.5-0.2,0.8-0.3l-0.1-0.2
			c0-0.1,0-0.2,0.2-0.3l1.6-0.5c0.1,0,0.3,0,0.3,0.1l0.1,0.2c0.3-0.1,0.5-0.1,0.8-0.2l0-0.2c0-0.1,0.1-0.2,0.2-0.2l1.7-0.3
			c0.1,0,0.3,0,0.3,0.1l0,0.2c0.3,0,0.6,0,0.8-0.1l0-0.2c0-0.1,0.1-0.2,0.3-0.2l1.7,0c0.1,0,0.3,0.1,0.3,0.2l0,0.2
			c0.3,0,0.6,0,0.8,0.1l0-0.2c0-0.1,0.1-0.2,0.3-0.1l1.7,0.3c0.1,0,0.2,0.1,0.2,0.2l0,0.2c0.3,0.1,0.5,0.1,0.8,0.2L59,35
			c0-0.1,0.2-0.1,0.3-0.1l1.6,0.5c0.1,0,0.2,0.2,0.2,0.3L61,35.9c0.3,0.1,0.5,0.2,0.8,0.3l0.1-0.1c0-0.1,0.2-0.1,0.3-0.1l1.5,0.8
			c0.1,0.1,0.2,0.2,0.1,0.3l-0.1,0.1c0.2,0.1,0.5,0.3,0.7,0.4l0.1-0.1c0.1-0.1,0.2-0.1,0.3,0l1.4,1c0.1,0.1,0.2,0.2,0.1,0.3
			l-0.1,0.1c0.2,0.2,0.4,0.4,0.6,0.5l0.1-0.1c0.1-0.1,0.2-0.1,0.3,0l1.2,1.2c0.1,0.1,0.1,0.2,0,0.3l-0.1,0.1
			c0.2,0.2,0.4,0.4,0.5,0.6l0.1-0.1c0.1-0.1,0.2,0,0.3,0.1l1,1.4c0.1,0.1,0.1,0.3,0,0.3l-0.1,0.1c0.2,0.2,0.3,0.5,0.4,0.7l0.1-0.1
			c0.1,0,0.2,0,0.3,0.1l0.8,1.5c0.1,0.1,0,0.3-0.1,0.3l-0.1,0.1c0.1,0.3,0.2,0.5,0.3,0.8l0.2-0.1c0.1,0,0.2,0,0.3,0.2l0.5,1.6
			c0,0.1,0,0.3-0.1,0.3L72.8,49c0.1,0.3,0.1,0.5,0.2,0.8l0.2,0c0.1,0,0.2,0.1,0.2,0.2l0.3,1.7c0,0.1,0,0.3-0.1,0.3l-0.2,0
			c0,0.3,0,0.6,0.1,0.8l0.2,0c0.1,0,0.2,0.1,0.2,0.3l0,1.7c0,0.1-0.1,0.3-0.2,0.3l-0.2,0c0,0.3,0,0.6-0.1,0.8l0.2,0
			c0.1,0,0.2,0.1,0.1,0.3l-0.3,1.7c0,0.1-0.1,0.2-0.2,0.2l-0.2,0c-0.1,0.3-0.1,0.5-0.2,0.8l0.2,0.1c0.1,0,0.1,0.2,0.1,0.3l-0.5,1.6
			c0,0.1-0.2,0.2-0.3,0.2L72.1,61c-0.1,0.3-0.2,0.5-0.3,0.8l0.1,0.1c0.1,0,0.1,0.2,0.1,0.3l-0.8,1.5c-0.1,0.1-0.2,0.2-0.3,0.1
			l-0.1-0.1c-0.1,0.2-0.3,0.5-0.4,0.7l0.1,0.1c0.1,0.1,0.1,0.2,0,0.3l-1,1.4C69.4,66.4,69.3,66.4,69.2,66.4z M70.1,69.6l-0.3-0.3
			l0.3-0.3l0.3,0.3L70.1,69.6z M73.4,67.4l-2-0.2c-0.1,0-0.1,0-0.2,0c-0.1,0-0.2,0-0.2,0l1.7,1.3l-0.2,0.3l-2.1-1.5l0.3-0.3l2,0.2
			c0.1,0,0.1,0,0.2,0c0.1,0,0.1,0,0.2,0l-1.7-1.3l0.2-0.3l2.1,1.5L73.4,67.4z M74.1,66.4l-2.2-1.4l0.2-0.3l2.2,1.4L74.1,66.4z
			 M75.3,64.2c0,0.1-0.1,0.3-0.1,0.4C75,64.8,75,64.9,74.9,65c-0.1,0.1-0.2,0.2-0.4,0.2c-0.1,0-0.3,0.1-0.4,0
			c-0.2,0-0.3-0.1-0.5-0.2l-0.4-0.2c-0.2-0.1-0.3-0.2-0.4-0.3c-0.1-0.1-0.2-0.2-0.2-0.4c0-0.1-0.1-0.3,0-0.4c0-0.1,0.1-0.3,0.1-0.4
			c0.1-0.1,0.2-0.3,0.3-0.4c0.1-0.1,0.2-0.2,0.3-0.2c0.1,0,0.3-0.1,0.4,0c0.2,0,0.3,0.1,0.5,0.2l0.4,0.2c0.2,0.1,0.3,0.2,0.4,0.3
			c0.1,0.1,0.2,0.2,0.2,0.4C75.3,63.9,75.3,64.1,75.3,64.2z M76.2,62.3c-0.1,0.2-0.1,0.3-0.2,0.4c-0.1,0.1-0.2,0.2-0.3,0.3l-0.2-0.3
			c0.1-0.1,0.2-0.2,0.3-0.3c0.1-0.1,0.1-0.2,0.2-0.3c0-0.1,0.1-0.2,0.1-0.3c0-0.1,0-0.2-0.1-0.3c0-0.1-0.1-0.2-0.2-0.2
			c-0.1-0.1-0.2-0.1-0.3-0.2L75,61.1c-0.1-0.1-0.3-0.1-0.4-0.1c-0.1,0-0.2,0-0.3,0c-0.1,0-0.2,0.1-0.2,0.2C74,61.3,74,61.4,74,61.5
			c0,0.1-0.1,0.3-0.1,0.4c0,0.1,0,0.3,0.1,0.4l-0.3,0.1c-0.1-0.2-0.1-0.3-0.1-0.5c0-0.2,0-0.3,0.1-0.5c0.1-0.2,0.1-0.3,0.2-0.4
			c0.1-0.1,0.2-0.2,0.3-0.2c0.1-0.1,0.3-0.1,0.4-0.1c0.2,0,0.3,0,0.5,0.1l0.4,0.1c0.2,0.1,0.3,0.1,0.4,0.2c0.1,0.1,0.2,0.2,0.3,0.3
			c0.1,0.1,0.1,0.3,0.1,0.4C76.2,62,76.2,62.1,76.2,62.3z M76.9,59.6c-0.1,0.4-0.3,0.6-0.5,0.8c-0.2,0.1-0.5,0.2-0.9,0.1l-0.4-0.1
			c-0.3-0.1-0.6-0.2-0.7-0.5c-0.1-0.2-0.2-0.5-0.1-0.9l0.2-0.9l2.5,0.6L76.9,59.6z M77.4,57.2c0,0.2-0.1,0.3-0.1,0.4
			c-0.1,0.1-0.1,0.2-0.2,0.3l-0.3-0.2c0.1-0.1,0.1-0.2,0.2-0.3c0-0.1,0.1-0.2,0.1-0.3c0-0.2,0-0.3-0.1-0.4c-0.1-0.1-0.1-0.2-0.2-0.2
			l-0.1,0c-0.1,0-0.1,0-0.2,0c0,0-0.1,0.1-0.1,0.1s-0.1,0.1-0.1,0.2c0,0.1-0.1,0.2-0.1,0.3c-0.1,0.2-0.1,0.3-0.2,0.4
			c-0.1,0.1-0.1,0.2-0.2,0.2c-0.1,0.1-0.1,0.1-0.2,0.1c-0.1,0-0.2,0-0.2,0l-0.1,0c-0.1,0-0.2-0.1-0.3-0.1c-0.1-0.1-0.1-0.1-0.2-0.2
			c0-0.1-0.1-0.2-0.1-0.3c0-0.1,0-0.3,0-0.4c0-0.2,0.1-0.4,0.2-0.5c0.1-0.2,0.2-0.3,0.3-0.4l0.3,0.2c0,0-0.1,0.1-0.1,0.2
			c0,0.1-0.1,0.1-0.1,0.2c0,0.1-0.1,0.1-0.1,0.2c0,0.1,0,0.1,0,0.2c0,0.2,0,0.3,0.1,0.4c0.1,0.1,0.1,0.2,0.2,0.2l0.1,0
			c0.1,0,0.1,0,0.2,0c0,0,0.1,0,0.1-0.1c0,0,0.1-0.1,0.1-0.2c0-0.1,0.1-0.2,0.1-0.3c0-0.1,0.1-0.2,0.1-0.3c0-0.1,0.1-0.2,0.2-0.3
			c0.1-0.1,0.1-0.1,0.2-0.2c0.1,0,0.2,0,0.3,0l0.1,0c0.1,0,0.2,0,0.2,0.1c0.1,0,0.1,0.1,0.2,0.2c0.1,0.1,0.1,0.2,0.1,0.3
			C77.5,56.9,77.5,57.1,77.4,57.2z M76,54.4l0-0.4l0.4,0l0,0.4L76,54.4z M77.3,51.7L77,51.6c0.1-0.1,0.1-0.2,0.1-0.3
			c0-0.1,0-0.2,0-0.3c0-0.2-0.1-0.3-0.2-0.4c-0.1-0.1-0.2-0.1-0.3-0.1l-0.1,0c-0.1,0-0.1,0-0.1,0.1c0,0-0.1,0.1-0.1,0.1
			c0,0.1,0,0.1-0.1,0.2c0,0.1,0,0.2,0,0.3c0,0.2,0,0.3-0.1,0.4c0,0.1-0.1,0.2-0.1,0.3c-0.1,0.1-0.1,0.1-0.2,0.2
			c-0.1,0-0.1,0.1-0.2,0.1l-0.1,0c-0.1,0-0.2,0-0.3,0c-0.1,0-0.2-0.1-0.2-0.2c-0.1-0.1-0.1-0.2-0.2-0.3c0-0.1-0.1-0.2-0.1-0.4
			c0-0.2,0-0.4,0-0.5c0-0.2,0.1-0.3,0.2-0.4l0.3,0.1c0,0.1-0.1,0.1-0.1,0.2c0,0.1,0,0.1-0.1,0.2c0,0.1,0,0.1,0,0.2
			c0,0.1,0,0.1,0,0.2c0,0.2,0.1,0.3,0.2,0.4c0.1,0.1,0.2,0.1,0.3,0.1l0.1,0c0.1,0,0.1,0,0.1,0c0,0,0.1-0.1,0.1-0.1
			c0-0.1,0-0.1,0.1-0.2c0-0.1,0-0.2,0-0.3c0-0.1,0-0.3,0-0.4c0-0.1,0.1-0.2,0.1-0.3c0-0.1,0.1-0.2,0.2-0.2c0.1-0.1,0.2-0.1,0.3-0.1
			l0.1,0c0.1,0,0.2,0,0.3,0c0.1,0,0.2,0.1,0.2,0.1c0.1,0.1,0.1,0.2,0.2,0.3c0.1,0.1,0.1,0.2,0.1,0.4c0,0.2,0,0.3,0,0.5
			C77.4,51.4,77.4,51.6,77.3,51.7z"/>
		<path class="st0" d="M65.7,34.5c0-0.1,0-0.1,0-0.1c0,0,0-0.1,0-0.1c0,0,0-0.1,0-0.1c0,0,0-0.1,0-0.2c0,0-0.1,0.1-0.1,0.1
			c0,0-0.1,0.1-0.1,0.1c0,0-0.1,0.1-0.1,0.1c0,0-0.1,0.1-0.1,0.1l-0.5,0.4l0.7,0.4L65.7,34.5z"/>
		<path class="st0" d="M74.7,63.7c-0.1-0.1-0.2-0.2-0.3-0.2l-0.3-0.1c-0.1-0.1-0.3-0.1-0.4-0.1c-0.1,0-0.2,0-0.3,0
			c-0.1,0-0.2,0.1-0.2,0.1c-0.1,0.1-0.1,0.1-0.2,0.2c0,0.1-0.1,0.2-0.1,0.3c0,0.1,0,0.2,0,0.3c0,0.1,0.1,0.2,0.2,0.3
			c0.1,0.1,0.2,0.2,0.3,0.2l0.3,0.1c0.1,0.1,0.3,0.1,0.4,0.1c0.1,0,0.2,0,0.3,0c0.1,0,0.2-0.1,0.2-0.1c0.1-0.1,0.1-0.1,0.2-0.2
			c0-0.1,0.1-0.2,0.1-0.3c0-0.1,0-0.2,0-0.3C74.8,63.9,74.8,63.8,74.7,63.7z"/>
		<path class="st0" d="M74.8,59.6c0,0.1,0.1,0.2,0.2,0.2c0.1,0.1,0.2,0.1,0.3,0.1l0.3,0.1c0.1,0,0.3,0,0.4,0c0.1,0,0.2,0,0.3-0.1
			c0.1-0.1,0.1-0.1,0.2-0.2c0.1-0.1,0.1-0.2,0.1-0.3l0.1-0.5l-1.9-0.5L74.7,59c0,0.1,0,0.2,0,0.3C74.7,59.5,74.7,59.6,74.8,59.6z"/>
		<g>
			<path class="st0" d="M51.7,58.1c-1.5-0.8-2.5-2.5-2.5-4.2c0-2.7,2.2-4.8,4.8-4.8c1.8,0,3.5,1,4.3,2.6l-0.1,0
				c-0.8-1.6-2.4-2.6-4.2-2.6c-2.6,0-4.8,2.1-4.8,4.8C49.2,55.6,50.2,57.2,51.7,58.1L51.7,58.1z"/>
			<path class="st0" d="M51.7,59.2c-2.1-0.9-3.5-3-3.5-5.3c0-3.2,2.6-5.8,5.8-5.8c2.4,0,4.5,1.4,5.3,3.6l-0.1,0
				c-0.9-2.2-3-3.5-5.3-3.5c-3.2,0-5.7,2.6-5.7,5.7C48.3,56.2,49.6,58.2,51.7,59.2L51.7,59.2z"/>
			<path class="st0" d="M51.7,61.3c-1.5-0.5-2.9-1.5-3.9-2.8c-1-1.3-1.5-2.9-1.5-4.6c0-4.3,3.5-7.7,7.7-7.7c1.7,0,3.3,0.5,4.7,1.6
				c1.3,1,2.3,2.4,2.7,4l-0.1,0c-1-3.2-4-5.5-7.3-5.5c-4.2,0-7.7,3.4-7.7,7.7C46.3,57.3,48.5,60.2,51.7,61.3L51.7,61.3z"/>
			<path class="st0" d="M51.7,62.3c-1.8-0.5-3.4-1.6-4.6-3.1c-1.2-1.5-1.8-3.4-1.8-5.3c0-4.8,3.9-8.7,8.7-8.7c4,0,7.4,2.7,8.4,6.5
				l-0.1,0c-1-3.8-4.4-6.4-8.3-6.4c-4.8,0-8.6,3.9-8.6,8.6C45.4,57.8,48,61.2,51.7,62.3L51.7,62.3z"/>
			<path class="st0" d="M51.7,63.3c-2.1-0.5-3.9-1.7-5.2-3.4c-1.4-1.7-2.1-3.8-2.1-6c0-2.6,1-5,2.8-6.8c1.8-1.8,4.2-2.8,6.8-2.8
				c2.2,0,4.3,0.8,6,2.1c1.7,1.4,2.9,3.2,3.4,5.3l-0.1,0c-1-4.4-4.9-7.4-9.3-7.4c-5.3,0-9.6,4.3-9.6,9.6
				C44.4,58.3,47.4,62.2,51.7,63.3L51.7,63.3z"/>
			<rect x="56.9" y="65.6" class="st0" width="0.1" height="6.4"/>
			<rect x="55.9" y="66.5" class="st0" width="0.1" height="5.7"/>
			<rect x="51.1" y="71" class="st0" width="0.1" height="1"/>
			<rect x="52.1" y="70.2" class="st0" width="0.1" height="2"/>
			<rect x="53" y="69.3" class="st0" width="0.1" height="2.9"/>
			<rect x="55" y="67.4" class="st0" width="0.1" height="4.8"/>
			<path class="st0" d="M56.9,65.7c-1.1,0-2.2-0.1-2.6-0.1c-1.6,0-3.1-0.3-4.6-0.9c-1.4-0.6-2.7-1.4-3.8-2.5c-1.1-1.1-2-2.3-2.6-3.7
				c-0.6-1.4-1-3-1-4.5c0-3.1,1.2-6,3.4-8.2c2.2-2.2,5.1-3.4,8.2-3.4c3.1,0,6,1.2,8.2,3.4c2.2,2.2,3.4,5.1,3.5,8.2c0,1.1,0,2,0,2.9
				l0,0.3l-0.1,0l0-0.3c0-0.8,0-1.7,0-2.9c-0.2-6.5-5.3-11.5-11.6-11.5c-6.4,0-11.5,5.2-11.5,11.5c0,6.3,5.4,11.6,11.9,11.6
				C54.7,65.5,55.9,65.6,56.9,65.7L56.9,65.7z"/>
			<rect x="65.7" y="57" class="st0" width="6.4" height="0.1"/>
			<path class="st0" d="M56,66.5c-0.4,0-0.6,0-0.8,0c-0.3,0-0.6,0-1.2,0c-3.4-0.1-6.5-1.4-8.9-3.7c-2.4-2.4-3.7-5.5-3.7-8.8
				c0-3.4,1.3-6.5,3.7-8.9c2.4-2.4,5.5-3.7,8.9-3.7c1.7,0,3.3,0.4,4.9,1c1.5,0.7,2.8,1.6,4,2.8c2.4,2.4,3.7,5.5,3.7,8.7v2.2h-0.1
				v-2.2c0-6.6-5.9-12.4-12.6-12.4c-6.9,0-12.5,5.6-12.5,12.5c0,6.9,5.5,12.4,12.5,12.5c0.5,0,0.8,0,1.2,0
				C55.4,66.4,55.6,66.4,56,66.5L56,66.5z"/>
			<rect x="66.6" y="56" class="st0" width="5.6" height="0.1"/>
			<path class="st0" d="M54,67.4c-0.1,0-0.1,0-0.2,0c-7.3-0.1-13.3-6.1-13.3-13.5c0-3.6,1.4-7,4-9.6c2.6-2.6,5.9-4,9.6-4
				c1.8,0,3.6,0.4,5.3,1.2c1.6,0.7,3.1,1.8,4.4,3.1c2.6,2.7,4,6.1,3.9,9.5c0,0,0,0.1,0.1,0.9l-0.1,0c-0.1-0.8-0.1-0.9-0.1-0.9
				c0.1-3.4-1.3-6.8-3.9-9.5C61,42,57.5,40.4,54,40.4c-7.4,0-13.5,6-13.5,13.5c0,7.4,5.9,13.4,13.3,13.5c0.3,0,0.4,0,0.6,0
				c0.2,0,0.4,0,0.6,0l0,0.1c-0.2,0-0.4,0-0.6,0C54.3,67.4,54.1,67.4,54,67.4z"/>
			<rect x="67.6" y="55.1" class="st0" width="4.7" height="0.1"/>
			<path class="st0" d="M53.1,69.3c-8.5-0.8-14.5-7.2-14.5-15.4c0-2.1,0.4-4.1,1.2-6c0.8-1.8,1.9-3.5,3.3-4.9
				c1.4-1.4,3.1-2.5,4.9-3.3c1.9-0.8,3.9-1.2,6-1.2c4,0,7.8,1.5,10.7,4.3c2.9,2.8,4.6,6.5,4.8,10.4l-0.1,0
				C69,44.9,62.2,38.5,54,38.5c-8.5,0-15.4,6.9-15.4,15.4C38.6,62.1,44.5,68.4,53.1,69.3L53.1,69.3z"/>
			<rect x="69.4" y="53.1" class="st0" width="3" height="0.1"/>
			<path class="st0" d="M52.1,70.2c-4-0.5-7.6-2.4-10.3-5.3c-2.7-3-4.2-6.9-4.2-11c0-2.2,0.4-4.4,1.3-6.4c0.8-2,2-3.7,3.5-5.2
				c1.5-1.5,3.3-2.7,5.2-3.5c2-0.9,4.2-1.3,6.4-1.3c4.1,0,8,1.5,11,4.3c3,2.7,4.9,6.4,5.3,10.5l-0.1,0c-0.9-8.4-7.9-14.7-16.3-14.7
				c-9,0-16.4,7.3-16.4,16.4C37.6,62.2,43.8,69.2,52.1,70.2L52.1,70.2z"/>
			<rect x="70.3" y="52.2" class="st0" width="2" height="0.1"/>
			<path class="st0" d="M51.1,71c-4-0.7-7.7-2.7-10.3-5.9c-1.3-1.5-2.3-3.3-3.1-5.2c-0.7-2-1.1-4-1.1-6.1c0-2.3,0.5-4.6,1.4-6.8
				c0.9-2.1,2.1-3.9,3.7-5.5c1.6-1.6,3.5-2.9,5.5-3.7c2.1-0.9,4.4-1.4,6.8-1.4c2.1,0,4.2,0.4,6.2,1.1c1.9,0.7,3.7,1.8,5.2,3.1
				c3.1,2.7,5.2,6.4,5.8,10.5l-0.1,0c-1.3-8.4-8.6-14.7-17.1-14.7c-9.6,0-17.3,7.8-17.3,17.3C36.7,62.4,42.7,69.6,51.1,71L51.1,71z"
				/>
			<rect x="71.1" y="51.2" class="st0" width="1" height="0.1"/>
			<polygon class="st0" points="66,67.8 66,67.8 66,66.1 67.7,66.1 67.7,66.2 66,66.2 			"/>
		</g>
		<g>
			<rect x="53.9" y="35.6" class="st0" width="0.1" height="14.5"/>
			
				<rect x="54.5" y="46.1" transform="matrix(0.7071 -0.7071 0.7071 0.7071 -14.5358 57.2209)" class="st0" width="14.5" height="0.1"/>
			
				<rect x="46.1" y="38.9" transform="matrix(0.7071 -0.7071 0.7071 0.7071 -19.1303 46.1288)" class="st0" width="0.1" height="14.5"/>
			<rect x="35.6" y="53.9" class="st0" width="14.5" height="0.1"/>
			
				<rect x="38.8" y="61.8" transform="matrix(0.7071 -0.7071 0.7071 0.7071 -30.2223 50.7234)" class="st0" width="14.5" height="0.1"/>
		</g>
		<g>
			<path class="st0" d="M54,57.9c-2.1,0-3.9-1.7-3.9-3.9c0-2.1,1.7-3.9,3.9-3.9c2.1,0,3.9,1.7,3.9,3.9C57.9,56.1,56.1,57.9,54,57.9z
				 M54,50.2c-2.1,0-3.8,1.7-3.8,3.8c0,2.1,1.7,3.8,3.8,3.8c2.1,0,3.8-1.7,3.8-3.8C57.8,51.9,56.1,50.2,54,50.2z"/>
			<path class="st0" d="M51.7,60.4c-1.3-0.5-2.4-1.3-3.2-2.4c-0.8-1.2-1.3-2.5-1.3-3.9c0-3.7,3-6.8,6.8-6.8c2.9,0,5.5,1.8,6.4,4.6
				l-0.1,0c-0.9-2.7-3.5-4.5-6.3-4.5c-3.7,0-6.7,3-6.7,6.7c0,2.8,1.8,5.3,4.4,6.3L51.7,60.4z"/>
			<path class="st0" d="M51.7,64.4c-2.3-0.5-4.4-1.8-6-3.7c-0.8-0.9-1.3-2-1.7-3.1c-0.4-1.2-0.6-2.4-0.6-3.6c0-2.8,1.1-5.5,3.1-7.5
				c2-2,4.7-3.1,7.5-3.1c2.5,0,4.9,0.9,6.8,2.4c1.9,1.5,3.2,3.7,3.7,6l-0.1,0c-1-4.9-5.4-8.4-10.3-8.4c-5.8,0-10.6,4.7-10.6,10.6
				c0,4.9,3.5,9.2,8.3,10.3L51.7,64.4z"/>
			<polygon class="st0" points="58.1,72 57.9,72 57.9,65.2 51.6,65.2 51.6,58.1 57.9,58.1 57.9,51.7 65.1,51.7 65.1,58.1 71.9,58.1 
				71.9,58.2 64.9,58.2 64.9,51.9 58.1,51.9 58.1,58.2 51.7,58.2 51.7,65.1 58.1,65.1 			"/>
			<polygon class="st0" points="64.9,68.7 64.9,65.1 68.6,65.1 68.6,65.3 65,65.2 65.1,68.7 			"/>
			<rect x="53.9" y="68.5" class="st0" width="0.1" height="3.9"/>
			<path class="st0" d="M54,68.5L54,68.5c-2,0-3.9-0.4-5.7-1.1c-1.7-0.7-3.3-1.8-4.6-3.1c-2.7-2.7-4.3-6.4-4.3-10.3
				c0-2,0.4-3.9,1.1-5.7c0.7-1.7,1.8-3.3,3.1-4.6c1.3-1.3,2.9-2.4,4.6-3.1c1.8-0.8,3.7-1.1,5.7-1.1c2,0,3.9,0.4,5.7,1.1
				c1.7,0.7,3.3,1.8,4.6,3.1c1.3,1.3,2.4,2.9,3.1,4.6c0.8,1.8,1.1,3.7,1.1,5.7c0,0.1,0,0.2,0,0.2l-0.1,0c0-0.1,0-0.2,0-0.2
				c0-8-6.5-14.4-14.4-14.4S39.6,46,39.6,54c0,7.9,6.5,14.4,14.4,14.4H54V68.5z"/>
			<rect x="68.4" y="54.2" class="st0" width="3.9" height="0.1"/>
			<path class="st0" d="M54,72.5c-2.5,0-4.9-0.5-7.2-1.5c-2.2-0.9-4.2-2.3-5.9-4c-1.7-1.7-3-3.7-4-5.9c-1-2.3-1.5-4.7-1.5-7.2
				c0-2.5,0.5-4.9,1.5-7.2c0.9-2.2,2.3-4.2,4-5.9c1.7-1.7,3.7-3,5.9-4c2.3-1,4.7-1.5,7.2-1.5c2.5,0,4.9,0.5,7.2,1.5
				c2.2,0.9,4.2,2.3,5.9,4c1.7,1.7,3,3.7,4,5.9c1,2.3,1.5,4.7,1.5,7.2c0,2.5-0.5,4.9-1.5,7.2c-0.9,2.2-2.3,4.2-4,5.9
				c-1.7,1.7-3.7,3-5.9,4C58.9,72,56.5,72.5,54,72.5z M54,35.6c-10.1,0-18.4,8.2-18.4,18.4c0,10.1,8.2,18.4,18.4,18.4
				c10.1,0,18.4-8.2,18.4-18.4C72.4,43.9,64.1,35.6,54,35.6z"/>
		</g>
		<g>
			<path class="st0" d="M51.1,55.1L51.1,55.1C51.1,55.1,51.2,55.1,51.1,55.1c0.3-0.1,0.6-0.2,0.9-0.2c0.2,0,0.5-0.1,0.7-0.1
				c0,0.2-0.1,0.3-0.2,0.5v0.1c0.2,0,0.3,0.1,0.5,0c0.1,0,0.2-0.3,0.3-0.4c0.1,0-0.3-0.2-0.4-0.3c0-0.1,0.4-0.5,0.4-0.7
				c0.1-0.1,0.1-0.2,0.1-0.4c0-0.1,0-0.3,0-0.4c-0.1-0.1-0.2-0.2-0.3-0.3c-0.2-0.2-0.5-0.3-0.7-0.5h0c-0.1,0.2-0.3,0.3-0.4,0.5
				c-0.3,0.3-0.5,0.7-0.8,1c-0.1,0.2-0.4,0.4-0.4,0.6C50.8,54.7,50.6,55.2,51.1,55.1z"/>
			<g>
				<path class="st0" d="M47.6,60.7L47.6,60.7c-0.1-0.1-0.4-0.6-0.4-0.6c-0.2-0.3-0.4-0.6-0.6-0.8c-0.1-0.1-0.3-0.3-0.3-0.4
					c0-0.1,0-0.2,0-0.3c0-0.3,0.1-0.6,0-0.8c-0.1-0.4-0.4-0.6-0.4-1c-0.1-0.3,0-0.6,0-0.9c0-0.3-0.3-0.5-0.3-0.7c0-0.1,0-0.2,0-0.2
					c0-0.2-0.1-0.4-0.2-0.6c-0.2-0.3-0.4-0.6-0.7-0.8c0.1,0,0.2-0.2,0.3-0.2c0.2-0.1,0.4-0.1,0.6-0.1v0c0,0-0.1,0.1-0.1,0.1
					c0,0,0,0.1,0,0.1c0.1,0.3,0.1,0.5,0.2,0.8c0,0.2,0,0.3,0,0.5h0.6c-0.1-0.1-0.1-0.3-0.2-0.4c0-0.1,0.1-0.3,0.1-0.4
					c0-0.3-0.2-0.5-0.2-0.8h-0.1c0,0,0,0-0.1,0c-0.1,0-0.1-0.1-0.1-0.1c0-0.1-0.1-0.2-0.1-0.2c0-0.1,0.3-0.3,0.4-0.4
					c0.2,0,0.6,0.1,0.7,0.3c0,0.1,0,0.2,0.1,0.3c0,0.1,0.1,0.2,0,0.3c-0.1,0.1-0.3,0.2-0.4,0.3c0,0,0,0,0,0c0,0.1,0.1,0.2,0.1,0.2
					c0,0,0.1,0,0.2,0v0c0,0,0.2,0,0.2-0.1c0,0,0.1-0.1,0.2,0c0,0,0,0,0,0c0,0,0,0,0.1,0c0.2,0.1,0.4,0.2,0.7,0.2
					c0.2,0.1,0.4,0,0.6,0.1c0.2,0.1,0.4,0.2,0.6,0.4c0.1,0,0.2,0,0.2,0.1c0.1,0.1,0.2,0.3,0.2,0.5c0.1,0,0.5,0,0.6-0.1
					c0.1-0.1,0.2-0.3,0.2-0.4c0.1-0.2,0.2-0.3,0.2-0.5c0.1-0.1,0.2-0.2,0.3-0.3c0.1-0.1,0.2-0.2,0.2-0.2c0.1,0,0.2,0,0.3-0.1
					c0-0.1,0-0.1,0.1-0.2c0.1-0.2,0.1-0.4,0.2-0.6c0-0.4,0-0.9,0-1.3c0-0.2,0.4-0.6,0.5-0.7c0.1-0.1,0.2-0.2,0.3-0.4
					c0.2-0.2,0.4-0.2,0.6-0.3c0.1-0.1,0.3-0.2,0.4-0.4c0.1-0.1,0.1-0.1,0.2-0.2c0-0.1-0.1-0.3-0.1-0.4c-0.1-0.1-0.9-0.8-1-0.8
					c-0.2,0-0.6,0.4-0.8,0.5c-0.2,0.1-0.4,0.1-0.6,0.2c-0.2,0.1-0.5,0.2-0.8,0.2c-0.2,0-0.4-0.1-0.5-0.1c-0.1,0-0.2,0-0.3-0.1
					c-0.1-0.1-0.2-0.1-0.3-0.2c0,0,0,0,0,0c-0.1-0.1-0.4-0.1-0.5-0.1c-0.1,0-0.3,0-0.3,0l0,0c0,0-0.1,0-0.1,0c-0.3,0-0.7-0.1-1,0
					c-0.2,0-0.4,0.2-0.6,0.3c-0.2,0.1-0.3,0.2-0.5,0.3c-0.2,0.2-0.4,0.4-0.6,0.6c-0.2,0.4-0.5,0.8-0.7,1.2c0,0,0,0,0,0.1
					c0.1,0,0.1,0.1,0.1,0.1c0,0.2-0.2,0.4-0.3,0.6c-0.1,0.2-0.1,0.4-0.2,0.6c-0.1,0.2-0.3,1-0.4,1.1c-0.1,0.1-0.7,0-1,0
					c-0.4,0-0.5,0.4-0.5,0.4h0c-0.1,0.3-0.5,0.7-0.7,0.9c-0.2,0.2-0.2,0.6-0.3,0.9c0,0.1-0.2,0.2-0.4,0.2c-0.2,0.1-0.4,0.2-0.6,0.2
					c-0.3,0-0.6,0-0.9,0c-0.3,0-0.5,0.1-0.5,0.1l0,0c-0.1,0.1-0.4,0.2-0.5,0.3c-0.5,0.3-0.5,0.6-0.7,1c0,0.1-0.1,0.3-0.1,0.4
					c0,0.3,0.1,0.5,0.1,0.8h0v0c0.1,0,0.3-0.2,0.5-0.2c0.2,0.1,0.4,0.1,0.6,0.2c0.2,0.1,0.4,0.1,0.6,0.2c0.1,0.1,0.2,0.2,0.3,0.3
					c0.1,0.1,0.2,0.1,0.2,0.2l0,0c0,0,0.4,0.4,0.5,0.3c0,0,0.1,0,0.1,0c0,0,0.1,0,0.1,0c0.1,0,0.1,0.2,0.2,0.3
					c0.4,0.4,0.8,0.7,1.2,1.1c0.5,0.4,1.2,0.4,1.8,0.6c0.2,0.1,0.4,0.4,0.6,0.4c0.1,0,0.2,0,0.2,0c0,0,0.5,0,0.7,0v0
					c0.1,0,0.2,0,0.2,0c0.1,0,0.1,0,0.2,0l0,0c0,0,0.5,0,0.7,0c0.2,0,0.7,0,0.9-0.1c0.1-0.1,0.2-0.2,0.3-0.3c0-0.1,0.1-0.1,0.1-0.2
					C48.2,61.4,47.8,61,47.6,60.7z"/>
				<path class="st0" d="M63.9,50.3L63.9,50.3c-0.1,0-0.2,0.1-0.3,0.2c-0.2,0-0.3,0-0.5,0v0h0c0-0.1,0.3-0.4,0.3-0.6
					c0-0.1-0.1-0.2-0.2-0.3c-0.1-0.1-0.2-0.3-0.4-0.3c-0.1,0-0.2,0-0.3,0c-0.3,0-0.6,0-0.8,0c-0.1-0.1-0.3-0.4-0.4-0.5
					c-0.1-0.1-0.4-0.3-0.5-0.4v0c0,0,0,0,0-0.1c0.2,0,0.3,0,0.4,0.1c0-0.2-0.3-0.2-0.5-0.3h0l0,0c0,0-0.2,0-0.3,0
					c-0.1,0-0.2,0.1-0.3,0.1c0,0,0,0,0,0c-0.1,0-0.1,0-0.2,0c-0.1,0-0.3,0.1-0.4,0c-0.1-0.3,0.2-0.4,0.4-0.5h0
					c0-0.1-0.1-0.1-0.2-0.1c-0.1,0-0.2,0.1-0.3,0.1c0,0,0,0,0,0c-0.1,0-0.2-0.2-0.3-0.3c-0.2-0.2-0.6-0.2-0.9-0.2v0h0
					c0.1-0.1,0.2-0.1,0.3-0.2c0,0,0-0.1,0.1-0.1c-0.1,0-0.2,0-0.3,0c-0.1,0,0,0.2-0.2,0.2c0,0,0,0,0,0c0,0-0.1,0.1-0.2,0.1
					c-0.1,0-0.2,0.1-0.2,0.1v0.1c-0.1,0-0.2,0.2-0.2,0.2h0v0c0.1,0,0.3-0.1,0.4-0.2v0c0,0-0.3,0.3-0.3,0.3c0,0,0.1,0.2,0.1,0.2
					c0,0.1-0.4,0.5-0.5,0.6c-0.1,0-0.2,0-0.3,0.1c-0.1,0-0.2,0-0.3,0c-0.2,0-0.3,0.1-0.5,0.2v0c-0.1,0-0.2,0-0.2-0.1h0v0
					c0,0,0.2-0.3,0.2-0.3c0,0-0.1-0.4-0.1-0.5H56c0,0-0.2,0.3-0.3,0.3h0c0,0,0,0,0,0c0.1,0.3,0.1,0.2-0.1,0.3c0,0-0.1,0-0.2,0
					c-0.2,0-0.7,0.1-0.9,0.2h-0.1c0,0.3-0.1,0.2-0.3,0.3v0c-0.1,0-0.1,0-0.2,0.1c-0.1,0-0.1,0.1-0.2,0.1c0,0,0,0,0,0.1
					c0.1,0,0.1,0,0.2,0.1c0.2,0.1,0.4,0.2,0.6,0.3c0.1,0,0.2,0.1,0.3,0.2c0.1,0.1,1,1.4,1,1.5c0,0.1-0.2,0.2-0.3,0.3h0c0,0,0,0,0,0
					c0.1,0.2,0.2,0.4,0.3,0.7c0,0.1,0.2,0.2,0.2,0.3c0,0.1-0.1,0.2-0.1,0.3c0,0.2,0.2,0.4,0.2,0.6c0,0.1-0.1,0.3-0.2,0.4
					c-0.1,0.3-0.3,0.6-0.4,0.9c0,0-0.1,0.1-0.1,0.2c0,0.1-0.1,0.2-0.1,0.2c-0.1,0-0.2,0-0.2,0c-0.3,0-0.5,0-0.7,0.2c0,0,0,0.1,0,0.1
					c0,0.1,0,0.2,0,0.3c-0.1,0.2-0.2,0.5-0.1,0.7c0,0.1,0.1,0.1,0.1,0.1c0,0.2-0.1,0.4-0.3,0.5v0h0c0-0.1-0.1-0.1-0.1-0.2
					c-0.1-0.1-0.1-0.3-0.1-0.5c0,0,0,0-0.1-0.1v0c0,0,0,0,0,0c0,0.1,0,0.1-0.1,0.2c-0.1,0.2-0.2,0.1-0.2,0.3c0.1,0,0.2-0.1,0.2-0.2
					h0c0,0.1,0,0.1,0.1,0.2c0,0.1,0,0.2-0.1,0.3l0,0c0,0-0.1,0.3,0.1,0.4v0c0,0,0.1,0,0.1,0.1c0,0,0,0,0,0c0,0.1,0,0.4-0.1,0.5
					c-0.2,0-0.4-0.1-0.5,0c0,0,0,0-0.1,0.1h1.2c0.1,0,0.1,0,0.1,0H58l0-6.4h4.4c0,0,0-0.1,0-0.1c0-0.1,0.1-0.3,0.1-0.3
					c0.1-0.1,0.3-0.2,0.5-0.2c0,0,0.1,0,0.1,0c0.1-0.1,0.1-0.2,0.2-0.2c0.1-0.1,0.3-0.1,0.4-0.1C63.7,50.7,63.8,50.5,63.9,50.3
					C63.9,50.4,63.9,50.4,63.9,50.3z"/>
				<g>
					<path class="st0" d="M64.4,50.7c0,0,0.2,0,0.2-0.1c0-0.1,0-0.3,0-0.3s0,0,0,0c0-0.3,0.4-0.5,0.2-0.9v-0.1h0v0
						c0,0-0.3,0.3-0.4,0.4v0h0v-0.2c0,0,0,0-0.1,0v0c-0.2,0.1-0.2,0.4-0.2,0.4l0,0c0,0.1,0,0.1-0.1,0.2v0h0.1c0,0,0-0.1,0.1-0.1v0
						h0.1c0,0,0,0,0,0c0,0.1,0,0.1,0,0.2c0,0.1,0,0.2,0,0.3L64.4,50.7C64.3,50.7,64.3,50.7,64.4,50.7L64.4,50.7z"/>
					<path class="st0" d="M60.3,45.2c0,0,0.3-0.2,0.1-0.4l0,0c0,0,0,0,0,0c-0.1-0.1-0.2-0.2-0.2-0.3c-0.1-0.1-0.2-0.2-0.3-0.4
						c-0.1-0.2,0-0.6-0.1-0.8c-0.1-0.1-0.3-0.2-0.4-0.3c-0.3-0.2-0.6-0.5-0.9-0.7c-0.1-0.1-0.3-0.2-0.4-0.3H58
						c0,0.2,0.3,1.1,0.3,1.4l0,0c0,0,0,0.4,0.1,0.6c0,0.1,0.1,0.2,0.1,0.2c0.2,0.2,0.4,0.4,0.7,0.6c0.2,0.2,0.4,0.5,0.7,0.6
						c0,0,0,0,0.1,0c0,0,0.1-0.1,0.2-0.2C60.2,45.3,60.2,45.3,60.3,45.2L60.3,45.2z"/>
					<path class="st0" d="M63.5,47.1c-0.1-0.1-0.1-0.2-0.3-0.3c-0.1-0.1-0.3-0.1-0.4-0.2c0,0,0,0,0,0c0,0,0.1-0.1,0.1-0.1
						c0.1-0.2,0-0.3,0-0.4h0c-0.1-0.1-0.2-0.3-0.3-0.4h0c0,0,0,0,0,0c0,0,0,0,0,0c0-0.1-0.1-0.1-0.1-0.2v0c-0.1,0-0.2,0.4-0.2,0.5v0
						h0v0c-0.1,0-0.1-0.1-0.2-0.1c-0.2,0-0.4,0-0.5,0c-0.1-0.1-0.2-0.2-0.3-0.2c0,0-0.1-0.1-0.2-0.1c-0.1,0.1,0,0.2,0,0.2l0,0
						c0.1,0.1,0.3,0.2,0.4,0.4c0.1,0.1,0.3,0.3,0.4,0.4c0,0,0.2,0.2,0.2,0.3l0,0c0,0,0.1,0.1,0.1,0.1c0,0,0,0,0,0
						c0,0-0.1,0.1-0.2,0.2c0,0.1,0.1,0.1,0.1,0.2c0.1,0.1,0.1,0.2,0.2,0.2c0.2,0.1,0.3,0,0.5,0.2c0,0,0.1,0.1,0.1,0.1l0,0
						c0,0,0.7,0.6,0.8,0.6c0,0,0,0,0,0c0,0,0,0,0,0c0,0,0.2-0.3,0.3-0.3h0c0,0,0,0,0,0C63.9,47.8,63.8,47.4,63.5,47.1z"/>
					<path class="st0" d="M65.8,46.9c0.1,0,0.2-0.2,0.3-0.2l0,0c0,0,0.6-0.5,0.6-0.6h0c0.1-0.1,0.3-0.3,0.4-0.4c0,0,0,0,0,0
						c0,0,0,0,0,0c-0.1-0.2-0.4-0.4-0.6-0.6c-0.4-0.4-0.8-0.8-1.2-1.2l0,0c-0.1-0.1-0.1-0.1-0.2-0.2h0c0,0,0,0,0,0
						c-0.2-0.2-0.4-0.4-0.4-0.4l0,0c-0.4-0.3-1-1-1-1.1c0-0.1,0-0.2,0-0.2c0-0.3,0-0.6,0-0.8c0-0.1,0-0.2,0-0.3
						c-0.1-0.2-0.3-0.3-0.4-0.5c-0.2-0.2-0.3-0.3-0.5-0.5c-0.1-0.1-0.3,0-0.4-0.1c-0.1-0.1-0.3-0.2-0.4-0.3
						c-0.1-0.1-0.2-0.1-0.3-0.2c-0.1,0-0.2-0.1-0.3-0.1h0c0,0,0,0,0,0c-0.2,0-0.3,0.1-0.5,0.1c-0.5,0.2-0.9,0.3-1.4,0.5
						c0,0.2,0,0.3,0,0.5c0,0,0.1,0.4,0.1,0.7c0,0,0,0,0,0c0,0,0,0,0,0l0,0c0.1,0.2,0.1,0.4,0.1,0.5c0.1,0.5,0.2,1,0.4,1.5
						c0,0.2,0.1,0.3,0.1,0.5c0,0.1,0.1,0,0.2,0c0.3-0.1,0.7-0.3,1-0.4c0.2-0.1,0.3-0.2,0.5-0.2c0,0.2,0.2,0.3,0.2,0.6
						c0,0.2-0.4,0.4-0.4,0.6c0,0.1,0.2,0.5,0.3,0.5c0.4,0.3,0.9,0.5,1.3,0.8v0c0.1,0.1,0.4,0.3,0.4,0.3v0c0.1,0.1,0.2,0.1,0.3,0.2
						c0.2,0.1,0.3,0.2,0.5,0.4c0.1,0.1,0.2,0.2,0.4,0.3c0.2,0.1,0.3,0.4,0.5,0.5C65.2,46.9,65.7,47,65.8,46.9z"/>
				</g>
			</g>
		</g>
	</g>
</g>
</svg>
