<?xml version="1.0" encoding="utf-8"?>
<!-- Generator: Adobe Illustrator 24.0.1, SVG Export Plug-In . SVG Version: 6.00 Build 0)  -->
<svg version="1.1" id="Foreground_Layer" xmlns="http://www.w3.org/2000/svg" xmlns:xlink="http://www.w3.org/1999/xlink" x="0px"
	 y="0px" viewBox="0 0 108 108" style="enable-background:new 0 0 108 108;" xml:space="preserve">
<style type="text/css">
	.st0{fill:url(#Background_1_);}
	.st1{fill:#FFFFFF;}
</style>
<g>
	
		<linearGradient id="Background_1_" gradientUnits="userSpaceOnUse" x1="-194.2084" y1="304.4519" x2="-194.2097" y2="304.289" gradientTransform="matrix(375 0 0 -667 72882.3984 203069.0469)">
		<stop  offset="0" style="stop-color:#51CDFC"/>
		<stop  offset="1" style="stop-color:#3F7ED0"/>
	</linearGradient>
	<rect id="Background" class="st0" width="108" height="108"/>
	<g>
		<g>
			<path class="st1" d="M76.4,55l0-2c0-0.2,0.1-0.3,0.2-0.3h0.1c0-0.3,0-0.6-0.1-1l-0.1,0c-0.1,0-0.2-0.1-0.3-0.3l-0.3-2
				c0-0.2,0.1-0.3,0.2-0.3l0.1,0c-0.1-0.3-0.1-0.6-0.2-0.9l-0.1,0c-0.1,0-0.3-0.1-0.3-0.2L75,46.1c-0.1-0.2,0-0.3,0.1-0.4l0.1,0
				c-0.1-0.3-0.2-0.6-0.4-0.9l-0.1,0.1c-0.1,0.1-0.3,0-0.3-0.2l-0.9-1.8c-0.1-0.1,0-0.3,0.1-0.4l0.1-0.1c-0.2-0.3-0.3-0.6-0.5-0.8
				L73,41.8c-0.1,0.1-0.3,0-0.4-0.1L71.5,40c-0.1-0.1-0.1-0.3,0-0.4l0.1-0.1c-0.2-0.2-0.4-0.5-0.6-0.7l-0.1,0.1
				c-0.1,0.1-0.3,0.1-0.4-0.1l-1.4-1.4c-0.1-0.1-0.1-0.3-0.1-0.4l0.1-0.1c-0.2-0.2-0.5-0.4-0.7-0.6l-0.1,0.1c-0.1,0.1-0.2,0.1-0.4,0
				l-1.6-1.2c-0.1-0.1-0.2-0.3-0.1-0.4l0.1-0.1c-0.3-0.2-0.5-0.3-0.8-0.5l-0.1,0.1c-0.1,0.1-0.2,0.1-0.4,0.1l-1.8-0.9
				c-0.1-0.1-0.2-0.2-0.2-0.3l0.1-0.1c-0.3-0.1-0.6-0.3-0.9-0.4l0,0.1c0,0.1-0.2,0.2-0.4,0.1L60,32.4c-0.2-0.1-0.3-0.2-0.2-0.3
				l0-0.1c-0.3-0.1-0.6-0.2-0.9-0.2l0,0.1c0,0.1-0.2,0.2-0.3,0.2l-2-0.3c-0.2,0-0.3-0.1-0.3-0.3l0-0.1c-0.3,0-0.7-0.1-0.9-0.1v0.1
				c0,0.1-0.2,0.2-0.3,0.2l-2,0c-0.2,0-0.3-0.1-0.3-0.2l0-0.1c-0.3,0-0.6,0-1,0.1l0,0.1c0,0.1-0.1,0.2-0.3,0.3l-2,0.3
				c-0.2,0-0.3-0.1-0.3-0.2l0-0.1c-0.3,0.1-0.6,0.1-0.9,0.2l0,0.1c0,0.1-0.1,0.3-0.2,0.3L46.1,33c-0.2,0.1-0.3,0-0.4-0.1l0-0.1
				c-0.3,0.1-0.6,0.2-0.9,0.4l0.1,0.1c0.1,0.1,0,0.3-0.2,0.3L43,34.5c-0.1,0.1-0.3,0-0.4-0.1l-0.1-0.1c-0.3,0.2-0.6,0.3-0.8,0.5
				l0.1,0.1c0.1,0.1,0,0.3-0.1,0.4L40,36.5c-0.1,0.1-0.3,0.1-0.4,0l-0.1-0.1c-0.2,0.2-0.5,0.4-0.7,0.6l0.1,0.1
				c0.1,0.1,0.1,0.3-0.1,0.4l-1.4,1.4c-0.1,0.1-0.3,0.1-0.4,0.1L37,38.8c-0.2,0.2-0.4,0.5-0.6,0.7l0.1,0.1c0.1,0.1,0.1,0.2,0,0.4
				l-1.2,1.6c-0.1,0.1-0.3,0.2-0.4,0.1l-0.1-0.1c-0.2,0.3-0.3,0.5-0.5,0.8l0.1,0.1c0.1,0.1,0.1,0.2,0.1,0.4l-0.9,1.8
				c-0.1,0.1-0.2,0.2-0.3,0.2l-0.1-0.1c-0.1,0.3-0.3,0.6-0.4,0.9l0.1,0c0.1,0,0.2,0.2,0.1,0.4L32.4,48c-0.1,0.2-0.2,0.3-0.3,0.2
				l-0.1,0c-0.1,0.3-0.2,0.6-0.2,0.9l0.1,0c0.1,0,0.2,0.2,0.2,0.3l-0.3,2c0,0.2-0.1,0.3-0.3,0.3l-0.1,0c0,0.3-0.1,0.7-0.1,1h0.1
				c0.1,0,0.2,0.1,0.2,0.3l0,2c0,0.2-0.1,0.3-0.2,0.3l-0.1,0c0,0.3,0,0.6,0.1,1l0.1,0c0.1,0,0.2,0.1,0.3,0.3l0.3,2
				c0,0.2-0.1,0.3-0.2,0.3l-0.1,0c0.1,0.3,0.1,0.6,0.2,0.9l0.1,0c0.1,0,0.3,0.1,0.3,0.2l0.6,1.9c0.1,0.2,0,0.3-0.1,0.4l-0.1,0
				c0.1,0.3,0.2,0.6,0.4,0.9l0.1-0.1c0.1-0.1,0.3,0,0.3,0.2l0.9,1.8c0.1,0.1,0,0.3-0.1,0.4l-0.1,0.1c0.2,0.3,0.3,0.6,0.5,0.8
				l0.1-0.1c0.1-0.1,0.3,0,0.4,0.1l1.2,1.6c0.1,0.1,0.1,0.3,0,0.4l-0.1,0.1c0.2,0.2,0.4,0.5,0.6,0.7l0.1-0.1
				c0.1-0.1,0.3-0.1,0.4,0.1l1.4,1.4c0.1,0.1,0.1,0.3,0.1,0.4L38.9,71c0.2,0.2,0.5,0.4,0.7,0.6l0.1-0.1c0.1-0.1,0.2-0.1,0.4,0
				l1.6,1.2c0.1,0.1,0.2,0.3,0.1,0.4l-0.1,0.1c0.3,0.2,0.5,0.3,0.8,0.5l0.1-0.1c0.1-0.1,0.2-0.1,0.4-0.1l1.8,0.9
				c0.1,0.1,0.2,0.2,0.2,0.3l-0.1,0.1c0.3,0.1,0.6,0.3,0.9,0.4l0-0.1c0-0.1,0.2-0.2,0.4-0.1l1.9,0.6c0.2,0.1,0.3,0.2,0.2,0.3l0,0.1
				c0.3,0.1,0.6,0.2,0.9,0.2l0-0.1c0-0.1,0.2-0.2,0.3-0.2l2,0.3c0.2,0,0.3,0.1,0.3,0.3l0,0.1c0.3,0,0.6,0.1,1,0.1l0-0.1
				c0-0.1,0.1-0.2,0.3-0.2l2,0c0.2,0,0.3,0.1,0.3,0.2v0.1c0.3,0,0.6,0,0.9-0.1l0-0.1c0-0.1,0.1-0.2,0.3-0.3l2-0.3
				c0.2,0,0.3,0.1,0.3,0.2l0,0.1c0.3-0.1,0.6-0.1,0.9-0.2l0-0.1c0-0.1,0.1-0.3,0.2-0.3l1.9-0.6c0.2-0.1,0.3,0,0.4,0.1l0,0.1
				c0.3-0.1,0.6-0.2,0.9-0.4l-0.1-0.1c-0.1-0.1,0-0.3,0.2-0.3l1.8-0.9c0.1-0.1,0.3,0,0.4,0.1l0.1,0.1c0.3-0.2,0.6-0.3,0.8-0.5
				L66.2,73c-0.1-0.1,0-0.3,0.1-0.4l1.6-1.2c0.1-0.1,0.3-0.1,0.4,0l0.1,0.1c0.2-0.2,0.5-0.4,0.7-0.6l-0.1-0.1
				c-0.1-0.1-0.1-0.3,0.1-0.4l1.4-1.4c0.1-0.1,0.3-0.1,0.4-0.1l0.1,0.1c0.2-0.2,0.4-0.5,0.6-0.7l-0.1-0.1c-0.1-0.1-0.1-0.2,0-0.4
				l1.2-1.6c0.1-0.1,0.3-0.2,0.4-0.1l0.1,0.1c0.2-0.3,0.3-0.5,0.5-0.8l-0.1-0.1c-0.1-0.1-0.1-0.2-0.1-0.4l0.9-1.8
				c0.1-0.1,0.2-0.2,0.3-0.2l0.1,0.1c0.1-0.3,0.3-0.6,0.4-0.9l-0.1,0c-0.1,0-0.2-0.2-0.1-0.4l0.6-1.9c0.1-0.2,0.2-0.3,0.3-0.2l0.1,0
				c0.1-0.3,0.2-0.6,0.2-0.9l-0.1,0c-0.1,0-0.2-0.2-0.2-0.3l0.3-2c0-0.2,0.1-0.3,0.3-0.3l0.1,0c0-0.3,0.1-0.6,0.1-1l-0.1,0
				C76.5,55.3,76.4,55.1,76.4,55z M54,75.7C42,75.7,32.3,66,32.3,54c0-12,9.7-21.7,21.7-21.7c12,0,21.7,9.7,21.7,21.7
				C75.7,66,66,75.7,54,75.7z"/>
			<path class="st1" d="M51.3,79.2c-0.1-0.1-0.1-0.2-0.2-0.2c-0.1-0.1-0.2-0.1-0.3-0.1c-0.1,0-0.2,0-0.3,0c-0.1,0-0.2,0.1-0.3,0.1
				c-0.1,0.1-0.2,0.2-0.2,0.3c-0.1,0.1-0.1,0.3-0.1,0.4l0,0.4c0,0.2,0,0.3,0,0.5c0,0.1,0.1,0.2,0.1,0.3c0.1,0.1,0.1,0.2,0.2,0.2
				c0.1,0.1,0.2,0.1,0.3,0.1c0.1,0,0.2,0,0.3,0c0.1,0,0.2-0.1,0.3-0.1c0.1-0.1,0.2-0.2,0.2-0.3c0.1-0.1,0.1-0.3,0.1-0.4l0-0.4
				c0-0.2,0-0.3,0-0.5C51.4,79.4,51.4,79.3,51.3,79.2z"/>
			<path class="st1" d="M40.1,76.8c0,0.1,0,0.1,0,0.2c0,0,0,0.1,0,0.1c0,0,0,0.1,0,0.1c0,0,0,0.1,0,0.2c0.1,0,0.1-0.1,0.1-0.1
				c0,0,0.1-0.1,0.1-0.1c0,0,0.1-0.1,0.1-0.1c0,0,0.1-0.1,0.1-0.1l0.6-0.5l-0.8-0.5L40.1,76.8z"/>
			<path class="st1" d="M47.1,79.6c-0.1,0.1-0.2,0.2-0.2,0.3l0,0.1c0,0.1,0,0.3,0.1,0.4c0.1,0.1,0.2,0.2,0.4,0.2l0.6,0.2l0.3-1
				l-0.6-0.1C47.4,79.5,47.2,79.5,47.1,79.6z"/>
			<path class="st1" d="M59.1,79.6c0-0.2-0.1-0.3-0.1-0.4c-0.1-0.1-0.1-0.2-0.2-0.3c-0.1-0.1-0.2-0.1-0.3-0.1c-0.1,0-0.2,0-0.3,0
				c-0.1,0-0.2,0.1-0.3,0.1c-0.1,0.1-0.2,0.1-0.2,0.2c-0.1,0.1-0.1,0.2-0.1,0.3c0,0.1,0,0.3,0,0.5l0.1,0.4c0,0.2,0.1,0.3,0.1,0.4
				c0.1,0.1,0.1,0.2,0.2,0.3c0.1,0.1,0.2,0.1,0.3,0.1c0.1,0,0.2,0,0.3,0c0.1,0,0.2-0.1,0.3-0.1c0.1-0.1,0.2-0.1,0.2-0.2
				c0.1-0.1,0.1-0.2,0.1-0.3c0-0.1,0-0.3,0-0.5L59.1,79.6z"/>
			<path class="st1" d="M39.9,31.5c0-0.1,0-0.3-0.1-0.4l0-0.1c-0.1-0.1-0.2-0.2-0.3-0.2c-0.1,0-0.3,0-0.5,0.2l-0.5,0.4l0.6,0.9
				l0.5-0.3C39.8,31.8,39.9,31.6,39.9,31.5z"/>
			<path class="st1" d="M62.9,79.4L62.9,79.4c0.1,0.2,0.2,0.3,0.3,0.4c0.1,0,0.3,0,0.5-0.1l0.6-0.2L64,78.4l-0.6,0.2
				C63,78.8,62.8,79,62.9,79.4z"/>
			<path class="st1" d="M68,76.6c0,0.1,0,0.3,0.1,0.4l0,0.1c0.1,0.1,0.2,0.2,0.3,0.2c0.1,0,0.3,0,0.5-0.2l0.6-0.4l-0.6-0.9l-0.5,0.3
				C68.2,76.3,68,76.4,68,76.6z"/>
			<path class="st1" d="M48.8,28.4c0,0.2,0.1,0.3,0.1,0.4c0.1,0.1,0.1,0.2,0.2,0.3c0.1,0.1,0.2,0.1,0.3,0.1c0.1,0,0.2,0,0.3,0
				c0.1,0,0.2-0.1,0.3-0.1c0.1-0.1,0.2-0.1,0.2-0.2s0.1-0.2,0.1-0.3c0-0.1,0-0.3,0-0.5l-0.1-0.4c0-0.2-0.1-0.3-0.1-0.4
				c-0.1-0.1-0.1-0.2-0.2-0.3c-0.1-0.1-0.2-0.1-0.3-0.1c-0.1,0-0.2,0-0.3,0c-0.1,0-0.2,0.1-0.3,0.1c-0.1,0.1-0.2,0.1-0.2,0.2
				c-0.1,0.1-0.1,0.2-0.1,0.3c0,0.1,0,0.3,0,0.5L48.8,28.4z"/>
			<path class="st1" d="M45,28.7L45,28.7c-0.1-0.2-0.2-0.3-0.3-0.4c-0.1,0-0.3,0-0.5,0.1l-0.6,0.2l0.4,1.1l0.6-0.2
				C44.9,29.3,45.1,29,45,28.7z"/>
			<path class="st1" d="M56.6,28.8c0.1,0.1,0.1,0.2,0.2,0.2c0.1,0.1,0.2,0.1,0.3,0.1c0.1,0,0.2,0,0.3,0c0.1,0,0.2-0.1,0.3-0.1
				c0.1-0.1,0.2-0.2,0.2-0.3c0.1-0.1,0.1-0.3,0.1-0.5l0-0.4c0-0.2,0-0.3,0-0.5c0-0.1-0.1-0.2-0.1-0.3c-0.1-0.1-0.1-0.2-0.2-0.2
				c-0.1-0.1-0.2-0.1-0.3-0.1c-0.1,0-0.2,0-0.3,0c-0.1,0-0.2,0.1-0.3,0.1c-0.1,0.1-0.2,0.2-0.2,0.3c-0.1,0.1-0.1,0.3-0.1,0.5l0,0.4
				c0,0.2,0,0.3,0,0.5C56.5,28.6,56.5,28.7,56.6,28.8z"/>
			<path class="st1" d="M29.6,42.7c0.1,0.1,0.2,0.2,0.4,0.3l0.3,0.2c0.2,0.1,0.3,0.1,0.4,0.1c0.1,0,0.3,0,0.4,0
				c0.1,0,0.2-0.1,0.3-0.2c0.1-0.1,0.1-0.2,0.2-0.3c0.1-0.1,0.1-0.2,0.1-0.3c0-0.1,0-0.2,0-0.3c0-0.1-0.1-0.2-0.2-0.3
				c-0.1-0.1-0.2-0.2-0.4-0.3l-0.3-0.2c-0.2-0.1-0.3-0.1-0.4-0.1c-0.1,0-0.3,0-0.4,0c-0.1,0-0.2,0.1-0.3,0.2
				c-0.1,0.1-0.1,0.2-0.2,0.3c-0.1,0.1-0.1,0.2-0.1,0.3c0,0.1,0,0.2,0,0.3C29.4,42.5,29.5,42.6,29.6,42.7z"/>
			<path class="st1" d="M60.8,28.3c0.1-0.1,0.2-0.2,0.2-0.3l0-0.1c0-0.1,0-0.3-0.1-0.4c-0.1-0.1-0.2-0.2-0.4-0.2l-0.6-0.2l-0.3,1
				l0.6,0.1C60.5,28.4,60.7,28.4,60.8,28.3z"/>
			<path class="st1" d="M29.5,47.5c-0.1-0.1-0.1-0.2-0.2-0.3c-0.1-0.1-0.2-0.1-0.4-0.2L28.5,47c-0.2,0-0.3-0.1-0.4,0
				c-0.1,0-0.2,0.1-0.3,0.1c-0.1,0.1-0.2,0.1-0.2,0.2c-0.1,0.1-0.1,0.2-0.1,0.4l-0.1,0.6l2.3,0.5l0.1-0.6c0-0.1,0-0.3,0-0.4
				C29.6,47.7,29.6,47.6,29.5,47.5z"/>
			<path class="st1" d="M54.1,24.6c-16.3-0.1-29.6,13.1-29.6,29.3c-0.1,16.2,13.1,29.4,29.4,29.5c16.3,0.1,29.6-13.1,29.6-29.3
				C83.6,37.9,70.4,24.7,54.1,24.6z M81.4,48.5L81,48.6l-0.4-1.5l-0.9,0.2l0.3,1.4l-0.4,0.1l-0.3-1.4l-1,0.2l0.4,1.5l-0.4,0.1
				l-0.5-2l3-0.7L81.4,48.5z M80,43.8l-2.1,1.7l2.7,0l0.2,0.4l-3.3-0.1l-0.1-0.4l2.5-2.1L80,43.8z M79.6,42.8l-2.8,1.3l-0.2-0.4
				l2.8-1.3L79.6,42.8z M78.5,40.6l-2.4,1.3l0.7,1.3l-0.3,0.2l-0.9-1.7l2.7-1.4L78.5,40.6z M75.2,36.2c0.2,0,0.3,0.1,0.5,0.2
				c0.1,0.1,0.3,0.2,0.4,0.4c0.1,0.2,0.2,0.3,0.3,0.5c0.1,0.2,0.1,0.3,0.1,0.5l-0.4,0c0-0.2,0-0.3-0.1-0.5c-0.1-0.1-0.1-0.3-0.2-0.4
				c-0.2-0.2-0.4-0.3-0.6-0.4c-0.2,0-0.5,0.1-0.8,0.3l-0.3,0.2c-0.3,0.2-0.4,0.4-0.5,0.7c0,0.2,0.1,0.5,0.2,0.7
				c0.1,0.1,0.2,0.2,0.2,0.2c0.1,0.1,0.2,0.1,0.3,0.2l0.7-0.5l-0.4-0.6l0.3-0.2l0.7,0.9l-1.1,0.9c-0.2-0.1-0.3-0.1-0.5-0.3
				c-0.2-0.1-0.3-0.3-0.4-0.4c-0.1-0.2-0.2-0.3-0.3-0.5c-0.1-0.2-0.1-0.3-0.1-0.5c0-0.2,0.1-0.3,0.2-0.5c0.1-0.2,0.2-0.3,0.4-0.4
				l0.4-0.3c0.2-0.1,0.3-0.2,0.5-0.3C74.8,36.2,75,36.2,75.2,36.2z M73.3,33.9l-0.6,2.3c0,0.1,0,0.1-0.1,0.2c0,0.1-0.1,0.2-0.1,0.3
				l1.8-1.8l0.3,0.3l-2.2,2.2L72.1,37l0.6-2.3c0-0.1,0-0.1,0.1-0.2c0-0.1,0.1-0.2,0.1-0.3L71.1,36l-0.3-0.3l2.2-2.2L73.3,33.9z
				 M72.3,33l-2,2.3L70,35l2-2.3L72.3,33z M69.3,30.7l0.4,0.3L69,33.5l2.3-1.5l0.4,0.3l-2.8,1.8l-0.3-0.2L69.3,30.7z M68.3,30.1
				l-0.5,3.2l-0.4-0.2l0.2-0.9l-1.1-0.6l-0.7,0.6l-0.4-0.2l2.6-2L68.3,30.1z M63.7,30.4c0,0.1,0.1,0.1,0.1,0.2
				c0.1,0.1,0.1,0.1,0.2,0.2c0.1,0.1,0.1,0.1,0.2,0.2c0.1,0,0.1,0.1,0.2,0.1c0.2,0.1,0.4,0.1,0.5,0.1c0.1,0,0.2-0.1,0.3-0.2l0-0.1
				c0-0.1,0-0.1,0-0.2c0-0.1,0-0.1-0.1-0.2c0-0.1-0.1-0.1-0.2-0.2c-0.1-0.1-0.2-0.1-0.3-0.2c-0.1-0.1-0.2-0.2-0.3-0.3
				c-0.1-0.1-0.2-0.2-0.2-0.3c-0.1-0.1-0.1-0.2-0.1-0.3c0-0.1,0-0.2,0.1-0.4l0-0.1c0-0.1,0.1-0.2,0.2-0.3c0.1-0.1,0.2-0.1,0.3-0.2
				c0.1,0,0.2,0,0.4,0c0.1,0,0.3,0.1,0.5,0.1c0.2,0.1,0.3,0.2,0.5,0.3c0.1,0.1,0.2,0.2,0.3,0.4L66,29.4c-0.1-0.1-0.2-0.2-0.3-0.3
				c-0.1-0.1-0.2-0.2-0.3-0.2c-0.2-0.1-0.3-0.1-0.5-0.1c-0.1,0-0.2,0.1-0.3,0.2l0,0.1c0,0.1,0,0.1,0,0.2c0,0.1,0,0.1,0.1,0.2
				c0,0.1,0.1,0.1,0.2,0.2c0.1,0.1,0.2,0.1,0.3,0.2c0.2,0.1,0.3,0.2,0.4,0.3c0.1,0.1,0.2,0.2,0.2,0.3c0,0.1,0.1,0.2,0.1,0.3
				c0,0.1,0,0.2-0.1,0.3l0,0.1c-0.1,0.1-0.1,0.2-0.2,0.3c-0.1,0.1-0.2,0.1-0.3,0.1c-0.1,0-0.3,0-0.4,0c-0.1,0-0.3-0.1-0.4-0.1
				c-0.2-0.1-0.4-0.2-0.5-0.4c-0.1-0.1-0.3-0.3-0.3-0.4L63.7,30.4z M59.6,26.7l1.1,0.3c0.2,0,0.3,0.1,0.4,0.2
				c0.1,0.1,0.2,0.2,0.3,0.2c0.1,0.1,0.1,0.2,0.1,0.3c0,0.1,0,0.2,0,0.3l0,0.1c0,0.2-0.1,0.3-0.2,0.4c-0.1,0.1-0.3,0.2-0.5,0.2
				l0.3,1.5l-0.5-0.1l-0.3-1.4l-0.8-0.2l-0.3,1.2l-0.4-0.1L59.6,26.7z M56,28l0.1-0.5c0-0.2,0.1-0.4,0.2-0.6
				c0.1-0.2,0.2-0.3,0.3-0.4c0.1-0.1,0.3-0.2,0.4-0.2c0.2,0,0.3,0,0.5,0c0.2,0,0.4,0.1,0.5,0.1c0.2,0.1,0.3,0.2,0.4,0.3
				c0.1,0.1,0.2,0.3,0.2,0.5c0,0.2,0,0.4,0,0.6l-0.1,0.5c0,0.2-0.1,0.4-0.2,0.6c-0.1,0.2-0.2,0.3-0.3,0.4c-0.1,0.1-0.3,0.2-0.4,0.2
				c-0.2,0-0.3,0-0.5,0c-0.2,0-0.4-0.1-0.5-0.1c-0.1-0.1-0.3-0.2-0.4-0.3c-0.1-0.1-0.2-0.3-0.2-0.5C56,28.4,56,28.2,56,28z
				 M53.6,26.1l2,0l0,0.4l-1.5,0l0,1l1.4,0l0,0.4l-1.4,0l0,1.3l-0.4,0L53.6,26.1z M48.3,27.5c0-0.2,0.1-0.3,0.2-0.5
				c0.1-0.1,0.2-0.2,0.4-0.3c0.1-0.1,0.3-0.1,0.5-0.2c0.2,0,0.4,0,0.5,0c0.2,0,0.3,0.1,0.4,0.2c0.1,0.1,0.2,0.2,0.3,0.4
				c0.1,0.2,0.2,0.3,0.2,0.6l0.1,0.5c0,0.2,0,0.4,0,0.6c0,0.2-0.1,0.3-0.2,0.5c-0.1,0.1-0.2,0.2-0.4,0.3c-0.1,0.1-0.3,0.1-0.5,0.2
				c-0.2,0-0.4,0-0.5,0c-0.2,0-0.3-0.1-0.4-0.2c-0.1-0.1-0.2-0.2-0.3-0.4c-0.1-0.2-0.2-0.3-0.2-0.6l-0.1-0.5
				C48.3,27.8,48.3,27.6,48.3,27.5z M47.7,26.9l0.1,0.3l-0.9,0.3l0.7,2.6l-0.4,0.1l-0.7-2.6l-0.9,0.3l-0.1-0.3L47.7,26.9z M44,28
				c0.2-0.1,0.3-0.1,0.5-0.1c0.1,0,0.3,0,0.4,0c0.1,0,0.2,0.1,0.3,0.2c0.1,0.1,0.1,0.2,0.2,0.3l0,0.1c0,0.1,0.1,0.2,0.1,0.4
				c0,0.1,0,0.2-0.1,0.3c-0.1,0.1-0.1,0.2-0.2,0.3c-0.1,0.1-0.2,0.2-0.4,0.2L44.1,30l0.4,1.1l-0.4,0.2L43,28.4L44,28z M40.5,29.6
				l1.4,0.9l0.1-1.6l0.4-0.2l-0.1,2.1l0.6,1.1l-0.4,0.2L41.9,31l-1.8-1.1L40.5,29.6z M38.9,30.7c0.1-0.1,0.3-0.2,0.4-0.2
				c0.1,0,0.3,0,0.4,0c0.1,0,0.2,0.1,0.3,0.1c0.1,0.1,0.2,0.1,0.2,0.2l0.1,0.1c0.1,0.1,0.1,0.3,0.1,0.5c0,0.2-0.1,0.3-0.2,0.5
				l1.3,0.8l-0.4,0.3l-1.2-0.8l-0.7,0.4l0.7,1.1l-0.4,0.2l-1.7-2.6L38.9,30.7z M35.9,33.2c0-0.2,0.1-0.3,0.2-0.5
				c0.1-0.1,0.2-0.3,0.3-0.4c0.2-0.1,0.3-0.2,0.5-0.3c0.2-0.1,0.3-0.1,0.5-0.1l0,0.4c-0.2,0-0.3,0-0.5,0.1c-0.1,0.1-0.2,0.1-0.4,0.2
				c-0.1,0.1-0.2,0.2-0.2,0.3c-0.1,0.1-0.1,0.2-0.1,0.3c0,0.1,0,0.2,0.1,0.4c0,0.1,0.1,0.3,0.2,0.4l0.2,0.3c0.1,0.1,0.2,0.2,0.3,0.3
				c0.1,0.1,0.2,0.1,0.3,0.1c0.1,0,0.2,0,0.3,0c0.1,0,0.2-0.1,0.3-0.2c0.1-0.1,0.2-0.2,0.3-0.3c0.1-0.1,0.1-0.3,0.2-0.5l0.4,0.1
				c0,0.2-0.1,0.4-0.2,0.6c-0.1,0.2-0.2,0.3-0.4,0.5C38.3,35,38.2,35,38,35.1c-0.2,0.1-0.3,0.1-0.5,0.1c-0.2,0-0.3-0.1-0.5-0.2
				c-0.2-0.1-0.3-0.2-0.4-0.4l-0.3-0.4c-0.1-0.2-0.2-0.3-0.3-0.5C36,33.6,35.9,33.4,35.9,33.2z M35,35.7l0.4,0.3L35,36.4l-0.4-0.3
				L35,35.7z M31,38.4l2.4,0.2c0.1,0,0.1,0,0.2,0c0.1,0,0.2,0,0.3,0.1l-2-1.5l0.2-0.3l2.5,1.8L34.3,39l-2.4-0.2c-0.1,0-0.1,0-0.2,0
				c-0.1,0-0.2,0-0.3-0.1l2,1.5l-0.2,0.3l-2.5-1.8L31,38.4z M30.3,39.5l2.6,1.6l-0.2,0.4l-2.6-1.6L30.3,39.5z M28.9,42.1
				c0-0.2,0.1-0.3,0.2-0.5c0.1-0.2,0.2-0.3,0.3-0.4c0.1-0.1,0.3-0.2,0.4-0.3c0.2-0.1,0.3-0.1,0.5-0.1c0.2,0,0.4,0.1,0.6,0.2l0.4,0.2
				c0.2,0.1,0.4,0.2,0.5,0.3c0.1,0.1,0.2,0.3,0.3,0.4c0.1,0.2,0.1,0.3,0,0.5c0,0.2-0.1,0.3-0.2,0.5c-0.1,0.2-0.2,0.3-0.3,0.4
				c-0.1,0.1-0.3,0.2-0.4,0.3c-0.2,0.1-0.3,0.1-0.5,0.1c-0.2,0-0.4-0.1-0.6-0.2l-0.4-0.2c-0.2-0.1-0.4-0.2-0.5-0.3
				c-0.1-0.1-0.2-0.3-0.3-0.4C28.9,42.4,28.9,42.3,28.9,42.1z M27.9,44.4c0.1-0.2,0.2-0.4,0.3-0.5c0.1-0.1,0.2-0.3,0.4-0.4l0.2,0.3
				c-0.2,0.1-0.3,0.2-0.4,0.3c-0.1,0.1-0.1,0.2-0.2,0.4c0,0.1-0.1,0.2-0.1,0.3c0,0.1,0,0.2,0.1,0.3c0.1,0.1,0.1,0.2,0.2,0.3
				c0.1,0.1,0.2,0.2,0.4,0.2l0.3,0.1c0.2,0.1,0.3,0.1,0.4,0.1c0.1,0,0.3,0,0.4-0.1c0.1,0,0.2-0.1,0.3-0.2c0.1-0.1,0.1-0.2,0.2-0.3
				c0.1-0.1,0.1-0.3,0.1-0.5c0-0.2,0-0.3-0.1-0.5l0.4-0.1c0.1,0.2,0.1,0.4,0.1,0.6c0,0.2-0.1,0.4-0.1,0.6c-0.1,0.2-0.2,0.3-0.3,0.5
				c-0.1,0.1-0.2,0.2-0.4,0.3c-0.1,0.1-0.3,0.1-0.5,0.1c-0.2,0-0.4,0-0.6-0.1l-0.4-0.2c-0.2-0.1-0.4-0.2-0.5-0.3
				c-0.1-0.1-0.2-0.2-0.3-0.4c-0.1-0.1-0.1-0.3-0.1-0.5C27.8,44.8,27.8,44.6,27.9,44.4z M27,47.6c0.1-0.4,0.3-0.7,0.6-0.9
				c0.3-0.2,0.6-0.2,1-0.1l0.4,0.1c0.4,0.1,0.7,0.3,0.9,0.6c0.2,0.3,0.2,0.6,0.1,1.1l-0.2,1l-3-0.7L27,47.6z M26.4,50.4
				c0-0.2,0.1-0.4,0.1-0.5c0.1-0.2,0.1-0.3,0.3-0.4l0.3,0.2c-0.1,0.1-0.2,0.2-0.2,0.3c0,0.1-0.1,0.2-0.1,0.4c0,0.2,0,0.4,0.1,0.5
				c0.1,0.1,0.2,0.2,0.3,0.2l0.1,0c0.1,0,0.1,0,0.2,0c0.1,0,0.1-0.1,0.1-0.1c0-0.1,0.1-0.1,0.1-0.2c0-0.1,0.1-0.2,0.1-0.3
				c0.1-0.2,0.1-0.3,0.2-0.5c0.1-0.1,0.1-0.2,0.2-0.3c0.1-0.1,0.2-0.1,0.3-0.1c0.1,0,0.2,0,0.3,0l0.1,0c0.1,0,0.3,0.1,0.4,0.1
				c0.1,0.1,0.2,0.2,0.2,0.3c0.1,0.1,0.1,0.2,0.1,0.4c0,0.1,0,0.3,0,0.5c0,0.2-0.1,0.4-0.2,0.6c-0.1,0.2-0.2,0.3-0.3,0.4l-0.3-0.3
				c0-0.1,0.1-0.1,0.1-0.2c0-0.1,0.1-0.1,0.1-0.2c0-0.1,0.1-0.2,0.1-0.2c0-0.1,0-0.2,0.1-0.2c0-0.2,0-0.4-0.1-0.5
				c-0.1-0.1-0.2-0.2-0.3-0.2l-0.1,0c-0.1,0-0.1,0-0.2,0c-0.1,0-0.1,0.1-0.2,0.1c0,0.1-0.1,0.1-0.1,0.2c0,0.1-0.1,0.2-0.1,0.3
				c0,0.1-0.1,0.3-0.2,0.4c-0.1,0.1-0.1,0.2-0.2,0.3c-0.1,0.1-0.2,0.1-0.3,0.2c-0.1,0-0.2,0.1-0.4,0l-0.1,0c-0.1,0-0.2,0-0.3-0.1
				c-0.1-0.1-0.2-0.1-0.2-0.2c-0.1-0.1-0.1-0.2-0.1-0.4C26.4,50.8,26.4,50.6,26.4,50.4z M28.2,53.7l0,0.5l-0.5,0l0-0.5L28.2,53.7z
				 M26.4,57.4c0-0.2,0-0.4,0-0.5c0-0.2,0.1-0.3,0.1-0.5l0.4,0.2c-0.1,0.1-0.1,0.3-0.1,0.4c0,0.1,0,0.3,0,0.4c0,0.2,0.1,0.4,0.2,0.5
				c0.1,0.1,0.2,0.2,0.3,0.1l0.1,0c0.1,0,0.1,0,0.2-0.1c0,0,0.1-0.1,0.1-0.2c0-0.1,0.1-0.1,0.1-0.2c0-0.1,0-0.2,0-0.3
				c0-0.2,0-0.4,0.1-0.5c0-0.1,0.1-0.2,0.1-0.3c0.1-0.1,0.1-0.2,0.2-0.2c0.1,0,0.2-0.1,0.3-0.1l0.1,0c0.1,0,0.3,0,0.4,0
				c0.1,0,0.2,0.1,0.3,0.2c0.1,0.1,0.2,0.2,0.2,0.3c0.1,0.1,0.1,0.3,0.1,0.4c0,0.2,0,0.4,0,0.6c0,0.2-0.1,0.4-0.2,0.5L29,58
				c0-0.1,0.1-0.1,0.1-0.2c0-0.1,0.1-0.2,0.1-0.2c0-0.1,0-0.2,0-0.2c0-0.1,0-0.2,0-0.2c0-0.2-0.1-0.4-0.2-0.5
				c-0.1-0.1-0.2-0.1-0.3-0.1l-0.1,0c-0.1,0-0.1,0-0.2,0.1c0,0-0.1,0.1-0.1,0.1c0,0.1-0.1,0.1-0.1,0.2c0,0.1,0,0.2,0,0.3
				c0,0.2,0,0.3-0.1,0.4c0,0.1-0.1,0.3-0.1,0.4c-0.1,0.1-0.1,0.2-0.2,0.3c-0.1,0.1-0.2,0.1-0.3,0.1l-0.1,0c-0.1,0-0.2,0-0.3,0
				c-0.1,0-0.2-0.1-0.3-0.2c-0.1-0.1-0.2-0.2-0.2-0.3C26.5,57.8,26.4,57.6,26.4,57.4z M26.7,59.2l0.4-0.1l0.3,1.5l0.9-0.2L28,59
				l0.4-0.1l0.3,1.4l1-0.2l-0.4-1.5l0.4-0.1l0.5,2l-3,0.7L26.7,59.2z M28.1,64l2.1-1.7l-2.7-0.1l-0.1-0.4l3.3,0.1l0.1,0.4l-2.5,2.1
				L28.1,64z M28.5,64.9l2.8-1.2l0.2,0.4l-2.8,1.2L28.5,64.9z M29.5,67.1l2.4-1.2l-0.7-1.4l0.3-0.2l0.9,1.7l-2.7,1.4L29.5,67.1z
				 M32.8,71.5c-0.2,0-0.3-0.1-0.5-0.2c-0.1-0.1-0.3-0.2-0.4-0.4c-0.1-0.2-0.2-0.3-0.3-0.5c-0.1-0.2-0.1-0.3-0.1-0.5l0.4,0
				c0,0.2,0,0.3,0.1,0.5c0,0.1,0.1,0.3,0.2,0.4c0.2,0.2,0.4,0.3,0.6,0.4c0.2,0,0.5-0.1,0.8-0.3l0.3-0.2c0.3-0.2,0.4-0.4,0.5-0.7
				c0-0.2-0.1-0.5-0.2-0.7C34.1,69.1,34,69,33.9,69c-0.1-0.1-0.2-0.1-0.3-0.2L33,69.3l0.4,0.6l-0.3,0.2l-0.7-0.9l1.2-0.9
				c0.2,0.1,0.3,0.1,0.5,0.3c0.2,0.1,0.3,0.3,0.4,0.4c0.1,0.2,0.2,0.3,0.3,0.5c0.1,0.2,0.1,0.3,0.1,0.5c0,0.2-0.1,0.3-0.2,0.5
				c-0.1,0.2-0.2,0.3-0.4,0.4l-0.4,0.3c-0.2,0.1-0.4,0.2-0.5,0.3C33.2,71.5,33,71.5,32.8,71.5z M34.7,73.9l0.6-2.3
				c0-0.1,0-0.1,0.1-0.2c0-0.1,0.1-0.2,0.1-0.3l-1.8,1.8l-0.3-0.3l2.2-2.1l0.4,0.4l-0.6,2.3c0,0.1,0,0.1-0.1,0.2
				c0,0.1-0.1,0.2-0.1,0.3l1.8-1.8l0.3,0.3L35,74.3L34.7,73.9z M35.6,74.8l2-2.3l0.3,0.3l-2,2.3L35.6,74.8z M38.6,77.2l-0.4-0.3
				l0.8-2.6l-2.3,1.5l-0.4-0.3l2.8-1.7l0.3,0.2L38.6,77.2z M39.6,77.7l0.6-3.2l0.4,0.2l-0.2,0.9l1,0.6l0.8-0.6l0.4,0.2l-2.6,2
				L39.6,77.7z M44.2,77.4c0-0.1-0.1-0.1-0.1-0.2c-0.1-0.1-0.1-0.1-0.2-0.2c-0.1-0.1-0.1-0.1-0.2-0.2c-0.1,0-0.1-0.1-0.2-0.1
				c-0.2-0.1-0.4-0.1-0.5-0.1c-0.1,0-0.2,0.1-0.3,0.2l0,0.1c0,0.1,0,0.1,0,0.2c0,0.1,0,0.1,0.1,0.2c0,0.1,0.1,0.1,0.2,0.2
				c0.1,0.1,0.2,0.1,0.3,0.2c0.1,0.1,0.2,0.2,0.3,0.3c0.1,0.1,0.2,0.2,0.2,0.3c0.1,0.1,0.1,0.2,0.1,0.3c0,0.1,0,0.2-0.1,0.4l0,0.1
				c0,0.1-0.1,0.2-0.2,0.2c-0.1,0.1-0.2,0.1-0.3,0.2c-0.1,0-0.2,0-0.4,0c-0.1,0-0.3-0.1-0.5-0.1c-0.2-0.1-0.3-0.2-0.5-0.3
				c-0.1-0.1-0.2-0.2-0.3-0.4l0.3-0.2c0.1,0.1,0.2,0.2,0.3,0.3c0.1,0.1,0.2,0.2,0.3,0.2c0.2,0.1,0.3,0.1,0.5,0.1
				c0.1,0,0.2-0.1,0.3-0.2l0-0.1c0-0.1,0-0.1,0-0.2c0-0.1,0-0.1-0.1-0.2c0-0.1-0.1-0.1-0.2-0.2c-0.1-0.1-0.2-0.1-0.3-0.2
				c-0.2-0.1-0.3-0.2-0.4-0.3c-0.1-0.1-0.2-0.2-0.2-0.3c0-0.1-0.1-0.2-0.1-0.3c0-0.1,0-0.2,0.1-0.3l0-0.1c0.1-0.1,0.1-0.2,0.2-0.3
				c0.1-0.1,0.2-0.1,0.3-0.1c0.1,0,0.3,0,0.4,0c0.1,0,0.3,0.1,0.4,0.1c0.2,0.1,0.4,0.2,0.5,0.4c0.1,0.1,0.3,0.3,0.3,0.4L44.2,77.4z
				 M48.3,81.2L47.2,81c-0.2,0-0.3-0.1-0.4-0.2c-0.1-0.1-0.2-0.2-0.3-0.2c-0.1-0.1-0.1-0.2-0.1-0.3c0-0.1,0-0.2,0-0.3l0-0.1
				c0-0.2,0.1-0.3,0.2-0.4c0.1-0.1,0.3-0.2,0.5-0.2l-0.3-1.5l0.5,0.1l0.2,1.4l0.8,0.2l0.3-1.2l0.4,0.1L48.3,81.2z M51.9,80l-0.1,0.5
				c0,0.2-0.1,0.4-0.2,0.6c-0.1,0.2-0.2,0.3-0.3,0.4c-0.1,0.1-0.3,0.2-0.4,0.2c-0.2,0-0.3,0-0.5,0c-0.2,0-0.4-0.1-0.5-0.2
				c-0.2-0.1-0.3-0.2-0.4-0.3c-0.1-0.1-0.2-0.3-0.2-0.5c0-0.2,0-0.4,0-0.6l0.1-0.5c0-0.2,0.1-0.4,0.2-0.6c0.1-0.2,0.2-0.3,0.3-0.4
				c0.1-0.1,0.3-0.2,0.4-0.2c0.2,0,0.3,0,0.5,0c0.2,0,0.4,0.1,0.5,0.2c0.1,0.1,0.3,0.2,0.4,0.3c0.1,0.1,0.2,0.3,0.2,0.5
				C51.9,79.6,51.9,79.8,51.9,80z M54.2,81.8l-2-0.1l0-0.4l1.5,0l0-1l-1.4,0l0-0.4l1.4,0l0-1.3l0.4,0L54.2,81.8z M59.6,80.6
				c0,0.2-0.1,0.3-0.2,0.5c-0.1,0.1-0.2,0.2-0.4,0.3c-0.1,0.1-0.3,0.1-0.5,0.2c-0.2,0-0.4,0-0.5,0c-0.2,0-0.3-0.1-0.4-0.2
				c-0.1-0.1-0.2-0.2-0.3-0.4c-0.1-0.2-0.2-0.3-0.2-0.6l-0.1-0.5c0-0.2,0-0.4,0-0.6c0-0.2,0.1-0.3,0.2-0.5c0.1-0.1,0.2-0.2,0.4-0.3
				c0.1-0.1,0.3-0.1,0.5-0.2c0.2,0,0.4,0,0.5,0c0.2,0,0.3,0.1,0.4,0.2c0.1,0.1,0.2,0.2,0.3,0.4c0.1,0.2,0.2,0.3,0.2,0.6l0.1,0.5
				C59.6,80.2,59.6,80.4,59.6,80.6z M60.2,81.2l-0.1-0.3l0.9-0.3l-0.7-2.6l0.4-0.1l0.7,2.6l0.9-0.3l0.1,0.3L60.2,81.2z M63.9,80
				c-0.2,0.1-0.3,0.1-0.5,0.1c-0.1,0-0.3,0-0.4-0.1c-0.1,0-0.2-0.1-0.3-0.2c-0.1-0.1-0.1-0.2-0.2-0.3l0-0.1c0-0.1-0.1-0.2-0.1-0.4
				c0-0.1,0-0.2,0.1-0.3c0.1-0.1,0.1-0.2,0.2-0.3c0.1-0.1,0.2-0.2,0.4-0.2l0.7-0.3l-0.4-1.1l0.4-0.2l1.1,2.9L63.9,80z M67.4,78.4
				L66,77.5l-0.1,1.6l-0.4,0.2l0.1-2.1l-0.6-1.1l0.4-0.2l0.6,1.1l1.8,1.1L67.4,78.4z M69.1,77.4c-0.1,0.1-0.3,0.1-0.4,0.2
				c-0.1,0-0.3,0-0.4,0c-0.1,0-0.2-0.1-0.3-0.1c-0.1-0.1-0.2-0.1-0.2-0.2l-0.1-0.1c-0.1-0.1-0.1-0.3-0.1-0.5c0-0.2,0.1-0.3,0.2-0.5
				l-1.3-0.8l0.4-0.3L68,76l0.7-0.4L68,74.5l0.4-0.2l1.7,2.6L69.1,77.4z M72,74.9c0,0.2-0.1,0.3-0.2,0.5c-0.1,0.1-0.2,0.3-0.3,0.4
				C71.3,75.9,71.2,76,71,76c-0.2,0.1-0.3,0.1-0.5,0.1l0-0.4c0.2,0,0.3,0,0.5-0.1c0.1-0.1,0.2-0.1,0.4-0.2c0.1-0.1,0.2-0.2,0.2-0.3
				c0.1-0.1,0.1-0.2,0.1-0.3c0-0.1,0-0.2-0.1-0.4c0-0.1-0.1-0.3-0.2-0.4L71,73.8c-0.1-0.1-0.2-0.2-0.3-0.3c-0.1-0.1-0.2-0.1-0.3-0.1
				c-0.1,0-0.2,0-0.3,0c-0.1,0-0.2,0.1-0.3,0.2c-0.1,0.1-0.2,0.2-0.3,0.3c-0.1,0.1-0.1,0.3-0.2,0.5l-0.4-0.1c0-0.2,0.1-0.4,0.2-0.6
				c0.1-0.2,0.3-0.3,0.4-0.4c0.1-0.1,0.3-0.2,0.5-0.3c0.2-0.1,0.3-0.1,0.5-0.1c0.2,0,0.3,0.1,0.5,0.2c0.2,0.1,0.3,0.2,0.4,0.4
				l0.3,0.4c0.1,0.2,0.2,0.3,0.3,0.5C72,74.6,72,74.7,72,74.9z M71.9,68.6l-0.2-0.1c-0.2,0.3-0.4,0.5-0.6,0.8l0.1,0.1
				c0.1,0.1,0.1,0.3-0.1,0.4l-1.4,1.4c-0.1,0.1-0.3,0.1-0.4,0.1l-0.1-0.1c-0.2,0.2-0.5,0.4-0.8,0.6l0.1,0.2c0.1,0.1,0,0.3-0.1,0.4
				l-1.6,1.2c-0.1,0.1-0.3,0.1-0.4,0l-0.1-0.2c-0.3,0.2-0.6,0.4-0.9,0.5l0.1,0.2c0.1,0.1,0,0.3-0.2,0.3l-1.8,0.9
				c-0.1,0.1-0.3,0-0.4-0.1L63.2,75c-0.3,0.1-0.6,0.3-0.9,0.4l0.1,0.2c0,0.1-0.1,0.3-0.2,0.3l-1.9,0.6c-0.2,0.1-0.3,0-0.4-0.1
				l-0.1-0.2c-0.3,0.1-0.6,0.2-1,0.2l0,0.2c0,0.1-0.1,0.2-0.3,0.3l-2,0.3c-0.2,0-0.3-0.1-0.3-0.2l0-0.2c-0.3,0-0.7,0.1-1,0.1l0,0.2
				c0,0.1-0.1,0.2-0.3,0.2l-2,0c-0.2,0-0.3-0.1-0.3-0.2l0-0.2c-0.3,0-0.7,0-1-0.1l0,0.2c0,0.1-0.2,0.2-0.3,0.2l-2-0.3
				c-0.2,0-0.3-0.1-0.3-0.3l0-0.2c-0.3-0.1-0.6-0.1-1-0.2l-0.1,0.2c0,0.1-0.2,0.2-0.4,0.1l-1.9-0.6c-0.2-0.1-0.3-0.2-0.2-0.3
				l0.1-0.2c-0.3-0.1-0.6-0.2-0.9-0.4l-0.1,0.2c-0.1,0.1-0.2,0.1-0.4,0.1l-1.8-0.9c-0.1-0.1-0.2-0.2-0.2-0.3l0.1-0.2
				c-0.3-0.2-0.6-0.3-0.9-0.5l-0.1,0.2c-0.1,0.1-0.2,0.1-0.4,0l-1.6-1.2c-0.1-0.1-0.2-0.3-0.1-0.4l0.1-0.2c-0.3-0.2-0.5-0.4-0.8-0.6
				l-0.1,0.1c-0.1,0.1-0.3,0.1-0.4-0.1l-1.4-1.4c-0.1-0.1-0.1-0.3-0.1-0.4l0.1-0.1c-0.2-0.2-0.4-0.5-0.6-0.8l-0.2,0.1
				c-0.1,0.1-0.3,0-0.4-0.1l-1.2-1.6c-0.1-0.1-0.1-0.3,0-0.4l0.2-0.1c-0.2-0.3-0.4-0.6-0.5-0.9L34,65.6c-0.1,0.1-0.3,0-0.3-0.2
				l-0.9-1.8c-0.1-0.1,0-0.3,0.1-0.4l0.2-0.1c-0.1-0.3-0.3-0.6-0.4-0.9l-0.2,0.1c-0.1,0-0.3-0.1-0.3-0.2l-0.6-1.9
				c-0.1-0.2,0-0.3,0.1-0.4l0.2-0.1c-0.1-0.3-0.2-0.6-0.2-1l-0.2,0c-0.1,0-0.2-0.1-0.3-0.3l-0.3-2c0-0.2,0.1-0.3,0.2-0.3l0.2,0
				c0-0.3-0.1-0.7-0.1-1l-0.2,0c-0.1,0-0.2-0.1-0.2-0.3l0-2c0-0.2,0.1-0.3,0.2-0.3h0.2c0-0.3,0-0.7,0.1-1l-0.2,0
				c-0.1,0-0.2-0.2-0.2-0.3l0.3-2c0-0.2,0.1-0.3,0.3-0.3l0.2,0c0.1-0.3,0.1-0.6,0.2-1l-0.2-0.1c-0.1,0-0.2-0.2-0.1-0.4l0.6-1.9
				c0.1-0.2,0.2-0.3,0.3-0.2l0.2,0.1c0.1-0.3,0.2-0.6,0.4-0.9l-0.2-0.1c-0.1-0.1-0.1-0.2-0.1-0.4l0.9-1.8c0.1-0.1,0.2-0.2,0.3-0.2
				l0.2,0.1c0.2-0.3,0.3-0.6,0.5-0.9l-0.2-0.1c-0.1-0.1-0.1-0.2,0-0.4l1.2-1.6c0.1-0.1,0.3-0.2,0.4-0.1l0.2,0.1
				c0.2-0.3,0.4-0.5,0.6-0.8l-0.1-0.1c-0.1-0.1-0.1-0.3,0.1-0.4l1.4-1.4c0.1-0.1,0.3-0.1,0.4-0.1l0.1,0.1c0.2-0.2,0.5-0.4,0.8-0.6
				l-0.1-0.2c-0.1-0.1,0-0.3,0.1-0.4l1.6-1.2c0.1-0.1,0.3-0.1,0.4,0l0.1,0.2c0.3-0.2,0.6-0.4,0.9-0.5L42.4,34
				c-0.1-0.1,0-0.3,0.2-0.3l1.8-0.9c0.1-0.1,0.3,0,0.4,0.1l0.1,0.2c0.3-0.1,0.6-0.3,0.9-0.4l-0.1-0.2c0-0.1,0.1-0.3,0.2-0.3l1.9-0.6
				c0.2-0.1,0.3,0,0.4,0.1l0.1,0.2c0.3-0.1,0.6-0.2,1-0.2l0-0.2c0-0.1,0.1-0.2,0.3-0.3l2-0.3c0.2,0,0.3,0.1,0.3,0.2l0,0.2
				c0.3,0,0.7-0.1,1-0.1l0-0.2c0-0.1,0.1-0.2,0.3-0.2l2,0c0.2,0,0.3,0.1,0.3,0.2l0,0.2c0.3,0,0.7,0,1,0.1l0-0.2
				c0-0.1,0.2-0.2,0.3-0.2l2,0.3c0.2,0,0.3,0.1,0.3,0.3l0,0.2c0.3,0.1,0.6,0.1,1,0.2l0.1-0.2c0-0.1,0.2-0.2,0.4-0.1l1.9,0.6
				c0.2,0.1,0.3,0.2,0.2,0.3l-0.1,0.2c0.3,0.1,0.6,0.2,0.9,0.4l0.1-0.2c0.1-0.1,0.2-0.1,0.4-0.1l1.8,0.9c0.1,0.1,0.2,0.2,0.2,0.3
				l-0.1,0.2c0.3,0.2,0.6,0.3,0.8,0.5l0.1-0.2c0.1-0.1,0.2-0.1,0.4,0l1.6,1.2c0.1,0.1,0.2,0.3,0.1,0.4l-0.1,0.2
				c0.3,0.2,0.5,0.4,0.8,0.6l0.1-0.1c0.1-0.1,0.3-0.1,0.4,0.1l1.4,1.4c0.1,0.1,0.1,0.3,0.1,0.4l-0.1,0.1c0.2,0.2,0.4,0.5,0.6,0.8
				l0.2-0.1c0.1-0.1,0.3,0,0.4,0.1l1.2,1.6c0.1,0.1,0.1,0.3,0,0.4l-0.2,0.1c0.2,0.3,0.4,0.6,0.5,0.9l0.2-0.1c0.1-0.1,0.3,0,0.3,0.2
				l0.9,1.8c0.1,0.1,0,0.3-0.1,0.4L75,44.7c0.1,0.3,0.3,0.6,0.4,0.9l0.2-0.1c0.1,0,0.3,0.1,0.3,0.2l0.6,1.9c0.1,0.2,0,0.3-0.1,0.4
				l-0.2,0.1c0.1,0.3,0.2,0.6,0.2,1l0.2,0c0.1,0,0.2,0.1,0.3,0.3l0.3,2c0,0.2-0.1,0.3-0.2,0.3l-0.2,0c0,0.3,0.1,0.7,0.1,1l0.2,0
				c0.1,0,0.2,0.1,0.2,0.3l0,2c0,0.2-0.1,0.3-0.2,0.3l-0.2,0c0,0.3,0,0.7-0.1,1l0.2,0c0.1,0,0.2,0.2,0.2,0.3l-0.3,2
				c0,0.2-0.1,0.3-0.3,0.3l-0.2,0c-0.1,0.3-0.1,0.6-0.2,1l0.2,0.1c0.1,0,0.2,0.2,0.1,0.4l-0.6,1.9c-0.1,0.2-0.2,0.3-0.3,0.2
				l-0.2-0.1c-0.1,0.3-0.2,0.6-0.4,0.9l0.2,0.1c0.1,0.1,0.1,0.2,0.1,0.4l-0.9,1.8c-0.1,0.1-0.2,0.2-0.3,0.2l-0.2-0.1
				c-0.2,0.3-0.3,0.6-0.5,0.8l0.2,0.1c0.1,0.1,0.1,0.2,0,0.4l-1.2,1.6C72.2,68.6,72,68.7,71.9,68.6z M73,72.4l-0.4-0.3l0.3-0.4
				l0.4,0.3L73,72.4z M77,69.8l-2.4-0.2c-0.1,0-0.1,0-0.2,0c-0.1,0-0.2,0-0.3-0.1l2,1.5l-0.2,0.3l-2.5-1.8l0.3-0.4l2.4,0.2
				c0.1,0,0.1,0,0.2,0c0.1,0,0.2,0,0.3,0.1l-2-1.5l0.2-0.3l2.5,1.8L77,69.8z M77.7,68.7l-2.6-1.6l0.2-0.4l2.6,1.6L77.7,68.7z
				 M79.1,66.1c0,0.2-0.1,0.3-0.2,0.5c-0.1,0.2-0.2,0.3-0.3,0.4c-0.1,0.1-0.3,0.2-0.4,0.3c-0.2,0.1-0.3,0.1-0.5,0
				c-0.2,0-0.4-0.1-0.6-0.2l-0.4-0.2c-0.2-0.1-0.4-0.2-0.5-0.4c-0.1-0.1-0.2-0.3-0.3-0.4c0-0.2-0.1-0.3,0-0.5c0-0.2,0.1-0.3,0.2-0.5
				c0.1-0.2,0.2-0.3,0.3-0.4c0.1-0.1,0.3-0.2,0.4-0.3c0.2-0.1,0.3-0.1,0.5,0c0.2,0,0.4,0.1,0.6,0.2l0.4,0.2c0.2,0.1,0.4,0.2,0.5,0.4
				c0.1,0.1,0.2,0.3,0.3,0.4C79.1,65.7,79.1,65.9,79.1,66.1z M80.2,63.8c-0.1,0.2-0.2,0.4-0.3,0.5c-0.1,0.1-0.2,0.3-0.4,0.4
				l-0.2-0.3c0.2-0.1,0.3-0.2,0.4-0.3c0.1-0.1,0.1-0.2,0.2-0.4c0-0.1,0.1-0.2,0.1-0.3c0-0.1,0-0.2-0.1-0.3c-0.1-0.1-0.1-0.2-0.2-0.3
				c-0.1-0.1-0.2-0.2-0.4-0.2l-0.3-0.1c-0.2-0.1-0.3-0.1-0.4-0.1c-0.1,0-0.3,0-0.4,0.1c-0.1,0-0.2,0.1-0.3,0.2
				c-0.1,0.1-0.1,0.2-0.2,0.3c-0.1,0.1-0.1,0.3-0.1,0.5c0,0.2,0,0.3,0.1,0.5l-0.4,0.1c-0.1-0.2-0.1-0.4-0.1-0.6
				c0-0.2,0.1-0.4,0.1-0.6c0.1-0.2,0.2-0.3,0.3-0.5c0.1-0.1,0.2-0.2,0.4-0.3c0.1-0.1,0.3-0.1,0.5-0.1s0.4,0,0.6,0.1l0.4,0.2
				c0.2,0.1,0.4,0.2,0.5,0.3c0.1,0.1,0.2,0.2,0.3,0.4c0.1,0.1,0.1,0.3,0.1,0.5C80.3,63.4,80.2,63.6,80.2,63.8z M81.1,60.6
				c-0.1,0.4-0.3,0.7-0.6,0.9c-0.3,0.2-0.6,0.2-1,0.1l-0.4-0.1c-0.4-0.1-0.7-0.3-0.9-0.6c-0.2-0.3-0.2-0.6-0.1-1.1l0.3-1l3,0.7
				L81.1,60.6z M81.7,57.8c0,0.2-0.1,0.4-0.1,0.5c-0.1,0.2-0.2,0.3-0.3,0.4L81,58.5c0.1-0.1,0.2-0.2,0.2-0.3c0-0.1,0.1-0.2,0.1-0.4
				c0-0.2,0-0.4-0.1-0.5C81.2,57.1,81.1,57,81,57l-0.1,0c-0.1,0-0.1,0-0.2,0c-0.1,0-0.1,0.1-0.1,0.1c0,0.1-0.1,0.1-0.1,0.2
				c0,0.1-0.1,0.2-0.1,0.3c-0.1,0.2-0.1,0.3-0.2,0.5c-0.1,0.1-0.1,0.2-0.2,0.3c-0.1,0.1-0.2,0.1-0.3,0.1c-0.1,0-0.2,0-0.3,0l-0.1,0
				c-0.1,0-0.3-0.1-0.4-0.1c-0.1-0.1-0.2-0.2-0.2-0.3c-0.1-0.1-0.1-0.2-0.1-0.4c0-0.1,0-0.3,0-0.5c0-0.2,0.1-0.4,0.2-0.6
				c0.1-0.2,0.2-0.3,0.3-0.4l0.3,0.3c0,0.1-0.1,0.1-0.1,0.2c0,0.1-0.1,0.1-0.1,0.2c0,0.1-0.1,0.2-0.1,0.2c0,0.1,0,0.2-0.1,0.2
				c0,0.2,0,0.4,0.1,0.5c0.1,0.1,0.2,0.2,0.3,0.2l0.1,0c0.1,0,0.1,0,0.2,0c0.1,0,0.1,0,0.2-0.1c0-0.1,0.1-0.1,0.1-0.2
				c0-0.1,0.1-0.2,0.1-0.3c0.1-0.1,0.1-0.3,0.2-0.4c0.1-0.1,0.1-0.2,0.2-0.3c0.1-0.1,0.2-0.1,0.3-0.2c0.1,0,0.2-0.1,0.4,0l0.1,0
				c0.1,0,0.2,0,0.3,0.1c0.1,0.1,0.2,0.1,0.2,0.2c0.1,0.1,0.1,0.2,0.1,0.4C81.7,57.4,81.7,57.6,81.7,57.8z M80,54.5l0-0.5l0.5,0
				l0,0.5L80,54.5z M81.6,51.3l-0.4-0.2c0.1-0.1,0.1-0.3,0.1-0.4c0-0.1,0-0.3,0-0.4c0-0.2-0.1-0.4-0.2-0.5c-0.1-0.1-0.2-0.2-0.3-0.1
				l-0.1,0c-0.1,0-0.1,0-0.2,0.1c0,0-0.1,0.1-0.1,0.2c0,0.1,0,0.1-0.1,0.2c0,0.1,0,0.2,0,0.3c0,0.2,0,0.4-0.1,0.5
				c0,0.1-0.1,0.3-0.1,0.3c-0.1,0.1-0.1,0.2-0.2,0.2c-0.1,0-0.2,0.1-0.3,0.1l-0.1,0c-0.1,0-0.3,0-0.4,0c-0.1,0-0.2-0.1-0.3-0.2
				c-0.1-0.1-0.2-0.2-0.2-0.3c-0.1-0.1-0.1-0.3-0.1-0.4c0-0.2,0-0.4,0-0.6c0-0.2,0.1-0.4,0.2-0.5l0.4,0.2c0,0.1-0.1,0.1-0.1,0.2
				c0,0.1-0.1,0.2-0.1,0.2c0,0.1,0,0.2,0,0.2c0,0.1,0,0.2,0,0.2c0,0.2,0.1,0.4,0.2,0.5c0.1,0.1,0.2,0.1,0.3,0.1l0.1,0
				c0.1,0,0.1,0,0.2-0.1c0,0,0.1-0.1,0.1-0.1c0-0.1,0.1-0.1,0.1-0.2c0-0.1,0-0.2,0-0.3c0-0.2,0-0.3,0.1-0.4c0-0.1,0.1-0.3,0.1-0.4
				c0.1-0.1,0.1-0.2,0.2-0.3c0.1-0.1,0.2-0.1,0.3-0.1l0.1,0c0.1,0,0.2,0,0.3,0c0.1,0,0.2,0.1,0.3,0.2c0.1,0.1,0.2,0.2,0.2,0.3
				c0.1,0.1,0.1,0.3,0.1,0.5c0,0.2,0,0.4,0,0.5C81.7,51,81.6,51.1,81.6,51.3z"/>
			<path class="st1" d="M67.8,31c0-0.1,0-0.1,0-0.2c0,0,0-0.1,0-0.1c0,0,0-0.1,0-0.1c0,0,0-0.1,0-0.2c-0.1,0-0.1,0.1-0.1,0.1
				c0,0-0.1,0.1-0.1,0.1c0,0-0.1,0.1-0.1,0.1c0,0-0.1,0.1-0.1,0.1l-0.6,0.5l0.8,0.5L67.8,31z"/>
			<path class="st1" d="M78.5,65.4c-0.1-0.1-0.2-0.2-0.4-0.3L77.8,65c-0.2-0.1-0.3-0.1-0.4-0.2c-0.1,0-0.3,0-0.4,0
				c-0.1,0-0.2,0.1-0.3,0.2c-0.1,0.1-0.2,0.2-0.2,0.3c-0.1,0.1-0.1,0.2-0.1,0.3c0,0.1,0,0.2,0,0.3c0,0.1,0.1,0.2,0.2,0.3
				c0.1,0.1,0.2,0.2,0.4,0.3l0.3,0.2c0.2,0.1,0.3,0.1,0.4,0.2c0.1,0,0.3,0,0.4,0c0.1,0,0.2-0.1,0.3-0.2c0.1-0.1,0.2-0.2,0.2-0.3
				c0.1-0.1,0.1-0.2,0.1-0.3c0-0.1,0-0.2,0-0.3C78.6,65.6,78.6,65.5,78.5,65.4z"/>
			<path class="st1" d="M78.5,60.7c0.1,0.1,0.1,0.2,0.2,0.3c0.1,0.1,0.2,0.1,0.4,0.2l0.4,0.1c0.2,0,0.3,0.1,0.4,0
				c0.1,0,0.2,0,0.3-0.1c0.1-0.1,0.2-0.1,0.2-0.2c0.1-0.1,0.1-0.2,0.1-0.4l0.1-0.6l-2.3-0.6L78.5,60c0,0.1,0,0.3,0,0.4
				C78.5,60.5,78.5,60.6,78.5,60.7z"/>
			<g>
				<path class="st1" d="M51.2,58.9c-1.8-1-2.9-2.9-2.9-5c0-3.1,2.6-5.7,5.7-5.7c2.1,0,4.1,1.2,5.1,3.1l-0.1,0c-1-1.9-2.9-3.1-5-3.1
					c-3.1,0-5.6,2.5-5.6,5.6C48.4,55.9,49.5,57.8,51.2,58.9L51.2,58.9z"/>
				<path class="st1" d="M51.2,60.1c-2.5-1.1-4.1-3.5-4.1-6.3c0-3.8,3.1-6.8,6.8-6.8c2.8,0,5.3,1.7,6.3,4.2l-0.1,0
					c-1-2.5-3.5-4.2-6.3-4.2c-3.7,0-6.8,3-6.8,6.8C47.2,56.6,48.8,59,51.2,60.1L51.2,60.1z"/>
				<path class="st1" d="M51.3,62.6c-1.8-0.6-3.4-1.7-4.6-3.3c-1.2-1.6-1.8-3.5-1.8-5.4c0-5,4.1-9.1,9.1-9.1c2,0,3.9,0.6,5.5,1.8
					c1.5,1.2,2.7,2.8,3.2,4.7l-0.1,0c-1.1-3.8-4.7-6.5-8.7-6.5c-5,0-9,4.1-9,9C44.9,57.8,47.5,61.3,51.3,62.6L51.3,62.6z"/>
				<path class="st1" d="M51.3,63.8c-2.1-0.6-4-1.9-5.4-3.6c-1.4-1.8-2.1-4-2.1-6.3c0-5.7,4.6-10.3,10.3-10.3c4.7,0,8.8,3.2,9.9,7.7
					l-0.1,0c-1.2-4.5-5.2-7.6-9.9-7.6c-5.6,0-10.2,4.6-10.2,10.2C43.8,58.5,46.9,62.5,51.3,63.8L51.3,63.8z"/>
				<path class="st1" d="M51.3,65c-2.4-0.6-4.6-2-6.2-4c-1.6-2-2.5-4.5-2.5-7.1c0-3,1.2-5.9,3.3-8.1s5-3.3,8.1-3.3
					c2.6,0,5.1,0.9,7.1,2.5c2,1.6,3.4,3.8,4,6.3l-0.1,0c-1.2-5.2-5.7-8.8-11-8.8c-6.2,0-11.3,5.1-11.3,11.3
					C42.7,59.1,46.2,63.6,51.3,65L51.3,65z"/>
				<rect x="57.4" y="67.7" class="st1" width="0.1" height="7.6"/>
				<rect x="56.3" y="68.7" class="st1" width="0.1" height="6.7"/>
				<rect x="50.6" y="74.1" class="st1" width="0.1" height="1.2"/>
				<rect x="51.7" y="73.1" class="st1" width="0.1" height="2.3"/>
				<rect x="52.9" y="72.1" class="st1" width="0.1" height="3.5"/>
				<rect x="55.1" y="69.8" class="st1" width="0.1" height="5.7"/>
				<path class="st1" d="M57.5,67.8c-1.2-0.1-2.6-0.1-3-0.1c-1.8,0-3.7-0.4-5.4-1.1c-1.7-0.7-3.2-1.7-4.5-3
					c-1.3-1.3-2.4-2.8-3.1-4.4c-0.8-1.7-1.1-3.5-1.1-5.3c0-3.7,1.4-7.1,4-9.7c2.6-2.6,6-4,9.7-4c3.6,0,7.1,1.4,9.6,4
					c2.6,2.6,4,6,4.2,9.7c0,1.4,0,2.4,0,3.4l0,0.3l-0.1,0l0-0.3c0-1,0-2,0-3.4c-0.3-7.6-6.3-13.6-13.8-13.6
					c-7.5,0-13.6,6.1-13.6,13.6c0,7.5,6.4,13.7,14,13.7C54.8,67.6,56.2,67.7,57.5,67.8L57.5,67.8z"/>
				<rect x="67.8" y="57.6" class="st1" width="7.6" height="0.1"/>
				<path class="st1" d="M56.3,68.8c-0.4,0-0.7,0-1,0c-0.4,0-0.7,0-1.4,0c-4-0.1-7.7-1.6-10.5-4.4c-2.8-2.8-4.3-6.5-4.3-10.4
					c0-4,1.5-7.7,4.3-10.5c2.8-2.8,6.5-4.3,10.5-4.3c2,0,3.9,0.4,5.8,1.2c1.8,0.8,3.4,1.9,4.8,3.3c2.8,2.8,4.4,6.6,4.4,10.2v2.6
					h-0.1v-2.6c0-7.8-6.9-14.7-14.9-14.7c-8.1,0-14.8,6.6-14.8,14.8c0,8.2,6.5,14.6,14.8,14.8c0.6,0,1,0,1.4,0
					C55.6,68.7,55.9,68.7,56.3,68.8L56.3,68.8z"/>
				<rect x="68.9" y="56.4" class="st1" width="6.6" height="0.1"/>
				<path class="st1" d="M54,69.9c-0.1,0-0.1,0-0.2,0c-8.7-0.1-15.7-7.3-15.7-16c0-4.3,1.7-8.3,4.7-11.3s7-4.7,11.3-4.7
					c2.1,0,4.3,0.5,6.3,1.4c1.9,0.9,3.7,2.1,5.2,3.7c3,3.2,4.7,7.3,4.6,11.2c0,0,0,0.2,0.1,1.1l-0.1,0C70,54.4,70,54.2,70,54.2
					c0.1-4-1.5-8.1-4.6-11.2c-3.1-3.2-7.2-5-11.4-5c-8.8,0-15.9,7.1-15.9,15.9c0,8.7,7,15.8,15.7,15.9c0.3,0,0.5,0,0.7,0
					c0.2,0,0.4,0,0.7,0l0,0.1c-0.3,0-0.5,0-0.7,0C54.3,69.9,54.2,69.9,54,69.9z"/>
				<rect x="70.1" y="55.3" class="st1" width="5.5" height="0.1"/>
				<path class="st1" d="M52.9,72.1c-10.1-1-17.2-8.5-17.2-18.2c0-2.5,0.5-4.9,1.4-7.1c0.9-2.2,2.2-4.1,3.9-5.8
					c1.7-1.7,3.6-3,5.8-3.9c2.3-1,4.6-1.4,7.1-1.4c4.7,0,9.2,1.8,12.6,5.1C70,43.9,72,48.3,72.2,53l-0.1,0
					c-0.5-9.7-8.4-17.3-18.2-17.3c-10,0-18.2,8.2-18.2,18.2C35.8,63.6,42.8,71,52.9,72.1L52.9,72.1z"/>
				<rect x="72.2" y="53" class="st1" width="3.5" height="0.1"/>
				<path class="st1" d="M51.7,73.1c-4.7-0.5-9-2.8-12.2-6.3c-3.2-3.6-5-8.2-5-12.9c0-2.6,0.5-5.2,1.5-7.5c1-2.3,2.4-4.4,4.2-6.2
					c1.8-1.8,3.9-3.2,6.2-4.2c2.4-1,4.9-1.5,7.5-1.5c4.8,0,9.5,1.8,13,5c3.5,3.2,5.8,7.6,6.3,12.4l-0.1,0c-1-9.9-9.3-17.3-19.2-17.3
					c-10.7,0-19.3,8.7-19.3,19.3C34.7,63.7,42,72,51.7,73.1L51.7,73.1z"/>
				<rect x="73.2" y="51.8" class="st1" width="2.4" height="0.1"/>
				<path class="st1" d="M50.6,74.1c-4.7-0.8-9.1-3.2-12.2-6.9c-1.6-1.8-2.8-3.9-3.6-6.1c-0.9-2.3-1.3-4.7-1.3-7.2
					c0-2.8,0.5-5.5,1.6-8c1-2.4,2.5-4.6,4.4-6.5c1.9-1.9,4.1-3.4,6.5-4.4c2.5-1.1,5.2-1.6,8-1.6c2.5,0,5,0.4,7.3,1.3
					c2.2,0.9,4.3,2.1,6.1,3.7c3.7,3.2,6.1,7.6,6.9,12.4l-0.1,0C72.7,40.9,64,33.4,54,33.4c-11.3,0-20.5,9.2-20.5,20.5
					C33.5,63.9,40.7,72.4,50.6,74.1L50.6,74.1z"/>
				<rect x="74.3" y="50.7" class="st1" width="1.2" height="0.1"/>
				<polygon class="st1" points="68.2,70.3 68.2,70.3 68.2,68.3 70.2,68.3 70.2,68.4 68.2,68.4 				"/>
			</g>
			<g>
				<rect x="53.9" y="32.3" class="st1" width="0.1" height="17.2"/>
				
					<rect x="54.6" y="44.7" transform="matrix(0.7071 -0.7071 0.7071 0.7071 -13.1163 57.8047)" class="st1" width="17.2" height="0.1"/>
				
					<rect x="44.6" y="36.1" transform="matrix(0.7071 -0.7071 0.7071 0.7071 -18.5435 44.7021)" class="st1" width="0.1" height="17.2"/>
				<rect x="32.3" y="53.9" class="st1" width="17.2" height="0.1"/>
				
					<rect x="36.1" y="63.2" transform="matrix(0.7071 -0.7071 0.7071 0.7071 -31.646 50.1295)" class="st1" width="17.2" height="0.1"/>
			</g>
			<g>
				<path class="st1" d="M54,58.6c-2.5,0-4.6-2.1-4.6-4.6c0-2.5,2.1-4.6,4.6-4.6c2.5,0,4.6,2.1,4.6,4.6C58.6,56.5,56.5,58.6,54,58.6
					z M54,49.6c-2.5,0-4.4,2-4.4,4.4c0,2.5,2,4.4,4.4,4.4c2.5,0,4.4-2,4.4-4.4C58.4,51.5,56.5,49.6,54,49.6z"/>
				<path class="st1" d="M51.2,61.5c-1.5-0.6-2.8-1.6-3.8-2.9c-1-1.4-1.5-3-1.5-4.6c0-4.4,3.6-8,8-8c3.4,0,6.5,2.2,7.6,5.4l-0.1,0
					c-1.1-3.2-4.1-5.3-7.5-5.3c-4.4,0-7.9,3.5-7.9,7.9c0,3.3,2.1,6.3,5.2,7.4L51.2,61.5z"/>
				<path class="st1" d="M51.3,66.3c-2.8-0.6-5.3-2.2-7-4.4c-0.9-1.1-1.6-2.3-2.1-3.7c-0.5-1.4-0.7-2.8-0.7-4.3
					c0-3.4,1.3-6.5,3.7-8.9c2.4-2.4,5.5-3.7,8.9-3.7c2.9,0,5.7,1,8,2.9c2.2,1.8,3.8,4.4,4.3,7.1l-0.1,0c-1.2-5.7-6.3-9.9-12.2-9.9
					c-6.9,0-12.5,5.6-12.5,12.5c0,5.8,4.1,10.9,9.8,12.2L51.3,66.3z"/>
				<polygon class="st1" points="58.8,75.2 58.7,75.2 58.7,67.3 51.2,67.3 51.2,58.9 58.7,58.9 58.7,51.3 67.1,51.3 67.1,58.9 
					75.2,58.9 75.2,59 66.9,59 66.9,51.5 58.8,51.5 58.8,59 51.3,59 51.3,67.2 58.8,67.2 				"/>
				<polygon class="st1" points="66.9,71.4 66.9,67.2 71.2,67.2 71.2,67.3 67,67.3 67.1,71.4 				"/>
				<rect x="53.9" y="71.1" class="st1" width="0.1" height="4.6"/>
				<path class="st1" d="M54,71.2L54,71.2c-2.4,0-4.6-0.5-6.7-1.4c-2-0.9-3.9-2.1-5.5-3.7c-3.2-3.2-5-7.6-5-12.1
					c0-2.3,0.5-4.6,1.3-6.7c0.9-2,2.1-3.9,3.7-5.5c1.6-1.6,3.4-2.8,5.5-3.7c2.1-0.9,4.4-1.3,6.7-1.3c2.3,0,4.6,0.5,6.7,1.3
					c2,0.9,3.9,2.1,5.5,3.7c1.6,1.6,2.8,3.4,3.7,5.5c0.9,2.1,1.3,4.4,1.3,6.7c0,0.1,0,0.2,0,0.3l-0.1,0c0-0.1,0-0.2,0-0.3
					c0-9.4-7.6-17-17-17s-17,7.6-17,17c0,9.4,7.6,17,17,17H54V71.2z"/>
				<rect x="71.1" y="54.2" class="st1" width="4.6" height="0.1"/>
				<path class="st1" d="M54,75.8c-2.9,0-5.8-0.6-8.5-1.7c-2.6-1.1-4.9-2.7-6.9-4.7c-2-2-3.6-4.3-4.7-6.9c-1.1-2.7-1.7-5.5-1.7-8.5
					c0-2.9,0.6-5.8,1.7-8.5c1.1-2.6,2.7-4.9,4.7-6.9c2-2,4.3-3.6,6.9-4.7c2.7-1.1,5.5-1.7,8.5-1.7c2.9,0,5.8,0.6,8.5,1.7
					c2.6,1.1,4.9,2.7,6.9,4.7c2,2,3.6,4.3,4.7,6.9c1.1,2.7,1.7,5.5,1.7,8.5c0,2.9-0.6,5.8-1.7,8.5c-1.1,2.6-2.7,4.9-4.7,6.9
					s-4.3,3.6-6.9,4.7C59.8,75.2,56.9,75.8,54,75.8z M54,32.3C42,32.3,32.3,42,32.3,54c0,12,9.7,21.7,21.7,21.7
					c12,0,21.7-9.7,21.7-21.7C75.7,42,66,32.3,54,32.3z"/>
			</g>
			<g>
				<path class="st1" d="M50.6,55.3L50.6,55.3C50.6,55.3,50.7,55.2,50.6,55.3c0.4-0.2,0.8-0.2,1.1-0.3c0.3-0.1,0.6-0.2,0.9-0.2
					c0,0.2-0.1,0.4-0.2,0.6v0.1c0.2,0,0.4,0.1,0.6,0c0.1,0,0.3-0.4,0.3-0.5c0.1,0-0.4-0.3-0.4-0.3c0-0.2,0.4-0.6,0.5-0.8
					c0.1-0.2,0.1-0.3,0.1-0.5c0-0.2,0-0.3-0.1-0.4c-0.1-0.1-0.3-0.2-0.4-0.3c-0.3-0.2-0.5-0.4-0.8-0.6h0c-0.2,0.2-0.3,0.4-0.5,0.6
					c-0.3,0.4-0.6,0.8-1,1.2c-0.2,0.2-0.4,0.5-0.5,0.7C50.2,54.8,50,55.4,50.6,55.3z"/>
				<g>
					<path class="st1" d="M46.5,62L46.5,62c-0.1-0.1-0.5-0.7-0.5-0.7c-0.2-0.3-0.5-0.7-0.7-1c-0.1-0.2-0.3-0.3-0.4-0.5
						c0-0.1,0-0.2,0-0.3c0-0.3,0.1-0.7,0-0.9c-0.1-0.4-0.4-0.8-0.5-1.2c-0.1-0.3,0.1-0.7,0-1.1c0-0.3-0.3-0.5-0.4-0.8
						c0-0.1,0-0.2,0-0.3c0-0.2-0.1-0.5-0.2-0.7c-0.3-0.3-0.5-0.7-0.8-1c0.1,0,0.2-0.2,0.3-0.2c0.2-0.1,0.5-0.1,0.7-0.1v0.1
						c-0.1,0-0.1,0.1-0.1,0.1c0,0,0,0.1,0,0.1c0.1,0.3,0.1,0.6,0.2,1c0,0.2,0,0.4,0,0.6h0.7c-0.1-0.2-0.2-0.3-0.3-0.5
						c-0.1-0.2,0.1-0.3,0.1-0.5c0-0.3-0.2-0.6-0.2-1h-0.1c0,0-0.1,0-0.1,0c-0.1,0-0.1-0.1-0.2-0.1c0-0.1-0.1-0.2-0.1-0.3
						c0-0.2,0.3-0.4,0.4-0.5c0.3,0,0.7,0.1,0.9,0.3c0.1,0.1,0.1,0.3,0.1,0.4c0,0.1,0.1,0.3,0,0.4c-0.1,0.1-0.3,0.2-0.5,0.3
						c0,0,0,0,0,0.1c0,0.1,0.1,0.2,0.2,0.3c0.1,0,0.2,0,0.2,0v0c0,0,0.2,0,0.3-0.1c0,0,0.1-0.1,0.3,0c0,0,0,0,0,0c0,0,0.1,0,0.1,0
						c0.3,0.1,0.5,0.2,0.8,0.3c0.2,0.1,0.4,0,0.7,0.1c0.3,0.1,0.5,0.3,0.7,0.4c0.1,0,0.2,0,0.3,0.1c0.1,0.1,0.2,0.4,0.3,0.5
						c0.1,0,0.5-0.1,0.7-0.1c0.1-0.1,0.2-0.3,0.3-0.5c0.1-0.2,0.2-0.4,0.3-0.6c0.1-0.1,0.3-0.3,0.4-0.4c0.1-0.1,0.2-0.2,0.3-0.3
						c0.1,0,0.3,0,0.4-0.1c0-0.1,0.1-0.2,0.1-0.2c0.1-0.2,0.2-0.4,0.2-0.7c0-0.5,0-1.1,0-1.6c0-0.2,0.4-0.6,0.6-0.8
						c0.1-0.1,0.2-0.3,0.3-0.4c0.2-0.2,0.5-0.3,0.7-0.4c0.2-0.1,0.3-0.3,0.5-0.4c0.1-0.1,0.2-0.1,0.2-0.2c0-0.2-0.1-0.4-0.2-0.5
						c-0.1-0.2-1.1-0.9-1.2-1c-0.2,0-0.7,0.4-0.9,0.5c-0.2,0.1-0.5,0.1-0.7,0.2c-0.3,0.1-0.6,0.2-0.9,0.2c-0.2,0-0.4-0.1-0.6-0.1
						c-0.1,0-0.3,0-0.4-0.1c-0.1-0.1-0.2-0.2-0.3-0.3c0,0,0,0,0,0c-0.1-0.1-0.4-0.1-0.6-0.2c-0.1,0-0.3,0-0.3,0l0,0c0,0-0.1,0-0.1,0
						c-0.4,0-0.8-0.1-1.2,0c-0.2,0.1-0.5,0.3-0.7,0.4c-0.2,0.1-0.4,0.2-0.6,0.4c-0.3,0.2-0.5,0.5-0.7,0.7c-0.3,0.5-0.6,0.9-0.9,1.4
						c-0.1,0,0,0,0,0.1c0.1,0,0.1,0.1,0.1,0.1c0,0.2-0.3,0.5-0.3,0.7c-0.1,0.2-0.1,0.5-0.2,0.7c-0.1,0.2-0.3,1.2-0.4,1.3
						c-0.1,0.1-0.8,0.1-1.2,0c-0.4,0-0.6,0.4-0.6,0.4h0c-0.1,0.3-0.6,0.8-0.8,1c-0.2,0.3-0.2,0.8-0.3,1.1c-0.1,0.2-0.3,0.2-0.4,0.3
						c-0.2,0.1-0.5,0.2-0.7,0.2c-0.4,0.1-0.7,0-1.1,0c-0.4,0-0.6,0.2-0.6,0.2l0,0c-0.2,0.1-0.5,0.3-0.6,0.4
						c-0.6,0.3-0.6,0.7-0.8,1.2c0,0.1-0.2,0.4-0.1,0.5c0.1,0.3,0.1,0.6,0.1,1h0v0c0.1,0,0.3-0.3,0.6-0.2c0.2,0.1,0.5,0.2,0.7,0.2
						c0.2,0.1,0.5,0.1,0.7,0.2c0.1,0.1,0.2,0.3,0.3,0.4c0.1,0.1,0.2,0.2,0.3,0.3l0,0c0,0,0.5,0.4,0.6,0.4c0,0,0.1,0,0.1-0.1
						c0,0,0.1,0,0.1,0c0.1,0,0.1,0.3,0.2,0.4c0.5,0.4,0.9,0.9,1.4,1.3c0.6,0.5,1.4,0.4,2.1,0.7c0.3,0.1,0.5,0.4,0.7,0.5
						c0.1,0,0.2,0,0.3,0c0,0,0.6,0,0.8,0v0c0.1,0,0.2,0,0.3,0c0.1,0,0.2,0,0.3,0l0,0c0,0,0.6,0,0.8,0c0.3,0,0.9,0,1-0.1
						c0.2-0.1,0.3-0.3,0.4-0.4c0.1-0.1,0.1-0.2,0.1-0.3C47.1,62.7,46.7,62.3,46.5,62z"/>
					<path class="st1" d="M65.7,49.7L65.7,49.7c-0.1,0-0.2,0.2-0.3,0.2c-0.2,0-0.4,0-0.6,0v0h0c0-0.2,0.4-0.4,0.4-0.7
						c0-0.1-0.2-0.2-0.3-0.3c-0.1-0.1-0.3-0.3-0.4-0.4c-0.1,0-0.3,0-0.4,0c-0.3,0-0.7,0-1-0.1c-0.2-0.1-0.3-0.4-0.5-0.6
						c-0.2-0.2-0.4-0.3-0.6-0.4v0c0,0,0,0,0-0.1c0.2,0,0.3,0,0.5,0.1c0-0.3-0.4-0.2-0.6-0.3h0l0,0c-0.1,0-0.2,0-0.3,0
						c-0.1,0-0.3,0.1-0.4,0.1c0,0,0,0,0,0c-0.1,0-0.2,0-0.2,0c-0.2,0-0.4,0.2-0.5-0.1c-0.1-0.3,0.2-0.5,0.4-0.6h0
						c0-0.1-0.2-0.1-0.2-0.1c-0.1,0-0.2,0.1-0.3,0.2c0,0,0,0-0.1,0c-0.2,0-0.3-0.2-0.4-0.4c-0.2-0.2-0.7-0.2-1-0.2v-0.1h0
						c0.1-0.1,0.2-0.2,0.3-0.3c0,0,0.1-0.1,0.1-0.1c-0.1,0-0.2,0-0.3,0c-0.1,0,0,0.2-0.2,0.3c0,0,0,0,0,0c0,0-0.1,0.1-0.2,0.1
						c-0.1,0-0.3,0.2-0.3,0.2V46c-0.1,0-0.2,0.2-0.2,0.2h0v0c0.1,0,0.3-0.2,0.5-0.2v0.1c0,0-0.3,0.3-0.4,0.4c0,0,0.1,0.2,0.1,0.2
						c0,0.2-0.5,0.6-0.6,0.7c-0.1,0-0.2,0-0.3,0.1c-0.1,0-0.2,0-0.3,0c-0.2,0-0.4,0.1-0.5,0.2v0c-0.1,0-0.2,0-0.3-0.1h0v-0.1
						c0,0,0.2-0.3,0.2-0.4c0.1,0-0.1-0.5-0.1-0.6h-0.1c0,0-0.3,0.3-0.3,0.4h0c0,0,0,0,0,0c0.1,0.3,0.1,0.2-0.2,0.4
						c-0.1,0-0.1,0-0.2,0c-0.2,0-0.8,0.1-1,0.2h-0.1c0,0.3-0.1,0.3-0.4,0.3v0c-0.1,0-0.1,0-0.2,0.1c-0.1,0-0.2,0.1-0.2,0.1
						c0,0,0,0,0,0.1c0.1,0,0.1,0.1,0.2,0.1c0.3,0.1,0.5,0.2,0.8,0.4c0.1,0.1,0.3,0.1,0.4,0.2c0.1,0.1,1.2,1.6,1.2,1.7
						c0,0.1-0.2,0.2-0.3,0.3h0c0,0,0,0,0,0c0.1,0.3,0.3,0.5,0.4,0.8c0.1,0.1,0.2,0.3,0.2,0.4c0,0.1-0.1,0.2-0.2,0.3
						c0,0.2,0.2,0.4,0.2,0.7c0,0.2-0.1,0.3-0.2,0.5c-0.2,0.3-0.3,0.7-0.4,1c0,0.1-0.1,0.1-0.1,0.2c0,0.1-0.1,0.2-0.2,0.3
						c-0.1,0-0.2,0-0.3,0c-0.4,0-0.6,0-0.8,0.2c0,0,0,0.1,0,0.1c0,0.1,0,0.2,0,0.3c-0.1,0.2-0.3,0.6-0.1,0.8c0,0.1,0.1,0.1,0.1,0.2
						c0,0.3-0.1,0.5-0.4,0.6v0h0c0-0.1-0.1-0.2-0.1-0.2c-0.1-0.1-0.1-0.4-0.1-0.6c0,0,0,0-0.1-0.1v0c0,0,0,0,0,0
						c0,0.1-0.1,0.2-0.1,0.2c-0.1,0.2-0.2,0.1-0.3,0.4c0.1,0,0.2-0.1,0.2-0.2h0c0,0.1,0,0.1,0.1,0.2c0,0.1,0,0.3-0.1,0.4l0,0
						c0,0-0.1,0.3,0.1,0.5v0c0,0,0.1,0,0.1,0.1c0,0,0,0,0,0.1c0.1,0.2,0,0.5-0.1,0.6c-0.3,0-0.4-0.1-0.6,0c0,0,0,0.1-0.1,0.1h1.4
						c0.1,0,0.1,0,0.2,0h4l0-7.5h5.1c0,0,0-0.1,0-0.1c0-0.2,0.1-0.3,0.1-0.3c0.1-0.1,0.4-0.2,0.6-0.3c0,0,0.1,0,0.1-0.1
						c0.1-0.1,0.1-0.2,0.2-0.3c0.1-0.1,0.3-0.1,0.4-0.2C65.4,50.1,65.6,49.9,65.7,49.7C65.7,49.7,65.7,49.7,65.7,49.7z"/>
					<g>
						<path class="st1" d="M66.3,50.1c0,0,0.2,0,0.2-0.1c0-0.1,0-0.3,0-0.3s0,0,0,0c0-0.4,0.4-0.6,0.3-1v-0.1h0v0
							c0,0-0.3,0.4-0.4,0.4v0h0v-0.2c0,0,0,0-0.1,0v0c-0.2,0.1-0.3,0.4-0.3,0.4l0,0c0,0.1,0,0.2-0.1,0.2v0H66c0,0,0-0.1,0.1-0.1v0
							h0.1c0,0,0,0,0,0c0,0.1,0,0.1,0.1,0.2c0,0.1,0,0.3-0.1,0.4L66.3,50.1C66.2,50.1,66.2,50.1,66.3,50.1L66.3,50.1z"/>
						<path class="st1" d="M61.4,43.6c0,0,0.3-0.3,0.2-0.4l0,0c0,0,0,0,0,0c-0.1-0.1-0.2-0.2-0.3-0.3c-0.1-0.1-0.3-0.3-0.4-0.4
							c-0.1-0.3,0-0.7-0.2-1c-0.1-0.2-0.3-0.2-0.4-0.4c-0.3-0.3-0.7-0.5-1-0.8c-0.2-0.1-0.4-0.2-0.5-0.4h-0.1c0,0.3,0.3,1.3,0.3,1.7
							l0,0c0,0,0,0.4,0.2,0.7c0.1,0.1,0.1,0.2,0.2,0.3c0.3,0.2,0.5,0.5,0.8,0.7c0.3,0.2,0.5,0.5,0.8,0.7c0,0,0,0,0.1,0
							c0-0.1,0.2-0.2,0.2-0.2C61.3,43.7,61.4,43.7,61.4,43.6L61.4,43.6z"/>
						<path class="st1" d="M65.2,45.9c-0.1-0.1-0.2-0.3-0.3-0.4c-0.1-0.1-0.3-0.1-0.5-0.2c0,0,0,0,0,0c0,0,0.1-0.1,0.1-0.2
							c0.1-0.2,0-0.3,0-0.4h0c-0.1-0.1-0.3-0.4-0.3-0.5h0c0,0,0,0,0,0c0,0,0-0.1,0-0.1c0-0.1-0.1-0.2-0.1-0.2v0
							c-0.1,0-0.2,0.5-0.3,0.6v0h0v0c-0.1,0-0.1-0.1-0.2-0.1c-0.2,0-0.4,0-0.6,0c-0.1-0.1-0.2-0.2-0.4-0.3c0,0-0.2-0.1-0.3-0.1
							c-0.1,0.1,0,0.2,0,0.2l0,0c0.2,0.1,0.3,0.3,0.5,0.4c0.2,0.2,0.3,0.3,0.5,0.5c0,0,0.2,0.3,0.3,0.4l0,0c0,0,0.1,0.1,0.1,0.1
							c0,0,0,0,0,0c-0.1,0-0.1,0.2-0.2,0.2c0,0.1,0.1,0.2,0.1,0.2c0.1,0.1,0.1,0.2,0.3,0.3c0.2,0.1,0.4,0,0.5,0.2
							c0,0.1,0.1,0.1,0.1,0.2l0,0c0,0,0.9,0.7,0.9,0.8c0,0,0,0,0.1,0c0,0,0,0,0,0c0,0,0.3-0.3,0.3-0.4h0c0,0,0,0,0,0
							C65.7,46.7,65.5,46.3,65.2,45.9z"/>
						<path class="st1" d="M67.9,45.6c0.1,0,0.2-0.2,0.4-0.3l0,0c0,0,0.7-0.6,0.8-0.7h0c0.2-0.2,0.4-0.3,0.5-0.4c0,0,0,0,0,0
							c0,0,0,0-0.1,0c-0.2-0.3-0.4-0.5-0.7-0.7c-0.5-0.5-0.9-1-1.4-1.5l0,0c-0.1-0.1-0.2-0.2-0.3-0.2h0c0,0,0,0,0,0
							c-0.3-0.3-0.5-0.5-0.5-0.5l0,0c-0.4-0.4-1.2-1.2-1.2-1.3c0-0.1,0-0.2,0-0.3c0-0.3,0-0.7,0-1c0-0.1,0-0.3-0.1-0.4
							c-0.1-0.2-0.3-0.4-0.5-0.5c-0.2-0.2-0.4-0.4-0.6-0.5c-0.1-0.1-0.4,0-0.5-0.1c-0.2-0.1-0.3-0.2-0.5-0.4
							c-0.1-0.1-0.3-0.1-0.4-0.2c-0.1-0.1-0.2-0.1-0.3-0.1h0c0,0,0,0,0,0c-0.2,0-0.4,0.1-0.5,0.2c-0.6,0.2-1.1,0.4-1.7,0.6
							c0,0.2,0,0.4,0,0.6c0,0.1,0.1,0.5,0.2,0.8c0,0,0,0,0,0c0,0,0,0,0,0l0,0c0.1,0.2,0.1,0.4,0.1,0.6c0.1,0.6,0.3,1.2,0.4,1.7
							c0,0.2,0.1,0.4,0.2,0.6c0,0.1,0.2,0,0.2,0c0.4-0.2,0.8-0.3,1.2-0.5c0.2-0.1,0.4-0.2,0.6-0.2c0,0.2,0.3,0.4,0.2,0.6
							c-0.1,0.2-0.5,0.5-0.5,0.7c0,0.1,0.3,0.5,0.4,0.6c0.5,0.3,1,0.6,1.6,0.9v0c0.2,0.1,0.4,0.3,0.4,0.3v0c0.1,0.1,0.2,0.2,0.3,0.2
							c0.2,0.1,0.4,0.3,0.6,0.4c0.1,0.1,0.3,0.3,0.4,0.4c0.2,0.2,0.4,0.4,0.6,0.6C67.3,45.6,67.8,45.7,67.9,45.6z"/>
					</g>
				</g>
			</g>
		</g>
	</g>
</g>
</svg>
