<?xml version="1.0" encoding="utf-8"?>
<!-- Generator: Adobe Illustrator 24.0.1, SVG Export Plug-In . SVG Version: 6.00 Build 0)  -->
<svg version="1.1" id="Foreground_Layer" xmlns="http://www.w3.org/2000/svg" xmlns:xlink="http://www.w3.org/1999/xlink" x="0px"
	 y="0px" viewBox="0 0 50 50" style="enable-background:new 0 0 50 50;" xml:space="preserve">
<style type="text/css">
	.st0{fill:#FFFFFF;}
</style>
<g>
	<g>
		<path class="st0" d="M43.9,25.8l0-1.7c0-0.1,0.1-0.3,0.2-0.3h0.1c0-0.2,0-0.5-0.1-0.8l-0.1,0c-0.1,0-0.2-0.1-0.2-0.2l-0.3-1.7
			c0-0.1,0-0.3,0.1-0.3l0.1,0c-0.1-0.3-0.1-0.5-0.2-0.8l-0.1,0c-0.1,0-0.2,0-0.3-0.2l-0.5-1.6c0-0.1,0-0.3,0.1-0.3l0.1,0
			c-0.1-0.3-0.2-0.5-0.3-0.8l-0.1,0c-0.1,0-0.2,0-0.3-0.1l-0.8-1.5c-0.1-0.1,0-0.3,0.1-0.3l0.1,0c-0.1-0.2-0.3-0.5-0.4-0.7l-0.1,0.1
			c-0.1,0.1-0.2,0-0.3-0.1l-1-1.4c-0.1-0.1-0.1-0.3,0-0.3l0.1-0.1c-0.2-0.2-0.4-0.4-0.5-0.6l-0.1,0.1c-0.1,0.1-0.2,0.1-0.3,0
			L37.8,11c-0.1-0.1-0.1-0.2,0-0.3l0.1-0.1c-0.2-0.2-0.4-0.4-0.6-0.5l-0.1,0.1c-0.1,0.1-0.2,0.1-0.3,0l-1.4-1
			c-0.1-0.1-0.2-0.2-0.1-0.3l0.1-0.1c-0.2-0.1-0.5-0.3-0.7-0.4l0,0.1c0,0.1-0.2,0.1-0.3,0.1l-1.5-0.8c-0.1-0.1-0.2-0.2-0.1-0.3
			l0-0.1C32.5,7.2,32.2,7.1,32,7l0,0.1c0,0.1-0.2,0.1-0.3,0.1L30,6.7c-0.1,0-0.2-0.2-0.2-0.3l0-0.1c-0.3-0.1-0.5-0.1-0.8-0.2l0,0.1
			c0,0.1-0.1,0.2-0.3,0.1l-1.7-0.3c-0.1,0-0.2-0.1-0.2-0.2l0-0.1c-0.3,0-0.6,0-0.8-0.1v0.1c0,0.1-0.1,0.2-0.3,0.2l-1.7,0
			c-0.1,0-0.3-0.1-0.3-0.2l0-0.1c-0.3,0-0.5,0-0.8,0.1l0,0.1c0,0.1-0.1,0.2-0.2,0.2l-1.7,0.3c-0.1,0-0.3,0-0.3-0.1l0-0.1
			c-0.3,0.1-0.5,0.1-0.8,0.2l0,0.1c0,0.1,0,0.2-0.2,0.3l-1.6,0.5c-0.1,0-0.3,0-0.3-0.1L18,7c-0.3,0.1-0.5,0.2-0.8,0.3l0,0.1
			c0,0.1,0,0.2-0.1,0.3l-1.5,0.8c-0.1,0.1-0.3,0-0.3-0.1l0-0.1c-0.2,0.1-0.5,0.3-0.7,0.4l0.1,0.1c0.1,0.1,0,0.2-0.1,0.3l-1.4,1
			c-0.1,0.1-0.3,0.1-0.3,0l-0.1-0.1c-0.2,0.2-0.4,0.4-0.6,0.5l0.1,0.1c0.1,0.1,0.1,0.2,0,0.3L11,12.2c-0.1,0.1-0.2,0.1-0.3,0
			l-0.1-0.1c-0.2,0.2-0.4,0.4-0.5,0.6l0.1,0.1c0.1,0.1,0.1,0.2,0,0.3l-1,1.4c-0.1,0.1-0.2,0.2-0.3,0.1l-0.1-0.1
			c-0.1,0.2-0.3,0.5-0.4,0.7l0.1,0c0.1,0,0.1,0.2,0.1,0.3l-0.8,1.5c-0.1,0.1-0.2,0.2-0.3,0.1l-0.1,0C7.3,17.5,7.1,17.7,7,18l0.1,0
			c0.1,0,0.1,0.2,0.1,0.3l-0.5,1.6c0,0.1-0.2,0.2-0.3,0.2l-0.1,0c-0.1,0.3-0.1,0.5-0.2,0.8l0.1,0c0.1,0,0.2,0.1,0.1,0.3l-0.3,1.7
			c0,0.1-0.1,0.2-0.2,0.2l-0.1,0c0,0.3,0,0.6-0.1,0.8h0.1c0.1,0,0.2,0.1,0.2,0.3l0,1.7c0,0.1-0.1,0.3-0.2,0.3l-0.1,0
			c0,0.3,0,0.5,0.1,0.8l0.1,0c0.1,0,0.2,0.1,0.2,0.2l0.3,1.7c0,0.1,0,0.3-0.1,0.3l-0.1,0c0.1,0.3,0.1,0.5,0.2,0.8l0.1,0
			c0.1,0,0.2,0,0.3,0.2l0.5,1.6c0,0.1,0,0.3-0.1,0.3L7,32c0.1,0.3,0.2,0.5,0.3,0.8l0.1,0c0.1,0,0.2,0,0.3,0.1l0.8,1.5
			c0.1,0.1,0,0.3-0.1,0.3l-0.1,0c0.1,0.2,0.3,0.5,0.4,0.7l0.1-0.1c0.1-0.1,0.2,0,0.3,0.1l1,1.4c0.1,0.1,0.1,0.3,0,0.3l-0.1,0.1
			c0.2,0.2,0.4,0.4,0.5,0.6l0.1-0.1c0.1-0.1,0.2-0.1,0.3,0l1.2,1.2c0.1,0.1,0.1,0.2,0,0.3l-0.1,0.1c0.2,0.2,0.4,0.4,0.6,0.5l0.1-0.1
			c0.1-0.1,0.2-0.1,0.3,0l1.4,1c0.1,0.1,0.2,0.2,0.1,0.3l-0.1,0.1c0.2,0.1,0.5,0.3,0.7,0.4l0-0.1c0-0.1,0.2-0.1,0.3-0.1l1.5,0.8
			c0.1,0.1,0.2,0.2,0.1,0.3l0,0.1c0.2,0.1,0.5,0.2,0.8,0.3l0-0.1c0-0.1,0.2-0.1,0.3-0.1l1.6,0.5c0.1,0,0.2,0.2,0.2,0.3l0,0.1
			c0.3,0.1,0.5,0.1,0.8,0.2l0-0.1c0-0.1,0.1-0.2,0.3-0.1l1.7,0.3c0.1,0,0.2,0.1,0.2,0.2l0,0.1c0.3,0,0.5,0,0.8,0.1l0-0.1
			c0-0.1,0.1-0.2,0.3-0.2l1.7,0c0.1,0,0.3,0.1,0.3,0.2v0.1c0.2,0,0.5,0,0.8-0.1l0-0.1c0-0.1,0.1-0.2,0.2-0.2l1.7-0.3
			c0.1,0,0.3,0,0.3,0.1l0,0.1c0.3-0.1,0.5-0.1,0.8-0.2l0-0.1c0-0.1,0-0.2,0.2-0.3l1.6-0.5c0.1,0,0.3,0,0.3,0.1l0,0.1
			c0.3-0.1,0.5-0.2,0.8-0.3l0-0.1c0-0.1,0-0.2,0.1-0.3l1.5-0.8c0.1-0.1,0.3,0,0.3,0.1l0,0.1c0.2-0.1,0.5-0.3,0.7-0.4l-0.1-0.1
			c-0.1-0.1,0-0.2,0.1-0.3l1.4-1c0.1-0.1,0.3-0.1,0.3,0l0.1,0.1c0.2-0.2,0.4-0.4,0.6-0.5l-0.1-0.1c-0.1-0.1-0.1-0.2,0-0.3l1.2-1.2
			c0.1-0.1,0.2-0.1,0.3,0l0.1,0.1c0.2-0.2,0.4-0.4,0.5-0.6l-0.1-0.1c-0.1-0.1-0.1-0.2,0-0.3l1-1.4c0.1-0.1,0.2-0.2,0.3-0.1l0.1,0.1
			c0.1-0.2,0.3-0.5,0.4-0.7l-0.1,0c-0.1,0-0.1-0.2-0.1-0.3l0.8-1.5c0.1-0.1,0.2-0.2,0.3-0.1l0.1,0c0.1-0.2,0.2-0.5,0.3-0.8l-0.1,0
			c-0.1,0-0.1-0.2-0.1-0.3l0.5-1.6c0-0.1,0.2-0.2,0.3-0.2l0.1,0c0.1-0.3,0.1-0.5,0.2-0.8l-0.1,0c-0.1,0-0.2-0.1-0.1-0.3l0.3-1.7
			c0-0.1,0.1-0.2,0.2-0.2l0.1,0c0-0.3,0-0.5,0.1-0.8l-0.1,0C44,26.1,43.9,26,43.9,25.8z M25,43.4C14.8,43.4,6.6,35.2,6.6,25
			C6.6,14.9,14.8,6.6,25,6.6c10.2,0,18.4,8.2,18.4,18.4C43.4,35.2,35.2,43.4,25,43.4z"/>
		<path class="st0" d="M22.7,46.3c-0.1-0.1-0.1-0.1-0.2-0.2c-0.1,0-0.2-0.1-0.3-0.1c-0.1,0-0.2,0-0.3,0c-0.1,0-0.2,0.1-0.2,0.1
			c-0.1,0.1-0.1,0.1-0.2,0.2c-0.1,0.1-0.1,0.2-0.1,0.4l0,0.3c0,0.1,0,0.3,0,0.4c0,0.1,0.1,0.2,0.1,0.3c0.1,0.1,0.1,0.1,0.2,0.2
			c0.1,0,0.2,0.1,0.3,0.1c0.1,0,0.2,0,0.3,0c0.1,0,0.2-0.1,0.2-0.1c0.1-0.1,0.1-0.1,0.2-0.2c0.1-0.1,0.1-0.2,0.1-0.4l0-0.3
			c0-0.1,0-0.3,0-0.4C22.8,46.5,22.8,46.4,22.7,46.3z"/>
		<path class="st0" d="M13.3,44.3c0,0.1,0,0.1,0,0.1c0,0,0,0.1,0,0.1c0,0,0,0.1,0,0.1c0,0,0,0.1,0,0.2c0,0,0.1-0.1,0.1-0.1
			c0,0,0.1-0.1,0.1-0.1c0,0,0.1-0.1,0.1-0.1c0,0,0.1-0.1,0.1-0.1l0.5-0.4l-0.7-0.4L13.3,44.3z"/>
		<path class="st0" d="M19.2,46.7c-0.1,0.1-0.2,0.1-0.2,0.3l0,0.1c0,0.1,0,0.2,0.1,0.3c0.1,0.1,0.2,0.2,0.4,0.2l0.5,0.1l0.2-0.9
			l-0.5-0.1C19.4,46.6,19.3,46.6,19.2,46.7z"/>
		<path class="st0" d="M29.3,46.7c0-0.1-0.1-0.3-0.1-0.4c-0.1-0.1-0.1-0.2-0.2-0.2C28.9,46,28.8,46,28.7,46c-0.1,0-0.2,0-0.3,0
			c-0.1,0-0.2,0-0.3,0.1c-0.1,0-0.1,0.1-0.2,0.2c-0.1,0.1-0.1,0.2-0.1,0.3c0,0.1,0,0.2,0,0.4l0,0.3c0,0.1,0.1,0.3,0.1,0.4
			c0.1,0.1,0.1,0.2,0.2,0.2c0.1,0.1,0.2,0.1,0.2,0.1c0.1,0,0.2,0,0.3,0c0.1,0,0.2,0,0.3-0.1c0.1,0,0.1-0.1,0.2-0.2
			c0.1-0.1,0.1-0.2,0.1-0.3c0-0.1,0-0.2,0-0.4L29.3,46.7z"/>
		<path class="st0" d="M13.1,6c0-0.1,0-0.2-0.1-0.3l0-0.1c-0.1-0.1-0.2-0.2-0.3-0.2c-0.1,0-0.2,0-0.4,0.1l-0.5,0.3l0.5,0.8l0.4-0.3
			C13,6.2,13.1,6.1,13.1,6z"/>
		<path class="st0" d="M32.6,46.5L32.6,46.5c0.1,0.2,0.2,0.3,0.3,0.3c0.1,0,0.3,0,0.4,0l0.5-0.2l-0.3-0.9L33,45.8
			C32.6,46,32.5,46.2,32.6,46.5z"/>
		<path class="st0" d="M36.8,44.1c0,0.1,0,0.2,0.1,0.3l0,0.1c0.1,0.1,0.2,0.2,0.3,0.2c0.1,0,0.2,0,0.4-0.1l0.5-0.3l-0.5-0.8
			l-0.4,0.3C37,43.9,36.9,44,36.8,44.1z"/>
		<path class="st0" d="M20.6,3.3c0,0.1,0.1,0.3,0.1,0.4c0.1,0.1,0.1,0.2,0.2,0.2C21,4,21.1,4,21.2,4c0.1,0,0.2,0,0.3,0
			c0.1,0,0.2,0,0.3-0.1c0.1,0,0.1-0.1,0.2-0.2C22,3.7,22,3.6,22.1,3.5c0-0.1,0-0.2,0-0.4L22,2.8c0-0.1-0.1-0.3-0.1-0.4
			c-0.1-0.1-0.1-0.2-0.2-0.2c-0.1-0.1-0.2-0.1-0.3-0.1c-0.1,0-0.2,0-0.3,0c-0.1,0-0.2,0-0.3,0.1c-0.1,0-0.1,0.1-0.2,0.2
			c-0.1,0.1-0.1,0.2-0.1,0.3c0,0.1,0,0.2,0,0.4L20.6,3.3z"/>
		<path class="st0" d="M17.3,3.6L17.3,3.6c-0.1-0.2-0.2-0.3-0.3-0.3c-0.1,0-0.3,0-0.4,0l-0.5,0.2l0.4,0.9L17,4.2
			C17.3,4.1,17.5,3.9,17.3,3.6z"/>
		<path class="st0" d="M27.2,3.6c0.1,0.1,0.1,0.1,0.2,0.2c0.1,0,0.2,0.1,0.3,0.1c0.1,0,0.2,0,0.3,0c0.1,0,0.2-0.1,0.2-0.1
			c0.1-0.1,0.1-0.1,0.2-0.2c0-0.1,0.1-0.2,0.1-0.4l0-0.3c0-0.2,0-0.3,0-0.4c0-0.1-0.1-0.2-0.1-0.3C28.4,2.1,28.3,2,28.2,2
			c-0.1,0-0.2-0.1-0.3-0.1c-0.1,0-0.2,0-0.3,0c-0.1,0-0.2,0.1-0.2,0.1c-0.1,0.1-0.1,0.1-0.2,0.2c0,0.1-0.1,0.2-0.1,0.4l0,0.3
			c0,0.2,0,0.3,0,0.4C27.1,3.5,27.1,3.6,27.2,3.6z"/>
		<path class="st0" d="M4.3,15.5c0.1,0.1,0.2,0.2,0.3,0.2l0.3,0.1c0.1,0.1,0.3,0.1,0.4,0.1c0.1,0,0.2,0,0.3,0c0.1,0,0.2-0.1,0.2-0.1
			C5.9,15.7,6,15.7,6,15.6c0-0.1,0.1-0.2,0.1-0.3c0-0.1,0-0.2,0-0.3c0-0.1-0.1-0.2-0.2-0.3c-0.1-0.1-0.2-0.2-0.3-0.2l-0.3-0.1
			c-0.1-0.1-0.3-0.1-0.4-0.1c-0.1,0-0.2,0-0.3,0c-0.1,0-0.2,0.1-0.2,0.1c-0.1,0.1-0.1,0.1-0.2,0.2c0,0.1-0.1,0.2-0.1,0.3
			c0,0.1,0,0.2,0,0.3C4.2,15.3,4.2,15.4,4.3,15.5z"/>
		<path class="st0" d="M30.8,3.3C30.9,3.2,30.9,3.1,31,3l0-0.1c0-0.1,0-0.2-0.1-0.3c-0.1-0.1-0.2-0.2-0.4-0.2L30,2.3l-0.2,0.9
			l0.5,0.1C30.5,3.3,30.7,3.3,30.8,3.3z"/>
		<path class="st0" d="M4.3,19.5c0-0.1-0.1-0.2-0.2-0.2c-0.1-0.1-0.2-0.1-0.4-0.1l-0.3-0.1c-0.1,0-0.3,0-0.4,0c-0.1,0-0.2,0-0.3,0.1
			c-0.1,0.1-0.1,0.1-0.2,0.2c-0.1,0.1-0.1,0.2-0.1,0.3l-0.1,0.5l1.9,0.5l0.1-0.5c0-0.1,0-0.2,0-0.3C4.4,19.7,4.3,19.6,4.3,19.5z"/>
		<path class="st0" d="M25.1,0.1C11.3,0.1,0,11.2,0,24.9c0,13.7,11.1,24.9,24.9,25c13.8,0,25-11.1,25.1-24.8
			C50,11.3,38.9,0.2,25.1,0.1z M48.2,20.3l-0.3,0.1l-0.3-1.3l-0.8,0.2l0.3,1.2l-0.3,0.1l-0.3-1.2l-0.8,0.2l0.3,1.3L45.7,21l-0.4-1.7
			l2.5-0.6L48.2,20.3z M47,16.3l-1.8,1.5l2.3,0l0.1,0.4l-2.8-0.1l-0.1-0.3l2.1-1.8L47,16.3z M46.6,15.5l-2.4,1.1l-0.2-0.3l2.4-1.1
			L46.6,15.5z M45.7,13.7l-2,1.1l0.6,1.1L44,16l-0.8-1.5l2.3-1.2L45.7,13.7z M42.9,10c0.1,0,0.3,0.1,0.4,0.1
			c0.1,0.1,0.2,0.2,0.3,0.3c0.1,0.1,0.2,0.3,0.2,0.4c0.1,0.1,0.1,0.3,0.1,0.5l-0.3,0c0-0.1,0-0.3-0.1-0.4c0-0.1-0.1-0.2-0.2-0.3
			c-0.1-0.2-0.3-0.3-0.5-0.3c-0.2,0-0.4,0.1-0.6,0.3L42,10.8c-0.2,0.2-0.4,0.4-0.4,0.6c0,0.2,0,0.4,0.2,0.6c0.1,0.1,0.1,0.2,0.2,0.2
			c0.1,0.1,0.1,0.1,0.2,0.1l0.6-0.5l-0.4-0.5l0.2-0.2l0.6,0.8l-1,0.8c-0.1,0-0.3-0.1-0.4-0.2c-0.1-0.1-0.2-0.2-0.4-0.4
			c-0.1-0.1-0.2-0.3-0.2-0.4c-0.1-0.1-0.1-0.3-0.1-0.4c0-0.1,0.1-0.3,0.1-0.4c0.1-0.1,0.2-0.3,0.3-0.4l0.3-0.2
			c0.1-0.1,0.3-0.2,0.4-0.2C42.6,10,42.8,10,42.9,10z M41.3,8l-0.5,2c0,0,0,0.1-0.1,0.2c0,0.1-0.1,0.1-0.1,0.2l1.5-1.5l0.2,0.2
			l-1.8,1.8l-0.3-0.3l0.5-2c0-0.1,0-0.1,0.1-0.2c0-0.1,0-0.1,0.1-0.2l-1.5,1.5l-0.2-0.2L41,7.6L41.3,8z M40.5,7.2l-1.7,2l-0.3-0.2
			l1.7-2L40.5,7.2z M38,5.2l0.3,0.2l-0.6,2.2l1.9-1.3l0.3,0.2l-2.4,1.5l-0.3-0.2L38,5.2z M37.1,4.8l-0.4,2.8l-0.3-0.2l0.1-0.8
			L35.6,6L35,6.5l-0.3-0.2l2.2-1.7L37.1,4.8z M33.2,5c0,0.1,0.1,0.1,0.1,0.2c0,0.1,0.1,0.1,0.1,0.2c0.1,0.1,0.1,0.1,0.2,0.1
			c0.1,0,0.1,0.1,0.2,0.1c0.2,0.1,0.3,0.1,0.4,0.1c0.1,0,0.2-0.1,0.2-0.2l0-0.1c0-0.1,0-0.1,0-0.2c0,0,0-0.1,0-0.1
			c0-0.1-0.1-0.1-0.1-0.2c-0.1-0.1-0.1-0.1-0.2-0.2c-0.1-0.1-0.2-0.2-0.3-0.2c-0.1-0.1-0.2-0.2-0.2-0.2c-0.1-0.1-0.1-0.2-0.1-0.3
			c0-0.1,0-0.2,0.1-0.3l0-0.1c0-0.1,0.1-0.2,0.2-0.2c0.1-0.1,0.2-0.1,0.2-0.1c0.1,0,0.2,0,0.3,0c0.1,0,0.3,0,0.4,0.1
			c0.2,0.1,0.3,0.1,0.4,0.2c0.1,0.1,0.2,0.2,0.3,0.3l-0.3,0.2C35.1,4.1,35,4,34.9,3.9c-0.1-0.1-0.2-0.1-0.3-0.2
			c-0.2-0.1-0.3-0.1-0.4-0.1c-0.1,0-0.2,0.1-0.2,0.2l0,0.1c0,0.1,0,0.1,0,0.2c0,0,0,0.1,0.1,0.1c0,0,0.1,0.1,0.1,0.2
			c0.1,0.1,0.1,0.1,0.2,0.2c0.1,0.1,0.2,0.2,0.3,0.3c0.1,0.1,0.1,0.2,0.2,0.3c0,0.1,0.1,0.2,0,0.2c0,0.1,0,0.2-0.1,0.2l0,0.1
			c0,0.1-0.1,0.2-0.2,0.3C34.5,6,34.4,6,34.3,6c-0.1,0-0.2,0-0.3,0c-0.1,0-0.2-0.1-0.4-0.1c-0.2-0.1-0.3-0.2-0.4-0.3
			c-0.1-0.1-0.2-0.2-0.3-0.4L33.2,5z M29.7,1.9l1,0.2c0.1,0,0.2,0.1,0.3,0.1c0.1,0.1,0.2,0.1,0.2,0.2c0.1,0.1,0.1,0.2,0.1,0.3
			c0,0.1,0,0.2,0,0.3l0,0.1c0,0.1-0.1,0.3-0.2,0.4c-0.1,0.1-0.2,0.1-0.4,0.2L31,4.8l-0.4-0.1l-0.2-1.2l-0.6-0.2l-0.3,1.1l-0.4-0.1
			L29.7,1.9z M26.7,3l0-0.4c0-0.2,0.1-0.3,0.1-0.5C27,1.9,27,1.8,27.2,1.8c0.1-0.1,0.2-0.1,0.4-0.2c0.1,0,0.3,0,0.4,0
			c0.2,0,0.3,0.1,0.4,0.1c0.1,0.1,0.2,0.1,0.3,0.3c0.1,0.1,0.1,0.2,0.2,0.4c0,0.1,0,0.3,0,0.5l0,0.4c0,0.2-0.1,0.4-0.1,0.5
			C28.7,3.8,28.6,4,28.5,4c-0.1,0.1-0.2,0.1-0.4,0.2c-0.1,0-0.3,0-0.4,0c-0.2,0-0.3-0.1-0.4-0.1C27.1,4,27,4,26.9,3.8
			c-0.1-0.1-0.1-0.2-0.2-0.4C26.7,3.3,26.7,3.1,26.7,3z M24.7,1.4l1.7,0l0,0.3l-1.3,0l0,0.9l1.2,0l0,0.3l-1.2,0L25,4l-0.4,0
			L24.7,1.4z M20.2,2.5c0-0.1,0.1-0.3,0.2-0.4c0.1-0.1,0.2-0.2,0.3-0.3c0.1-0.1,0.3-0.1,0.4-0.1c0.2,0,0.3,0,0.4,0
			c0.1,0,0.3,0.1,0.4,0.2C22,2,22.1,2.1,22.2,2.2c0.1,0.1,0.1,0.3,0.2,0.5l0.1,0.4c0,0.2,0,0.4,0,0.5c0,0.1-0.1,0.3-0.2,0.4
			c-0.1,0.1-0.2,0.2-0.3,0.3c-0.1,0.1-0.3,0.1-0.4,0.1c-0.2,0-0.3,0-0.4,0c-0.1,0-0.3-0.1-0.4-0.2c-0.1-0.1-0.2-0.2-0.3-0.3
			c-0.1-0.1-0.1-0.3-0.2-0.5L20.2,3C20.2,2.8,20.2,2.7,20.2,2.5z M19.6,2l0.1,0.3l-0.8,0.2l0.6,2.2l-0.4,0.1l-0.6-2.2l-0.8,0.2
			l-0.1-0.3L19.6,2z M16.6,3C16.7,3,16.8,2.9,17,2.9c0.1,0,0.2,0,0.3,0c0.1,0,0.2,0.1,0.2,0.2c0.1,0.1,0.1,0.2,0.2,0.3l0,0.1
			c0,0.1,0.1,0.2,0.1,0.3c0,0.1,0,0.2-0.1,0.3c0,0.1-0.1,0.2-0.2,0.3c-0.1,0.1-0.2,0.1-0.3,0.2l-0.6,0.2L17,5.6l-0.3,0.1l-0.9-2.4
			L16.6,3z M13.6,4.4l1.2,0.8l0.1-1.4l0.4-0.2l-0.1,1.8l0.5,0.9l-0.3,0.2l-0.5-0.9l-1.5-1L13.6,4.4z M12.2,5.2
			c0.1-0.1,0.2-0.1,0.3-0.2c0.1,0,0.2,0,0.3,0c0.1,0,0.2,0,0.3,0.1c0.1,0.1,0.1,0.1,0.2,0.2l0.1,0.1c0.1,0.1,0.1,0.3,0.1,0.4
			c0,0.1-0.1,0.3-0.1,0.4l1.1,0.7l-0.3,0.2l-1-0.6l-0.6,0.4l0.6,0.9L12.8,8l-1.4-2.2L12.2,5.2z M9.7,7.4c0-0.1,0.1-0.3,0.1-0.4
			c0.1-0.1,0.2-0.2,0.3-0.3c0.1-0.1,0.3-0.2,0.4-0.3c0.1-0.1,0.3-0.1,0.4-0.1l0,0.3c-0.2,0-0.3,0-0.4,0.1c-0.1,0-0.2,0.1-0.3,0.2
			c-0.1,0.1-0.1,0.1-0.2,0.2c0,0.1-0.1,0.2-0.1,0.3c0,0.1,0,0.2,0.1,0.3c0,0.1,0.1,0.2,0.2,0.3l0.2,0.2c0.1,0.1,0.2,0.2,0.3,0.3
			c0.1,0.1,0.2,0.1,0.3,0.1c0.1,0,0.2,0,0.3,0c0.1,0,0.2-0.1,0.3-0.1c0.1-0.1,0.2-0.2,0.3-0.3C12,8.1,12,8,12,7.8l0.3,0.1
			c0,0.2-0.1,0.3-0.2,0.5c-0.1,0.1-0.2,0.3-0.4,0.4c-0.1,0.1-0.3,0.2-0.4,0.2c-0.1,0-0.3,0.1-0.4,0.1c-0.1,0-0.3-0.1-0.4-0.1
			c-0.1-0.1-0.3-0.2-0.4-0.3L10,8.3C9.9,8.1,9.8,8,9.8,7.8C9.7,7.7,9.7,7.6,9.7,7.4z M8.9,9.5l0.3,0.3l-0.3,0.3L8.6,9.9L8.9,9.5z
			 M5.5,11.8l2,0.2c0.1,0,0.1,0,0.2,0c0.1,0,0.2,0,0.2,0l-1.7-1.2l0.2-0.3L8.6,12l-0.2,0.3l-2-0.2c-0.1,0-0.1,0-0.2,0
			c-0.1,0-0.1,0-0.2,0l1.7,1.2l-0.2,0.3l-2.1-1.5L5.5,11.8z M4.9,12.7L7.2,14L7,14.4L4.8,13L4.9,12.7z M3.8,14.9
			c0-0.1,0.1-0.3,0.1-0.4c0.1-0.1,0.2-0.3,0.3-0.4c0.1-0.1,0.2-0.2,0.3-0.2c0.1,0,0.3-0.1,0.4,0c0.2,0,0.3,0.1,0.5,0.1l0.4,0.2
			c0.2,0.1,0.3,0.2,0.4,0.3c0.1,0.1,0.2,0.2,0.2,0.4c0,0.1,0.1,0.3,0,0.4c0,0.1-0.1,0.3-0.1,0.4C6.2,15.9,6.1,16,6,16.1
			c-0.1,0.1-0.2,0.2-0.3,0.2c-0.1,0-0.3,0.1-0.4,0c-0.2,0-0.3-0.1-0.5-0.2L4.4,16c-0.2-0.1-0.3-0.2-0.4-0.3
			c-0.1-0.1-0.2-0.2-0.2-0.4C3.8,15.2,3.8,15.1,3.8,14.9z M2.9,16.9C3,16.7,3,16.6,3.1,16.4c0.1-0.1,0.2-0.2,0.3-0.3l0.2,0.3
			c-0.1,0.1-0.2,0.2-0.3,0.3c-0.1,0.1-0.1,0.2-0.2,0.3c0,0.1-0.1,0.2,0,0.3c0,0.1,0,0.2,0.1,0.3c0,0.1,0.1,0.2,0.2,0.2
			c0.1,0.1,0.2,0.1,0.3,0.2l0.3,0.1c0.1,0.1,0.3,0.1,0.4,0.1c0.1,0,0.2,0,0.3,0C4.8,18,4.9,18,5,17.9c0.1-0.1,0.1-0.2,0.1-0.2
			c0-0.1,0.1-0.3,0.1-0.4c0-0.1,0-0.3-0.1-0.4l0.3-0.1c0.1,0.2,0.1,0.3,0.1,0.5c0,0.2,0,0.3-0.1,0.5c-0.1,0.2-0.1,0.3-0.2,0.4
			c-0.1,0.1-0.2,0.2-0.3,0.2c-0.1,0.1-0.3,0.1-0.4,0.1c-0.2,0-0.3,0-0.5-0.1l-0.4-0.1c-0.2-0.1-0.3-0.1-0.4-0.2
			C3,17.9,3,17.8,2.9,17.7c-0.1-0.1-0.1-0.3-0.1-0.4C2.8,17.2,2.8,17,2.9,16.9z M2.1,19.6c0.1-0.4,0.2-0.6,0.5-0.8
			c0.2-0.1,0.5-0.2,0.9-0.1l0.4,0.1c0.4,0.1,0.6,0.2,0.7,0.5c0.1,0.2,0.2,0.5,0.1,0.9L4.4,21l-2.5-0.6L2.1,19.6z M1.7,22
			c0-0.2,0.1-0.3,0.1-0.4c0.1-0.1,0.1-0.2,0.2-0.4l0.3,0.2c-0.1,0.1-0.1,0.2-0.2,0.3C2,21.8,2,21.9,2,22c0,0.2,0,0.3,0.1,0.4
			c0.1,0.1,0.1,0.2,0.2,0.2l0.1,0c0.1,0,0.1,0,0.2,0c0,0,0.1-0.1,0.1-0.1c0,0,0.1-0.1,0.1-0.2c0-0.1,0.1-0.2,0.1-0.3
			c0.1-0.2,0.1-0.3,0.2-0.4c0.1-0.1,0.1-0.2,0.2-0.2c0.1-0.1,0.1-0.1,0.2-0.1c0.1,0,0.2,0,0.2,0l0.1,0c0.1,0,0.2,0.1,0.3,0.1
			c0.1,0.1,0.1,0.1,0.2,0.2c0.1,0.1,0.1,0.2,0.1,0.3c0,0.1,0,0.3,0,0.4c0,0.2-0.1,0.4-0.2,0.5C4.1,23,4,23.1,3.9,23.2L3.6,23
			c0,0,0.1-0.1,0.1-0.2c0-0.1,0.1-0.1,0.1-0.2c0-0.1,0.1-0.1,0.1-0.2c0-0.1,0-0.1,0-0.2c0-0.2,0-0.3-0.1-0.4
			c-0.1-0.1-0.1-0.2-0.2-0.2l-0.1,0c-0.1,0-0.1,0-0.2,0c0,0-0.1,0-0.1,0.1c0,0-0.1,0.1-0.1,0.2c0,0.1-0.1,0.2-0.1,0.3
			c0,0.1-0.1,0.2-0.1,0.3c0,0.1-0.1,0.2-0.2,0.3c-0.1,0.1-0.1,0.1-0.2,0.2c-0.1,0-0.2,0-0.3,0l-0.1,0c-0.1,0-0.2,0-0.2-0.1
			c-0.1,0-0.1-0.1-0.2-0.2c-0.1-0.1-0.1-0.2-0.1-0.3C1.6,22.3,1.6,22.1,1.7,22z M3.1,24.7l0,0.4l-0.4,0l0-0.4L3.1,24.7z M1.6,27.9
			c0-0.2,0-0.3,0-0.5c0-0.1,0.1-0.3,0.1-0.4l0.3,0.1C2,27.3,2,27.4,2,27.5c0,0.1,0,0.2,0,0.3C2,28,2,28.2,2.1,28.2
			c0.1,0.1,0.2,0.1,0.3,0.1l0.1,0c0.1,0,0.1,0,0.1-0.1c0,0,0.1-0.1,0.1-0.1c0-0.1,0-0.1,0.1-0.2c0-0.1,0-0.2,0-0.3
			c0-0.2,0-0.3,0.1-0.4c0-0.1,0.1-0.2,0.1-0.3c0.1-0.1,0.1-0.1,0.2-0.2c0.1,0,0.1-0.1,0.2-0.1l0.1,0c0.1,0,0.2,0,0.3,0
			c0.1,0,0.2,0.1,0.2,0.2c0.1,0.1,0.1,0.2,0.2,0.3c0,0.1,0.1,0.2,0.1,0.4c0,0.2,0,0.4,0,0.5c0,0.2-0.1,0.3-0.2,0.4l-0.3-0.1
			c0-0.1,0.1-0.1,0.1-0.2c0-0.1,0-0.1,0.1-0.2c0-0.1,0-0.1,0-0.2c0-0.1,0-0.1,0-0.2c0-0.2-0.1-0.3-0.2-0.4c-0.1-0.1-0.2-0.1-0.3-0.1
			l-0.1,0c-0.1,0-0.1,0-0.1,0c0,0-0.1,0.1-0.1,0.1c0,0.1-0.1,0.1-0.1,0.2c0,0.1,0,0.2,0,0.3c0,0.1,0,0.3,0,0.4C3,28.2,3,28.3,3,28.4
			c0,0.1-0.1,0.2-0.2,0.2c-0.1,0.1-0.2,0.1-0.3,0.1l-0.1,0c-0.1,0-0.2,0-0.3,0c-0.1,0-0.2-0.1-0.2-0.1c-0.1-0.1-0.1-0.2-0.2-0.3
			C1.7,28.2,1.7,28.1,1.6,27.9z M1.9,29.4l0.3-0.1l0.3,1.3l0.8-0.2L3,29.3l0.3-0.1l0.3,1.2l0.8-0.2l-0.3-1.3l0.3-0.1l0.4,1.7
			l-2.5,0.6L1.9,29.4z M3,33.4L4.8,32l-2.3-0.1l-0.1-0.4l2.8,0.1L5.3,32l-2.1,1.8L3,33.4z M3.4,34.2l2.4-1l0.1,0.3l-2.4,1L3.4,34.2z
			 M4.3,36.1l2-1.1l-0.6-1.1L6,33.8l0.8,1.5l-2.3,1.2L4.3,36.1z M7.1,39.8c-0.1,0-0.3-0.1-0.4-0.1c-0.1-0.1-0.2-0.2-0.3-0.3
			c-0.1-0.1-0.2-0.3-0.2-0.4C6,38.8,6,38.6,6,38.5l0.3,0c0,0.1,0,0.3,0.1,0.4c0,0.1,0.1,0.2,0.2,0.3c0.1,0.2,0.3,0.3,0.5,0.3
			c0.2,0,0.4-0.1,0.6-0.2L8,39c0.2-0.2,0.4-0.4,0.4-0.6c0-0.2,0-0.4-0.2-0.6c-0.1-0.1-0.1-0.2-0.2-0.2c-0.1-0.1-0.1-0.1-0.2-0.1
			L7.2,38l0.4,0.5l-0.2,0.2l-0.6-0.8l1-0.8c0.1,0,0.3,0.1,0.4,0.2c0.1,0.1,0.2,0.2,0.3,0.4c0.1,0.1,0.2,0.3,0.2,0.4
			c0.1,0.1,0.1,0.3,0.1,0.4c0,0.1-0.1,0.3-0.1,0.4c-0.1,0.1-0.2,0.3-0.3,0.4l-0.3,0.2c-0.1,0.1-0.3,0.2-0.4,0.2
			C7.4,39.8,7.2,39.9,7.1,39.8z M8.6,41.9l0.5-2c0,0,0-0.1,0.1-0.2c0-0.1,0.1-0.1,0.1-0.2L7.8,41l-0.2-0.2l1.9-1.8l0.3,0.3l-0.5,2
			c0,0.1,0,0.1-0.1,0.2c0,0.1-0.1,0.1-0.1,0.2l1.5-1.5l0.2,0.2l-1.9,1.8L8.6,41.9z M9.4,42.6l1.7-2l0.3,0.2l-1.7,2L9.4,42.6z
			 M12,44.6l-0.3-0.2l0.7-2.2l-1.9,1.2l-0.3-0.2l2.4-1.5l0.3,0.2L12,44.6z M12.8,45.1l0.5-2.7l0.3,0.2l-0.1,0.8l0.9,0.5l0.6-0.5
			l0.3,0.2l-2.2,1.7L12.8,45.1z M16.7,44.8c0-0.1-0.1-0.1-0.1-0.2c0-0.1-0.1-0.1-0.1-0.2c-0.1-0.1-0.1-0.1-0.2-0.1
			c-0.1,0-0.1-0.1-0.2-0.1c-0.2-0.1-0.3-0.1-0.4-0.1c-0.1,0-0.2,0.1-0.2,0.2l0,0.1c0,0.1,0,0.1,0,0.1c0,0,0,0.1,0,0.1
			c0,0.1,0.1,0.1,0.1,0.2c0.1,0.1,0.1,0.1,0.2,0.2c0.1,0.1,0.2,0.2,0.3,0.2c0.1,0.1,0.2,0.2,0.2,0.2c0,0.1,0.1,0.2,0.1,0.3
			c0,0.1,0,0.2-0.1,0.3l0,0.1c0,0.1-0.1,0.2-0.2,0.2c-0.1,0.1-0.2,0.1-0.2,0.1c-0.1,0-0.2,0-0.3,0c-0.1,0-0.3-0.1-0.4-0.1
			c-0.1-0.1-0.3-0.1-0.4-0.2c-0.1-0.1-0.2-0.2-0.3-0.3l0.3-0.2c0.1,0.1,0.1,0.2,0.2,0.3c0.1,0.1,0.2,0.1,0.3,0.2
			c0.2,0.1,0.3,0.1,0.4,0.1c0.1,0,0.2-0.1,0.2-0.2l0-0.1c0-0.1,0-0.1,0-0.2c0,0,0-0.1-0.1-0.1c0-0.1-0.1-0.1-0.1-0.2
			c-0.1-0.1-0.1-0.1-0.2-0.2c-0.1-0.1-0.2-0.2-0.3-0.3c-0.1-0.1-0.1-0.2-0.2-0.3c0-0.1-0.1-0.2,0-0.2c0-0.1,0-0.2,0.1-0.2l0-0.1
			c0.1-0.1,0.1-0.2,0.2-0.3c0.1-0.1,0.2-0.1,0.3-0.1c0.1,0,0.2,0,0.3,0c0.1,0,0.2,0.1,0.4,0.1c0.2,0.1,0.3,0.2,0.4,0.3
			c0.1,0.1,0.2,0.2,0.3,0.4L16.7,44.8z M20.2,48.1l-0.9-0.2c-0.1,0-0.2-0.1-0.3-0.1c-0.1-0.1-0.2-0.1-0.2-0.2
			c-0.1-0.1-0.1-0.2-0.1-0.3c0-0.1,0-0.2,0-0.3l0-0.1c0-0.1,0.1-0.3,0.2-0.3c0.1-0.1,0.2-0.1,0.4-0.2L19,45.1l0.4,0.1l0.2,1.2
			l0.6,0.2l0.3-1.1l0.4,0.1L20.2,48.1z M23.2,47l-0.1,0.4c0,0.2-0.1,0.3-0.1,0.5c-0.1,0.1-0.2,0.2-0.3,0.3c-0.1,0.1-0.2,0.1-0.4,0.2
			c-0.1,0-0.3,0-0.4,0c-0.2,0-0.3-0.1-0.4-0.1c-0.1-0.1-0.2-0.2-0.3-0.3c-0.1-0.1-0.1-0.2-0.2-0.4c0-0.1,0-0.3,0-0.5l0.1-0.4
			c0-0.2,0.1-0.4,0.1-0.5c0.1-0.1,0.2-0.2,0.3-0.3c0.1-0.1,0.2-0.1,0.4-0.2c0.1,0,0.3,0,0.4,0c0.2,0,0.3,0.1,0.4,0.1
			c0.1,0.1,0.2,0.1,0.3,0.3c0.1,0.1,0.1,0.2,0.2,0.4C23.2,46.6,23.2,46.8,23.2,47z M25.2,48.6l-1.7,0l0-0.3l1.3,0l0-0.9l-1.2,0
			l0-0.3l1.2,0l0-1.1l0.4,0L25.2,48.6z M29.7,47.5c0,0.1-0.1,0.3-0.2,0.4c-0.1,0.1-0.2,0.2-0.3,0.3c-0.1,0.1-0.3,0.1-0.4,0.1
			c-0.2,0-0.3,0-0.4,0c-0.1,0-0.3-0.1-0.4-0.2c-0.1-0.1-0.2-0.2-0.3-0.3c-0.1-0.1-0.1-0.3-0.2-0.5l-0.1-0.4c0-0.2,0-0.4,0-0.5
			c0-0.1,0.1-0.3,0.2-0.4c0.1-0.1,0.2-0.2,0.3-0.3c0.1-0.1,0.3-0.1,0.4-0.1c0.2,0,0.3,0,0.4,0c0.1,0,0.3,0.1,0.4,0.2
			c0.1,0.1,0.2,0.2,0.3,0.3c0.1,0.1,0.1,0.3,0.2,0.5l0.1,0.4C29.8,47.2,29.8,47.3,29.7,47.5z M30.3,48l-0.1-0.3l0.8-0.2l-0.6-2.2
			l0.4-0.1l0.6,2.2l0.8-0.2l0.1,0.3L30.3,48z M33.4,47c-0.1,0.1-0.3,0.1-0.4,0.1c-0.1,0-0.2,0-0.3,0c-0.1,0-0.2-0.1-0.2-0.2
			c-0.1-0.1-0.1-0.2-0.2-0.3l0-0.1c0-0.1-0.1-0.2-0.1-0.3c0-0.1,0-0.2,0.1-0.3c0-0.1,0.1-0.2,0.2-0.3c0.1-0.1,0.2-0.1,0.3-0.2
			l0.6-0.2L33,44.4l0.3-0.1l0.9,2.4L33.4,47z M36.3,45.7l-1.2-0.8l-0.1,1.4l-0.4,0.2l0.1-1.8l-0.5-0.9l0.3-0.2l0.5,0.9l1.5,1
			L36.3,45.7z M37.7,44.8c-0.1,0.1-0.2,0.1-0.3,0.2c-0.1,0-0.2,0-0.3,0c-0.1,0-0.2,0-0.3-0.1c-0.1-0.1-0.1-0.1-0.2-0.2l-0.1-0.1
			c-0.1-0.1-0.1-0.3-0.1-0.4c0-0.1,0.1-0.3,0.1-0.4l-1.1-0.7l0.3-0.2l1,0.6l0.6-0.4l-0.6-0.9l0.3-0.2l1.4,2.2L37.7,44.8z M40.2,42.7
			c0,0.1-0.1,0.3-0.1,0.4c-0.1,0.1-0.2,0.2-0.3,0.3c-0.1,0.1-0.3,0.2-0.4,0.3c-0.1,0.1-0.3,0.1-0.4,0.1l0-0.3c0.2,0,0.3,0,0.4-0.1
			c0.1,0,0.2-0.1,0.3-0.2c0.1-0.1,0.1-0.1,0.2-0.2c0-0.1,0.1-0.2,0.1-0.3c0-0.1,0-0.2-0.1-0.3c0-0.1-0.1-0.2-0.2-0.3l-0.2-0.2
			c-0.1-0.1-0.2-0.2-0.3-0.3c-0.1-0.1-0.2-0.1-0.3-0.1c-0.1,0-0.2,0-0.3,0c-0.1,0-0.2,0.1-0.3,0.1c-0.1,0.1-0.2,0.2-0.3,0.3
			c-0.1,0.1-0.1,0.2-0.1,0.4l-0.3-0.1c0-0.2,0.1-0.3,0.2-0.5c0.1-0.1,0.2-0.3,0.4-0.4c0.1-0.1,0.3-0.2,0.4-0.2c0.1,0,0.3-0.1,0.4,0
			c0.1,0,0.3,0.1,0.4,0.1c0.1,0.1,0.3,0.2,0.4,0.3l0.2,0.3c0.1,0.1,0.2,0.3,0.3,0.4C40.2,42.4,40.3,42.5,40.2,42.7z M40.2,37.4
			L40,37.3c-0.2,0.2-0.4,0.4-0.5,0.6l0.1,0.1c0.1,0.1,0.1,0.2,0,0.3l-1.2,1.2c-0.1,0.1-0.2,0.1-0.3,0l-0.1-0.1
			c-0.2,0.2-0.4,0.4-0.6,0.6l0.1,0.1c0.1,0.1,0,0.2-0.1,0.3l-1.4,1c-0.1,0.1-0.3,0.1-0.3,0l-0.1-0.1c-0.2,0.2-0.5,0.3-0.7,0.4
			l0.1,0.1c0,0.1,0,0.2-0.1,0.3L33.2,43c-0.1,0.1-0.3,0-0.3-0.1l-0.1-0.1c-0.3,0.1-0.5,0.2-0.8,0.3l0.1,0.2c0,0.1,0,0.2-0.2,0.3
			L30.3,44c-0.1,0-0.3,0-0.3-0.1l-0.1-0.2c-0.3,0.1-0.5,0.1-0.8,0.2l0,0.2c0,0.1-0.1,0.2-0.2,0.2l-1.7,0.3c-0.1,0-0.3,0-0.3-0.1
			l0-0.2c-0.3,0-0.6,0-0.8,0.1l0,0.2c0,0.1-0.1,0.2-0.3,0.2l-1.7,0c-0.1,0-0.3-0.1-0.3-0.2l0-0.2c-0.3,0-0.6,0-0.8-0.1l0,0.2
			c0,0.1-0.1,0.2-0.3,0.1l-1.7-0.3c-0.1,0-0.2-0.1-0.2-0.2l0-0.2c-0.3-0.1-0.5-0.1-0.8-0.2L20,43.9c0,0.1-0.2,0.1-0.3,0.1l-1.6-0.5
			c-0.1,0-0.2-0.2-0.2-0.3l0.1-0.2c-0.3-0.1-0.5-0.2-0.8-0.3l-0.1,0.1c0,0.1-0.2,0.1-0.3,0.1l-1.5-0.8c-0.1-0.1-0.2-0.2-0.1-0.3
			l0.1-0.1c-0.2-0.1-0.5-0.3-0.7-0.4l-0.1,0.1c-0.1,0.1-0.2,0.1-0.3,0l-1.4-1c-0.1-0.1-0.2-0.2-0.1-0.3l0.1-0.1
			c-0.2-0.2-0.4-0.4-0.6-0.6l-0.1,0.1c-0.1,0.1-0.2,0.1-0.3,0l-1.2-1.2c-0.1-0.1-0.1-0.2,0-0.3l0.1-0.1c-0.2-0.2-0.4-0.4-0.5-0.6
			l-0.1,0.1c-0.1,0.1-0.2,0-0.3-0.1l-1-1.4c-0.1-0.1-0.1-0.3,0-0.3l0.1-0.1c-0.2-0.2-0.3-0.5-0.4-0.7l-0.1,0.1c-0.1,0-0.2,0-0.3-0.1
			L7,33.2c-0.1-0.1,0-0.3,0.1-0.3l0.1-0.1C7.1,32.5,7,32.3,6.9,32l-0.2,0.1c-0.1,0-0.2,0-0.3-0.2L6,30.3c0-0.1,0-0.3,0.1-0.3
			l0.2-0.1c-0.1-0.3-0.1-0.5-0.2-0.8l-0.2,0c-0.1,0-0.2-0.1-0.2-0.2l-0.3-1.7c0-0.1,0-0.3,0.1-0.3l0.2,0c0-0.3,0-0.6-0.1-0.8l-0.2,0
			c-0.1,0-0.2-0.1-0.2-0.3l0-1.7c0-0.1,0.1-0.3,0.2-0.3h0.2c0-0.2,0-0.6,0.1-0.8l-0.2,0c-0.1,0-0.2-0.1-0.1-0.3l0.3-1.7
			c0-0.1,0.1-0.2,0.2-0.2l0.2,0c0.1-0.3,0.1-0.5,0.2-0.8L6.1,20C6,20,5.9,19.8,6,19.7l0.5-1.6c0-0.1,0.2-0.2,0.3-0.2l0.2,0.1
			c0.1-0.3,0.2-0.5,0.3-0.8l-0.1-0.1C7,17,7,16.9,7,16.8l0.8-1.5c0.1-0.1,0.2-0.2,0.3-0.1l0.1,0.1c0.1-0.2,0.3-0.5,0.4-0.7l-0.1-0.1
			c-0.1-0.1-0.1-0.2,0-0.3l1-1.4c0.1-0.1,0.2-0.2,0.3-0.1l0.1,0.1c0.2-0.2,0.4-0.4,0.5-0.6l-0.1-0.1c-0.1-0.1-0.1-0.2,0-0.3l1.2-1.2
			c0.1-0.1,0.2-0.1,0.3,0l0.1,0.1c0.2-0.2,0.4-0.4,0.6-0.6l-0.1-0.1c-0.1-0.1,0-0.2,0.1-0.3l1.4-1c0.1-0.1,0.3-0.1,0.3,0l0.1,0.1
			c0.2-0.2,0.5-0.3,0.7-0.4l-0.1-0.1c0-0.1,0-0.2,0.1-0.3L16.8,7c0.1-0.1,0.3,0,0.3,0.1l0.1,0.1C17.4,7.1,17.7,7,18,6.9l-0.1-0.2
			c0-0.1,0-0.2,0.2-0.3l1.6-0.5c0.1,0,0.3,0,0.3,0.1l0.1,0.2c0.3-0.1,0.5-0.1,0.8-0.2l0-0.2c0-0.1,0.1-0.2,0.2-0.2l1.7-0.3
			c0.1,0,0.3,0,0.3,0.1l0,0.2c0.3,0,0.6,0,0.8-0.1l0-0.2c0-0.1,0.1-0.2,0.3-0.2l1.7,0c0.1,0,0.3,0.1,0.3,0.2l0,0.2
			c0.3,0,0.6,0,0.8,0.1l0-0.2c0-0.1,0.1-0.2,0.3-0.1l1.7,0.3c0.1,0,0.2,0.1,0.2,0.2l0,0.2c0.3,0.1,0.5,0.1,0.8,0.2L30,6
			c0-0.1,0.2-0.1,0.3-0.1l1.6,0.5c0.1,0,0.2,0.2,0.2,0.3L32,6.9c0.3,0.1,0.5,0.2,0.8,0.3l0.1-0.1c0-0.1,0.2-0.1,0.3-0.1l1.5,0.8
			c0.1,0.1,0.2,0.2,0.1,0.3l-0.1,0.1c0.2,0.1,0.5,0.3,0.7,0.4l0.1-0.1c0.1-0.1,0.2-0.1,0.3,0l1.4,1c0.1,0.1,0.2,0.2,0.1,0.3
			l-0.1,0.1c0.2,0.2,0.4,0.4,0.6,0.5l0.1-0.1c0.1-0.1,0.2-0.1,0.3,0l1.2,1.2c0.1,0.1,0.1,0.2,0,0.3l-0.1,0.1
			c0.2,0.2,0.4,0.4,0.5,0.6l0.1-0.1c0.1-0.1,0.2,0,0.3,0.1l1,1.4c0.1,0.1,0.1,0.3,0,0.3l-0.1,0.1c0.2,0.2,0.3,0.5,0.4,0.7l0.1-0.1
			c0.1,0,0.2,0,0.3,0.1l0.8,1.5c0.1,0.1,0,0.3-0.1,0.3l-0.1,0.1c0.1,0.3,0.2,0.5,0.3,0.8l0.2-0.1c0.1,0,0.2,0,0.3,0.2l0.5,1.6
			c0,0.1,0,0.3-0.1,0.3L43.8,20c0.1,0.3,0.1,0.5,0.2,0.8l0.2,0c0.1,0,0.2,0.1,0.2,0.2l0.3,1.7c0,0.1,0,0.3-0.1,0.3l-0.2,0
			c0,0.3,0,0.6,0.1,0.8l0.2,0c0.1,0,0.2,0.1,0.2,0.3l0,1.7c0,0.1-0.1,0.3-0.2,0.3l-0.2,0c0,0.3,0,0.6-0.1,0.8l0.2,0
			c0.1,0,0.2,0.1,0.1,0.3l-0.3,1.7c0,0.1-0.1,0.2-0.2,0.2l-0.2,0c-0.1,0.3-0.1,0.5-0.2,0.8l0.2,0.1c0.1,0,0.1,0.2,0.1,0.3l-0.5,1.6
			c0,0.1-0.2,0.2-0.3,0.2L43.1,32c-0.1,0.3-0.2,0.5-0.3,0.8l0.1,0.1c0.1,0,0.1,0.2,0.1,0.3l-0.8,1.5c-0.1,0.1-0.2,0.2-0.3,0.1
			l-0.1-0.1c-0.1,0.2-0.3,0.5-0.4,0.7l0.1,0.1c0.1,0.1,0.1,0.2,0,0.3l-1,1.4C40.4,37.4,40.3,37.4,40.2,37.4z M41.1,40.6l-0.3-0.3
			l0.3-0.3l0.3,0.3L41.1,40.6z M44.4,38.4l-2-0.2c-0.1,0-0.1,0-0.2,0c-0.1,0-0.2,0-0.2,0l1.7,1.3l-0.2,0.3l-2.1-1.5l0.3-0.3l2,0.2
			c0.1,0,0.1,0,0.2,0c0.1,0,0.1,0,0.2,0l-1.7-1.3l0.2-0.3l2.1,1.5L44.4,38.4z M45.1,37.4l-2.2-1.4l0.2-0.3l2.2,1.4L45.1,37.4z
			 M46.3,35.2c0,0.1-0.1,0.3-0.1,0.4C46,35.8,46,35.9,45.9,36c-0.1,0.1-0.2,0.2-0.4,0.2c-0.1,0-0.3,0.1-0.4,0
			c-0.2,0-0.3-0.1-0.5-0.2l-0.4-0.2c-0.2-0.1-0.3-0.2-0.4-0.3c-0.1-0.1-0.2-0.2-0.2-0.4c0-0.1-0.1-0.3,0-0.4c0-0.1,0.1-0.3,0.1-0.4
			c0.1-0.1,0.2-0.3,0.3-0.4c0.1-0.1,0.2-0.2,0.3-0.2c0.1,0,0.3-0.1,0.4,0c0.2,0,0.3,0.1,0.5,0.2l0.4,0.2c0.2,0.1,0.3,0.2,0.4,0.3
			c0.1,0.1,0.2,0.2,0.2,0.4C46.3,34.9,46.3,35.1,46.3,35.2z M47.2,33.3c-0.1,0.2-0.1,0.3-0.2,0.4c-0.1,0.1-0.2,0.2-0.3,0.3l-0.2-0.3
			c0.1-0.1,0.2-0.2,0.3-0.3c0.1-0.1,0.1-0.2,0.2-0.3c0-0.1,0.1-0.2,0.1-0.3c0-0.1,0-0.2-0.1-0.3c0-0.1-0.1-0.2-0.2-0.2
			c-0.1-0.1-0.2-0.1-0.3-0.2L46,32.1c-0.1-0.1-0.3-0.1-0.4-0.1c-0.1,0-0.2,0-0.3,0c-0.1,0-0.2,0.1-0.2,0.2C45,32.3,45,32.4,45,32.5
			c0,0.1-0.1,0.3-0.1,0.4c0,0.1,0,0.3,0.1,0.4l-0.3,0.1c-0.1-0.2-0.1-0.3-0.1-0.5c0-0.2,0-0.3,0.1-0.5c0.1-0.2,0.1-0.3,0.2-0.4
			c0.1-0.1,0.2-0.2,0.3-0.2c0.1-0.1,0.3-0.1,0.4-0.1c0.2,0,0.3,0,0.5,0.1l0.4,0.1c0.2,0.1,0.3,0.1,0.4,0.2c0.1,0.1,0.2,0.2,0.3,0.3
			c0.1,0.1,0.1,0.3,0.1,0.4C47.2,33,47.2,33.1,47.2,33.3z M47.9,30.6c-0.1,0.4-0.3,0.6-0.5,0.8c-0.2,0.1-0.5,0.2-0.9,0.1l-0.4-0.1
			c-0.3-0.1-0.6-0.2-0.7-0.5c-0.1-0.2-0.2-0.5-0.1-0.9l0.2-0.9l2.5,0.6L47.9,30.6z M48.4,28.2c0,0.2-0.1,0.3-0.1,0.4
			c-0.1,0.1-0.1,0.2-0.2,0.3l-0.3-0.2c0.1-0.1,0.1-0.2,0.2-0.3c0-0.1,0.1-0.2,0.1-0.3c0-0.2,0-0.3-0.1-0.4c-0.1-0.1-0.1-0.2-0.2-0.2
			l-0.1,0c-0.1,0-0.1,0-0.2,0c0,0-0.1,0.1-0.1,0.1c0,0-0.1,0.1-0.1,0.2c0,0.1-0.1,0.2-0.1,0.3c-0.1,0.2-0.1,0.3-0.2,0.4
			c-0.1,0.1-0.1,0.2-0.2,0.2c-0.1,0.1-0.1,0.1-0.2,0.1c-0.1,0-0.2,0-0.2,0l-0.1,0c-0.1,0-0.2-0.1-0.3-0.1c-0.1-0.1-0.1-0.1-0.2-0.2
			c0-0.1-0.1-0.2-0.1-0.3c0-0.1,0-0.3,0-0.4c0-0.2,0.1-0.4,0.2-0.5c0.1-0.2,0.2-0.3,0.3-0.4l0.3,0.2c0,0-0.1,0.1-0.1,0.2
			c0,0.1-0.1,0.1-0.1,0.2c0,0.1-0.1,0.1-0.1,0.2c0,0.1,0,0.1,0,0.2c0,0.2,0,0.3,0.1,0.4c0.1,0.1,0.1,0.2,0.2,0.2l0.1,0
			c0.1,0,0.1,0,0.2,0c0,0,0.1,0,0.1-0.1c0,0,0.1-0.1,0.1-0.2c0-0.1,0.1-0.2,0.1-0.3c0-0.1,0.1-0.2,0.1-0.3c0-0.1,0.1-0.2,0.2-0.3
			c0.1-0.1,0.1-0.1,0.2-0.2c0.1,0,0.2,0,0.3,0l0.1,0c0.1,0,0.2,0,0.2,0.1c0.1,0,0.1,0.1,0.2,0.2c0.1,0.1,0.1,0.2,0.1,0.3
			C48.5,27.9,48.5,28.1,48.4,28.2z M47,25.4l0-0.4l0.4,0l0,0.4L47,25.4z M48.3,22.7L48,22.6c0.1-0.1,0.1-0.2,0.1-0.3
			c0-0.1,0-0.2,0-0.3c0-0.2-0.1-0.3-0.2-0.4c-0.1-0.1-0.2-0.1-0.3-0.1l-0.1,0c-0.1,0-0.1,0-0.1,0.1c0,0-0.1,0.1-0.1,0.1
			c0,0.1,0,0.1-0.1,0.2c0,0.1,0,0.2,0,0.3c0,0.2,0,0.3-0.1,0.4c0,0.1-0.1,0.2-0.1,0.3c-0.1,0.1-0.1,0.1-0.2,0.2
			c-0.1,0-0.1,0.1-0.2,0.1l-0.1,0c-0.1,0-0.2,0-0.3,0c-0.1,0-0.2-0.1-0.2-0.2c-0.1-0.1-0.1-0.2-0.2-0.3c0-0.1-0.1-0.2-0.1-0.4
			c0-0.2,0-0.4,0-0.5c0-0.2,0.1-0.3,0.2-0.4l0.3,0.1c0,0.1-0.1,0.1-0.1,0.2c0,0.1,0,0.1-0.1,0.2c0,0.1,0,0.1,0,0.2
			c0,0.1,0,0.1,0,0.2c0,0.2,0.1,0.3,0.2,0.4c0.1,0.1,0.2,0.1,0.3,0.1l0.1,0c0.1,0,0.1,0,0.1,0c0,0,0.1-0.1,0.1-0.1
			c0-0.1,0-0.1,0.1-0.2c0-0.1,0-0.2,0-0.3c0-0.1,0-0.3,0-0.4c0-0.1,0.1-0.2,0.1-0.3c0-0.1,0.1-0.2,0.2-0.2c0.1-0.1,0.2-0.1,0.3-0.1
			l0.1,0c0.1,0,0.2,0,0.3,0c0.1,0,0.2,0.1,0.2,0.1c0.1,0.1,0.1,0.2,0.2,0.3c0.1,0.1,0.1,0.2,0.1,0.4c0,0.2,0,0.3,0,0.5
			C48.4,22.4,48.4,22.6,48.3,22.7z"/>
		<path class="st0" d="M36.7,5.5c0-0.1,0-0.1,0-0.1c0,0,0-0.1,0-0.1c0,0,0-0.1,0-0.1c0,0,0-0.1,0-0.2c0,0-0.1,0.1-0.1,0.1
			c0,0-0.1,0.1-0.1,0.1c0,0-0.1,0.1-0.1,0.1c0,0-0.1,0.1-0.1,0.1l-0.5,0.4l0.7,0.4L36.7,5.5z"/>
		<path class="st0" d="M45.7,34.7c-0.1-0.1-0.2-0.2-0.3-0.2l-0.3-0.1c-0.1-0.1-0.3-0.1-0.4-0.1c-0.1,0-0.2,0-0.3,0
			c-0.1,0-0.2,0.1-0.2,0.1c-0.1,0.1-0.1,0.1-0.2,0.2c0,0.1-0.1,0.2-0.1,0.3c0,0.1,0,0.2,0,0.3c0,0.1,0.1,0.2,0.2,0.3
			c0.1,0.1,0.2,0.2,0.3,0.2l0.3,0.1c0.1,0.1,0.3,0.1,0.4,0.1c0.1,0,0.2,0,0.3,0c0.1,0,0.2-0.1,0.2-0.1c0.1-0.1,0.1-0.1,0.2-0.2
			c0-0.1,0.1-0.2,0.1-0.3c0-0.1,0-0.2,0-0.3C45.8,34.9,45.8,34.8,45.7,34.7z"/>
		<path class="st0" d="M45.8,30.6c0,0.1,0.1,0.2,0.2,0.2c0.1,0.1,0.2,0.1,0.3,0.1l0.3,0.1c0.1,0,0.3,0,0.4,0c0.1,0,0.2,0,0.3-0.1
			c0.1-0.1,0.1-0.1,0.2-0.2c0.1-0.1,0.1-0.2,0.1-0.3l0.1-0.5l-1.9-0.5L45.7,30c0,0.1,0,0.2,0,0.3C45.7,30.5,45.7,30.6,45.8,30.6z"/>
		<g>
			<path class="st0" d="M22.7,29.1c-1.5-0.8-2.5-2.5-2.5-4.2c0-2.7,2.2-4.8,4.8-4.8c1.8,0,3.5,1,4.3,2.6l-0.1,0
				c-0.8-1.6-2.4-2.6-4.2-2.6c-2.6,0-4.8,2.1-4.8,4.8C20.2,26.6,21.2,28.2,22.7,29.1L22.7,29.1z"/>
			<path class="st0" d="M22.7,30.2c-2.1-0.9-3.5-3-3.5-5.3c0-3.2,2.6-5.8,5.8-5.8c2.4,0,4.5,1.4,5.3,3.6l-0.1,0
				c-0.9-2.2-3-3.5-5.3-3.5c-3.2,0-5.7,2.6-5.7,5.7C19.3,27.2,20.6,29.2,22.7,30.2L22.7,30.2z"/>
			<path class="st0" d="M22.7,32.3c-1.5-0.5-2.9-1.5-3.9-2.8c-1-1.3-1.5-2.9-1.5-4.6c0-4.3,3.5-7.7,7.7-7.7c1.7,0,3.3,0.5,4.7,1.6
				c1.3,1,2.3,2.4,2.7,4l-0.1,0c-1-3.2-4-5.5-7.3-5.5c-4.2,0-7.7,3.4-7.7,7.7C17.3,28.3,19.5,31.2,22.7,32.3L22.7,32.3z"/>
			<path class="st0" d="M22.7,33.3c-1.8-0.5-3.4-1.6-4.6-3.1c-1.2-1.5-1.8-3.4-1.8-5.3c0-4.8,3.9-8.7,8.7-8.7c4,0,7.4,2.7,8.4,6.5
				l-0.1,0c-1-3.8-4.4-6.4-8.3-6.4c-4.8,0-8.6,3.9-8.6,8.6C16.4,28.8,19,32.2,22.7,33.3L22.7,33.3z"/>
			<path class="st0" d="M22.7,34.3c-2.1-0.5-3.9-1.7-5.2-3.4c-1.4-1.7-2.1-3.8-2.1-6c0-2.6,1-5,2.8-6.8s4.2-2.8,6.8-2.8
				c2.2,0,4.3,0.8,6,2.1c1.7,1.4,2.9,3.2,3.4,5.3l-0.1,0c-1-4.4-4.9-7.4-9.3-7.4c-5.3,0-9.6,4.3-9.6,9.6
				C15.4,29.3,18.4,33.2,22.7,34.3L22.7,34.3z"/>
			<rect x="27.9" y="36.6" class="st0" width="0.1" height="6.4"/>
			<rect x="26.9" y="37.5" class="st0" width="0.1" height="5.7"/>
			<rect x="22.1" y="42" class="st0" width="0.1" height="1"/>
			<rect x="23.1" y="41.2" class="st0" width="0.1" height="2"/>
			<rect x="24" y="40.3" class="st0" width="0.1" height="2.9"/>
			<rect x="26" y="38.4" class="st0" width="0.1" height="4.8"/>
			<path class="st0" d="M27.9,36.7c-1.1,0-2.2-0.1-2.6-0.1c-1.6,0-3.1-0.3-4.6-0.9c-1.4-0.6-2.7-1.4-3.8-2.5c-1.1-1.1-2-2.3-2.6-3.7
				c-0.6-1.4-1-3-1-4.5c0-3.1,1.2-6,3.4-8.2c2.2-2.2,5.1-3.4,8.2-3.4c3.1,0,6,1.2,8.2,3.4c2.2,2.2,3.4,5.1,3.5,8.2c0,1.1,0,2,0,2.9
				l0,0.3l-0.1,0l0-0.3c0-0.8,0-1.7,0-2.9c-0.2-6.5-5.3-11.5-11.6-11.5c-6.4,0-11.5,5.2-11.5,11.5c0,6.3,5.4,11.6,11.9,11.6
				C25.7,36.5,26.9,36.6,27.9,36.7L27.9,36.7z"/>
			<rect x="36.7" y="28" class="st0" width="6.4" height="0.1"/>
			<path class="st0" d="M27,37.5c-0.4,0-0.6,0-0.8,0c-0.3,0-0.6,0-1.2,0c-3.4-0.1-6.5-1.4-8.9-3.7c-2.4-2.4-3.7-5.5-3.7-8.8
				c0-3.4,1.3-6.5,3.7-8.9c2.4-2.4,5.5-3.7,8.9-3.7c1.7,0,3.3,0.4,4.9,1c1.5,0.7,2.8,1.6,4,2.8c2.4,2.4,3.7,5.5,3.7,8.7v2.2h-0.1
				v-2.2c0-6.6-5.9-12.4-12.6-12.4c-6.9,0-12.5,5.6-12.5,12.5c0,6.9,5.5,12.4,12.5,12.5c0.5,0,0.8,0,1.2,0
				C26.4,37.4,26.6,37.4,27,37.5L27,37.5z"/>
			<rect x="37.6" y="27" class="st0" width="5.6" height="0.1"/>
			<path class="st0" d="M25,38.4c-0.1,0-0.1,0-0.2,0c-7.3-0.1-13.3-6.1-13.3-13.5c0-3.6,1.4-7,4-9.6s5.9-4,9.6-4
				c1.8,0,3.6,0.4,5.3,1.2c1.6,0.7,3.1,1.8,4.4,3.1c2.6,2.7,4,6.1,3.9,9.5c0,0,0,0.1,0.1,0.9l-0.1,0c-0.1-0.8-0.1-0.9-0.1-0.9
				c0.1-3.4-1.3-6.8-3.9-9.5C32,13,28.5,11.4,25,11.4c-7.4,0-13.5,6-13.5,13.5c0,7.4,5.9,13.4,13.3,13.5c0.3,0,0.4,0,0.6,0
				c0.2,0,0.4,0,0.6,0l0,0.1c-0.2,0-0.4,0-0.6,0C25.3,38.4,25.1,38.4,25,38.4z"/>
			<rect x="38.6" y="26.1" class="st0" width="4.7" height="0.1"/>
			<path class="st0" d="M24.1,40.3c-8.5-0.8-14.5-7.2-14.5-15.4c0-2.1,0.4-4.1,1.2-6c0.8-1.8,1.9-3.5,3.3-4.9
				c1.4-1.4,3.1-2.5,4.9-3.3c1.9-0.8,3.9-1.2,6-1.2c4,0,7.8,1.5,10.7,4.3c2.9,2.8,4.6,6.5,4.8,10.4l-0.1,0C40,15.9,33.2,9.5,25,9.5
				c-8.5,0-15.4,6.9-15.4,15.4C9.6,33.1,15.5,39.4,24.1,40.3L24.1,40.3z"/>
			<rect x="40.4" y="24.1" class="st0" width="3" height="0.1"/>
			<path class="st0" d="M23.1,41.2c-4-0.5-7.6-2.4-10.3-5.3c-2.7-3-4.2-6.9-4.2-11c0-2.2,0.4-4.4,1.3-6.4c0.8-2,2-3.7,3.5-5.2
				c1.5-1.5,3.3-2.7,5.2-3.5c2-0.9,4.2-1.3,6.4-1.3c4.1,0,8,1.5,11,4.3c3,2.7,4.9,6.4,5.3,10.5l-0.1,0C40.4,14.8,33.4,8.5,25,8.5
				c-9,0-16.4,7.3-16.4,16.4C8.6,33.2,14.8,40.2,23.1,41.2L23.1,41.2z"/>
			<rect x="41.3" y="23.2" class="st0" width="2" height="0.1"/>
			<path class="st0" d="M22.1,42c-4-0.7-7.7-2.7-10.3-5.9c-1.3-1.5-2.3-3.3-3.1-5.2c-0.7-2-1.1-4-1.1-6.1c0-2.3,0.5-4.6,1.4-6.8
				c0.9-2.1,2.1-3.9,3.7-5.5c1.6-1.6,3.5-2.9,5.5-3.7C20.4,8,22.6,7.5,25,7.5c2.1,0,4.2,0.4,6.2,1.1c1.9,0.7,3.7,1.8,5.2,3.1
				c3.1,2.7,5.2,6.4,5.8,10.5l-0.1,0C40.8,13.9,33.5,7.6,25,7.6c-9.6,0-17.3,7.8-17.3,17.3C7.7,33.4,13.7,40.6,22.1,42L22.1,42z"/>
			<rect x="42.1" y="22.2" class="st0" width="1" height="0.1"/>
			<polygon class="st0" points="37,38.8 37,38.8 37,37.1 38.7,37.1 38.7,37.2 37,37.2 			"/>
		</g>
		<g>
			<rect x="24.9" y="6.6" class="st0" width="0.1" height="14.5"/>
			
				<rect x="25.5" y="17.1" transform="matrix(0.7071 -0.7071 0.7071 0.7071 -2.5236 28.2209)" class="st0" width="14.5" height="0.1"/>
			
				<rect x="17.1" y="9.9" transform="matrix(0.7071 -0.7071 0.7071 0.7071 -7.1181 17.1288)" class="st0" width="0.1" height="14.5"/>
			<rect x="6.6" y="24.9" class="st0" width="14.5" height="0.1"/>
			
				<rect x="9.8" y="32.8" transform="matrix(0.7071 -0.7071 0.7071 0.7071 -18.2101 21.7234)" class="st0" width="14.5" height="0.1"/>
		</g>
		<g>
			<path class="st0" d="M25,28.9c-2.1,0-3.9-1.7-3.9-3.9c0-2.1,1.7-3.9,3.9-3.9c2.1,0,3.9,1.7,3.9,3.9C28.9,27.1,27.1,28.9,25,28.9z
				 M25,21.2c-2.1,0-3.8,1.7-3.8,3.8c0,2.1,1.7,3.8,3.8,3.8c2.1,0,3.8-1.7,3.8-3.8C28.8,22.9,27.1,21.2,25,21.2z"/>
			<path class="st0" d="M22.7,31.4c-1.3-0.5-2.4-1.3-3.2-2.4c-0.8-1.2-1.3-2.5-1.3-3.9c0-3.7,3-6.8,6.8-6.8c2.9,0,5.5,1.8,6.4,4.6
				l-0.1,0c-0.9-2.7-3.5-4.5-6.3-4.5c-3.7,0-6.7,3-6.7,6.7c0,2.8,1.8,5.3,4.4,6.3L22.7,31.4z"/>
			<path class="st0" d="M22.7,35.4c-2.3-0.5-4.4-1.8-6-3.7c-0.8-0.9-1.3-2-1.7-3.1c-0.4-1.2-0.6-2.4-0.6-3.6c0-2.8,1.1-5.5,3.1-7.5
				c2-2,4.7-3.1,7.5-3.1c2.5,0,4.9,0.9,6.8,2.4c1.9,1.5,3.2,3.7,3.7,6l-0.1,0c-1-4.9-5.4-8.4-10.3-8.4c-5.8,0-10.6,4.7-10.6,10.6
				c0,4.9,3.5,9.2,8.3,10.3L22.7,35.4z"/>
			<polygon class="st0" points="29.1,43 28.9,43 28.9,36.2 22.6,36.2 22.6,29.1 28.9,29.1 28.9,22.7 36.1,22.7 36.1,29.1 42.9,29.1 
				42.9,29.2 35.9,29.2 35.9,22.9 29.1,22.9 29.1,29.2 22.7,29.2 22.7,36.1 29.1,36.1 			"/>
			<polygon class="st0" points="35.9,39.7 35.9,36.1 39.6,36.1 39.6,36.3 36,36.2 36.1,39.7 			"/>
			<rect x="24.9" y="39.5" class="st0" width="0.1" height="3.9"/>
			<path class="st0" d="M25,39.5L25,39.5c-2,0-3.9-0.4-5.7-1.1c-1.7-0.7-3.3-1.8-4.6-3.1c-2.7-2.7-4.3-6.4-4.3-10.3
				c0-2,0.4-3.9,1.1-5.7c0.7-1.7,1.8-3.3,3.1-4.6c1.3-1.3,2.9-2.4,4.6-3.1c1.8-0.8,3.7-1.1,5.7-1.1c2,0,3.9,0.4,5.7,1.1
				c1.7,0.7,3.3,1.8,4.6,3.1c1.3,1.3,2.4,2.9,3.1,4.6c0.8,1.8,1.1,3.7,1.1,5.7c0,0.1,0,0.2,0,0.2l-0.1,0c0-0.1,0-0.2,0-0.2
				c0-8-6.5-14.4-14.4-14.4S10.6,17,10.6,25c0,7.9,6.5,14.4,14.4,14.4H25V39.5z"/>
			<rect x="39.4" y="25.2" class="st0" width="3.9" height="0.1"/>
			<path class="st0" d="M25,43.5c-2.5,0-4.9-0.5-7.2-1.5c-2.2-0.9-4.2-2.3-5.9-4c-1.7-1.7-3-3.7-4-5.9c-1-2.3-1.5-4.7-1.5-7.2
				c0-2.5,0.5-4.9,1.5-7.2c0.9-2.2,2.3-4.2,4-5.9c1.7-1.7,3.7-3,5.9-4c2.3-1,4.7-1.5,7.2-1.5c2.5,0,4.9,0.5,7.2,1.5
				c2.2,0.9,4.2,2.3,5.9,4c1.7,1.7,3,3.7,4,5.9c1,2.3,1.5,4.7,1.5,7.2c0,2.5-0.5,4.9-1.5,7.2c-0.9,2.2-2.3,4.2-4,5.9
				c-1.7,1.7-3.7,3-5.9,4C29.9,43,27.5,43.5,25,43.5z M25,6.6C14.9,6.6,6.6,14.9,6.6,25c0,10.1,8.2,18.4,18.4,18.4
				c10.1,0,18.4-8.2,18.4-18.4C43.4,14.9,35.1,6.6,25,6.6z"/>
		</g>
		<g>
			<path class="st0" d="M22.1,26.1L22.1,26.1C22.1,26.1,22.2,26.1,22.1,26.1c0.3-0.1,0.6-0.2,0.9-0.2c0.2,0,0.5-0.1,0.7-0.1
				c0,0.2-0.1,0.3-0.2,0.5v0.1c0.2,0,0.3,0.1,0.5,0c0.1,0,0.2-0.3,0.3-0.4c0.1,0-0.3-0.2-0.4-0.3c0-0.1,0.4-0.5,0.4-0.7
				c0.1-0.1,0.1-0.2,0.1-0.4c0-0.1,0-0.3,0-0.4c-0.1-0.1-0.2-0.2-0.3-0.3c-0.2-0.2-0.5-0.3-0.7-0.5h0c-0.1,0.2-0.3,0.3-0.4,0.5
				c-0.3,0.3-0.5,0.7-0.8,1c-0.1,0.2-0.4,0.4-0.4,0.6C21.8,25.7,21.6,26.2,22.1,26.1z"/>
			<g>
				<path class="st0" d="M18.6,31.7L18.6,31.7c-0.1-0.1-0.4-0.6-0.4-0.6c-0.2-0.3-0.4-0.6-0.6-0.8c-0.1-0.1-0.3-0.3-0.3-0.4
					c0-0.1,0-0.2,0-0.3c0-0.3,0.1-0.6,0-0.8c-0.1-0.4-0.4-0.6-0.4-1c-0.1-0.3,0-0.6,0-0.9c0-0.3-0.3-0.5-0.3-0.7c0-0.1,0-0.2,0-0.2
					c0-0.2-0.1-0.4-0.2-0.6c-0.2-0.3-0.4-0.6-0.7-0.8c0.1,0,0.2-0.2,0.3-0.2c0.2-0.1,0.4-0.1,0.6-0.1v0c0,0-0.1,0.1-0.1,0.1
					c0,0,0,0.1,0,0.1c0.1,0.3,0.1,0.5,0.2,0.8c0,0.2,0,0.3,0,0.5h0.6c-0.1-0.1-0.1-0.3-0.2-0.4c0-0.1,0.1-0.3,0.1-0.4
					c0-0.3-0.2-0.5-0.2-0.8h-0.1c0,0,0,0-0.1,0c-0.1,0-0.1-0.1-0.1-0.1c0-0.1-0.1-0.2-0.1-0.2c0-0.1,0.3-0.3,0.4-0.4
					c0.2,0,0.6,0.1,0.7,0.3c0,0.1,0,0.2,0.1,0.3c0,0.1,0.1,0.2,0,0.3c-0.1,0.1-0.3,0.2-0.4,0.3c0,0,0,0,0,0c0,0.1,0.1,0.2,0.1,0.2
					c0,0,0.1,0,0.2,0v0c0,0,0.2,0,0.2-0.1c0,0,0.1-0.1,0.2,0c0,0,0,0,0,0c0,0,0,0,0.1,0c0.2,0.1,0.4,0.2,0.7,0.2
					c0.2,0.1,0.4,0,0.6,0.1c0.2,0.1,0.4,0.2,0.6,0.4c0.1,0,0.2,0,0.2,0.1c0.1,0.1,0.2,0.3,0.2,0.5c0.1,0,0.5,0,0.6-0.1
					c0.1-0.1,0.2-0.3,0.2-0.4c0.1-0.2,0.2-0.3,0.2-0.5c0.1-0.1,0.2-0.2,0.3-0.3c0.1-0.1,0.2-0.2,0.2-0.2c0.1,0,0.2,0,0.3-0.1
					c0-0.1,0-0.1,0.1-0.2c0.1-0.2,0.1-0.4,0.2-0.6c0-0.4,0-0.9,0-1.3c0-0.2,0.4-0.6,0.5-0.7c0.1-0.1,0.2-0.2,0.3-0.4
					c0.2-0.2,0.4-0.2,0.6-0.3c0.1-0.1,0.3-0.2,0.4-0.4c0.1-0.1,0.1-0.1,0.2-0.2c0-0.1-0.1-0.3-0.1-0.4c-0.1-0.1-0.9-0.8-1-0.8
					c-0.2,0-0.6,0.4-0.8,0.5c-0.2,0.1-0.4,0.1-0.6,0.2c-0.2,0.1-0.5,0.2-0.8,0.2c-0.2,0-0.4-0.1-0.5-0.1c-0.1,0-0.2,0-0.3-0.1
					c-0.1-0.1-0.2-0.1-0.3-0.2c0,0,0,0,0,0c-0.1-0.1-0.4-0.1-0.5-0.1c-0.1,0-0.3,0-0.3,0l0,0c0,0-0.1,0-0.1,0c-0.3,0-0.7-0.1-1,0
					c-0.2,0-0.4,0.2-0.6,0.3c-0.2,0.1-0.3,0.2-0.5,0.3c-0.2,0.2-0.4,0.4-0.6,0.6c-0.2,0.4-0.5,0.8-0.7,1.2c0,0,0,0,0,0.1
					c0.1,0,0.1,0.1,0.1,0.1c0,0.2-0.2,0.4-0.3,0.6c-0.1,0.2-0.1,0.4-0.2,0.6c-0.1,0.2-0.3,1-0.4,1.1c-0.1,0.1-0.7,0-1,0
					c-0.4,0-0.5,0.4-0.5,0.4h0c-0.1,0.3-0.5,0.7-0.7,0.9c-0.2,0.2-0.2,0.6-0.3,0.9c0,0.1-0.2,0.2-0.4,0.2c-0.2,0.1-0.4,0.2-0.6,0.2
					c-0.3,0-0.6,0-0.9,0c-0.3,0-0.5,0.1-0.5,0.1l0,0c-0.1,0.1-0.4,0.2-0.5,0.3c-0.5,0.3-0.5,0.6-0.7,1C9.1,28.6,9,28.8,9,29
					c0,0.3,0.1,0.5,0.1,0.8h0v0c0.1,0,0.3-0.2,0.5-0.2c0.2,0.1,0.4,0.1,0.6,0.2c0.2,0.1,0.4,0.1,0.6,0.2c0.1,0.1,0.2,0.2,0.3,0.3
					c0.1,0.1,0.2,0.1,0.2,0.2l0,0c0,0,0.4,0.4,0.5,0.3c0,0,0.1,0,0.1,0c0,0,0.1,0,0.1,0c0.1,0,0.1,0.2,0.2,0.3
					c0.4,0.4,0.8,0.7,1.2,1.1c0.5,0.4,1.2,0.4,1.8,0.6c0.2,0.1,0.4,0.4,0.6,0.4c0.1,0,0.2,0,0.2,0c0,0,0.5,0,0.7,0v0
					c0.1,0,0.2,0,0.2,0c0.1,0,0.1,0,0.2,0l0,0c0,0,0.5,0,0.7,0c0.2,0,0.7,0,0.9-0.1c0.1-0.1,0.2-0.2,0.3-0.3c0-0.1,0.1-0.1,0.1-0.2
					C19.2,32.4,18.8,32,18.6,31.7z"/>
				<path class="st0" d="M34.9,21.3L34.9,21.3c-0.1,0-0.2,0.1-0.3,0.2c-0.2,0-0.3,0-0.5,0v0h0c0-0.1,0.3-0.4,0.3-0.6
					c0-0.1-0.1-0.2-0.2-0.3c-0.1-0.1-0.2-0.3-0.4-0.3c-0.1,0-0.2,0-0.3,0c-0.3,0-0.6,0-0.8,0c-0.1-0.1-0.3-0.4-0.4-0.5
					c-0.1-0.1-0.4-0.3-0.5-0.4v0c0,0,0,0,0-0.1c0.2,0,0.3,0,0.4,0.1c0-0.2-0.3-0.2-0.5-0.3h0l0,0c0,0-0.2,0-0.3,0
					c-0.1,0-0.2,0.1-0.3,0.1c0,0,0,0,0,0c-0.1,0-0.1,0-0.2,0c-0.1,0-0.3,0.1-0.4,0c-0.1-0.3,0.2-0.4,0.4-0.5h0
					c0-0.1-0.1-0.1-0.2-0.1c-0.1,0-0.2,0.1-0.3,0.1c0,0,0,0,0,0c-0.1,0-0.2-0.2-0.3-0.3c-0.2-0.2-0.6-0.2-0.9-0.2v0h0
					c0.1-0.1,0.2-0.1,0.3-0.2c0,0,0-0.1,0.1-0.1c-0.1,0-0.2,0-0.3,0c-0.1,0,0,0.2-0.2,0.2c0,0,0,0,0,0c0,0-0.1,0.1-0.2,0.1
					c-0.1,0-0.2,0.1-0.2,0.1v0.1c-0.1,0-0.2,0.2-0.2,0.2h0v0c0.1,0,0.3-0.1,0.4-0.2v0c0,0-0.3,0.3-0.3,0.3c0,0,0.1,0.2,0.1,0.2
					c0,0.1-0.4,0.5-0.5,0.6c-0.1,0-0.2,0-0.3,0.1c-0.1,0-0.2,0-0.3,0c-0.2,0-0.3,0.1-0.5,0.2v0c-0.1,0-0.2,0-0.2-0.1h0v0
					c0,0,0.2-0.3,0.2-0.3c0,0-0.1-0.4-0.1-0.5H27c0,0-0.2,0.3-0.3,0.3h0c0,0,0,0,0,0c0.1,0.3,0.1,0.2-0.1,0.3c0,0-0.1,0-0.2,0
					c-0.2,0-0.7,0.1-0.9,0.2h-0.1c0,0.3-0.1,0.2-0.3,0.3v0c-0.1,0-0.1,0-0.2,0.1c-0.1,0-0.1,0.1-0.2,0.1c0,0,0,0,0,0.1
					c0.1,0,0.1,0,0.2,0.1c0.2,0.1,0.4,0.2,0.6,0.3c0.1,0,0.2,0.1,0.3,0.2c0.1,0.1,1,1.4,1,1.5c0,0.1-0.2,0.2-0.3,0.3h0c0,0,0,0,0,0
					c0.1,0.2,0.2,0.4,0.3,0.7c0,0.1,0.2,0.2,0.2,0.3c0,0.1-0.1,0.2-0.1,0.3c0,0.2,0.2,0.4,0.2,0.6c0,0.1-0.1,0.3-0.2,0.4
					c-0.1,0.3-0.3,0.6-0.4,0.9c0,0-0.1,0.1-0.1,0.2c0,0.1-0.1,0.2-0.1,0.2c-0.1,0-0.2,0-0.2,0c-0.3,0-0.5,0-0.7,0.2c0,0,0,0.1,0,0.1
					c0,0.1,0,0.2,0,0.3c-0.1,0.2-0.2,0.5-0.1,0.7c0,0.1,0.1,0.1,0.1,0.1c0,0.2-0.1,0.4-0.3,0.5v0h0c0-0.1-0.1-0.1-0.1-0.2
					c-0.1-0.1-0.1-0.3-0.1-0.5c0,0,0,0-0.1-0.1v0c0,0,0,0,0,0c0,0.1,0,0.1-0.1,0.2c-0.1,0.2-0.2,0.1-0.2,0.3c0.1,0,0.2-0.1,0.2-0.2
					h0c0,0.1,0,0.1,0.1,0.2c0,0.1,0,0.2-0.1,0.3l0,0c0,0-0.1,0.3,0.1,0.4v0c0,0,0.1,0,0.1,0.1c0,0,0,0,0,0c0,0.1,0,0.4-0.1,0.5
					c-0.2,0-0.4-0.1-0.5,0c0,0,0,0-0.1,0.1h1.2c0.1,0,0.1,0,0.1,0H29l0-6.4h4.4c0,0,0-0.1,0-0.1c0-0.1,0.1-0.3,0.1-0.3
					c0.1-0.1,0.3-0.2,0.5-0.2c0,0,0.1,0,0.1,0c0.1-0.1,0.1-0.2,0.2-0.2c0.1-0.1,0.3-0.1,0.4-0.1C34.7,21.7,34.8,21.5,34.9,21.3
					C34.9,21.4,34.9,21.4,34.9,21.3z"/>
				<g>
					<path class="st0" d="M35.4,21.7c0,0,0.2,0,0.2-0.1c0-0.1,0-0.3,0-0.3s0,0,0,0c0-0.3,0.4-0.5,0.2-0.9v-0.1h0v0
						c0,0-0.3,0.3-0.4,0.4v0h0v-0.2c0,0,0,0-0.1,0v0c-0.2,0.1-0.2,0.4-0.2,0.4l0,0c0,0.1,0,0.1-0.1,0.2v0h0.1c0,0,0-0.1,0.1-0.1v0
						h0.1c0,0,0,0,0,0c0,0.1,0,0.1,0,0.2c0,0.1,0,0.2,0,0.3L35.4,21.7C35.3,21.7,35.3,21.7,35.4,21.7L35.4,21.7z"/>
					<path class="st0" d="M31.3,16.2c0,0,0.3-0.2,0.1-0.4l0,0c0,0,0,0,0,0c-0.1-0.1-0.2-0.2-0.2-0.3c-0.1-0.1-0.2-0.2-0.3-0.4
						c-0.1-0.2,0-0.6-0.1-0.8c-0.1-0.1-0.3-0.2-0.4-0.3c-0.3-0.2-0.6-0.5-0.9-0.7c-0.1-0.1-0.3-0.2-0.4-0.3H29
						c0,0.2,0.3,1.1,0.3,1.4l0,0c0,0,0,0.4,0.1,0.6c0,0.1,0.1,0.2,0.1,0.2c0.2,0.2,0.4,0.4,0.7,0.6c0.2,0.2,0.4,0.5,0.7,0.6
						c0,0,0,0,0.1,0c0,0,0.1-0.1,0.2-0.2C31.2,16.3,31.2,16.3,31.3,16.2L31.3,16.2z"/>
					<path class="st0" d="M34.5,18.1c-0.1-0.1-0.1-0.2-0.3-0.3c-0.1-0.1-0.3-0.1-0.4-0.2c0,0,0,0,0,0c0,0,0.1-0.1,0.1-0.1
						c0.1-0.2,0-0.3,0-0.4h0c-0.1-0.1-0.2-0.3-0.3-0.4h0c0,0,0,0,0,0c0,0,0,0,0,0c0-0.1-0.1-0.1-0.1-0.2v0c-0.1,0-0.2,0.4-0.2,0.5v0
						h0v0c-0.1,0-0.1-0.1-0.2-0.1c-0.2,0-0.4,0-0.5,0c-0.1-0.1-0.2-0.2-0.3-0.2c0,0-0.1-0.1-0.2-0.1c-0.1,0.1,0,0.2,0,0.2l0,0
						c0.1,0.1,0.3,0.2,0.4,0.4c0.1,0.1,0.3,0.3,0.4,0.4c0,0,0.2,0.2,0.2,0.3l0,0c0,0,0.1,0.1,0.1,0.1c0,0,0,0,0,0
						c0,0-0.1,0.1-0.2,0.2c0,0.1,0.1,0.1,0.1,0.2c0.1,0.1,0.1,0.2,0.2,0.2c0.2,0.1,0.3,0,0.5,0.2c0,0,0.1,0.1,0.1,0.1l0,0
						c0,0,0.7,0.6,0.8,0.6c0,0,0,0,0,0c0,0,0,0,0,0c0,0,0.2-0.3,0.3-0.3h0c0,0,0,0,0,0C34.9,18.8,34.8,18.4,34.5,18.1z"/>
					<path class="st0" d="M36.8,17.9c0.1,0,0.2-0.2,0.3-0.2l0,0c0,0,0.6-0.5,0.6-0.6h0c0.1-0.1,0.3-0.3,0.4-0.4c0,0,0,0,0,0
						c0,0,0,0,0,0c-0.1-0.2-0.4-0.4-0.6-0.6c-0.4-0.4-0.8-0.8-1.2-1.2l0,0c-0.1-0.1-0.1-0.1-0.2-0.2h0c0,0,0,0,0,0
						c-0.2-0.2-0.4-0.4-0.4-0.4l0,0c-0.4-0.3-1-1-1-1.1c0-0.1,0-0.2,0-0.2c0-0.3,0-0.6,0-0.8c0-0.1,0-0.2,0-0.3
						c-0.1-0.2-0.3-0.3-0.4-0.5c-0.2-0.2-0.3-0.3-0.5-0.5c-0.1-0.1-0.3,0-0.4-0.1c-0.1-0.1-0.3-0.2-0.4-0.3
						c-0.1-0.1-0.2-0.1-0.3-0.2c-0.1,0-0.2-0.1-0.3-0.1h0c0,0,0,0,0,0c-0.2,0-0.3,0.1-0.5,0.1c-0.5,0.2-0.9,0.3-1.4,0.5
						c0,0.2,0,0.3,0,0.5c0,0,0.1,0.4,0.1,0.7c0,0,0,0,0,0c0,0,0,0,0,0l0,0c0.1,0.2,0.1,0.4,0.1,0.5c0.1,0.5,0.2,1,0.4,1.5
						c0,0.2,0.1,0.3,0.1,0.5c0,0.1,0.1,0,0.2,0c0.3-0.1,0.7-0.3,1-0.4c0.2-0.1,0.3-0.2,0.5-0.2c0,0.2,0.2,0.3,0.2,0.6
						c0,0.2-0.4,0.4-0.4,0.6c0,0.1,0.2,0.5,0.3,0.5c0.4,0.3,0.9,0.5,1.3,0.8v0c0.1,0.1,0.4,0.3,0.4,0.3v0c0.1,0.1,0.2,0.1,0.3,0.2
						c0.2,0.1,0.3,0.2,0.5,0.4c0.1,0.1,0.2,0.2,0.4,0.3c0.2,0.1,0.3,0.4,0.5,0.5C36.2,17.9,36.7,18,36.8,17.9z"/>
				</g>
			</g>
		</g>
	</g>
</g>
</svg>
