<svg xmlns="http://www.w3.org/2000/svg" width="20.492" height="20.49" viewBox="0 0 20.492 20.49">
  <g id="Group_2773" data-name="Group 2773" transform="translate(-317.867 -65.42)">
    <path id="Path_1389" data-name="Path 1389" d="M335.36,68.42a10.24,10.24,0,1,0,0,14.5A10.26,10.26,0,0,0,335.36,68.42ZM328.11,80.5a1,1,0,1,1,1-1A1,1,0,0,1,328.11,80.5Zm.74-3.95a.751.751,0,0,1-.74.62.759.759,0,0,1-.74-.62l-1-5.5a.717.717,0,0,1,.17-.61.741.741,0,0,1,.57-.27h2a.761.761,0,0,1,.58.27.745.745,0,0,1,.16.61Z" fill="#f7cb3b"/>
  </g>
</svg>
