<svg xmlns="http://www.w3.org/2000/svg" width="17.5" height="17.5" viewBox="0 0 17.5 17.5">
  <g id="Group_2740" data-name="Group 2740" transform="translate(-170.1 -313.5)" opacity="0.8">
    <path id="Path_1263" data-name="Path 1263" d="M186.85,325.5a.75.75,0,0,0-.75.75l0,3.069a.578.578,0,0,1-.48.181H172.062a.645.645,0,0,1-.462-.16v-3.09a.75.75,0,0,0-1.5,0v3.09a1.832,1.832,0,0,0,1.962,1.66h13.561a1.82,1.82,0,0,0,1.977-1.66v-3.09A.75.75,0,0,0,186.85,325.5Z" fill="#7e8c9b"/>
    <path id="Path_1264" data-name="Path 1264" d="M178.319,324.28a.752.752,0,0,0,1.061,0l3.8-3.8a.75.75,0,0,0-1.061-1.06l-2.519,2.519V314.25a.75.75,0,0,0-1.5,0v7.689l-2.52-2.519a.75.75,0,0,0-1.06,1.06Z" fill="#7e8c9b"/>
  </g>
</svg>
