<svg xmlns="http://www.w3.org/2000/svg" width="20.5" height="20.5" viewBox="0 0 20.5 20.5">
  <g id="Group_2709" data-name="Group 2709" transform="translate(-263.981 -74.019)">
    <g id="Group_2709-2" data-name="Group 2709">
      <path id="Path_1192" data-name="Path 1192" d="M274.231,74.019a10.25,10.25,0,1,0,10.25,10.25A10.261,10.261,0,0,0,274.231,74.019Z" fill="#f5f6f9"/>
    </g>
    <path id="Path_1193" data-name="Path 1193" d="M279.231,84.144a.75.75,0,0,0-.75.75,4.25,4.25,0,1,1-5.573-4.018.749.749,0,0,0,1.228.8l1.25-1.25a.75.75,0,0,0,0-1.061l-1.25-1.25a.75.75,0,1,0-1.061,1.061l.075.074a5.749,5.749,0,1,0,6.831,5.645A.75.75,0,0,0,279.231,84.144Z" fill="#7e8c9b"/>
  </g>
</svg>
