<svg id="Group_2870" data-name="Group 2870" xmlns="http://www.w3.org/2000/svg" width="17.5" height="17.5" viewBox="0 0 17.5 17.5">
  <path id="Path_1594" data-name="Path 1594" d="M16.75,10.93a.755.755,0,0,0-.75.75v3.07A1.238,1.238,0,0,1,14.75,16H11.68a.75.75,0,0,0,0,1.5h3.07a2.748,2.748,0,0,0,2.75-2.75V11.68A.755.755,0,0,0,16.75,10.93Z" fill="#95a1ad"/>
  <path id="Path_1595" data-name="Path 1595" d="M14.75,0H11.68a.755.755,0,0,0-.75.75.755.755,0,0,0,.75.75h3.07A1.25,1.25,0,0,1,16,2.75V5.83a.75.75,0,0,0,1.5,0V2.75A2.748,2.748,0,0,0,14.75,0Z" fill="#95a1ad"/>
  <path id="Path_1596" data-name="Path 1596" d="M.75,6.58a.755.755,0,0,0,.75-.75V2.75A1.25,1.25,0,0,1,2.75,1.5H5.82A.755.755,0,0,0,6.57.75.755.755,0,0,0,5.82,0H2.75A2.748,2.748,0,0,0,0,2.75V5.83A.755.755,0,0,0,.75,6.58Z" fill="#95a1ad"/>
  <path id="Path_1597" data-name="Path 1597" d="M5.82,16H2.75A1.25,1.25,0,0,1,1.5,14.75V11.68a.755.755,0,0,0-.75-.75.755.755,0,0,0-.75.75v3.07A2.748,2.748,0,0,0,2.75,17.5H5.82a.75.75,0,0,0,0-1.5Z" fill="#95a1ad"/>
  <path id="Path_1598" data-name="Path 1598" d="M11.76,6.74a.755.755,0,0,0,.75-.75v-1a.75.75,0,0,0-1.5,0v1A.755.755,0,0,0,11.76,6.74Z" fill="#95a1ad"/>
  <path id="Path_1599" data-name="Path 1599" d="M5.76,4.24a.755.755,0,0,0-.75.75v1a.75.75,0,0,0,1.5,0v-1A.743.743,0,0,0,5.76,4.24Z" fill="#95a1ad"/>
  <path id="Path_1600" data-name="Path 1600" d="M12.38,11.16a.753.753,0,0,0-1.3-.76,2.71,2.71,0,0,1-4.7,0,.742.742,0,0,0-1.02-.27.752.752,0,0,0-.27,1.03,4.2,4.2,0,0,0,7.29,0Z" fill="#95a1ad"/>
  <path id="Path_1601" data-name="Path 1601" d="M7.76,9.74A1.758,1.758,0,0,0,9.51,7.99v-3a.75.75,0,0,0-1.5,0v3a.248.248,0,0,1-.25.25.75.75,0,0,0,0,1.5Z" fill="#95a1ad"/>
</svg>
