<svg xmlns="http://www.w3.org/2000/svg" width="20.5" height="20.5" viewBox="0 0 20.5 20.5">
  <g id="Group_2709" data-name="Group 2709" transform="translate(-263.981 -74.019)">
    <g id="Group_2709-2" data-name="Group 2709">
      <path id="Path_1192" data-name="Path 1192" d="M274.231,74.019a10.25,10.25,0,1,0,10.25,10.25A10.261,10.261,0,0,0,274.231,74.019Z" fill="#f5f6f9"/>
    </g>
    <path id="Path_1602" data-name="Path 1602" d="M5.2,4.1,8,1.3A.785.785,0,0,0,8,.2.785.785,0,0,0,6.9.2L4.1,3,1.3.2A.785.785,0,0,0,.2.2a.785.785,0,0,0,0,1.1L3,4.1.2,6.9A.785.785,0,0,0,.2,8a.764.764,0,0,0,.5.2A1.421,1.421,0,0,0,1.3,8L4.1,5.2,6.9,8a.764.764,0,0,0,.5.2A1.072,1.072,0,0,0,8,8,.785.785,0,0,0,8,6.9Z" transform="translate(270.006 80.044)" fill="#f08597"/>
  </g>
</svg>
