<svg xmlns="http://www.w3.org/2000/svg" width="18.182" height="17.676" viewBox="0 0 18.182 17.676">
  <g id="Group_2736" data-name="Group 2736" transform="translate(-100.362 -357.887)" opacity="0.8">
    <path id="Path_1254" data-name="Path 1254" d="M109.576,366.054a.746.746,0,0,0-.783.715,10.5,10.5,0,0,1-3.1,6.982.75.75,0,0,0,1.058,1.064,12,12,0,0,0,3.54-7.977A.749.749,0,0,0,109.576,366.054Z" fill="#7e8c9b"/>
    <path id="Path_1255" data-name="Path 1255" d="M109.672,363.3h-.11a3.519,3.519,0,0,0-3.519,3.329.751.751,0,0,0,.708.79.759.759,0,0,0,.79-.708,2,2,0,0,1,.624-1.355,2.034,2.034,0,0,1,1.4-.556h.071a2.016,2.016,0,0,1,1.91,2.1,13.316,13.316,0,0,1-2.747,7.461.75.75,0,1,0,1.192.91,14.8,14.8,0,0,0,3.053-8.3A3.527,3.527,0,0,0,109.672,363.3Z" fill="#7e8c9b"/>
    <path id="Path_1256" data-name="Path 1256" d="M106.524,368.557a.753.753,0,0,0-.966.439,7.723,7.723,0,0,1-2.276,3.22.75.75,0,1,0,.961,1.153,9.232,9.232,0,0,0,2.719-3.846A.75.75,0,0,0,106.524,368.557Z" fill="#7e8c9b"/>
    <path id="Path_1257" data-name="Path 1257" d="M104.8,366.578a4.755,4.755,0,0,1,4.781-4.525h.106c.018,0,.086.009.1.01a4.741,4.741,0,0,1,3.156,1.431.75.75,0,0,0,1.074-1.047,6.229,6.229,0,0,0-4.14-1.881c-.032,0-.128-.012-.16-.012h-.17a6.245,6.245,0,0,0-6.249,5.952,5.021,5.021,0,0,1-1.728,3.557.75.75,0,1,0,.974,1.141A6.532,6.532,0,0,0,104.8,366.578Z" fill="#7e8c9b"/>
    <path id="Path_1258" data-name="Path 1258" d="M115.078,366.314a.751.751,0,0,0-.785.713,16.1,16.1,0,0,1-1.594,6.218.749.749,0,1,0,1.347.656,17.573,17.573,0,0,0,1.745-6.8A.748.748,0,0,0,115.078,366.314Z" fill="#7e8c9b"/>
    <path id="Path_1259" data-name="Path 1259" d="M101.816,367.6a3.629,3.629,0,0,0,.235-1.152,7.519,7.519,0,0,1,2.846-5.537.75.75,0,1,0-.93-1.178,9.025,9.025,0,0,0-3.415,6.656,2.214,2.214,0,0,1-.144.694.75.75,0,0,0,1.408.517Z" fill="#7e8c9b"/>
    <path id="Path_1260" data-name="Path 1260" d="M110.815,357.895a.728.728,0,0,0-.843.682l0,.059a.733.733,0,0,0,.648.745,7.522,7.522,0,0,1,6.418,7.779,18.659,18.659,0,0,1-1.256,5.893.749.749,0,0,0,.427.971.761.761,0,0,0,.272.051.75.75,0,0,0,.7-.479,20.179,20.179,0,0,0,1.357-6.366A9.028,9.028,0,0,0,110.815,357.895Z" fill="#7e8c9b"/>
  </g>
</svg>
