<svg xmlns="http://www.w3.org/2000/svg" width="27" height="27" viewBox="0 0 27 27">
  <g id="Group_2759" data-name="Group 2759" transform="translate(-287 -442)">
    <path id="Path_1334" data-name="Path 1334" d="M-130-160a13.515,13.515,0,0,1-13.5-13.5A13.515,13.515,0,0,1-130-187a13.515,13.515,0,0,1,13.5,13.5A13.515,13.515,0,0,1-130-160Zm0-24a10.512,10.512,0,0,0-10.5,10.5A10.512,10.512,0,0,0-130-163a10.512,10.512,0,0,0,10.5-10.5A10.512,10.512,0,0,0-130-184Z" transform="translate(430.5 629)" fill="#fff" opacity="0.2"/>
    <path id="Path_1335" data-name="Path 1335" d="M-93.5-160.5A13.515,13.515,0,0,1-107-174a13.515,13.515,0,0,1,13.5-13.5A1.5,1.5,0,0,1-92-186a1.5,1.5,0,0,1-1.5,1.5A10.512,10.512,0,0,0-104-174a10.512,10.512,0,0,0,10.5,10.5A10.512,10.512,0,0,0-83-174a1.5,1.5,0,0,1,1.5-1.5A1.5,1.5,0,0,1-80-174,13.515,13.515,0,0,1-93.5-160.5Z" transform="translate(394 629.5)" fill="#fff"/>
  </g>
</svg>
