<svg xmlns="http://www.w3.org/2000/svg" width="13.5" height="17.5" viewBox="0 0 13.5 17.5">
  <g id="Group_2738" data-name="Group 2738" transform="translate(-92.519 -318.077)" opacity="0.8">
    <path id="Path_1261" data-name="Path 1261" d="M104.356,324.077h-.337v-1.25a4.75,4.75,0,1,0-9.5,0v1.25h-.337a1.665,1.665,0,0,0-1.663,1.663v8.174a1.665,1.665,0,0,0,1.663,1.663h10.174a1.665,1.665,0,0,0,1.663-1.663V325.74A1.665,1.665,0,0,0,104.356,324.077Zm-8.337-1.25a3.25,3.25,0,1,1,6.5,0v1.25h-6.5Zm8.5,11.087a.163.163,0,0,1-.163.163H94.182a.163.163,0,0,1-.163-.163V325.74a.163.163,0,0,1,.163-.163h10.174a.163.163,0,0,1,.163.163Z" fill="#7e8c9b"/>
    <path id="Path_1262" data-name="Path 1262" d="M100.269,328.827a1,1,0,1,0-2,0,.947.947,0,0,0,.241.629.381.381,0,0,1,.094.368l-.664,1.991a.389.389,0,0,0,.368.512h1.922a.389.389,0,0,0,.369-.512l-.664-1.991a.378.378,0,0,1,.093-.368A.947.947,0,0,0,100.269,328.827Z" fill="#7e8c9b"/>
  </g>
</svg>
