<svg xmlns="http://www.w3.org/2000/svg" width="17.502" height="17.5" viewBox="0 0 17.502 17.5">
  <g id="Group_2741" data-name="Group 2741" transform="translate(-204.631 -315.93)" opacity="0.8">
    <path id="Path_1265" data-name="Path 1265" d="M217.381,326.729a.75.75,0,0,0-.75.75v2.851h-.9V318.279a.75.75,0,0,0-.627-.74l-.656-.109h2.18v3.65a.75.75,0,0,0,1.5,0v-4.4a.75.75,0,0,0-.75-.75h-12a.7.7,0,0,0-.112.022.707.707,0,0,0-.121.025.731.731,0,0,0-.188.1c-.019.014-.043.017-.061.032s-.008.014-.014.019a.758.758,0,0,0-.161.211c-.006.012-.016.021-.022.033a.731.731,0,0,0-.071.31v14.4a.728.728,0,0,0,.028.139.7.7,0,0,0,.026.129,2.257,2.257,0,0,0,.144.231,1.375,1.375,0,0,0,.218.164.766.766,0,0,0,.127.045.642.642,0,0,0,.087.031l9.6,1.6a.73.73,0,0,0,.123.01.75.75,0,0,0,.75-.75v-.85h1.647a.75.75,0,0,0,.75-.75v-3.6A.75.75,0,0,0,217.381,326.729Zm-11.247,3.714V317.565l8.1,1.35v12.146c0,.007,0,.012,0,.019s0,.013,0,.019v.7Z" fill="#7e8c9b"/>
    <path id="Path_1266" data-name="Path 1266" d="M212.806,320.947l-4.8-.8a.751.751,0,0,0-.246,1.481l4.8.8a.751.751,0,0,0,.246-1.481Z" fill="#7e8c9b"/>
    <path id="Path_1267" data-name="Path 1267" d="M222.076,323.993a.749.749,0,0,0-.162-.244l-2-2a.75.75,0,1,0-1.06,1.061l.719.719h-2.989a.75.75,0,0,0,0,1.5h2.989l-.719.72a.75.75,0,0,0,1.06,1.061l2-2a.76.76,0,0,0,.162-.244A.749.749,0,0,0,222.076,323.993Z" fill="#7e8c9b"/>
  </g>
</svg>
