<svg xmlns="http://www.w3.org/2000/svg" width="202.877" height="220" viewBox="0 0 202.877 220">
  <g id="Group_2769" data-name="Group 2769" transform="translate(-534.1 -275.102)">
    <g id="Group_2761" data-name="Group 2761">
      <path id="Path_1336" data-name="Path 1336" d="M727.363,457.506h9.614l-.109,37H727.64" fill="#fff"/>
      <path id="Path_1337" data-name="Path 1337" d="M535.973,485.884a25.311,25.311,0,0,0,10.2,2.3c4.225,0,6.458-1.592,6.458-4,0-2.3-1.931-3.626-6.813-5.214-6.772-2.14-11.173-5.551-11.173-10.918,0-6.319,5.786-11.147,15.393-11.147a27.223,27.223,0,0,1,10.378,1.862l-2.045,6.753a20.981,20.981,0,0,0-8.522-1.757c-3.974,0-5.909,1.649-5.909,3.572,0,2.351,2.291,3.4,7.55,5.205,7.185,2.413,10.562,5.821,10.562,11.032,0,6.205-5.25,11.481-16.418,11.481A28.817,28.817,0,0,1,534.1,492.8Z" fill="#fff"/>
      <path id="Path_1338" data-name="Path 1338" d="M680.386,475.617c0,12.131-8.093,19.485-19.99,19.485-12.075,0-19.133-8.284-19.133-18.82,0-11.093,7.786-19.374,19.8-19.374,12.5,0,19.319,8.5,19.319,18.709m0,0c0,12.131-8.093,19.485-19.99,19.485m-9.412-18.987c0,7.244,3.746,12.343,9.9,12.343,6.216,0,9.773-5.375,9.773-12.567,0-6.643-3.5-12.348-9.838-12.348-6.212,0-9.839,5.387-9.839,12.572" fill="#fff"/>
      <path id="Path_1339" data-name="Path 1339" d="M684.319,457.506h9.614l-.109,37H684.6" fill="#fff"/>
      <g id="Group_2760" data-name="Group 2760">
        <path id="Path_1340" data-name="Path 1340" d="M697.905,457.506h9.614l-.109,37h-9.228" fill="#fff"/>
        <path id="Path_1341" data-name="Path 1341" d="M698,457.506h9.519l29.441,37h-9.32" fill="#fff"/>
      </g>
      <path id="Path_1342" data-name="Path 1342" d="M565.988,458a90.2,90.2,0,0,1,12.432-.771c7.742,0,12.742,1.261,16.668,3.953,4.234,2.853,6.883,7.415,6.883,13.941,0,7.091-2.839,11.964-6.764,14.982-4.285,3.243-10.8,4.779-18.77,4.779a88.181,88.181,0,0,1-10.449-.548Zm9.234,30.187a18.5,18.5,0,0,0,3.2.166c8.347.057,13.773-4.118,13.773-12.948.058-7.688-4.9-11.752-12.8-11.752a20.949,20.949,0,0,0-4.172.33Z" fill="#fff"/>
      <path id="Path_1343" data-name="Path 1343" d="M636.847,493.463c-1.689.773-5.492,1.59-10.448,1.59-14.072,0-21.306-7.961-21.306-18.5,0-12.623,9.9-19.648,22.222-19.648a26.229,26.229,0,0,1,10.015,1.643l-1.87,6.641a21.56,21.56,0,0,0-7.724-1.37c-7.307,0-12.993,4.005-12.993,12.239,0,7.411,4.843,12.074,13.05,12.074a24.991,24.991,0,0,0,7.667-1.209Z" fill="#fff"/>
    </g>
    <g id="Group_2768" data-name="Group 2768">
      <path id="Path_1344" data-name="Path 1344" d="M701.8,365.085l0-5.963c0-.489.3-.915.665-.915h.386c-.055-.8-.127-1.883-.221-2.831l-.385.092c-.365.057-.721-.288-.8-.77l-.928-5.875a.8.8,0,0,1,.518-.977l.386-.06q-.306-1.407-.669-2.793l-.373.121a.8.8,0,0,1-.907-.635l-1.837-5.658a.8.8,0,0,1,.36-1.045l.368-.12q-.523-1.34-1.1-2.649l-.34.173a.8.8,0,0,1-1-.486l-2.7-5.3a.8.8,0,0,1,.192-1.089l.329-.167q-.726-1.239-1.5-2.444l-.3.216a.8.8,0,0,1-1.059-.324l-3.494-4.813a.8.8,0,0,1,.018-1.106l.288-.209q-.907-1.109-1.864-2.176l-.249.249a.8.8,0,0,1-1.1-.154l-4.2-4.208a.8.8,0,0,1-.155-1.094l.249-.249q-1.068-.954-2.176-1.864l-.21.287a.8.8,0,0,1-1.107.021l-4.811-3.5a.8.8,0,0,1-.324-1.057l.216-.3q-1.2-.777-2.444-1.5l-.168.328a.8.8,0,0,1-1.09.193l-5.3-2.7a.8.8,0,0,1-.485-.993l.174-.339q-1.312-.578-2.65-1.1l-.12.368a.8.8,0,0,1-1.046.361l-5.657-1.841a.8.8,0,0,1-.634-.9l.121-.372q-1.384-.363-2.792-.668l-.058.384a.8.8,0,0,1-.974.52l-5.868-.932c-.482-.076-.81-.433-.753-.795l.091-.383c-.949-.1-2.01-.167-2.8-.222v.387c0,.367-.455.666-.944.666l-6.007,0a.8.8,0,0,1-.885-.667v-.383q-1.44.081-2.863.221l.061.385c.058.363-.285.72-.768.8l-5.875.929a.8.8,0,0,1-.978-.52l-.06-.384q-1.407.306-2.793.669l.121.373a.8.8,0,0,1-.634.907l-5.657,1.836a.8.8,0,0,1-1.047-.36l-.119-.367q-1.34.523-2.65,1.1l.174.34a.8.8,0,0,1-.485,1l-5.3,2.7a.8.8,0,0,1-1.09-.192l-.167-.328q-1.239.726-2.444,1.5l.216.3a.8.8,0,0,1-.324,1.059l-4.812,3.494a.8.8,0,0,1-1.107-.019l-.209-.287q-1.108.907-2.176,1.864l.249.25a.8.8,0,0,1-.154,1.1l-4.206,4.2a.8.8,0,0,1-1.1.155l-.248-.249q-.954,1.068-1.864,2.176l.289.21a.8.8,0,0,1,.019,1.107l-3.5,4.811a.8.8,0,0,1-1.059.324l-.3-.216q-.777,1.2-1.5,2.444l.329.168a.8.8,0,0,1,.193,1.091l-2.7,5.3a.8.8,0,0,1-.995.486l-.339-.173q-.578,1.311-1.1,2.649l.369.12a.8.8,0,0,1,.361,1.047L571.6,344.48a.8.8,0,0,1-.908.635l-.371-.122q-.365,1.384-.669,2.793l.387.06a.8.8,0,0,1,.519.976l-.931,5.87c-.078.483-.434.817-.8.761l-.384-.077c-.094.948-.166,2.036-.221,2.831h.386c.368,0,.667.426.667.916l0,5.979a.8.8,0,0,1-.666.884h-.385q.082,1.44.221,2.863l.386-.061c.364-.058.72.286.8.769l.928,5.874a.8.8,0,0,1-.519.978l-.386.061c.2.938.426,1.869.669,2.793l.374-.122a.8.8,0,0,1,.907.635l1.836,5.658a.8.8,0,0,1-.36,1.046l-.368.119q.523,1.34,1.1,2.65l.341-.174a.8.8,0,0,1,.995.485l2.7,5.3a.8.8,0,0,1-.192,1.091l-.329.167q.725,1.239,1.5,2.444l.3-.217a.8.8,0,0,1,1.059.324l3.5,4.812a.8.8,0,0,1-.019,1.108l-.289.209q.908,1.11,1.864,2.177l.25-.251a.8.8,0,0,1,1.1.154l4.2,4.207a.8.8,0,0,1,.155,1.1l-.25.249q1.07.954,2.177,1.864l.21-.29a.8.8,0,0,1,1.107-.019l4.811,3.5a.8.8,0,0,1,.324,1.059l-.217.3q1.2.775,2.444,1.5l.169-.332a.8.8,0,0,1,1.09-.192l5.3,2.7a.8.8,0,0,1,.486.995l-.174.341q1.311.578,2.65,1.1l.12-.37a.8.8,0,0,1,1.047-.361l5.656,1.84a.8.8,0,0,1,.635.907l-.121.373q1.384.365,2.792.668l.062-.388a.8.8,0,0,1,.977-.519l5.875.932c.483.076.826.433.771.8l-.06.385c.948.094,1.905.166,2.864.221l.008-.387c0-.368.41-.666.9-.666l5.977,0c.488,0,.943.3.943.665v.386c.8-.055,1.855-.127,2.8-.221l-.12-.386c-.058-.364.287-.72.769-.8l5.875-.929a.8.8,0,0,1,.976.519l.061.385q1.407-.306,2.793-.668l-.121-.374a.8.8,0,0,1,.636-.907l5.656-1.837a.8.8,0,0,1,1.046.361l.119.369q1.341-.523,2.651-1.1l-.174-.342a.8.8,0,0,1,.486-.995l5.3-2.7a.8.8,0,0,1,1.089.192l.168.33q1.239-.726,2.445-1.5l-.217-.3a.8.8,0,0,1,.324-1.059l4.813-3.493a.8.8,0,0,1,1.106.018l.209.289q1.11-.909,2.177-1.864l-.25-.25a.8.8,0,0,1,.154-1.1l4.207-4.2a.8.8,0,0,1,1.1-.155l.25.25q.954-1.07,1.864-2.177l-.289-.21a.8.8,0,0,1-.019-1.108l3.5-4.81a.8.8,0,0,1,1.058-.324l.3.217q.777-1.2,1.5-2.445l-.33-.168a.8.8,0,0,1-.192-1.091l2.7-5.3a.8.8,0,0,1,.994-.486l.34.174q.579-1.311,1.1-2.65l-.369-.12a.8.8,0,0,1-.361-1.047l1.84-5.656a.8.8,0,0,1,.906-.635l.373.121q.364-1.384.669-2.792l-.387-.062a.8.8,0,0,1-.519-.978l.932-5.874c.076-.482.433-.826.795-.769l.385.061c.094-.948.167-1.907.221-2.866l-.386,0C702.1,365.977,701.8,365.572,701.8,365.085Zm-66.243,61.526a64.344,64.344,0,1,1,64.411-64.343A64.378,64.378,0,0,1,635.555,426.611Z" fill="#fff"/>
      <path id="Path_1345" data-name="Path 1345" d="M627.593,436.761a2.028,2.028,0,0,0-.724-.63,3.106,3.106,0,0,0-2.015-.267,2.029,2.029,0,0,0-.863.419,2.517,2.517,0,0,0-.642.857,4.37,4.37,0,0,0-.369,1.331l-.144,1.088a4.4,4.4,0,0,0,.009,1.381,2.507,2.507,0,0,0,.4.994,2.026,2.026,0,0,0,.723.63,3.123,3.123,0,0,0,2.015.267,2.037,2.037,0,0,0,.863-.42,2.513,2.513,0,0,0,.642-.856,4.352,4.352,0,0,0,.368-1.332l.145-1.087a4.4,4.4,0,0,0-.009-1.381A2.515,2.515,0,0,0,627.593,436.761Z" fill="#fff"/>
      <path id="Path_1346" data-name="Path 1346" d="M594.492,429.785c-.035.2-.066.365-.092.511s-.055.286-.084.42-.061.275-.093.422-.076.327-.132.539q.252-.216.422-.372c.113-.1.221-.2.323-.283l.323-.27c.112-.094.246-.2.4-.325l1.783-1.416-2.428-1.458Z" fill="#fff"/>
      <path id="Path_1347" data-name="Path 1347" d="M615.085,438a1.333,1.333,0,0,0-.711.92l-.061.245a1.322,1.322,0,0,0,.187,1.139,2.2,2.2,0,0,0,1.3.731l1.882.472.77-3.071L616.7,438A2.43,2.43,0,0,0,615.085,438Z" fill="#fff"/>
      <path id="Path_1348" data-name="Path 1348" d="M650.589,438.1a4.353,4.353,0,0,0-.4-1.32,2.506,2.506,0,0,0-.666-.839,2.03,2.03,0,0,0-.874-.4,3.122,3.122,0,0,0-2.007.322,2.037,2.037,0,0,0-.706.65,2.51,2.51,0,0,0-.37,1,4.382,4.382,0,0,0,.029,1.381l.174,1.084a4.371,4.371,0,0,0,.405,1.32,2.5,2.5,0,0,0,.666.839,2.037,2.037,0,0,0,.873.4,3.119,3.119,0,0,0,2.007-.322,2.03,2.03,0,0,0,.706-.65,2.5,2.5,0,0,0,.371-1.005,4.405,4.405,0,0,0-.029-1.38Z" fill="#fff"/>
      <path id="Path_1349" data-name="Path 1349" d="M593.882,295.567a1.332,1.332,0,0,0-.2-1.146l-.138-.211a1.318,1.318,0,0,0-.966-.632,2.191,2.191,0,0,0-1.42.466l-1.622,1.066,1.739,2.644,1.512-.994A2.422,2.422,0,0,0,593.882,295.567Z" fill="#fff"/>
      <path id="Path_1350" data-name="Path 1350" d="M662.054,437.316l.081.212a1.352,1.352,0,0,0,.871.9,2.294,2.294,0,0,0,1.449-.156l1.875-.716-1.206-3.157-1.74.665Q661.473,435.8,662.054,437.316Z" fill="#fff"/>
      <path id="Path_1351" data-name="Path 1351" d="M677,429.066a1.329,1.329,0,0,0,.186,1.148l.137.212a1.322,1.322,0,0,0,.959.642,2.209,2.209,0,0,0,1.425-.453l1.631-1.052-1.715-2.66-1.521.98A2.422,2.422,0,0,0,677,429.066Z" fill="#fff"/>
      <path id="Path_1352" data-name="Path 1352" d="M620.2,286.3a4.353,4.353,0,0,0,.416,1.317,2.5,2.5,0,0,0,.674.832,2.026,2.026,0,0,0,.877.388,3.107,3.107,0,0,0,2-.341,2.02,2.02,0,0,0,.7-.656,2.511,2.511,0,0,0,.361-1.007,4.359,4.359,0,0,0-.042-1.381l-.184-1.082a4.381,4.381,0,0,0-.416-1.317,2.526,2.526,0,0,0-.674-.832,2.032,2.032,0,0,0-.877-.388,3.123,3.123,0,0,0-2,.341,2.01,2.01,0,0,0-.7.656,2.5,2.5,0,0,0-.361,1.008,4.355,4.355,0,0,0,.042,1.38Z" fill="#fff"/>
      <path id="Path_1353" data-name="Path 1353" d="M608.748,287.181l-.083-.211a1.351,1.351,0,0,0-.879-.895,2.3,2.3,0,0,0-1.449.169l-1.867.733,1.235,3.146,1.733-.681Q609.343,288.7,608.748,287.181Z" fill="#fff"/>
      <path id="Path_1354" data-name="Path 1354" d="M643.213,287.422a2.015,2.015,0,0,0,.729.623,3.11,3.11,0,0,0,2.017.249,2.03,2.03,0,0,0,.859-.428,2.5,2.5,0,0,0,.635-.862,4.39,4.39,0,0,0,.356-1.335l.134-1.088a4.392,4.392,0,0,0-.021-1.381,2.507,2.507,0,0,0-.407-.991,2.023,2.023,0,0,0-.729-.623,3.128,3.128,0,0,0-2.018-.249,2.041,2.041,0,0,0-.859.428,2.508,2.508,0,0,0-.634.862,4.361,4.361,0,0,0-.356,1.335l-.134,1.089a4.363,4.363,0,0,0,.021,1.381A2.5,2.5,0,0,0,643.213,287.422Z" fill="#fff"/>
      <path id="Path_1355" data-name="Path 1355" d="M563.155,328.815a4.348,4.348,0,0,0,1.141.778l.983.488a4.358,4.358,0,0,0,1.31.437,2.5,2.5,0,0,0,1.069-.055,2.035,2.035,0,0,0,.83-.482,3.12,3.12,0,0,0,.9-1.821,2.037,2.037,0,0,0-.119-.952,2.521,2.521,0,0,0-.6-.885,4.4,4.4,0,0,0-1.142-.778l-.983-.487a4.358,4.358,0,0,0-1.31-.437,2.515,2.515,0,0,0-1.069.055,2.035,2.035,0,0,0-.83.482,3.12,3.12,0,0,0-.9,1.821,2.037,2.037,0,0,0,.119.952A2.5,2.5,0,0,0,563.155,328.815Z" fill="#fff"/>
      <path id="Path_1356" data-name="Path 1356" d="M655.7,286.062a1.329,1.329,0,0,0,.7-.927l.059-.245a1.318,1.318,0,0,0-.2-1.137,2.2,2.2,0,0,0-1.312-.718l-1.886-.455-.742,3.077,1.76.424A2.42,2.42,0,0,0,655.7,286.062Z" fill="#fff"/>
      <path id="Path_1357" data-name="Path 1357" d="M563.071,342.976a2.231,2.231,0,0,0-.728-.748,3.83,3.83,0,0,0-1.229-.5l-1.14-.274a3.858,3.858,0,0,0-1.321-.115,2.307,2.307,0,0,0-.995.334,2.153,2.153,0,0,0-.694.73,3.875,3.875,0,0,0-.42,1.073l-.4,1.671,6.7,1.607.4-1.67a3.849,3.849,0,0,0,.113-1.146A2.174,2.174,0,0,0,563.071,342.976Z" fill="#fff"/>
      <path id="Path_1358" data-name="Path 1358" d="M635.821,275.1c-48.324-.154-87.624,38.708-87.78,86.8s38.893,87.2,87.216,87.36,87.623-38.707,87.778-86.8S684.143,275.258,635.821,275.1Zm80.811,70.711-1.042.25-1.07-4.464-2.747.658,1.005,4.2-1.042.25-1.005-4.2-2.968.711,1.091,4.553-1.042.25-1.394-5.816,8.842-2.118Zm-4.13-13.956-6.158,5.105,8.021.12.449,1.26-9.761-.306-.41-1.149,7.384-6.364Zm-1.2-2.771L703,332.8l-.53-1.185,8.3-3.713Zm-3.236-6.588-7.086,3.756,2.119,4-.947.5-2.727-5.145,8.033-4.258ZM698.2,309.59a3.261,3.261,0,0,1,1.362.5,4.977,4.977,0,0,1,1.209,1.125,5.959,5.959,0,0,1,.871,1.468,4.48,4.48,0,0,1,.321,1.585l-1.207.1a3.959,3.959,0,0,0-.238-1.349,4.2,4.2,0,0,0-.637-1.1,2.567,2.567,0,0,0-1.768-1.068,3.22,3.22,0,0,0-2.241.876l-.821.649a3.075,3.075,0,0,0-1.338,2.019,2.8,2.8,0,0,0,.687,2.039,5.241,5.241,0,0,0,.705.739,3.808,3.808,0,0,0,.745.506l2.008-1.587-1.3-1.647.841-.664,2.106,2.665-3.384,2.673a4.576,4.576,0,0,1-1.4-.774,7.5,7.5,0,0,1-1.236-1.238,5.439,5.439,0,0,1-.856-1.48,3.231,3.231,0,0,1-.2-1.458,3.372,3.372,0,0,1,.483-1.4,4.943,4.943,0,0,1,1.2-1.308l1.078-.852a5.01,5.01,0,0,1,1.536-.863A3.374,3.374,0,0,1,698.2,309.59Zm-5.471-7.076-1.751,6.926q-.06.262-.18.633c-.081.247-.177.505-.287.776l5.281-5.259.851.855-6.442,6.415L689.15,311.8l1.734-6.909c.05-.187.115-.4.193-.646s.171-.5.281-.771l-5.271,5.25-.851-.855,6.442-6.415Zm-2.913-2.626-5.911,6.908-.987-.845,5.912-6.907Zm-8.853-6.832,1.144.835-2.219,7.686,6.7-4.414,1.08.789-8.242,5.238-.986-.719Zm-2.942-1.724-1.568,9.626-1.176-.692.5-2.81-3.12-1.835-2.214,1.8-1.142-.671,7.639-6.055Zm-13.783,1.016a4.735,4.735,0,0,0,.4.581,6.25,6.25,0,0,0,.508.567,4.757,4.757,0,0,0,.566.483,3.185,3.185,0,0,0,.572.341,2.453,2.453,0,0,0,1.542.266,1.155,1.155,0,0,0,.844-.644l.083-.184a1.255,1.255,0,0,0,.121-.526,1.026,1.026,0,0,0-.157-.513,2.745,2.745,0,0,0-.454-.557,6.387,6.387,0,0,0-.779-.634,12.716,12.716,0,0,1-1-.805,3.81,3.81,0,0,1-.718-.835,2.123,2.123,0,0,1-.314-.915,2.053,2.053,0,0,1,.207-1.049l.093-.207a2.159,2.159,0,0,1,.549-.741,2.182,2.182,0,0,1,.869-.459,3.126,3.126,0,0,1,1.151-.083,4.405,4.405,0,0,1,1.383.394,5.748,5.748,0,0,1,1.353.831,4.867,4.867,0,0,1,.952,1.078l-.961.633a3.867,3.867,0,0,0-.766-.885,4.414,4.414,0,0,0-1.026-.628,2.4,2.4,0,0,0-1.453-.239,1.108,1.108,0,0,0-.863.621l-.083.184a.955.955,0,0,0-.088.548,1.244,1.244,0,0,0,.225.523,2.976,2.976,0,0,0,.505.539q.322.276.753.6a8.267,8.267,0,0,1,1.155,1,3.363,3.363,0,0,1,.625.9,1.843,1.843,0,0,1,.17.851,2.39,2.39,0,0,1-.214.844l-.094.207a2.242,2.242,0,0,1-.683.9,2.368,2.368,0,0,1-.964.43,3.114,3.114,0,0,1-1.171,0,5.488,5.488,0,0,1-1.29-.408,5.447,5.447,0,0,1-2.562-2.329Zm-12.189-11.114,3.327.8a4.013,4.013,0,0,1,1.205.485,2.78,2.78,0,0,1,.8.723,2.224,2.224,0,0,1,.384.9,2.417,2.417,0,0,1-.035,1.016l-.077.319a2.33,2.33,0,0,1-.721,1.227,2.442,2.442,0,0,1-1.347.583l.877,4.362-1.364-.328-.768-4.09-2.257-.543-.889,3.69-1.262-.3Zm-10.587,3.794.168-1.364a4.923,4.923,0,0,1,.493-1.693,3.427,3.427,0,0,1,.94-1.142,3.3,3.3,0,0,1,1.3-.6,4.871,4.871,0,0,1,3.072.379,3.258,3.258,0,0,1,1.117.9,3.439,3.439,0,0,1,.636,1.336,4.9,4.9,0,0,1,.066,1.761l-.168,1.365a4.94,4.94,0,0,1-.494,1.705,3.427,3.427,0,0,1-.94,1.142,3.218,3.218,0,0,1-1.3.6,5.015,5.015,0,0,1-3.079-.379,3.233,3.233,0,0,1-1.112-.893,3.437,3.437,0,0,1-.634-1.336A4.942,4.942,0,0,1,641.466,285.028Zm-6.975-5.379,5.848.1-.017,1.072-4.551-.076-.05,3.039,4.274.071-.017,1.071-4.275-.071-.065,3.909-1.3-.022Zm-15.8,3.885a3.423,3.423,0,0,1,.573-1.363,3.271,3.271,0,0,1,1.076-.95,4.875,4.875,0,0,1,3.051-.519,3.289,3.289,0,0,1,1.329.542,3.425,3.425,0,0,1,.991,1.1,4.873,4.873,0,0,1,.57,1.668l.23,1.355a4.936,4.936,0,0,1,.016,1.775,3.429,3.429,0,0,1-.573,1.364,3.225,3.225,0,0,1-1.077.944,5.019,5.019,0,0,1-3.058.519,3.219,3.219,0,0,1-1.321-.536,3.414,3.414,0,0,1-.991-1.1,4.933,4.933,0,0,1-.572-1.681L618.7,285.3A4.909,4.909,0,0,1,618.689,283.534Zm-1.885-1.743.29,1.032-2.778.781,2.169,7.72-1.25.352-2.169-7.721-2.778.78L610,283.7Zm-10.79,3.415a4.422,4.422,0,0,1,1.366-.326,2.736,2.736,0,0,1,1.108.148,2.166,2.166,0,0,1,.838.558,2.763,2.763,0,0,1,.555.893l.1.246a2.668,2.668,0,0,1,.191,1.043,2.452,2.452,0,0,1-.244,1.01,2.876,2.876,0,0,1-.7.9,3.946,3.946,0,0,1-1.185.7l-1.941.762,1.295,3.3-1.209.474-3.322-8.463Zm-10.361,4.823,4.157,2.631.186-4.884,1.28-.664-.361,6.31,1.684,3.246-1.152.6-1.684-3.246-5.39-3.327Zm-4.928,3.018a4.043,4.043,0,0,1,1.178-.548,2.792,2.792,0,0,1,1.073-.087,2.216,2.216,0,0,1,.917.333,2.394,2.394,0,0,1,.717.721l.181.273a2.331,2.331,0,0,1,.4,1.365,2.449,2.449,0,0,1-.5,1.383l3.784,2.341-1.173.771-3.51-2.235-1.939,1.276,2.085,3.171-1.084.713-5-7.6Zm-8.674,7.62a3.237,3.237,0,0,1,.445-1.347,4.447,4.447,0,0,1,1.023-1.171,5.673,5.673,0,0,1,1.474-.912,4.662,4.662,0,0,1,1.552-.324l.134,1.214a3.62,3.62,0,0,0-1.372.264,4.493,4.493,0,0,0-1.05.654,2.693,2.693,0,0,0-.652.766,2.07,2.07,0,0,0-.262.919,2.5,2.5,0,0,0,.194,1.049,4.4,4.4,0,0,0,.716,1.158l.666.808a4.415,4.415,0,0,0,1,.924,2.5,2.5,0,0,0,.993.39,2.067,2.067,0,0,0,.952-.082,2.7,2.7,0,0,0,.877-.493,4.8,4.8,0,0,0,.924-1.024,3.159,3.159,0,0,0,.5-1.393l1.156.29a3.924,3.924,0,0,1-.617,1.684,6.174,6.174,0,0,1-1.226,1.338,4.608,4.608,0,0,1-1.35.794,3.1,3.1,0,0,1-1.4.181,3.437,3.437,0,0,1-1.391-.472,5.035,5.035,0,0,1-1.328-1.177l-.874-1.06a5.03,5.03,0,0,1-.894-1.518A3.4,3.4,0,0,1,582.051,300.667Zm-2.854,7.409,1.058.992-1.023,1.09-1.058-.992Zm-11.735,7.79,7.121.578q.269.015.654.073c.257.038.527.089.812.153l-6.062-4.335.7-.981,7.395,5.288-.869,1.216-7.1-.563q-.289-.029-.669-.083t-.808-.15l6.052,4.327-.7.982-7.395-5.289Zm-2.1,3.306,7.794,4.681-.669,1.113-7.794-4.681Zm-4.1,7.815a4.87,4.87,0,0,1,1.375-2.773,3.28,3.28,0,0,1,1.219-.756,3.419,3.419,0,0,1,1.471-.157,4.907,4.907,0,0,1,1.685.521l1.231.61a4.953,4.953,0,0,1,1.445,1.031,3.438,3.438,0,0,1,.766,1.266,3.217,3.217,0,0,1,.131,1.425,5.008,5.008,0,0,1-1.378,2.779,3.223,3.223,0,0,1-1.211.754,3.433,3.433,0,0,1-1.471.156,4.929,4.929,0,0,1-1.7-.526l-1.232-.61a4.9,4.9,0,0,1-1.434-1.026,3.426,3.426,0,0,1-.766-1.265A3.292,3.292,0,0,1,561.253,326.987Zm-3.093,6.783a5.691,5.691,0,0,1,.8-1.537,4.69,4.69,0,0,1,1.17-1.07l.734.976a3.629,3.629,0,0,0-1.045.927,4.531,4.531,0,0,0-.57,1.1,2.7,2.7,0,0,0-.17.991,2.079,2.079,0,0,0,.243.924,2.509,2.509,0,0,0,.7.8,4.394,4.394,0,0,0,1.207.631l.985.355a4.419,4.419,0,0,0,1.331.285,2.506,2.506,0,0,0,1.054-.171,2.075,2.075,0,0,0,.777-.556,2.7,2.7,0,0,0,.5-.872,4.8,4.8,0,0,0,.273-1.351,3.174,3.174,0,0,0-.28-1.454l1.141-.34a3.912,3.912,0,0,1,.329,1.763,6.2,6.2,0,0,1-.372,1.776,4.618,4.618,0,0,1-.756,1.372,3.1,3.1,0,0,1-1.111.868,3.453,3.453,0,0,1-1.437.3,5.058,5.058,0,0,1-1.742-.336l-1.293-.467a5.018,5.018,0,0,1-1.544-.849,3.405,3.405,0,0,1-.909-1.158,3.234,3.234,0,0,1-.305-1.385A4.465,4.465,0,0,1,558.16,333.77Zm-2.655,9.338a4.038,4.038,0,0,1,1.667-2.648,3.905,3.905,0,0,1,3.05-.306l1.263.3a3.968,3.968,0,0,1,2.584,1.632,4.021,4.021,0,0,1,.277,3.142l-.732,3.047-8.84-2.122Zm-1.676,8.469a5.756,5.756,0,0,1,.4-1.536,4.785,4.785,0,0,1,.753-1.226l.885.733a3.892,3.892,0,0,0-.621.992,4.416,4.416,0,0,0-.3,1.165,2.407,2.407,0,0,0,.2,1.459,1.106,1.106,0,0,0,.846.642l.2.026a.957.957,0,0,0,.549-.076,1.268,1.268,0,0,0,.435-.368,3.055,3.055,0,0,0,.367-.641c.113-.258.229-.557.348-.894a8.417,8.417,0,0,1,.615-1.4,3.38,3.38,0,0,1,.675-.86,1.832,1.832,0,0,1,.763-.413,2.413,2.413,0,0,1,.87-.042l.225.029a2.258,2.258,0,0,1,1.057.391,2.365,2.365,0,0,1,.693.795,3.123,3.123,0,0,1,.342,1.121,5.49,5.49,0,0,1-.013,1.353,5.444,5.444,0,0,1-1.476,3.132l-.931-.78a4.709,4.709,0,0,0,.438-.552,6.126,6.126,0,0,0,.394-.651,4.88,4.88,0,0,0,.3-.683,3.243,3.243,0,0,0,.158-.647,2.444,2.444,0,0,0-.2-1.552,1.152,1.152,0,0,0-.862-.618l-.2-.025a1.249,1.249,0,0,0-.539.037,1.032,1.032,0,0,0-.444.3,2.77,2.77,0,0,0-.4.6,6.4,6.4,0,0,0-.378.93,12.406,12.406,0,0,1-.476,1.2,3.8,3.8,0,0,1-.588.93,2.127,2.127,0,0,1-.783.569,2.06,2.06,0,0,1-1.063.11l-.225-.029a2.16,2.16,0,0,1-.87-.308,2.206,2.206,0,0,1-.694-.7,3.153,3.153,0,0,1-.416-1.077A4.4,4.4,0,0,1,553.829,351.577Zm5.157,9.729-.024,1.495-1.45-.023.024-1.5Zm-5.2,11.035a5.671,5.671,0,0,1,.006-1.586,4.813,4.813,0,0,1,.426-1.375l1.039.491a3.9,3.9,0,0,0-.357,1.115,4.434,4.434,0,0,0,0,1.2,2.4,2.4,0,0,0,.551,1.365,1.107,1.107,0,0,0,.979.414l.2-.025a.957.957,0,0,0,.514-.21,1.239,1.239,0,0,0,.329-.464,2.967,2.967,0,0,0,.2-.712q.067-.417.116-.953a8.352,8.352,0,0,1,.251-1.5,3.341,3.341,0,0,1,.441-1,1.813,1.813,0,0,1,.638-.588,2.37,2.37,0,0,1,.832-.256l.225-.028a2.246,2.246,0,0,1,1.121.118,2.365,2.365,0,0,1,.868.6,3.1,3.1,0,0,1,.608,1,5.481,5.481,0,0,1,.323,1.315,5.444,5.444,0,0,1-.657,3.4l-1.094-.525a4.938,4.938,0,0,0,.288-.644,6.242,6.242,0,0,0,.22-.727,4.844,4.844,0,0,0,.118-.736,3.191,3.191,0,0,0-.006-.666,2.453,2.453,0,0,0-.575-1.455,1.156,1.156,0,0,0-.989-.386l-.2.025a1.264,1.264,0,0,0-.512.17,1.028,1.028,0,0,0-.357.4,2.825,2.825,0,0,0-.24.678,6.435,6.435,0,0,0-.136.995,12.533,12.533,0,0,1-.166,1.276,3.813,3.813,0,0,1-.339,1.046,2.1,2.1,0,0,1-.619.745,2.06,2.06,0,0,1-1,.37l-.226.027a2.155,2.155,0,0,1-.918-.083,2.19,2.19,0,0,1-.845-.5,3.153,3.153,0,0,1-.67-.941A4.428,4.428,0,0,1,553.787,372.341Zm.924,5.354,1.045-.24,1.028,4.474,2.753-.633-.967-4.2,1.045-.24.967,4.2,2.973-.684-1.048-4.563,1.044-.24,1.34,5.828-8.861,2.037Zm4,13.995,6.205-5.048-8.02-.194-.437-1.264,9.758.4.4,1.152-7.442,6.3Zm1.176,2.786,8.333-3.636.519,1.19-8.333,3.636Zm3.177,6.622,7.12-3.692L568.1,393.39l.951-.493,2.68,5.169-8.071,4.184Zm9.745,13a3.242,3.242,0,0,1-1.357-.516,4.961,4.961,0,0,1-1.2-1.135,5.986,5.986,0,0,1-.857-1.476,4.448,4.448,0,0,1-.306-1.588l1.207-.09a3.965,3.965,0,0,0,.226,1.351,4.2,4.2,0,0,0,.627,1.107,2.567,2.567,0,0,0,1.758,1.084,3.213,3.213,0,0,0,2.249-.855l.827-.642a3.073,3.073,0,0,0,1.356-2.006,2.8,2.8,0,0,0-.669-2.045,5.151,5.151,0,0,0-.7-.745,3.719,3.719,0,0,0-.741-.513l-2.023,1.569,1.286,1.658-.847.657-2.081-2.685,3.408-2.643a4.575,4.575,0,0,1,1.392.788,7.424,7.424,0,0,1,1.224,1.249,5.4,5.4,0,0,1,.843,1.488,3.226,3.226,0,0,1,.183,1.459,3.4,3.4,0,0,1-.5,1.4,4.939,4.939,0,0,1-1.212,1.3l-1.086.842a5.016,5.016,0,0,1-1.544.849A3.383,3.383,0,0,1,572.81,414.094Zm5.407,7.126,1.814-6.91q.062-.262.186-.631t.293-.773l-5.328,5.21-.843-.862,6.5-6.357,1.046,1.069-1.8,6.892c-.053.187-.119.4-.2.644s-.176.5-.289.769l5.319-5.2.844.862-6.5,6.358Zm2.883,2.646,5.974-6.853.979.853-5.974,6.853Zm8.8,6.916-1.136-.845,2.288-7.665-6.738,4.353-1.073-.8,8.289-5.163.979.728Zm2.93,1.753,1.655-9.61,1.17.7-.522,2.8,3.1,1.863,2.231-1.779,1.135.682-7.693,5.985Zm13.781-.895a4.817,4.817,0,0,0-.4-.585,6.241,6.241,0,0,0-.5-.572,4.85,4.85,0,0,0-.561-.488,3.239,3.239,0,0,0-.57-.346,2.449,2.449,0,0,0-1.539-.28,1.15,1.15,0,0,0-.849.636l-.085.183a1.26,1.26,0,0,0-.127.525,1.039,1.039,0,0,0,.153.515,2.768,2.768,0,0,0,.449.561,6.449,6.449,0,0,0,.773.641,12.766,12.766,0,0,1,1,.814,3.825,3.825,0,0,1,.709.841,2.119,2.119,0,0,1,.306.919,2.055,2.055,0,0,1-.216,1.046l-.095.206a2.171,2.171,0,0,1-.556.737,2.2,2.2,0,0,1-.873.451,3.148,3.148,0,0,1-1.153.072,4.408,4.408,0,0,1-1.379-.407,5.729,5.729,0,0,1-1.344-.843,4.866,4.866,0,0,1-.943-1.087l.967-.624a3.9,3.9,0,0,0,.758.892,4.408,4.408,0,0,0,1.021.637,2.4,2.4,0,0,0,1.45.253,1.109,1.109,0,0,0,.868-.613l.085-.183a.958.958,0,0,0,.093-.548,1.245,1.245,0,0,0-.22-.524,2.95,2.95,0,0,0-.5-.544q-.32-.279-.748-.6a8.377,8.377,0,0,1-1.145-1.007,3.37,3.37,0,0,1-.616-.9,1.816,1.816,0,0,1-.163-.853,2.369,2.369,0,0,1,.222-.841l.1-.206a2.248,2.248,0,0,1,.692-.889,2.366,2.366,0,0,1,.967-.422,3.11,3.11,0,0,1,1.172.013,5.766,5.766,0,0,1,2.842,1.478,5.341,5.341,0,0,1,.984,1.294Zm12.079,11.225-3.32-.833a4.025,4.025,0,0,1-1.2-.5,2.8,2.8,0,0,1-.79-.731,2.218,2.218,0,0,1-.376-.9,2.4,2.4,0,0,1,.045-1.015l.08-.318a2.328,2.328,0,0,1,.732-1.221,2.447,2.447,0,0,1,1.353-.57l-.837-4.37,1.361.341.731,4.1,2.251.564.923-3.681,1.26.316Zm10.631-3.694-.181,1.362a4.885,4.885,0,0,1-.508,1.688,3.435,3.435,0,0,1-.95,1.134,3.286,3.286,0,0,1-1.309.59,4.883,4.883,0,0,1-3.068-.407,3.271,3.271,0,0,1-1.109-.91,3.439,3.439,0,0,1-.623-1.342,4.911,4.911,0,0,1-.051-1.762l.181-1.363a4.943,4.943,0,0,1,.509-1.7,3.456,3.456,0,0,1,.951-1.133,3.2,3.2,0,0,1,1.307-.583,5.007,5.007,0,0,1,3.075.407,3.225,3.225,0,0,1,1.1.9,3.453,3.453,0,0,1,.623,1.342A4.954,4.954,0,0,1,629.317,439.171Zm6.919,5.441-5.847-.15.028-1.072,4.549.117.078-3.037-4.274-.111.028-1.071,4.274.11.1-3.908,1.3.034Zm15.84-3.741a3.424,3.424,0,0,1-.585,1.359,3.285,3.285,0,0,1-1.085.94,4.87,4.87,0,0,1-3.055.49,3.267,3.267,0,0,1-1.324-.553,3.43,3.43,0,0,1-.981-1.107,4.878,4.878,0,0,1-.555-1.674l-.217-1.357a4.936,4.936,0,0,1,0-1.776,3.431,3.431,0,0,1,.586-1.357,3.216,3.216,0,0,1,1.085-.935,5.029,5.029,0,0,1,3.063-.491,3.225,3.225,0,0,1,1.316.549,3.434,3.434,0,0,1,.982,1.107,4.949,4.949,0,0,1,.556,1.685l.217,1.358A4.854,4.854,0,0,1,652.076,440.871Zm1.872,1.761-.28-1.035,2.785-.755-2.1-7.74,1.253-.34,2.1,7.741,2.784-.755.281,1.035Zm10.821-3.316a4.422,4.422,0,0,1-1.368.314,2.739,2.739,0,0,1-1.107-.158,2.16,2.16,0,0,1-.833-.566,2.762,2.762,0,0,1-.547-.9l-.1-.247a2.69,2.69,0,0,1-.181-1.045,2.455,2.455,0,0,1,.254-1.008,2.855,2.855,0,0,1,.706-.89,3.916,3.916,0,0,1,1.191-.685l1.948-.744-1.264-3.31,1.213-.463,3.244,8.493Zm10.4-4.726-4.132-2.668-.23,4.881-1.287.652.42-6.306-1.655-3.261,1.158-.587,1.655,3.261,5.358,3.376Zm4.96-2.975a4.057,4.057,0,0,1-1.183.537,2.78,2.78,0,0,1-1.073.077,2.214,2.214,0,0,1-.915-.341,2.4,2.4,0,0,1-.71-.727l-.178-.276a2.316,2.316,0,0,1-.39-1.368,2.445,2.445,0,0,1,.508-1.378l-3.763-2.376,1.18-.76,3.489,2.267,1.951-1.258-2.056-3.19,1.091-.7,4.926,7.643Zm8.745-7.542a3.235,3.235,0,0,1-.456,1.342,4.473,4.473,0,0,1-1.035,1.162,5.676,5.676,0,0,1-1.482.9,4.683,4.683,0,0,1-1.555.309l-.122-1.214a3.626,3.626,0,0,0,1.373-.252,4.5,4.5,0,0,0,1.056-.644,2.684,2.684,0,0,0,.659-.76,2.085,2.085,0,0,0,.271-.916,2.5,2.5,0,0,0-.185-1.052,4.35,4.35,0,0,0-.706-1.164l-.658-.814a4.406,4.406,0,0,0-.991-.933,2.5,2.5,0,0,0-.99-.4,2.073,2.073,0,0,0-.953.074,2.713,2.713,0,0,0-.881.485,4.816,4.816,0,0,0-.933,1.015,3.179,3.179,0,0,0-.513,1.389l-1.153-.3a3.918,3.918,0,0,1,.632-1.679,6.192,6.192,0,0,1,1.238-1.326,4.621,4.621,0,0,1,1.357-.783,3.1,3.1,0,0,1,1.4-.167,3.45,3.45,0,0,1,1.387.484,5.048,5.048,0,0,1,1.317,1.189l.864,1.068a5.014,5.014,0,0,1,.881,1.526A3.415,3.415,0,0,1,688.877,424.073Zm-.23-18.589-.485-.354c-.623.76-1.266,1.505-1.925,2.242l.431.431a.8.8,0,0,1-.154,1.1l-4.207,4.2a.8.8,0,0,1-1.1.155l-.43-.431q-1.1.988-2.241,1.925l.353.487a.8.8,0,0,1-.324,1.058l-4.812,3.495a.8.8,0,0,1-1.107-.019l-.345-.476q-1.245.8-2.519,1.55l.265.52a.8.8,0,0,1-.486.995l-5.3,2.7a.8.8,0,0,1-1.09-.191l-.26-.51q-1.353.6-2.734,1.132l.177.546a.8.8,0,0,1-.634.906l-5.658,1.837a.8.8,0,0,1-1.046-.36l-.18-.555q-1.43.374-2.877.685l.092.583c.058.363-.286.72-.768.8l-5.875.928a.8.8,0,0,1-.978-.52l-.094-.593c-.977.1-1.959.169-2.945.224v.61c0,.368-.395.667-.883.667l-5.948,0a.8.8,0,0,1-.885-.667v-.608c-.985-.055-1.967-.127-2.943-.224l-.1.594a.8.8,0,0,1-.978.518l-5.874-.93c-.482-.077-.826-.434-.768-.8l.092-.58q-1.447-.311-2.877-.685l-.181.556a.8.8,0,0,1-1.046.359l-5.657-1.84a.8.8,0,0,1-.634-.9l.177-.544q-1.38-.535-2.735-1.132l-.26.511a.8.8,0,0,1-1.09.19l-5.3-2.7a.8.8,0,0,1-.484-.994l.264-.519q-1.275-.746-2.519-1.55l-.348.477a.8.8,0,0,1-1.105.018l-4.812-3.5a.8.8,0,0,1-.322-1.058l.352-.485c-.76-.623-1.506-1.267-2.242-1.925l-.431.43a.8.8,0,0,1-1.1-.155l-4.206-4.206a.8.8,0,0,1-.153-1.1l.429-.43c-.658-.736-1.3-1.482-1.924-2.241l-.488.353a.8.8,0,0,1-1.057-.324l-3.5-4.813a.8.8,0,0,1,.02-1.105l.476-.346q-.8-1.245-1.55-2.519l-.521.265a.8.8,0,0,1-.994-.486l-2.7-5.3a.8.8,0,0,1,.193-1.089l.51-.26q-.6-1.353-1.133-2.734l-.546.177a.8.8,0,0,1-.906-.635l-1.837-5.657a.8.8,0,0,1,.361-1.046l.554-.18q-.374-1.43-.685-2.877l-.583.091c-.364.058-.72-.288-.8-.769l-.93-5.875a.8.8,0,0,1,.52-.977l.592-.1c-.1-.977-.169-1.962-.224-2.948l-.61,0c-.368,0-.665-.4-.665-.892v-5.964c0-.488.3-.914.666-.914h.608c.055-.8.127-1.937.224-2.915l-.595-.063a.8.8,0,0,1-.518-.977l.931-5.875c.077-.483.433-.826.8-.768l.581.092q.312-1.447.686-2.877l-.557-.182a.8.8,0,0,1-.359-1.045l1.839-5.657a.8.8,0,0,1,.906-.634l.544.177q.537-1.38,1.133-2.734l-.511-.262a.8.8,0,0,1-.192-1.089l2.7-5.3a.8.8,0,0,1,.995-.484l.519.265q.747-1.275,1.55-2.519l-.477-.347a.8.8,0,0,1-.019-1.107l3.5-4.811a.8.8,0,0,1,1.058-.323l.486.353q.934-1.139,1.925-2.241l-.432-.432a.8.8,0,0,1,.155-1.1l4.207-4.2a.8.8,0,0,1,1.1-.153l.43.43q1.1-.987,2.242-1.925l-.354-.488a.8.8,0,0,1,.324-1.058l4.812-3.495a.8.8,0,0,1,1.106.019l.347.477q1.243-.8,2.518-1.549l-.265-.522a.8.8,0,0,1,.486-.995l5.3-2.7a.8.8,0,0,1,1.089.193l.26.51q1.355-.6,2.734-1.133l-.177-.546a.8.8,0,0,1,.635-.907l5.658-1.836a.8.8,0,0,1,1.045.36l.18.556q1.43-.374,2.877-.686l-.092-.583c-.058-.364.287-.72.77-.8l5.874-.929a.8.8,0,0,1,.977.519l.093.594c.978-.1,1.96-.169,2.946-.224v-.61c0-.369.4-.666.885-.666h5.947c.488,0,.883.3.883.666v.609c.987.055,1.97.127,2.947.224l.1-.6a.8.8,0,0,1,.975-.518l5.877.931c.482.077.825.433.768.8l-.093.582q1.449.312,2.877.685l.182-.557a.8.8,0,0,1,1.044-.36l5.658,1.839a.8.8,0,0,1,.635.907l-.178.545q1.38.535,2.735,1.133l.261-.513a.8.8,0,0,1,1.088-.192l5.3,2.7a.8.8,0,0,1,.485.995l-.266.521q1.275.746,2.519,1.549l.348-.479a.8.8,0,0,1,1.1-.018l4.812,3.5a.8.8,0,0,1,.324,1.059l-.354.486q1.138.935,2.241,1.925l.432-.433a.8.8,0,0,1,1.1.154l4.206,4.208a.8.8,0,0,1,.154,1.1l-.431.431c.658.735,1.3,1.481,1.924,2.24l.489-.354a.8.8,0,0,1,1.057.324l3.5,4.814a.8.8,0,0,1-.019,1.106l-.477.346q.8,1.244,1.549,2.519l.522-.266a.8.8,0,0,1,.994.485l2.7,5.3a.8.8,0,0,1-.192,1.09l-.51.26q.6,1.353,1.133,2.733l.546-.177a.8.8,0,0,1,.905.635l1.838,5.658a.8.8,0,0,1-.361,1.046l-.555.18q.374,1.43.685,2.877l.584-.092c.363-.058.719.286.8.768l.929,5.876a.8.8,0,0,1-.519.978l-.593.093c.1.977.168,1.96.223,2.945h.611c.368,0,.666.4.665.883V365.1c0,.489-.3.883-.665.884h-.61c-.055.986-.127,1.969-.223,2.946l.594.1a.8.8,0,0,1,.519.976l-.932,5.876c-.075.483-.432.826-.8.769l-.581-.093q-.31,1.448-.685,2.876l.556.181a.8.8,0,0,1,.36,1.047l-1.84,5.657a.8.8,0,0,1-.906.635l-.544-.177q-.535,1.378-1.133,2.733l.511.261a.8.8,0,0,1,.192,1.089l-2.7,5.3a.8.8,0,0,1-.995.486l-.519-.265q-.747,1.273-1.55,2.518l.477.347a.8.8,0,0,1,.019,1.106l-3.5,4.812A.8.8,0,0,1,688.647,405.484Zm3.146,11.211-1.048-1,1.033-1.081,1.048,1ZM703.607,409l-7.116-.642c-.179-.011-.4-.037-.653-.078s-.526-.094-.811-.161l6.023,4.389-.71.976-7.348-5.355.881-1.208,7.094.627q.289.031.669.089t.806.157l-6.013-4.381.71-.976,7.348,5.355Zm2.132-3.284-7.751-4.752.679-1.107,7.751,4.751Zm4.174-7.774a4.873,4.873,0,0,1-1.4,2.76,3.3,3.3,0,0,1-1.227.745,3.442,3.442,0,0,1-1.472.143,4.914,4.914,0,0,1-1.679-.536l-1.226-.622a4.926,4.926,0,0,1-1.436-1.044,3.428,3.428,0,0,1-.754-1.272,3.2,3.2,0,0,1-.117-1.427,5.01,5.01,0,0,1,1.4-2.766,3.224,3.224,0,0,1,1.218-.743,3.462,3.462,0,0,1,1.473-.143,4.932,4.932,0,0,1,1.69.542l1.226.621a4.929,4.929,0,0,1,1.425,1.039,3.441,3.441,0,0,1,.754,1.272A3.286,3.286,0,0,1,709.913,397.943Zm3.153-6.748a5.707,5.707,0,0,1-.817,1.53,4.7,4.7,0,0,1-1.18,1.058l-.724-.982a3.622,3.622,0,0,0,1.053-.917,4.508,4.508,0,0,0,.58-1.093,2.677,2.677,0,0,0,.179-.989,2.074,2.074,0,0,0-.234-.927,2.51,2.51,0,0,0-.695-.81,4.4,4.4,0,0,0-1.2-.642l-.981-.364a4.392,4.392,0,0,0-1.329-.3,2.5,2.5,0,0,0-1.055.161,2.072,2.072,0,0,0-.782.549,2.714,2.714,0,0,0-.51.867,4.784,4.784,0,0,0-.286,1.349,3.164,3.164,0,0,0,.267,1.455l-1.145.33a3.938,3.938,0,0,1-.313-1.766,6.212,6.212,0,0,1,.389-1.772,4.61,4.61,0,0,1,.769-1.365,3.1,3.1,0,0,1,1.119-.858,3.449,3.449,0,0,1,1.439-.291,5.062,5.062,0,0,1,1.74.352l1.288.478a5.018,5.018,0,0,1,1.536.864,3.419,3.419,0,0,1,.9,1.166,3.243,3.243,0,0,1,.291,1.388A4.443,4.443,0,0,1,713.066,391.2Zm2.742-9.32a4.035,4.035,0,0,1-1.691,2.633,3.9,3.9,0,0,1-3.052.278l-1.26-.315a3.962,3.962,0,0,1-2.57-1.655,4.022,4.022,0,0,1-.248-3.144l.76-3.041,8.821,2.2Zm1.754-8.457a5.749,5.749,0,0,1-.412,1.533,4.818,4.818,0,0,1-.763,1.219l-.88-.741a3.879,3.879,0,0,0,.631-.987,4.408,4.408,0,0,0,.31-1.162,2.409,2.409,0,0,0-.183-1.461,1.111,1.111,0,0,0-.841-.65l-.2-.027a.958.958,0,0,0-.551.071,1.248,1.248,0,0,0-.437.364,2.976,2.976,0,0,0-.373.638q-.174.385-.356.891a8.436,8.436,0,0,1-.628,1.39,3.375,3.375,0,0,1-.682.854,1.833,1.833,0,0,1-.768.406,2.4,2.4,0,0,1-.87.034l-.225-.031a2.257,2.257,0,0,1-1.053-.4,2.366,2.366,0,0,1-.686-.8,3.121,3.121,0,0,1-.331-1.124,5.465,5.465,0,0,1,.025-1.353,5.446,5.446,0,0,1,1.5-3.118l.924.788a4.853,4.853,0,0,0-.443.548,6.129,6.129,0,0,0-.4.648,4.873,4.873,0,0,0-.3.68,3.238,3.238,0,0,0-.164.646,2.44,2.44,0,0,0,.184,1.553,1.15,1.15,0,0,0,.856.626l.2.027a1.252,1.252,0,0,0,.539-.033,1.033,1.033,0,0,0,.447-.3,2.779,2.779,0,0,0,.406-.594,6.454,6.454,0,0,0,.386-.927q.228-.643.486-1.191a3.833,3.833,0,0,1,.6-.925,2.116,2.116,0,0,1,.788-.561,2.05,2.05,0,0,1,1.064-.1l.225.03a2.15,2.15,0,0,1,1.554,1.018,3.14,3.14,0,0,1,.407,1.081A4.4,4.4,0,0,1,717.562,373.418Zm-5.063-9.771.025-1.495,1.45.024-.025,1.494Zm4.7-9.52-1.045-.482a3.882,3.882,0,0,0,.347-1.118,4.419,4.419,0,0,0-.009-1.2,2.415,2.415,0,0,0-.563-1.36,1.108,1.108,0,0,0-.983-.4l-.2.027a.952.952,0,0,0-.512.214,1.251,1.251,0,0,0-.326.467,3.041,3.041,0,0,0-.191.714c-.043.279-.078.6-.107.954a8.331,8.331,0,0,1-.237,1.507,3.373,3.373,0,0,1-.432,1,1.831,1.831,0,0,1-.633.595,2.364,2.364,0,0,1-.83.263l-.225.03a2.242,2.242,0,0,1-1.121-.108,2.358,2.358,0,0,1-.874-.591,3.127,3.127,0,0,1-.617-.995,5.492,5.492,0,0,1-.335-1.312,5.446,5.446,0,0,1,.626-3.4l1.1.515a4.789,4.789,0,0,0-.282.646,6.241,6.241,0,0,0-.214.73,5.072,5.072,0,0,0-.112.736,3.306,3.306,0,0,0,.013.667,2.454,2.454,0,0,0,.589,1.449,1.153,1.153,0,0,0,.992.377l.2-.027a1.261,1.261,0,0,0,.511-.174,1.049,1.049,0,0,0,.353-.4,2.8,2.8,0,0,0,.233-.68,6.458,6.458,0,0,0,.127-1,12.661,12.661,0,0,1,.154-1.277,3.82,3.82,0,0,1,.33-1.05,2.118,2.118,0,0,1,.612-.75,2.059,2.059,0,0,1,1-.379l.225-.03a2.149,2.149,0,0,1,1.768.57,3.174,3.174,0,0,1,.679.935,4.416,4.416,0,0,1,.4,1.382,5.749,5.749,0,0,1,.009,1.587A4.832,4.832,0,0,1,717.2,354.127Z" fill="#fff"/>
      <path id="Path_1359" data-name="Path 1359" d="M676.384,294.1q.05-.292.087-.511c.026-.146.052-.287.08-.421s.058-.276.089-.423.074-.328.128-.54q-.25.219-.419.376c-.112.1-.219.2-.32.286l-.321.273q-.168.143-.4.329l-1.77,1.431,2.442,1.436Z" fill="#fff"/>
      <path id="Path_1360" data-name="Path 1360" d="M708.028,396.1a4.372,4.372,0,0,0-1.134-.789l-.978-.5a4.393,4.393,0,0,0-1.306-.449,2.5,2.5,0,0,0-1.07.046,2.011,2.011,0,0,0-.834.474,3.113,3.113,0,0,0-.92,1.813,2.032,2.032,0,0,0,.111.953,2.5,2.5,0,0,0,.6.889,4.389,4.389,0,0,0,1.134.789l.978.5a4.423,4.423,0,0,0,1.307.45,2.508,2.508,0,0,0,1.069-.047,2.02,2.02,0,0,0,.834-.473,3.121,3.121,0,0,0,.92-1.813,2.028,2.028,0,0,0-.111-.953A2.5,2.5,0,0,0,708.028,396.1Z" fill="#fff"/>
      <path id="Path_1361" data-name="Path 1361" d="M708.241,381.938a2.243,2.243,0,0,0,.721.755,3.85,3.85,0,0,0,1.225.508l1.138.285a3.882,3.882,0,0,0,1.32.127,2.288,2.288,0,0,0,1-.326,2.15,2.15,0,0,0,.7-.723,3.872,3.872,0,0,0,.429-1.069l.417-1.667-6.68-1.669-.417,1.667a3.9,3.9,0,0,0-.123,1.145A2.179,2.179,0,0,0,708.241,381.938Z" fill="#fff"/>
      <g id="Group_2762" data-name="Group 2762">
        <path id="Path_1362" data-name="Path 1362" d="M627.379,376.607A16.862,16.862,0,1,1,650.5,354.121l-.176.091a16.662,16.662,0,1,0-22.846,22.221Z" fill="#fff"/>
        <path id="Path_1363" data-name="Path 1363" d="M627.388,380.378a20.245,20.245,0,1,1,26.839-26.25l-.184.076A20.047,20.047,0,1,0,627.467,380.2Z" fill="#fff"/>
        <path id="Path_1364" data-name="Path 1364" d="M627.4,387.572a27.221,27.221,0,0,1-13.541-9.633,26.982,26.982,0,0,1,37.923-37.628,27.191,27.191,0,0,1,9.59,13.827l-.191.057a26.785,26.785,0,1,0-33.722,33.187Z" fill="#fff"/>
        <path id="Path_1365" data-name="Path 1365" d="M627.4,391.132a30.6,30.6,0,0,1-15.966-10.738,30.1,30.1,0,0,1-6.327-18.563,30.4,30.4,0,0,1,59.808-7.69l-.193.05a30.2,30.2,0,1,0-37.269,36.749Z" fill="#fff"/>
        <path id="Path_1366" data-name="Path 1366" d="M627.4,394.629a33.946,33.946,0,0,1-18.368-11.811A33.778,33.778,0,0,1,635.5,328.052a33.79,33.79,0,0,1,32.9,26.092l-.193.045a33.583,33.583,0,1,0-40.758,40.247Z" fill="#fff"/>
        <rect id="Rectangle_1448" data-name="Rectangle 1448" width="0.199" height="22.407" transform="translate(645.692 402.904)" fill="#fff"/>
        <rect id="Rectangle_1449" data-name="Rectangle 1449" width="0.199" height="19.91" transform="translate(642.308 405.805)" fill="#fff"/>
        <rect id="Rectangle_1450" data-name="Rectangle 1450" width="0.199" height="3.604" transform="translate(625.391 421.75)" fill="#fff"/>
        <rect id="Rectangle_1451" data-name="Rectangle 1451" width="0.199" height="6.905" transform="translate(628.774 418.81)" fill="#fff"/>
        <rect id="Rectangle_1452" data-name="Rectangle 1452" width="0.199" height="10.287" transform="translate(632.158 415.71)" fill="#fff"/>
        <rect id="Rectangle_1453" data-name="Rectangle 1453" width="0.199" height="16.909" transform="translate(638.925 409.089)" fill="#fff"/>
        <path id="Path_1367" data-name="Path 1367" d="M645.787,403c-3.7-.156-7.776-.235-9.02-.235a41.058,41.058,0,0,1-15.979-3.247,42.9,42.9,0,0,1-13.321-8.823,41.711,41.711,0,0,1-9.125-13.023,38.823,38.823,0,0,1-3.384-15.845,40.5,40.5,0,0,1,69.129-28.69,42.318,42.318,0,0,1,12.362,28.637c.137,4.009.073,7.082.011,10.054l-.02.986-.2,0,.02-.986c.062-2.969.126-6.04-.011-10.043-.773-22.6-18.671-40.3-40.747-40.3a40.393,40.393,0,0,0-40.347,40.347c0,22.083,19.056,40.739,41.611,40.739,1.246,0,5.328.079,9.029.236Z" fill="#fff"/>
        <rect id="Rectangle_1454" data-name="Rectangle 1454" width="22.527" height="0.199" transform="translate(676.34 372.716)" fill="#fff"/>
        <path id="Path_1368" data-name="Path 1368" d="M642.406,405.9c-1.232-.026-2.083-.047-2.839-.065-1.215-.029-2.176-.052-4.066-.08a44.754,44.754,0,0,1-31.059-13A43.86,43.86,0,0,1,635.5,317.9a42.136,42.136,0,0,1,17.151,3.665,45.887,45.887,0,0,1,14.075,9.752c8.28,8.369,13.029,19.42,13.029,30.32v7.793h-.2v-7.793c0-23.194-20.587-43.538-44.056-43.538a43.779,43.779,0,0,0-43.73,43.729c0,24.154,19.209,43.363,43.731,43.731,1.891.028,2.852.051,4.068.081.756.018,1.607.038,2.838.064Z" fill="#fff"/>
        <rect id="Rectangle_1455" data-name="Rectangle 1455" width="19.699" height="0.199" transform="translate(679.658 369.333)" fill="#fff"/>
        <path id="Path_1369" data-name="Path 1369" d="M635.413,409.192l-.622,0c-25.7-.247-46.6-21.492-46.6-47.359A47.311,47.311,0,0,1,635.5,314.518a44.837,44.837,0,0,1,18.614,4.092,50.658,50.658,0,0,1,15.33,10.859c9.031,9.339,13.982,21.486,13.584,33.324,0,0,0,.486.181,3.249l-.2.013c-.178-2.779-.181-3.247-.181-3.265.4-11.789-4.535-23.882-13.529-33.183-9.15-9.463-21.47-14.89-33.8-14.89a47.167,47.167,0,0,0-47.114,47.113c0,25.758,20.817,46.914,46.4,47.16.9.009,1.533,0,2.088-.014.72-.013,1.288-.024,2.148.014l-.009.2c-.853-.037-1.419-.026-2.135-.013C636.465,409.183,636,409.192,635.413,409.192Z" fill="#fff"/>
        <rect id="Rectangle_1456" data-name="Rectangle 1456" width="16.419" height="0.199" transform="translate(683.113 365.949)" fill="#fff"/>
        <path id="Path_1370" data-name="Path 1370" d="M632.247,415.809c-29.924-2.969-50.823-25.166-50.823-53.979a54.079,54.079,0,0,1,108.1-2.553l-.2.009a53.88,53.88,0,0,0-107.7,2.544c0,28.707,20.825,50.823,50.644,53.782Z" fill="#fff"/>
        <rect id="Rectangle_1457" data-name="Rectangle 1457" width="10.331" height="0.199" transform="translate(689.421 359.182)" fill="#fff"/>
        <path id="Path_1371" data-name="Path 1371" d="M628.862,418.909a57.461,57.461,0,1,1,63.8-63.021l-.2.02a57.266,57.266,0,1,0-63.579,62.8Z" fill="#fff"/>
        <rect id="Rectangle_1458" data-name="Rectangle 1458" width="6.969" height="0.199" transform="translate(692.562 355.798)" fill="#fff"/>
        <path id="Path_1372" data-name="Path 1372" d="M625.474,421.848A60.845,60.845,0,1,1,695.637,352.5l-.2.03a60.652,60.652,0,0,0-120.585,9.3,60.406,60.406,0,0,0,50.651,59.822Z" fill="#fff"/>
        <rect id="Rectangle_1459" data-name="Rectangle 1459" width="3.592" height="0.199" transform="translate(695.539 352.415)" fill="#fff"/>
        <path id="Path_1373" data-name="Path 1373" d="M677.692,410.441h-.2v-5.889h5.976v.2h-5.777Z" fill="#fff"/>
      </g>
      <g id="Group_2763" data-name="Group 2763">
        <rect id="Rectangle_1460" data-name="Rectangle 1460" width="0.397" height="50.875" transform="translate(635.201 297.924)" fill="#fff"/>
        <rect id="Rectangle_1461" data-name="Rectangle 1461" width="50.875" height="0.397" transform="translate(644.723 352.578) rotate(-45)" fill="#fff"/>
        <rect id="Rectangle_1462" data-name="Rectangle 1462" width="0.397" height="50.875" transform="translate(589.822 316.885) rotate(-45)" fill="#fff"/>
        <rect id="Rectangle_1463" data-name="Rectangle 1463" width="50.876" height="0.397" transform="translate(571.142 361.984)" fill="#fff"/>
        <rect id="Rectangle_1464" data-name="Rectangle 1464" width="50.876" height="0.397" transform="translate(589.822 407.48) rotate(-45)" fill="#fff"/>
      </g>
      <g id="Group_2764" data-name="Group 2764">
        <path id="Path_1374" data-name="Path 1374" d="M635.538,375.764a13.581,13.581,0,1,1,13.583-13.581A13.6,13.6,0,0,1,635.538,375.764Zm0-26.766a13.184,13.184,0,1,0,13.185,13.185A13.2,13.2,0,0,0,635.538,349Z" fill="#fff"/>
        <path id="Path_1375" data-name="Path 1375" d="M627.378,384.52a23.779,23.779,0,1,1,30.645-30.082l-.376.129a23.381,23.381,0,1,0-30.132,29.579Z" fill="#fff"/>
        <path id="Path_1376" data-name="Path 1376" d="M627.4,398.627a37.3,37.3,0,0,1-29.2-36.445,37.339,37.339,0,0,1,73.87-7.72l-.389.082a36.942,36.942,0,1,0-44.194,43.7Z" fill="#fff"/>
        <path id="Path_1377" data-name="Path 1377" d="M649.743,425.085h-.4V401.549h-22.08v-24.9h22.08V354.3h24.9v22.341h24.028v.4H673.851V354.7H649.743v22.341h-22.08v24.109h22.08Z" fill="#fff"/>
        <path id="Path_1378" data-name="Path 1378" d="M673.834,413.639l-.042-12.488,12.709.034v.4l-12.309-.033.04,12.089Z" fill="#fff"/>
        <rect id="Rectangle_1465" data-name="Rectangle 1465" width="0.397" height="13.731" transform="translate(635.34 412.88)" fill="#fff"/>
        <path id="Path_1379" data-name="Path 1379" d="M635.677,413.079h-.206a50.924,50.924,0,1,1,50.964-50.9c0,.28,0,.56-.008.84l-.4-.006c0-.278.007-.556.007-.834a50.5,50.5,0,1,0-50.566,50.5h.206Z" fill="#fff"/>
        <rect id="Rectangle_1466" data-name="Rectangle 1466" width="13.688" height="0.397" transform="translate(686.091 362.82)" fill="#fff"/>
        <path id="Path_1380" data-name="Path 1380" d="M635.538,426.81a64.425,64.425,0,1,1,25.156-5.079A64.219,64.219,0,0,1,635.538,426.81Zm0-128.857a64.229,64.229,0,1,0,64.23,64.23A64.3,64.3,0,0,0,635.538,297.953Z" fill="#fff"/>
      </g>
      <g id="Group_2767" data-name="Group 2767">
        <path id="Path_1381" data-name="Path 1381" d="M625.47,365.954h0a2.069,2.069,0,0,1,.224-.1,16.988,16.988,0,0,1,3-.741,15.142,15.142,0,0,1,2.572-.525,4.549,4.549,0,0,1-.532,1.684v.177a5.738,5.738,0,0,0,1.637.064c.328-.106.774-1.1.932-1.393.434,0-1.164-.848-1.243-.888,0-.469,1.234-1.9,1.531-2.374a2.428,2.428,0,0,0,.323-1.429,2.517,2.517,0,0,0-.166-1.278,3.83,3.83,0,0,0-1.132-.889q-1.208-.869-2.415-1.731h-.086q-.693.858-1.385,1.709c-.939,1.222-1.887,2.438-2.826,3.657a9.2,9.2,0,0,0-1.522,2.185C624.263,364.486,623.795,366.347,625.47,365.954Z" fill="#fff"/>
        <g id="Group_2766" data-name="Group 2766">
          <path id="Path_1382" data-name="Path 1382" d="M613.239,385.794h0c-.209-.3-1.427-2.16-1.454-2.2-.677-.964-1.358-1.927-2.034-2.89a8.12,8.12,0,0,1-1.141-1.508,2.53,2.53,0,0,1-.023-.883,11.445,11.445,0,0,0,.035-2.813c-.288-1.231-1.227-2.226-1.519-3.476-.237-1.01.166-2.142.047-3.18-.1-.884-.891-1.59-1.171-2.407-.091-.256.019-.529-.028-.789a7.646,7.646,0,0,0-.56-1.929c-.762-.979-1.519-1.957-2.281-2.936.415,0,.667-.579,1.006-.726a7.669,7.669,0,0,1,2.005-.422v.174c-.17,0-.348.233-.442.355-.142,0-.008.315.023.438q.321,1.42.643,2.841c.056.571-.086,1.1-.047,1.68h2.127c-.265-.505-.525-1.011-.789-1.511-.17-.505.264-1.01.256-1.5-.019-.955-.643-1.922-.706-2.924h-.269c0,.146-.153.119-.268.13-.272.02-.4-.2-.52-.4-.139-.273-.285-.544-.423-.817-.083-.489.967-1.144,1.3-1.388.864.051,2.118.177,2.544,1.033a3.644,3.644,0,0,1,.217,1.176c.036.359.205.872,0,1.2-.26.414-.955.674-1.345.928.008.054.011.11.02.165a1.528,1.528,0,0,0,.5.853,1.463,1.463,0,0,0,.713.023h0s.691-.137.843-.2a1.01,1.01,0,0,1,.752-.127.337.337,0,0,1,.049.011,1.557,1.557,0,0,1,.262.091c.787.275,1.573.547,2.361.823.591.2,1.309.063,1.929.225a10.115,10.115,0,0,1,2.04,1.231c.256.134.6.09.8.336a5.661,5.661,0,0,1,.793,1.617,5.841,5.841,0,0,0,1.968-.367c.422-.268.616-1.013.829-1.424q.432-.824.856-1.645c.4-.4.793-.8,1.2-1.192a3.254,3.254,0,0,1,.859-.766c.372-.059.742-.122,1.109-.185.079-.237.158-.477.237-.718.209-.7.517-1.3.663-2.024q.06-2.344.118-4.692a9.461,9.461,0,0,1,1.783-2.509c.336-.434.671-.872,1.007-1.306a6.837,6.837,0,0,1,2.2-1.167,6.6,6.6,0,0,0,1.4-1.239c.19-.194.478-.383.545-.628a2.236,2.236,0,0,0-.446-1.558,21.683,21.683,0,0,0-3.653-2.9c-.529-.131-2.135,1.286-2.652,1.6a7.913,7.913,0,0,1-2.087.615,11.473,11.473,0,0,1-2.75.627,9.25,9.25,0,0,1-1.783-.358,3.775,3.775,0,0,1-1.188-.363c-.291-.261-.585-.52-.877-.781a.122.122,0,0,1-.025-.014,5.855,5.855,0,0,0-1.651-.474c-.33-.042-1-.067-1-.067l-.047-.013c-.11.025-.222.052-.338.082a15.987,15.987,0,0,0-3.436.06,7.842,7.842,0,0,0-2,1.215c-.552.367-1.1.738-1.661,1.1l-2.221,2.186q-1.272,2.1-2.549,4.2c-.15,0-.087.138-.087.264.205,0,.339.257.339.438,0,.588-.765,1.488-.989,2.064q-.321,1.1-.64,2.205c-.209.663-.923,3.638-1.314,3.922a14.448,14.448,0,0,1-3.515.147,1.716,1.716,0,0,0-1.66,1.274h0c-.358,1.009-1.849,2.389-2.458,3.08-.714.806-.6,2.242-.963,3.233-.173.452-.871.607-1.278.745a12.6,12.6,0,0,1-2.048.737,15.464,15.464,0,0,1-3.179-.119,3.439,3.439,0,0,0-1.851.456h0a13.568,13.568,0,0,1-1.861,1.045c-1.657.971-1.807,1.934-2.348,3.6a4.367,4.367,0,0,0-.4,1.528q.223,1.415.442,2.824h.087v.091c.43,0,.95-.825,1.676-.734.687.229,1.373.454,2.06.683a10.309,10.309,0,0,1,1.973.737c.323.379.646.754.974,1.137l.837.784h0s1.376,1.3,1.8,1.18a1.834,1.834,0,0,0,.334-.157c.142.043.284.083.426.126.182.142.324.742.615,1.038q2.1,1.929,4.211,3.847c1.767,1.561,4.213,1.25,6.316,2.134.793.335,1.345,1.317,2.169,1.546.266.02.529.034.793.05.1,0,1.913-.023,2.323-.057h0a6.869,6.869,0,0,0,.85-.1c.243.013.517-.01.781-.008h0s1.789-.122,2.371-.083a12.055,12.055,0,0,0,3.09-.275c.474-.221.77-.8,1.058-1.2.17-.233.43-.482.387-.81C615.129,388.082,613.866,386.766,613.239,385.794Z" fill="#fff"/>
          <path id="Path_1383" data-name="Path 1383" d="M670.132,349.365v.086c-.323,0-.588.4-.9.469a6.33,6.33,0,0,1-1.666-.114v-.087h-.087c0-.45,1.05-1.321,1.039-1.952-.008-.391-.494-.73-.754-.995-.363-.363-.84-1.022-1.306-1.207a3.457,3.457,0,0,0-1.2-.1,9.459,9.459,0,0,1-2.891-.163c-.5-.189-.979-1.282-1.369-1.684a7.152,7.152,0,0,0-1.847-1.251v-.091c-.146,0-.086-.055-.086-.177a11.653,11.653,0,0,1,1.5.177c0-.813-1.176-.678-1.681-.974H658.8v0a4.287,4.287,0,0,0-1,.06,5.691,5.691,0,0,1-1.049.258h0c-.224.009-.459-.033-.688-.019-.49.031-1.207.473-1.479-.174-.442-1.034.686-1.437,1.3-1.8h.086c0-.312-.473-.382-.694-.312a10.531,10.531,0,0,1-.991.446l-.149-.028c-.461-.145-.856-.725-1.211-1.041a4.287,4.287,0,0,0-2.975-.573v-.173h.091c.276-.418.647-.5.982-.8.083-.118.17-.237.256-.355-.3-.043-.607-.082-.907-.126-.209.059-.029.664-.59.867l-.006.006c-.108.046-.389.206-.6.311s-.82.445-.82.445v.178c-.206,0-.592.536-.71.71h-.091v.087c.426,0,1.01-.454,1.507-.529v.174A8.316,8.316,0,0,0,648,340.064c-.126,0,.32.581.442.711,0,.481-1.472,1.847-1.906,2.028-.335.063-.675.122-1.018.185a2.225,2.225,0,0,0-.883.087,2.637,2.637,0,0,0-1.595.62v.09a1.682,1.682,0,0,1-.8-.268h-.087v-.174a5.124,5.124,0,0,0,.706-1.152c.15,0-.237-1.4-.264-1.681h-.178c0,.084-.856.964-.975,1.149h-.09a.62.62,0,0,1,.031.075c.355.911.2.718-.473,1.163-.174.032-.351.06-.529.091a10.24,10.24,0,0,0-3.01.62H637.2c0,1-.347.816-1.151.975v0c-.2.039-.414.128-.7.215a2,2,0,0,0-.6.359,1.439,1.439,0,0,0-.032.226c.2,0,.371.17.536.249q1.113.521,2.226,1.037a3.959,3.959,0,0,1,1.045.573,40.541,40.541,0,0,1,3.417,5.129c-.02.4-.7.619-.939.891h-.091a.236.236,0,0,1,.035.063c.431.746.814,1.523,1.18,2.3.17.362.533.741.541,1.184a1.46,1.46,0,0,1-.513.883c0,.71.6,1.29.536,2.024a4.952,4.952,0,0,1-.623,1.432,22.259,22.259,0,0,0-1.33,3.093c0,.17-.268.395-.335.541a1.965,1.965,0,0,1-.465.75,1.627,1.627,0,0,1-.794.118c-1.037.016-1.866-.1-2.481.718-.142,0-.056.2-.063.348-.031.318-.063.638-.1.958-.193.726-.777,1.7-.371,2.5,0,.2.237.24.265.449a1.616,1.616,0,0,1-1.062,1.763v.087h-.09c0-.335-.276-.477-.4-.729a3.15,3.15,0,0,1-.221-1.657c0-.143-.075-.135-.178-.178v.087c-.114,0-.1.02-.134.107-.079.24-.158.477-.237.713-.3.533-.682.344-.776,1.129.406,0,.627-.371.705-.71h.091c.063.181.123.363.186.544a2.284,2.284,0,0,1-.263,1.215h0s-.322.911.362,1.334v0a.911.911,0,0,1,.28.218.53.53,0,0,1,.086.175,3.268,3.268,0,0,1-.209,1.736c-.769,0-1.318-.222-1.633.039a.646.646,0,0,0-.182.272h4.23a.974.974,0,0,1,.525,0H649.4l.028-22.3h15.248c.021-.094.037-.185.056-.272a3.146,3.146,0,0,1,.3-1,4.138,4.138,0,0,1,1.641-.777,2.58,2.58,0,0,0,.351-.158c.316-.181.4-.6.659-.837.343-.307.876-.2,1.247-.461.43-.47.864-.947,1.294-1.425C670.219,349.435,670.192,349.42,670.132,349.365Z" fill="#fff"/>
          <g id="Group_2765" data-name="Group 2765">
            <path id="Path_1384" data-name="Path 1384" d="M671.853,350.536c.087.01.585-.063.709-.272a3.284,3.284,0,0,0,.1-1.016l0,0c-.011-1.125,1.285-1.849.837-3.074V346h-.087v.086c-.1,0-.978,1.144-1.242,1.331v.085h-.087v-.618c-.063.017-.13.033-.2.049h0c-.641.28-.859,1.256-.859,1.256h0a2.907,2.907,0,0,1-.183.643v.087h.177c0-.126.1-.193.178-.264v-.087h.178c0,.115-.032.087.086.087.059.213.115.422.174.635a3.014,3.014,0,0,1-.174,1.136h.178c0,.1.108.1.211.111Z" fill="#fff"/>
            <path id="Path_1385" data-name="Path 1385" d="M657.573,331.491s.976-.814.47-1.3h0l-.1-.071c-.292-.3-.584-.6-.872-.9a5.155,5.155,0,0,1-1.07-1.3c-.383-.8.091-2.158-.449-2.856a6.722,6.722,0,0,0-1.326-1.066c-1.021-.8-2.044-1.6-3.069-2.4a11.36,11.36,0,0,1-1.476-1.179h-.178c0,.8.974,3.788,1,4.968h0a7.382,7.382,0,0,0,.466,2.081,3.24,3.24,0,0,0,.506.8c.765.683,1.531,1.361,2.292,2.048a16.4,16.4,0,0,0,2.458,2.138c0,.147.056.091.177.091,0-.174.486-.5.628-.612a4.8,4.8,0,0,1,.534-.438Z" fill="#fff"/>
            <path id="Path_1386" data-name="Path 1386" d="M668.848,338.084a5.53,5.53,0,0,0-.879-1.068c-.426-.344-1.022-.364-1.46-.668-.122,0-.091.027-.091-.091.146,0,.312-.355.391-.477.389-.646.08-.886-.106-1.253h0a4.384,4.384,0,0,1-.89-1.457H665.8a.3.3,0,0,0-.01-.056c-.039-.1-.06-.165-.063-.173a5.832,5.832,0,0,0-.369-.565v-.09c-.276,0-.635,1.408-.8,1.681v.091h-.091v-.091c-.185,0-.387-.356-.627-.411-.533-.126-1.271.091-1.764-.126a4.039,4.039,0,0,1-1.069-.852c-.032-.03-.447-.412-.789-.2s-.134.547.076.725h0c.479.4.95.817,1.405,1.245q.72.7,1.443,1.389a13.174,13.174,0,0,1,.862,1.06v0a1.8,1.8,0,0,1,.378.444c.114,0,.087-.031.087.087-.157,0-.39.489-.529.619a1.262,1.262,0,0,0,.32.648,2.087,2.087,0,0,0,.761.8c.55.229,1.172.072,1.61.553a5.191,5.191,0,0,1,.378.474v0s2.566,2.091,2.784,2.266c.058.048.113.1.167.135,0,.118-.031.09.087.09,0-.05.777-.887.888-1.06h.086a.5.5,0,0,0-.039-.072A30.976,30.976,0,0,0,668.848,338.084Z" fill="#fff"/>
            <path id="Path_1387" data-name="Path 1387" d="M676.822,337.4a8.578,8.578,0,0,0,1.075-.866h0s2-1.817,2.232-2.021h0c.524-.482,1.192-.978,1.429-1.263.118,0,.091.028.091-.087-.127,0-.107-.031-.155-.106a14.953,14.953,0,0,0-1.949-2.043q-2.091-2.149-4.186-4.3h0c-.251-.21-.522-.464-.788-.724h-.008v-.007c-.773-.757-1.495-1.573-1.495-1.573h0a28.683,28.683,0,0,1-3.573-3.836c0-.288,0-.576-.007-.869-.044-.962-.028-1.968-.056-2.922a2.366,2.366,0,0,0-.157-1.114,8.577,8.577,0,0,0-1.476-1.6c-.548-.541-1.1-1.081-1.653-1.622-.41-.3-1.061-.055-1.491-.288l-1.547-1.089q-.585-.308-1.183-.615a2.66,2.66,0,0,0-1-.435h-.086c-.028,0-.056,0-.083.009a7.156,7.156,0,0,0-1.622.512q-2.468.906-4.935,1.815c0,.559-.026,1.1-.015,1.635a17.807,17.807,0,0,0,.5,2.368l.014.044.011.032h0c.182.585.292,1.31.391,1.764q.639,2.568,1.282,5.144a6.824,6.824,0,0,0,.473,1.673c0,.241.5.012.6-.031,1.152-.505,2.3-1.015,3.448-1.519a3.366,3.366,0,0,1,1.8-.573c0,.664.757,1.219.607,1.926s-1.5,1.361-1.57,2.067a3.973,3.973,0,0,0,1.1,1.87q2.322,1.32,4.641,2.636v.01c.454.3,1.312.938,1.312.938h0a10.742,10.742,0,0,1,.928.7c.6.434,1.2.872,1.8,1.31.411.387.817.773,1.228,1.164a16.869,16.869,0,0,0,1.743,1.693A4.905,4.905,0,0,0,676.822,337.4Z" fill="#fff"/>
          </g>
        </g>
      </g>
    </g>
  </g>
</svg>
