<svg id="Group_2873" data-name="Group 2873" xmlns="http://www.w3.org/2000/svg" xmlns:xlink="http://www.w3.org/1999/xlink" width="24" height="20" viewBox="0 0 24 20">
  <defs>
    <clipPath id="clip-path">
      <rect id="Rectangle_1475" data-name="Rectangle 1475" width="24" height="20" fill="#fff"/>
    </clipPath>
  </defs>
  <g id="Group_2872" data-name="Group 2872" clip-path="url(#clip-path)">
    <path id="Path_1603" data-name="Path 1603" d="M7.4,7.7A10.768,10.768,0,0,0,4,10a1.273,1.273,0,0,0,1.8,1.8A9,9,0,0,1,9.4,9.6Z" fill="#fff"/>
    <path id="Path_1604" data-name="Path 1604" d="M7.4,13.5a1.273,1.273,0,0,0,1.8,1.8,4.046,4.046,0,0,1,5.6,0,.864.864,0,0,0,.6.3l-4-4A6.824,6.824,0,0,0,7.4,13.5Z" fill="#fff"/>
    <path id="Path_1605" data-name="Path 1605" d="M3.7,4A18.5,18.5,0,0,0,.5,6.5,1.273,1.273,0,0,0,2.3,8.3,15.942,15.942,0,0,1,5.6,5.8Z" fill="#fff"/>
    <path id="Path_1606" data-name="Path 1606" d="M23.5,6.5A16.309,16.309,0,0,0,8.8,2c-.5.2-1.1.3-1.6.5l-2-2A.967.967,0,0,0,3.8.5a.967.967,0,0,0,0,1.4L5.1,3.2l2,1.9L9,7.1l2.2,2.2,2.5,2.5,3.1,3.1,2,2a.967.967,0,0,0,1.4,0,.967.967,0,0,0,0-1.4l-6-6a9.522,9.522,0,0,1,4,2.3,2.01,2.01,0,0,0,.8.4h.1a1.086,1.086,0,0,0,.9-.4A1.268,1.268,0,0,0,20,10a10.9,10.9,0,0,0-6.4-3.2,8.129,8.129,0,0,0-2.2-.1L9.3,4.6a12.252,12.252,0,0,1,1.9-.2,13.9,13.9,0,0,1,10.6,4,1.222,1.222,0,0,0,.9.4,1.086,1.086,0,0,0,.9-.4A1.511,1.511,0,0,0,23.5,6.5Z" fill="#fff"/>
    <path id="Path_1607" data-name="Path 1607" d="M12,16.4a1.7,1.7,0,1,0,1.7,1.7A1.685,1.685,0,0,0,12,16.4Z" fill="#fff"/>
  </g>
</svg>
