<svg id="Group_2894" data-name="Group 2894" xmlns="http://www.w3.org/2000/svg" xmlns:xlink="http://www.w3.org/1999/xlink" width="239" height="239" viewBox="0 0 239 239">
  <defs>
    <clipPath id="clip-path">
      <circle id="Ellipse_71" data-name="Ellipse 71" cx="119.5" cy="119.5" r="119.5" transform="translate(-29.5 -29.5)"/>
    </clipPath>
    <clipPath id="clip-path-2">
      <circle id="Ellipse_72" data-name="Ellipse 72" cx="119.5" cy="119.5" r="119.5"/>
    </clipPath>
  </defs>
  <g id="Group_2875" data-name="Group 2875" transform="translate(29.5 29.5)" clip-path="url(#clip-path)">
    <circle id="Ellipse_69_2_" cx="90" cy="90" r="90" fill="#fff" opacity="0.1"/>
  </g>
  <g id="Group_2893" data-name="Group 2893" clip-path="url(#clip-path-2)">
    <g id="Group_2876" data-name="Group 2876">
      <path id="Path_1608" data-name="Path 1608" d="M159.2,72.2a1,1,0,0,1-1,1h-78a1,1,0,0,1,0-2h78A1,1,0,0,1,159.2,72.2Z" fill="#fff"/>
      <path id="Path_1609" data-name="Path 1609" d="M158.2,178.7H80.5a1,1,0,0,1,0-2h77.7a1,1,0,0,1,0,2Z" fill="#fff"/>
      <path id="Path_1610" data-name="Path 1610" d="M127.2,66.2h-16a1,1,0,1,1,0-2h16a1,1,0,0,1,0,2Z" fill="#fff"/>
      <path id="Path_1611" data-name="Path 1611" d="M138.6,66.2h-5a1,1,0,0,1,0-2h5a1,1,0,0,1,0,2Z" fill="#fff"/>
      <path id="Path_1612" data-name="Path 1612" d="M158.1,59.7a4.8,4.8,0,0,0-3.9-1.9h-70a4.951,4.951,0,0,0-5,5V86.3a15.385,15.385,0,0,1,1.9.8.1.1,0,0,1,.1.1V62.7a3.009,3.009,0,0,1,3-3h70a4.253,4.253,0,0,1,1.1.2,2.726,2.726,0,0,1,1.5,1.3,2.822,2.822,0,0,1,.4,1.5v130a3.009,3.009,0,0,1-3,3h-70a3.076,3.076,0,0,1-3-3V114.2a7.218,7.218,0,0,1-2,.9v77.6a4.951,4.951,0,0,0,5,5h70a4.951,4.951,0,0,0,5-5V62.7A4.617,4.617,0,0,0,158.1,59.7Z" fill="#fff"/>
      <path id="Path_1613" data-name="Path 1613" d="M119.2,182.7a4.5,4.5,0,1,0,4.5,4.5A4.481,4.481,0,0,0,119.2,182.7Zm0,7a2.5,2.5,0,1,1,2.5-2.5A2.476,2.476,0,0,1,119.2,189.7Z" fill="#fff"/>
    </g>
    <g id="Group_2878" data-name="Group 2878">
      <path id="Path_1614" data-name="Path 1614" d="M171,55.8a13.07,13.07,0,0,0-9.9-.3,11.847,11.847,0,0,0-4.4,2.8,10.7,10.7,0,0,0-1.4,1.6,2.726,2.726,0,0,1,1.5,1.3,9.955,9.955,0,0,1,1.4-1.5,11.11,11.11,0,0,1,3.6-2.3,10.723,10.723,0,0,1,3.9-.7,10.488,10.488,0,0,1,4.5,1,10.985,10.985,0,0,1-.5,20.3,10.666,10.666,0,0,1-8.4-.2,8.175,8.175,0,0,1-2-1.2,9.024,9.024,0,0,1-2-1.9v2.8a14.291,14.291,0,0,0,2,1.4l1.2.6a12.3,12.3,0,0,0,5.3,1.1,12.667,12.667,0,0,0,4.7-.9,12.843,12.843,0,0,0,7.2-6.9,12.3,12.3,0,0,0,1.1-5.3A13.311,13.311,0,0,0,171,55.8Z" fill="#fff"/>
      <path id="Path_1615" data-name="Path 1615" d="M181.1,61.8a16.552,16.552,0,0,0-3.4-5.4,16.577,16.577,0,0,0-25.2,1.5,13.735,13.735,0,0,0-1.3,2h1.1a14.29,14.29,0,0,1,1.4-2,15.714,15.714,0,0,1,18.2-4.2,15.535,15.535,0,1,1-12.6,28.4c-.1,0-.1,0-.2-.1a12.811,12.811,0,0,1-2-1.1v1.2a15.106,15.106,0,0,0,1.8.9.349.349,0,0,1,.2.1,16.4,16.4,0,0,0,6.5,1.3,17.128,17.128,0,0,0,5.9-1.1,16.7,16.7,0,0,0,9.6-21.5Z" fill="#fff"/>
      <g id="Group_2877" data-name="Group 2877" opacity="0.5">
        <path id="Path_1616" data-name="Path 1616" d="M179.8,74a15.513,15.513,0,0,1-20.5,7.9c-.1,0-.1,0-.2-.1V79l1.2.6a12.3,12.3,0,0,0,5.3,1.1,12.667,12.667,0,0,0,4.7-.9,12.843,12.843,0,0,0,7.2-6.9,12.3,12.3,0,0,0,1.1-5.3A13.015,13.015,0,0,0,161,55.4a11.847,11.847,0,0,0-4.4,2.8,4.751,4.751,0,0,0-2.4-.6h-.4A15.714,15.714,0,0,1,172,53.4a15.385,15.385,0,0,1,8.2,8.6A16.058,16.058,0,0,1,179.8,74Z" fill="#3f7ed0"/>
      </g>
      <path id="Path_1617" data-name="Path 1617" d="M163.5,72.2h0a7.607,7.607,0,0,1-1.9-1.2h0a5.541,5.541,0,0,1-1.3-1.4h0l1.6-1.4h0a6,6,0,0,0,1.1,1.2h0a4.2,4.2,0,0,0,1.4.9h0c.9.4,1.5.4,1.7-.1h0a.527.527,0,0,0-.2-.7h0a13.258,13.258,0,0,0-1.1-1h0a5.792,5.792,0,0,1-1.4-1.2h0a3.528,3.528,0,0,1-.8-1.3h0a1.873,1.873,0,0,1,.2-1.6h0a2.545,2.545,0,0,1,1.1-1.2h0a3.287,3.287,0,0,1,1.7-.4h0a5.612,5.612,0,0,1,2.3.6h0c.6.3,1.1.6,1.6.9h0a6.789,6.789,0,0,1,1.2,1.2h0L169.1,67h0a4.817,4.817,0,0,0-2.1-1.7h0a3.457,3.457,0,0,0-1.2-.3h0a.675.675,0,0,0-.6.4h0a.663.663,0,0,0,.2.7h0c.2.2.6.5,1.1.9h0a5.792,5.792,0,0,1,1.4,1.2h0a3.528,3.528,0,0,1,.8,1.3h0a1.873,1.873,0,0,1-.2,1.6h0a2.544,2.544,0,0,1-1.1,1.2h0a3.287,3.287,0,0,1-1.7.4h0a4.039,4.039,0,0,1-2.2-.5Z" fill="#fff"/>
    </g>
    <g id="Group_2883" data-name="Group 2883">
      <g id="Group_2879" data-name="Group 2879">
        <path id="Path_1618" data-name="Path 1618" d="M86.1,97a13.5,13.5,0,0,0-4.9-6.9c-.6-.4-1.3-.8-2-1.2a12.97,12.97,0,0,0-5.5-1.2,15.684,15.684,0,0,0-3.7.5,12.92,12.92,0,0,0-8.7,16.2,13.141,13.141,0,0,0,12.5,9.3,15.684,15.684,0,0,0,3.7-.5,13.356,13.356,0,0,0,1.8-.7,8.175,8.175,0,0,0,2-1.2A13.016,13.016,0,0,0,86.1,97Zm-4.9,11.7a9.51,9.51,0,0,1-2,1.5,8.656,8.656,0,0,1-2.4,1,11.01,11.01,0,0,1-6.3-21.1,11.4,11.4,0,0,1,8.7,1,9.51,9.51,0,0,1,2,1.5,10.692,10.692,0,0,1,3,4.9A11.174,11.174,0,0,1,81.2,108.7Z" fill="#fff"/>
      </g>
      <g id="Group_2881" data-name="Group 2881">
        <path id="Path_1619" data-name="Path 1619" d="M89.5,96a16.589,16.589,0,0,0-8-9.8c-.1-.1-.2-.1-.3-.2a12.147,12.147,0,0,0-2-.9A16.176,16.176,0,0,0,69,84.8a16.494,16.494,0,0,0,4.7,32.3,15.31,15.31,0,0,0,4.7-.7c.3-.1.5-.2.8-.3a12.147,12.147,0,0,0,2-.9,16.085,16.085,0,0,0,7-6.9A15.448,15.448,0,0,0,89.5,96Zm-2.2,12.1a15.815,15.815,0,0,1-6.1,6.2,7.218,7.218,0,0,1-2,.9c-.4.1-.7.3-1.1.4a15.5,15.5,0,0,1-8.9-29.7,17.5,17.5,0,0,1,4.4-.7,14.874,14.874,0,0,1,5.5,1A15.385,15.385,0,0,1,81,87a.1.1,0,0,1,.1.1,15.755,15.755,0,0,1,6.2,21Z" fill="#fff"/>
        <g id="Group_2880" data-name="Group 2880" opacity="0.5">
          <path id="Path_1620" data-name="Path 1620" d="M88.5,96.3a15.466,15.466,0,0,0-7.3-9.1.1.1,0,0,1-.1-.1,10.837,10.837,0,0,0-1.9-.8,14.874,14.874,0,0,0-5.5-1,13.082,13.082,0,0,0-4.4.7,15.5,15.5,0,0,0,8.9,29.7,4.874,4.874,0,0,0,1.1-.4c.7-.3,1.4-.6,2-.9a14.6,14.6,0,0,0,6.1-6.2A15.955,15.955,0,0,0,88.5,96.3Zm-7.3,15c-.6.4-1.3.8-2,1.2a13.354,13.354,0,0,1-1.8.7,11.8,11.8,0,0,1-3.7.5,13.031,13.031,0,0,1-3.8-25.5,11.8,11.8,0,0,1,3.7-.5,12.97,12.97,0,0,1,5.5,1.2,8.175,8.175,0,0,1,2,1.2A12.451,12.451,0,0,1,86,97,12.713,12.713,0,0,1,81.2,111.3Z" fill="#3f7ed0"/>
        </g>
      </g>
      <g id="Group_2882" data-name="Group 2882">
        <path id="Path_1621" data-name="Path 1621" d="M78,102.6l-3.6,1.1-.8-7.8-2.4.7,1,10,5.9-1.8Z" fill="#fff"/>
      </g>
    </g>
    <g id="Group_2886" data-name="Group 2886">
      <path id="Path_1622" data-name="Path 1622" d="M186.5,155.2a13,13,0,1,0-10,24,12.407,12.407,0,0,0,5,1,12.994,12.994,0,0,0,12-8,12.407,12.407,0,0,0,1-5A12.994,12.994,0,0,0,186.5,155.2Zm5.2,16.2a11,11,0,0,1-20.3-8.5,11.175,11.175,0,0,1,10.2-6.8,12.5,12.5,0,0,1,4.2.8A11.306,11.306,0,0,1,191.7,171.4Z" fill="#fff"/>
      <path id="Path_1623" data-name="Path 1623" d="M187.9,152a16.519,16.519,0,0,0-12.7,30.5,15.807,15.807,0,0,0,6.3,1.3,16.554,16.554,0,0,0,15.3-10.2,15.807,15.807,0,0,0,1.3-6.3A16.661,16.661,0,0,0,187.9,152Zm7.9,21.1a15.535,15.535,0,1,1-28.7-11.9,15.465,15.465,0,0,1,14.3-9.5,15.181,15.181,0,0,1,5.9,1.2A15.363,15.363,0,0,1,195.8,173.1Z" fill="#fff"/>
      <g id="Group_2884" data-name="Group 2884" opacity="0.5">
        <path id="Path_1624" data-name="Path 1624" d="M187.5,152.9a15.181,15.181,0,0,0-5.9-1.2A15.5,15.5,0,1,0,196,173.1,15.7,15.7,0,0,0,187.5,152.9Zm6,19.3a12.994,12.994,0,0,1-12,8,12.75,12.75,0,0,1-5-1,13,13,0,1,1,18-12A12.407,12.407,0,0,1,193.5,172.2Z" fill="#3f7ed0"/>
      </g>
      <g id="Group_2885" data-name="Group 2885">
        <path id="Path_1625" data-name="Path 1625" d="M182.2,165.4l-4.1.4,2.7,3.2,4.1-.4Z" fill="#fff"/>
        <path id="Path_1626" data-name="Path 1626" d="M177.8,166.5l1.4,6.2,5.4-3.4-4.2.6Z" fill="#fff"/>
        <path id="Path_1627" data-name="Path 1627" d="M185.2,167.9l-1.4-6.2-5.4,3.4,4.2-.6Z" fill="#fff"/>
      </g>
    </g>
    <path id="Path_1628" data-name="Path 1628" d="M211.5,102.7h-30a2,2,0,1,1,0-4h30a2,2,0,0,1,0,4Z" fill="#fff"/>
    <path id="Path_1629" data-name="Path 1629" d="M90.2,155.7H68.5a2,2,0,0,1,0-4H90.2a2,2,0,0,1,0,4Z" fill="#fff"/>
    <path id="Path_1630" data-name="Path 1630" d="M63.5,182.7h-19a2,2,0,0,1,0-4h19a2,2,0,0,1,0,4Z" fill="#fff"/>
    <path id="Path_1631" data-name="Path 1631" d="M206.5,138.7h-13a2,2,0,0,1,0-4h13a2,2,0,0,1,0,4Z" fill="#fff"/>
    <path id="Path_1632" data-name="Path 1632" d="M58.5,52.7h-30a2,2,0,0,1,0-4h30a2,2,0,0,1,0,4Z" fill="#fff"/>
    <path id="Path_1633" data-name="Path 1633" d="M144.5,42.7h-16a2,2,0,0,1,0-4h16a2,2,0,0,1,0,4Z" fill="#fff"/>
    <path id="Path_1634" data-name="Path 1634" d="M189.5,32.7h-44a2,2,0,1,1,0-4h44a2,2,0,0,1,0,4Z" fill="#fff"/>
    <g id="Group_2892" data-name="Group 2892">
      <g id="Group_2888" data-name="Group 2888">
        <g id="Group_2887" data-name="Group 2887">
          <path id="Path_1635" data-name="Path 1635" d="M135.2,127.6c-.1,0-.1,0-.2-.1a.482.482,0,0,1-.2-.7,3.553,3.553,0,0,0,.2-1,1.76,1.76,0,0,0-.6-1.3,17.169,17.169,0,0,0-4-3.1,14.02,14.02,0,0,0-3-1.5.55.55,0,0,1-.3-.5.472.472,0,0,1,.5-.5h.2a18.185,18.185,0,0,1,3.1,1.6,18.571,18.571,0,0,1,4.1,3.3,3.379,3.379,0,0,1,.9,1.9,4.013,4.013,0,0,1-.3,1.5A.366.366,0,0,1,135.2,127.6Z" fill="#fff"/>
          <path id="Path_1636" data-name="Path 1636" d="M105.4,129a2.97,2.97,0,0,1-2.1-5.1,23.022,23.022,0,0,1,3.4-2.8l.9-.6a.515.515,0,0,1,.5.9l-.9.6a21.585,21.585,0,0,0-3.3,2.7,1.933,1.933,0,0,0,0,2.8,1.933,1.933,0,0,0,2.8,0,15.557,15.557,0,0,1,3.5-2.7,4.671,4.671,0,0,1,1-.5.618.618,0,0,1,.7.2.663.663,0,0,1-.2.7c-.3.2-.6.3-.9.5a16.436,16.436,0,0,0-3.3,2.6A3.771,3.771,0,0,1,105.4,129Z" fill="#fff"/>
          <path id="Path_1637" data-name="Path 1637" d="M112.1,135.7a2.878,2.878,0,0,1-2.1-.9,2.988,2.988,0,0,1,0-4.2,11.83,11.83,0,0,1,3.7-2.6c.4-.2.7-.3,1.1-.5a.474.474,0,0,1,.3.9c-.3.1-.7.3-1,.4a11.645,11.645,0,0,0-3.4,2.4,1.933,1.933,0,0,0,0,2.8,2.128,2.128,0,0,0,2.8,0,7.808,7.808,0,0,1,4.2-2.2,7.568,7.568,0,0,1,1.5-.1.5.5,0,1,1,0,1,6.151,6.151,0,0,0-1.3.1,6.763,6.763,0,0,0-3.7,2A2.878,2.878,0,0,1,112.1,135.7Z" fill="#fff"/>
          <path id="Path_1638" data-name="Path 1638" d="M119.2,143.6a3.8,3.8,0,1,1,3.8-3.8A3.8,3.8,0,0,1,119.2,143.6Zm0-6.5a2.8,2.8,0,0,0-2.8,2.8,2.8,2.8,0,1,0,5.6,0A2.8,2.8,0,0,0,119.2,137.1Z" fill="#fff"/>
          <path id="Path_1639" data-name="Path 1639" d="M98.7,122.3a3,3,0,0,1-2.1-5.1,42.828,42.828,0,0,1,3.3-2.9,5.5,5.5,0,0,0,.9-.7.523.523,0,0,1,.8.4c0,.2-.1.4-.3.4-.3.2-.5.4-.8.6a26.7,26.7,0,0,0-3.2,2.8,1.933,1.933,0,0,0,0,2.8,1.933,1.933,0,0,0,2.8,0,22.2,22.2,0,0,1,3.3-2.8l.9-.6a.515.515,0,0,1,.5.9l-.9.6a26.924,26.924,0,0,0-3.2,2.7A2.665,2.665,0,0,1,98.7,122.3Z" fill="#fff"/>
          <path id="Path_1640" data-name="Path 1640" d="M139.7,122.3a2.878,2.878,0,0,1-2.1-.9,25.8,25.8,0,0,0-14.6-7.3c-.5-.1-1.1-.1-1.6-.2a.5.5,0,0,1,0-1,9.852,9.852,0,0,1,1.7.2,26.631,26.631,0,0,1,15.2,7.6,1.933,1.933,0,0,0,2.8,0,1.933,1.933,0,0,0,0-2.8,30.8,30.8,0,0,0-23.2-9,6.6,6.6,0,0,0-1.4.1.458.458,0,0,1-.5-.4c0-.2.2-.5.4-.5a7.084,7.084,0,0,1,1.4-.1,31.853,31.853,0,0,1,23.9,9.3,2.9,2.9,0,0,1,0,4.2A2.629,2.629,0,0,1,139.7,122.3Z" fill="#fff"/>
        </g>
      </g>
      <g id="Group_2890" data-name="Group 2890">
        <g id="Group_2889" data-name="Group 2889">
          <path id="Path_1641" data-name="Path 1641" d="M137.6,135.1l-32.3-32.3a3.536,3.536,0,0,0-5,5l32.3,32.3a3.536,3.536,0,0,0,5-5Zm-.8,4.3a2.606,2.606,0,0,1-3.5,0L101,107.1a2.342,2.342,0,0,1-.7-1.7,2.875,2.875,0,0,1,.7-1.8,2.41,2.41,0,0,1,1.8-.7,2.193,2.193,0,0,1,1.7.7l32.3,32.3A2.416,2.416,0,0,1,136.8,139.4Z" fill="#fff"/>
        </g>
      </g>
      <g id="Group_2891" data-name="Group 2891" opacity="0.5">
        <path id="Path_1642" data-name="Path 1642" d="M136.8,139.4a2.606,2.606,0,0,1-3.5,0L101,107.1a2.342,2.342,0,0,1-.7-1.7,2.875,2.875,0,0,1,.7-1.8,2.41,2.41,0,0,1,1.8-.7,2.193,2.193,0,0,1,1.7.7l32.3,32.3A2.416,2.416,0,0,1,136.8,139.4Z" fill="#3f7ed0"/>
      </g>
    </g>
  </g>
</svg>
