<svg xmlns="http://www.w3.org/2000/svg" xmlns:xlink="http://www.w3.org/1999/xlink" width="239" height="239" viewBox="0 0 239 239">
  <defs>
    <clipPath id="clip-path">
      <circle id="Ellipse_69" data-name="Ellipse 69" cx="119.5" cy="119.5" r="119.5" transform="translate(1139.71 -41.5)" fill="none"/>
    </clipPath>
  </defs>
  <g id="Group_2847" data-name="Group 2847" transform="translate(-1139.71 41.5)" clip-path="url(#clip-path)">
    <circle id="Ellipse_69-2" data-name="Ellipse 69" cx="90" cy="90" r="90" transform="translate(1169.21 -12)" fill="#fff" opacity="0.1"/>
    <g id="Group_2846" data-name="Group 2846">
      <path id="Path_1554" data-name="Path 1554" d="M1251.21,25.147h16a1,1,0,0,0,0-2h-16a1,1,0,0,0,0,2Z" fill="#fff"/>
      <path id="Path_1555" data-name="Path 1555" d="M1273.657,25.147h5a1,1,0,0,0,0-2h-5a1,1,0,0,0,0,2Z" fill="#fff"/>
      <path id="Path_1556" data-name="Path 1556" d="M1259.21,141.65a4.5,4.5,0,1,0,4.5,4.5A4.507,4.507,0,0,0,1259.21,141.65Zm0,7a2.5,2.5,0,1,1,2.5-2.5A2.5,2.5,0,0,1,1259.21,148.65Z" fill="#fff"/>
      <path id="Path_1557" data-name="Path 1557" d="M1353.1,57.647h-30a2,2,0,0,0,0,4h30a2,2,0,0,0,0-4Z" fill="#fff"/>
      <path id="Path_1558" data-name="Path 1558" d="M1205.1,137.647h-19a2,2,0,0,0,0,4h19a2,2,0,0,0,0-4Z" fill="#fff"/>
      <path id="Path_1559" data-name="Path 1559" d="M1345,79.5a2,2,0,0,0,0-4h-13a2,2,0,0,0,0,4Z" fill="#fff"/>
      <path id="Path_1560" data-name="Path 1560" d="M1180.1,57.647h-30a2,2,0,0,0,0,4h30a2,2,0,0,0,0-4Z" fill="#fff"/>
      <path id="Path_1561" data-name="Path 1561" d="M1270.1,1.647h16a2,2,0,0,0,2-2,2,2,0,0,0-2-2h-16a2,2,0,0,0-2,2A2,2,0,0,0,1270.1,1.647Z" fill="#fff"/>
      <path id="Path_1562" data-name="Path 1562" d="M1297.1,1.647h44a2,2,0,0,0,2-2,2,2,0,0,0-2-2h-44a2,2,0,0,0-2,2A2,2,0,0,0,1297.1,1.647Z" fill="#fff"/>
      <path id="Path_1563" data-name="Path 1563" d="M1270.2,74.54l-3.69-3.69a1.047,1.047,0,0,0-1.42,0l-7.93,7.94-3.84-3.84a1.008,1.008,0,0,0-1.42,0l-3.68,3.68a1.008,1.008,0,0,0,0,1.42l8.23,8.24a1.014,1.014,0,0,0,1.42,0l12.33-12.33A1.008,1.008,0,0,0,1270.2,74.54Zm-13.04,11.63-6.82-6.83,2.27-2.27,3.84,3.84a1.008,1.008,0,0,0,1.42,0l7.93-7.94,2.28,2.28Z" fill="#fff"/>
      <path id="Path_1564" data-name="Path 1564" d="M1347.82,115.65h-5V100.74a6.094,6.094,0,0,0-6.09-6.09h-7.76a16.458,16.458,0,0,0-10.86-7.84,16.055,16.055,0,0,0-4.84-.29,16.5,16.5,0,0,0-14.06-17.89V26.25h7.93L1318,37.1a.469.469,0,0,0,.35.15h10a6.519,6.519,0,1,0,.08-1h-9.87L1307.7,25.4a.469.469,0,0,0-.35-.15h-8.14v-3.6a5,5,0,0,0-5-5H1238.6V3a6.452,6.452,0,0,0,4.59-1.91,6.452,6.452,0,0,0,1.91-4.59,6.513,6.513,0,0,0-6.5-6.5,6.506,6.506,0,0,0-6.5,6.5,6.5,6.5,0,0,0,5.5,6.42V16.65h-13.39a5,5,0,0,0-5,5V63.28a.445.445,0,0,0-.21.12l-10.86,10.85h-11.87a6.485,6.485,0,1,0,.08,1h12a.469.469,0,0,0,.35-.15l10.51-10.5v41.05H1203.1a2,2,0,0,0,0,4h16.11v42a5,5,0,0,0,5,5h107.61a11.007,11.007,0,0,0,11-11v-10h5a1,1,0,0,0,1-1v-18A.99.99,0,0,0,1347.82,115.65Zm-12.97-83.9a5.5,5.5,0,1,1-5.5,5.5A5.51,5.51,0,0,1,1334.85,31.75Zm-145,49a5.5,5.5,0,1,1,5.5-5.5A5.5,5.5,0,0,1,1189.85,80.75Zm146.88,15.9a4.1,4.1,0,0,1,4.09,4.09v2.91h-9.62c.01-.25.02-.5.02-.75a16.151,16.151,0,0,0-1.26-6.25Zm-18.82-8.86a15.375,15.375,0,0,1,10.18,7.34c.14.25.28.5.41.75s.25.51.37.76a15.337,15.337,0,0,1,1.33,7.01h-2.5a13.017,13.017,0,0,0-10.3-13.41,12.791,12.791,0,0,0-6.18.21,13.017,13.017,0,0,0-6.81,4.59,12.792,12.792,0,0,0-2.19,4.34c-.09.29-.16.59-.23.9a13.159,13.159,0,0,0-.26,3.37h-2.49c-.01-.24-.02-.48-.02-.71a14.041,14.041,0,0,1,.15-2.05,10.858,10.858,0,0,1,.18-1.12,15.988,15.988,0,0,1,.66-2.26h.01a7.867,7.867,0,0,1,.32-.8c.11-.27.23-.51.36-.76.01-.02.03-.05.04-.07a15.406,15.406,0,0,1,6.86-6.78c.25-.13.51-.25.77-.36s.52-.22.79-.32a14.926,14.926,0,0,1,3.41-.84A15.32,15.32,0,0,1,1317.91,87.79Zm-3.37,10.41-2.27,5.45h-8.53a10.442,10.442,0,0,1,.21-2.95c.05-.25.12-.51.19-.77a10.98,10.98,0,0,1,7.62-7.56,10.989,10.989,0,0,1,13.93,11.28h-10.78l2.05-4.94Zm-15.78-2.41c-.2.04-.41.06-.67.1a11,11,0,0,1-3.16-21.76,11.353,11.353,0,0,1,3.08-.11c.03,0,.06.01.09.01a11.08,11.08,0,0,1,9.58,9.01,10.936,10.936,0,0,1-.27,4.96.627.627,0,0,0-.03.19,16.56,16.56,0,0,0-7.33,7.22l-.06.12a.987.987,0,0,0-.17.02A10.1,10.1,0,0,1,1298.76,95.79Zm-.59-26.27c.35.03.7.07,1.04.13a15.517,15.517,0,0,1,12.9,12.61,15.8,15.8,0,0,1,.14,4.39,14.3,14.3,0,0,0-2.62.63,12.371,12.371,0,0,0,.01-4.58,13.082,13.082,0,0,0-10.43-10.52c-.29-.05-.59-.1-.89-.13a10.355,10.355,0,0,0-1.11-.08,12.276,12.276,0,0,0-2.63.2,13,13,0,0,0-3.65,24.37,2.388,2.388,0,0,0,.23.11,12.843,12.843,0,0,0,5.66,1.31,11.823,11.823,0,0,0,1.57-.1c.22-.03.44-.05.67-.09a14.864,14.864,0,0,0-.49,1.8c-.05.27-.11.54-.14.81a2.064,2.064,0,0,1-.26.03,15.634,15.634,0,0,1-12.87-5.09c-.19-.22-.38-.44-.56-.67a15.576,15.576,0,0,1-2.73-5.15v-.01c-.09-.31-.17-.62-.25-.93v-.05c-.07-.26-.13-.53-.18-.82v-.03a15.372,15.372,0,0,1,2.2-11.03c.15-.24.31-.48.48-.71.2-.28.4-.55.62-.81a15.368,15.368,0,0,1,9.26-5.41,15.125,15.125,0,0,1,3.07-.23C1297.53,69.47,1297.85,69.49,1298.17,69.52Zm-15.22,6.54a16.386,16.386,0,0,0-2.35,11.77c0,.02.01.03.01.05a1.094,1.094,0,0,0-.29.44,30.554,30.554,0,0,1-3.2,6.33h-2.2a6.1,6.1,0,0,0-6.1,6.09v2.13a42.8,42.8,0,0,1-9.61,4.72c-24.46-8.65-24.08-28.53-23.78-44.52.03-1.39.06-2.74.07-4.06,9.72-.18,17.3-3.05,23.71-8.98,6.41,5.93,13.99,8.8,23.71,8.98.01,1.33.04,2.69.07,4.09.07,4.04.15,8.22-.14,12.46A.938.938,0,0,0,1282.95,76.06Zm-1.51,14.82a16.031,16.031,0,0,0,2.05,3.77h-4A30.476,30.476,0,0,0,1281.44,90.88Zm-10.62,9.86a4.1,4.1,0,0,1,4.1-4.09h10.26a16.69,16.69,0,0,0,11.72,4.81c.46,0,.93-.02,1.4-.06a16.79,16.79,0,0,0-.08,2.25h-27.4ZM1233.1-3.5a5.5,5.5,0,0,1,5.5-5.5,5.51,5.51,0,0,1,5.5,5.5,5.51,5.51,0,0,1-5.5,5.5A5.5,5.5,0,0,1,1233.1-3.5Zm-11.89,25.15a3.009,3.009,0,0,1,3-3h70a3.009,3.009,0,0,1,3,3v8.5h-76Zm0,88h3.59a2,2,0,0,0,0-4h-3.59V32.15h76V68.47a15.487,15.487,0,0,0-3.25.25,16.45,16.45,0,0,0-8.99,4.78c.14-3.56.08-7.05.02-10.44-.04-1.73-.07-3.42-.07-5.04a1,1,0,0,0-1-1c-10.01,0-17.64-2.89-24.01-9.09a1.022,1.022,0,0,0-1.4,0c-6.37,6.2-14,9.09-24.01,9.09a1,1,0,0,0-1,1c0,1.61-.03,3.29-.07,5.01-.31,16.71-.71,37.5,25.45,46.57a1.257,1.257,0,0,0,.33.05.96.96,0,0,0,.33-.06,45.473,45.473,0,0,0,9.28-4.35v30.41h-47.61Zm3,45a3.009,3.009,0,0,1-3-3v-14h47.61v8a10.984,10.984,0,0,0,4.68,9Zm116.61-9a9.014,9.014,0,0,1-9,9h-52a9.014,9.014,0,0,1-9-9v-40h70v10h-17a1,1,0,0,0-1,1v18a1,1,0,0,0,1,1h17Zm6-12h-22v-16h22Z" fill="#fff"/>
      <path id="Path_1565" data-name="Path 1565" d="M1312.25,86.65a14.3,14.3,0,0,0-2.62.63,12.371,12.371,0,0,0,.01-4.58,13.082,13.082,0,0,0-10.43-10.52c-.29-.05-.59-.1-.89-.13a10.355,10.355,0,0,0-1.11-.08,12.276,12.276,0,0,0-2.63.2,13,13,0,0,0-3.65,24.37,2.388,2.388,0,0,0,.23.11,12.843,12.843,0,0,0,5.66,1.31,11.823,11.823,0,0,0,1.57-.1c.22-.03.44-.05.67-.09a14.864,14.864,0,0,0-.49,1.8c-.05.27-.11.54-.14.81a2.064,2.064,0,0,1-.26.03,15.634,15.634,0,0,1-12.87-5.09c-.19-.22-.38-.44-.56-.67a15.576,15.576,0,0,1-2.73-5.15v-.01c-.09-.31-.17-.62-.25-.93v-.05c-.07-.26-.13-.53-.18-.82v-.03a15.372,15.372,0,0,1,2.2-11.03c.15-.24.31-.48.48-.71.2-.28.4-.55.62-.81a15.368,15.368,0,0,1,9.26-5.41,15.125,15.125,0,0,1,3.07-.23c.32,0,.64.02.96.05.35.03.7.07,1.04.13a15.517,15.517,0,0,1,12.9,12.61A15.8,15.8,0,0,1,1312.25,86.65Z" fill="#3f7ed0" opacity="0.5"/>
      <path id="Path_1566" data-name="Path 1566" d="M1327.7,103.65a13.017,13.017,0,0,0-10.3-13.41,12.791,12.791,0,0,0-6.18.21,13.017,13.017,0,0,0-6.81,4.59,12.792,12.792,0,0,0-2.19,4.34c-.09.29-.16.59-.23.9a13.159,13.159,0,0,0-.26,3.37h-2.49c-.01-.24-.02-.48-.02-.71a14.041,14.041,0,0,1,.15-2.05,10.858,10.858,0,0,1,.18-1.12,15.988,15.988,0,0,1,.66-2.26h.01a7.867,7.867,0,0,1,.32-.8c.11-.27.23-.51.36-.76.01-.02.03-.05.04-.07a15.406,15.406,0,0,1,6.86-6.78c.25-.13.51-.25.77-.36s.52-.22.79-.32a14.926,14.926,0,0,1,3.41-.84,15.491,15.491,0,0,1,15.32,7.55c.14.25.28.5.41.75s.25.51.37.76a15.337,15.337,0,0,1,1.33,7.01Z" fill="#3f7ed0" opacity="0.5"/>
      <path id="Path_1567" data-name="Path 1567" d="M1299.823,145.647h-6a1,1,0,0,0,0,2h6a1,1,0,0,0,0-2Z" fill="#fff"/>
      <path id="Path_1568" data-name="Path 1568" d="M1284.823,145.647h-6a1,1,0,0,0,0,2h6a1,1,0,0,0,0-2Z" fill="#fff"/>
      <path id="Path_1569" data-name="Path 1569" d="M1314.823,145.647h-6a1,1,0,0,0,0,2h6a1,1,0,0,0,0-2Z" fill="#fff"/>
      <path id="Path_1570" data-name="Path 1570" d="M1331.32,122.4a3.25,3.25,0,1,0,3.25,3.25A3.256,3.256,0,0,0,1331.32,122.4Zm0,4.5a1.25,1.25,0,1,1,1.25-1.25A1.25,1.25,0,0,1,1331.32,126.9Z" fill="#fff"/>
      <path id="Path_1571" data-name="Path 1571" d="M1297.619,89.931a5.741,5.741,0,0,0,2.188-.806,3.222,3.222,0,0,0,1.2-1.331,2.656,2.656,0,0,0,.2-1.6,2.237,2.237,0,0,0-.784-1.445,3.088,3.088,0,0,0-1.356-.61,13.07,13.07,0,0,0-1.847-.173,7.852,7.852,0,0,1-1.438-.143.61.61,0,0,1-.524-.483.707.707,0,0,1,.252-.668,2.194,2.194,0,0,1,1.1-.436,5.514,5.514,0,0,1,2.706.261l.464-2.1a5.605,5.605,0,0,0-1.675-.327,8.157,8.157,0,0,0-1.845.114,5.8,5.8,0,0,0-2.195.8,3.165,3.165,0,0,0-1.2,1.33,2.717,2.717,0,0,0-.193,1.618,2.279,2.279,0,0,0,.779,1.452,3.005,3.005,0,0,0,1.356.617,13.643,13.643,0,0,0,1.841.174,8.149,8.149,0,0,1,1.461.159.637.637,0,0,1,.537.515q.133.757-1.381,1.026a5.58,5.58,0,0,1-1.667.035,5.687,5.687,0,0,1-1.567-.408l-.52,2.094a5.459,5.459,0,0,0,1.86.438A8.735,8.735,0,0,0,1297.619,89.931Z" fill="#fff"/>
    </g>
  </g>
</svg>
