<svg xmlns="http://www.w3.org/2000/svg" xmlns:xlink="http://www.w3.org/1999/xlink" width="239" height="239" viewBox="0 0 239 239">
  <defs>
    <clipPath id="clip-path">
      <circle id="Ellipse_69" data-name="Ellipse 69" cx="119.5" cy="119.5" r="119.5" transform="translate(1590.71 -41.5)" fill="none"/>
    </clipPath>
  </defs>
  <g id="Group_2850" data-name="Group 2850" transform="translate(-1590.71 41.5)" clip-path="url(#clip-path)">
    <circle id="Ellipse_69-2" data-name="Ellipse 69" cx="90" cy="90" r="90" transform="translate(1620.21 -12)" fill="#fff" opacity="0.1"/>
    <g id="Group_2849" data-name="Group 2849">
      <path id="Path_1572" data-name="Path 1572" d="M1702.211,22.8h16a1,1,0,0,0,0-2h-16a1,1,0,0,0,0,2Z" fill="#fff"/>
      <path id="Path_1573" data-name="Path 1573" d="M1724.658,22.8h5a1,1,0,0,0,0-2h-5a1,1,0,0,0,0,2Z" fill="#fff"/>
      <path id="Path_1574" data-name="Path 1574" d="M1710.211,139.3a4.5,4.5,0,1,0,4.5,4.5A4.5,4.5,0,0,0,1710.211,139.3Zm0,7a2.5,2.5,0,1,1,2.5-2.5A2.5,2.5,0,0,1,1710.211,146.3Z" fill="#fff"/>
      <path id="Path_1575" data-name="Path 1575" d="M1801.96,55.3h-30a2,2,0,0,0,0,4h30a2,2,0,0,0,0-4Z" fill="#fff"/>
      <path id="Path_1576" data-name="Path 1576" d="M1626.96,64.3h21.7a2,2,0,0,0,0-4h-21.7a2,2,0,0,0,0,4Z" fill="#fff"/>
      <path id="Path_1577" data-name="Path 1577" d="M1653.96,135.3h-19a2,2,0,0,0,0,4h19a2,2,0,0,0,0-4Z" fill="#fff"/>
      <path id="Path_1578" data-name="Path 1578" d="M1746,.5h13a2,2,0,0,0,2-2,2,2,0,0,0-2-2h-13a2,2,0,0,0-2,2A2,2,0,0,0,1746,.5Z" fill="#fff"/>
      <path id="Path_1579" data-name="Path 1579" d="M1772,18.5h19a2,2,0,0,0,0-4h-19a2,2,0,0,0,0,4Z" fill="#fff"/>
      <path id="Path_1580" data-name="Path 1580" d="M1638,1.5h16a2,2,0,0,0,2-2,2,2,0,0,0-2-2h-16a2,2,0,0,0-2,2A2,2,0,0,0,1638,1.5Z" fill="#fff"/>
      <path id="Path_1581" data-name="Path 1581" d="M1665,1.5h44a2,2,0,0,0,2-2,2,2,0,0,0-2-2h-44a2,2,0,0,0-2,2A2,2,0,0,0,1665,1.5Z" fill="#fff"/>
      <path id="Path_1582" data-name="Path 1582" d="M1717.99,82.36a1.008,1.008,0,0,1,0,1.42,1.024,1.024,0,0,1-.71.29,1.043,1.043,0,0,1-.71-.29l-6.36-6.37-6.36,6.37a1.042,1.042,0,0,1-.71.29,1.024,1.024,0,0,1-.71-.29,1.008,1.008,0,0,1,0-1.42L1708.8,76l-6.37-6.36a1,1,0,0,1,1.42-1.42l6.36,6.37,6.36-6.37a1,1,0,0,1,1.42,1.42L1711.62,76Z" fill="#fff"/>
      <path id="Path_1583" data-name="Path 1583" d="M1724,62.21A19.507,19.507,0,1,0,1729.71,76,19.379,19.379,0,0,0,1724,62.21Zm-1.42,26.16A17.479,17.479,0,1,1,1727.71,76,17.358,17.358,0,0,1,1722.58,88.37Z" fill="#fff"/>
      <path id="Path_1584" data-name="Path 1584" d="M1800.18,113.3h-5V98.4a6.112,6.112,0,0,0-6.1-6.1h-9.33a15.805,15.805,0,0,0-3.32-2.58,16.437,16.437,0,0,0-2.77-1.28c.18-.28.37-.56.53-.85a15.972,15.972,0,0,0-5.76-21.87,16.035,16.035,0,0,0-18.22,1.47V47.95h2.5a.529.529,0,0,0,.35-.15l7.4-7.39h12.06a4.638,4.638,0,1,0-.07-1h-12.2a.518.518,0,0,0-.35.14l-7.4,7.4h-2.29V19.3a5,5,0,0,0-5-5h-70a5,5,0,0,0-5,5v56h-5.05a.469.469,0,0,0-.35.15L1653.95,86.3h-17.88a6.426,6.426,0,1,0,.09,1h18a.469.469,0,0,0,.35-.15l10.86-10.85h4.84v73a5,5,0,0,0,5,5h108.97a11.007,11.007,0,0,0,11-11v-10h5a1,1,0,0,0,1-1v-18A1,1,0,0,0,1800.18,113.3Zm-23.13-77.35a3.61,3.61,0,1,1-3.61,3.61A3.623,3.623,0,0,1,1777.05,35.95ZM1629.66,92.8a5.5,5.5,0,1,1,5.5-5.5A5.51,5.51,0,0,1,1629.66,92.8Zm159.42,1.5a4.106,4.106,0,0,1,4.1,4.1v2.9h-8.98a16.047,16.047,0,0,0-2.77-7Zm-13.65-2.86a14,14,0,0,1,6.73,9.86h-11.32l2.48-4.27a.995.995,0,1,0-1.72-1l-3.08,5.27h-1.99l-4.66-2.71a.995.995,0,0,0-1,1.72l1.69.99h-7.99a13.954,13.954,0,0,1,20.86-9.86Zm-28.69,5.74,3.58-6.14a.995.995,0,1,0-1.72-1l-3.58,6.13-6.15-3.58a1,1,0,0,0-1,1.73l6.14,3.58-1.98,3.4h-10.12a13.976,13.976,0,0,1,20.52-15.85,13.612,13.612,0,0,1,5.52,5.97,16.042,16.042,0,0,0-3.41,4.06,16.277,16.277,0,0,0-1.9,5.14Zm3.1,4.12h-5.5l1.4-2.39Zm.12-31.11a13.992,13.992,0,0,1,22.5,16.4,11.116,11.116,0,0,1-.86,1.29,16.131,16.131,0,0,0-12.02,2.31,15.8,15.8,0,0,0-2.3-3.35l3.46-5.94,6.14,3.58a.9.9,0,0,0,.5.14,1,1,0,0,0,.5-1.86l-6.14-3.58,3.58-6.14a1,1,0,1,0-1.72-1.01l-3.58,6.14-6.14-3.58a1,1,0,0,0-1.01,1.73l6.14,3.58-3.21,5.5a16.072,16.072,0,0,0-2.37-1.68,15.849,15.849,0,0,0-6.89-2.12,13.942,13.942,0,0,1,1.75-9.12A12.218,12.218,0,0,1,1749.96,70.19ZM1672.21,19.3a3.009,3.009,0,0,1,3-3h70a3.009,3.009,0,0,1,3,3v8.5h-76Zm0,10.5h76V69.17a14.658,14.658,0,0,0-1.65,2.31,15.951,15.951,0,0,0-2.05,10.1,15.924,15.924,0,0,0-14.24,10.72h-3a6.1,6.1,0,0,0-6.09,6.1v34.9h-48.97Zm57.63,71.5h-6.66V98.4a4.1,4.1,0,0,1,4.09-4.1h2.44A16.063,16.063,0,0,0,1729.84,101.3Zm-54.63,51a3.009,3.009,0,0,1-3-3v-14h48.97v8a10.976,10.976,0,0,0,4.7,9Zm117.97-9a9.014,9.014,0,0,1-9,9h-52a9.014,9.014,0,0,1-9-9v-40h70v10h-17a1,1,0,0,0-1,1v18a1,1,0,0,0,1,1h17Zm6-12h-22v-16h22Z" fill="#fff"/>
      <path id="Path_1585" data-name="Path 1585" d="M1757.95,91.42a16.042,16.042,0,0,0-3.41,4.06,16.277,16.277,0,0,0-1.9,5.14l-5.9-3.44,3.58-6.14a.995.995,0,1,0-1.72-1l-3.58,6.13-6.15-3.58a1,1,0,0,0-1,1.73l6.14,3.58-1.98,3.4h-10.12a13.976,13.976,0,0,1,20.52-15.85A13.612,13.612,0,0,1,1757.95,91.42Z" fill="#7a7fd7"/>
      <path id="Path_1586" data-name="Path 1586" d="M1773.32,97.03a.995.995,0,1,0-1.72-1l-3.08,5.27h-1.99l-4.66-2.71a.995.995,0,0,0-1,1.72l1.69.99h-7.99a13.968,13.968,0,0,1,27.59,0h-11.32Z" fill="#7a7fd7"/>
      <path id="Path_1587" data-name="Path 1587" d="M1772.46,86.59a11.116,11.116,0,0,1-.86,1.29,16.131,16.131,0,0,0-12.02,2.31,15.8,15.8,0,0,0-2.3-3.35l3.46-5.94,6.14,3.58a.9.9,0,0,0,.5.14,1,1,0,0,0,.5-1.86l-6.14-3.58,3.58-6.14a1,1,0,1,0-1.72-1.01l-3.58,6.14-6.14-3.58a1,1,0,0,0-1.01,1.73l6.14,3.58-3.21,5.5a16.072,16.072,0,0,0-2.37-1.68,15.849,15.849,0,0,0-6.89-2.12,13.942,13.942,0,0,1,1.75-9.12,12.218,12.218,0,0,1,1.67-2.29,13.992,13.992,0,0,1,22.5,16.4Z" fill="#7a7fd7"/>
      <path id="Path_1588" data-name="Path 1588" d="M1722.58,63.63A17.479,17.479,0,1,0,1727.71,76,17.358,17.358,0,0,0,1722.58,63.63Zm-4.59,18.73a1.008,1.008,0,0,1,0,1.42,1.024,1.024,0,0,1-.71.29,1.043,1.043,0,0,1-.71-.29l-6.36-6.37-6.36,6.37a1.042,1.042,0,0,1-.71.29,1.024,1.024,0,0,1-.71-.29,1.008,1.008,0,0,1,0-1.42L1708.8,76l-6.37-6.36a1,1,0,0,1,1.42-1.42l6.36,6.37,6.36-6.37a1,1,0,0,1,1.42,1.42L1711.62,76Z" fill="#7a7fd7"/>
      <path id="Path_1589" data-name="Path 1589" d="M1752.18,143.3h-6a1,1,0,0,0,0,2h6a1,1,0,0,0,0-2Z" fill="#fff"/>
      <path id="Path_1590" data-name="Path 1590" d="M1737.18,143.3h-6a1,1,0,0,0,0,2h6a1,1,0,0,0,0-2Z" fill="#fff"/>
      <path id="Path_1591" data-name="Path 1591" d="M1767.18,143.3h-6a1,1,0,0,0,0,2h6a1,1,0,0,0,0-2Z" fill="#fff"/>
      <path id="Path_1592" data-name="Path 1592" d="M1783.68,126.551a3.25,3.25,0,1,0-3.25-3.25A3.254,3.254,0,0,0,1783.68,126.551Zm0-4.5a1.25,1.25,0,1,1-1.25,1.25A1.251,1.251,0,0,1,1783.68,122.051Z" fill="#fff"/>
    </g>
  </g>
</svg>
