<svg id="Group_2656" data-name="Group 2656" xmlns="http://www.w3.org/2000/svg" width="22" height="22" viewBox="0 0 22 22">
  <path id="Path_1147" data-name="Path 1147" d="M29.587-2.4H24.712a1,1,0,0,0-1,1V3.471a1,1,0,0,0,1,1h4.875a1,1,0,0,0,1-1V-1.4A1,1,0,0,0,29.587-2.4ZM28.212,3.1H26.087a1,1,0,0,1-1-1V-.029a1,1,0,0,1,1-1h2.125a1,1,0,0,1,1,1V2.1A1,1,0,0,1,28.212,3.1Z" transform="translate(-23.712 2.404)" fill="#519bfc"/>
  <rect id="Rectangle_745" data-name="Rectangle 745" width="1.375" height="1.375" transform="translate(2.75 2.75)" fill="#519bfc"/>
  <path id="Path_1148" data-name="Path 1148" d="M38.837-1.4V3.471a1,1,0,0,0,1,1h4.875a1,1,0,0,0,1-1V-1.4a1,1,0,0,0-1-1H39.837A1,1,0,0,0,38.837-1.4Zm4.5,4.5H41.212a1,1,0,0,1-1-1V-.029a1,1,0,0,1,1-1h2.125a1,1,0,0,1,1,1V2.1A1,1,0,0,1,43.337,3.1Z" transform="translate(-23.712 2.404)" fill="#519bfc"/>
  <rect id="Rectangle_746" data-name="Rectangle 746" width="1.375" height="1.375" transform="translate(17.875 2.75)" fill="#519bfc"/>
  <path id="Path_1149" data-name="Path 1149" d="M24.712,19.6h4.875a1,1,0,0,0,1-1V13.721a1,1,0,0,0-1-1H24.712a1,1,0,0,0-1,1V18.6A1,1,0,0,0,24.712,19.6Zm1.375-5.5h2.125a1,1,0,0,1,1,1v2.125a1,1,0,0,1-1,1H26.087a1,1,0,0,1-1-1V15.1A1,1,0,0,1,26.087,14.1Z" transform="translate(-23.712 2.404)" fill="#519bfc"/>
  <rect id="Rectangle_747" data-name="Rectangle 747" width="1.375" height="1.375" transform="translate(2.75 17.875)" fill="#519bfc"/>
  <rect id="Rectangle_748" data-name="Rectangle 748" width="2.75" height="1.375" transform="translate(11 0)" fill="#519bfc"/>
  <path id="Path_1150" data-name="Path 1150" d="M34.712,3.1h1.375V1.721h1.375V.346H33.337V-1.029H31.962v2.75h2.75Z" transform="translate(-23.712 2.404)" fill="#519bfc"/>
  <rect id="Rectangle_749" data-name="Rectangle 749" width="1.375" height="1.375" transform="translate(8.25 5.5)" fill="#519bfc"/>
  <path id="Path_1151" data-name="Path 1151" d="M37.462,4.471H36.087V5.846H31.962V7.221h4.5a1,1,0,0,0,1-1Z" transform="translate(-23.712 2.404)" fill="#519bfc"/>
  <path id="Path_1152" data-name="Path 1152" d="M25.087,9.971h1.375V8.6H25.087V5.846H23.712v5.5h1.375Z" transform="translate(-23.712 2.404)" fill="#519bfc"/>
  <rect id="Rectangle_750" data-name="Rectangle 750" width="1.375" height="1.375" transform="translate(2.75 8.25)" fill="#519bfc"/>
  <path id="Path_1153" data-name="Path 1153" d="M31.962,11.346h2.75V9.971H33.337V8.6h-1.75a1,1,0,0,1-1-1V5.846H29.212V8.6H27.837v2.75h1.375V9.971h2.75Z" transform="translate(-23.712 2.404)" fill="#519bfc"/>
  <rect id="Rectangle_751" data-name="Rectangle 751" width="1.375" height="2.75" transform="translate(12.375 11)" fill="#519bfc"/>
  <path id="Path_1154" data-name="Path 1154" d="M36.087,13.721a1,1,0,0,0-1-1H31.962V14.1h1.75a1,1,0,0,1,1,1v2.125a1,1,0,0,1-1,1h-1.75V19.6h4.125V18.221h2.75V16.846h-1.75a1,1,0,0,1-1-1Z" transform="translate(-23.712 2.404)" fill="#519bfc"/>
  <rect id="Rectangle_752" data-name="Rectangle 752" width="1.375" height="1.375" transform="translate(8.25 17.875)" fill="#519bfc"/>
  <rect id="Rectangle_753" data-name="Rectangle 753" width="1.375" height="2.75" transform="translate(13.75 15.125)" fill="#519bfc"/>
  <path id="Path_1155" data-name="Path 1155" d="M44.337,15.471H41.212a1,1,0,0,0-1,1V19.6h1.375v-1.75a1,1,0,0,1,1-1h1.75Z" transform="translate(-23.712 2.404)" fill="#519bfc"/>
  <rect id="Rectangle_754" data-name="Rectangle 754" width="2.75" height="1.375" transform="translate(19.25 20.625)" fill="#519bfc"/>
  <rect id="Rectangle_755" data-name="Rectangle 755" width="1.375" height="1.375" transform="translate(20.625 15.125)" fill="#519bfc"/>
  <path id="Path_1156" data-name="Path 1156" d="M40.212,14.1h1.375V10.971a1,1,0,0,0-1-1h-1.75v1.375h1.375Z" transform="translate(-23.712 2.404)" fill="#519bfc"/>
  <path id="Path_1157" data-name="Path 1157" d="M42.962,7.221H41.587V5.846H40.212V7.221H38.837V8.6h5.5V7.221h1.375V5.846h-2.75Z" transform="translate(-23.712 2.404)" fill="#519bfc"/>
  <rect id="Rectangle_756" data-name="Rectangle 756" width="2.75" height="1.375" transform="translate(19.25 12.375)" fill="#519bfc"/>
</svg>
