<svg width="22" height="22" viewBox="0 0 22 22" fill="none" xmlns="http://www.w3.org/2000/svg">
<path d="M16.7519 14H13.9349V12.082C13.9349 11.8831 13.8559 11.6924 13.7152 11.5517C13.5746 11.411 13.3838 11.332 13.1849 11.332C12.986 11.332 12.7952 11.411 12.6546 11.5517C12.5139 11.6924 12.4349 11.8831 12.4349 12.082V14.75C12.4349 14.9489 12.5139 15.1397 12.6546 15.2804C12.7952 15.421 12.986 15.5 13.1849 15.5H14.9409L10.7519 19.689L6.56291 15.5H8.31891C8.51782 15.5 8.70859 15.421 8.84924 15.2804C8.9899 15.1397 9.06891 14.9489 9.06891 14.75V12.082C9.06891 11.8831 8.9899 11.6924 8.84924 11.5517C8.70859 11.411 8.51782 11.332 8.31891 11.332C8.12 11.332 7.92923 11.411 7.78858 11.5517C7.64792 11.6924 7.56891 11.8831 7.56891 12.082V14H4.75191C4.60367 14.0002 4.45879 14.0442 4.33557 14.1266C4.21236 14.2091 4.11633 14.3261 4.05962 14.4631C4.00291 14.6001 3.98805 14.7508 4.01694 14.8962C4.04582 15.0416 4.11715 15.1751 4.22191 15.28L10.2219 21.28C10.2914 21.3498 10.374 21.4052 10.465 21.443C10.5559 21.4808 10.6534 21.5002 10.7519 21.5002C10.8504 21.5002 10.9479 21.4808 11.0389 21.443C11.1298 21.4052 11.2124 21.3498 11.2819 21.28L17.2819 15.28C17.3867 15.1751 17.458 15.0416 17.4869 14.8962C17.5158 14.7508 17.5009 14.6001 17.4442 14.4631C17.3875 14.3261 17.2915 14.2091 17.1682 14.1266C17.045 14.0442 16.9001 14.0002 16.7519 14V14Z" fill="#7E8C9B"/>
<path d="M10.752 2C10.0228 2.00053 9.32361 2.29043 8.808 2.80604C8.29239 3.32165 8.00248 4.02082 8.00195 4.75C8.00195 4.94891 8.08097 5.13968 8.22162 5.28033C8.36227 5.42098 8.55304 5.5 8.75195 5.5C8.95087 5.5 9.14164 5.42098 9.28229 5.28033C9.42294 5.13968 9.50195 4.94891 9.50195 4.75C9.50248 4.41864 9.63435 4.10101 9.86865 3.8667C10.103 3.63239 10.4206 3.50053 10.752 3.5C10.9509 3.5 11.1416 3.42098 11.2823 3.28033C11.4229 3.13968 11.502 2.94891 11.502 2.75C11.502 2.55109 11.4229 2.36032 11.2823 2.21967C11.1416 2.07902 10.9509 2 10.752 2Z" fill="#7E8C9B"/>
<path d="M16.752 1.50861e-05C15.6545 0.00691761 14.5937 0.395866 13.752 1.10002C12.9132 0.390945 11.8503 0.00190348 10.752 0.00190348C9.65361 0.00190348 8.59076 0.390945 7.75195 1.10002C7.16466 0.616706 6.46968 0.281826 5.72571 0.123655C4.98174 -0.0345153 4.21063 -0.0113304 3.47751 0.191252C2.74439 0.393834 2.07078 0.769864 1.51358 1.28758C0.956382 1.8053 0.531956 2.44951 0.27614 3.1658C0.0203238 3.88208 -0.0593594 4.64941 0.0438096 5.40298C0.146979 6.15654 0.429974 6.87422 0.868898 7.49539C1.30782 8.11655 1.88978 8.62298 2.56563 8.97188C3.24148 9.32079 3.99136 9.50193 4.75195 9.50002C5.8494 9.49311 6.91017 9.10416 7.75195 8.40001C8.59076 9.10908 9.65361 9.49813 10.752 9.49813C11.8503 9.49813 12.9132 9.10908 13.752 8.40001C14.3393 8.88332 15.0342 9.2182 15.7782 9.37638C16.5222 9.53455 17.2933 9.51136 18.0264 9.30878C18.7595 9.1062 19.4331 8.73017 19.9903 8.21245C20.5475 7.69472 20.972 7.05052 21.2278 6.33423C21.4836 5.61795 21.5633 4.85062 21.4601 4.09705C21.3569 3.34349 21.0739 2.62582 20.635 2.00465C20.1961 1.38348 19.6141 0.877052 18.9383 0.528146C18.2624 0.179239 17.5125 -0.0019037 16.752 1.50861e-05V1.50861e-05ZM1.50195 4.75002C1.49986 4.14033 1.67004 3.54246 1.99289 3.02528C2.31575 2.50809 2.77815 2.09264 3.32681 1.82677C3.87548 1.5609 4.48807 1.45544 5.09406 1.52254C5.70004 1.58964 6.27474 1.82656 6.75195 2.20602C6.2605 2.96348 5.99896 3.84708 5.99896 4.75002C5.99896 5.65295 6.2605 6.53655 6.75195 7.29402C6.27474 7.67347 5.70004 7.91039 5.09406 7.97749C4.48807 8.04459 3.87548 7.93913 3.32681 7.67326C2.77815 7.4074 2.31575 6.99194 1.99289 6.47475C1.67004 5.95757 1.49986 5.3597 1.50195 4.75002V4.75002ZM7.50195 4.75002C7.50195 4.10723 7.69257 3.47887 8.04968 2.94441C8.4068 2.40995 8.91437 1.99339 9.50823 1.74741C10.1021 1.50142 10.7556 1.43706 11.386 1.56246C12.0164 1.68786 12.5955 1.9974 13.0501 2.45192C13.5046 2.90644 13.8141 3.48553 13.9395 4.11597C14.0649 4.74641 14.0005 5.39988 13.7546 5.99374C13.5086 6.5876 13.092 7.09518 12.5576 7.45229C12.0231 7.80941 11.3947 8.00002 10.752 8.00002C9.89033 7.99896 9.0643 7.65621 8.45503 7.04694C7.84577 6.43768 7.50301 5.61164 7.50195 4.75002V4.75002ZM16.752 8.00002C16.0249 7.99635 15.3202 7.74762 14.752 7.29402C15.2401 6.5352 15.5004 5.65229 15.502 4.75002C15.5025 4.41866 15.6343 4.10102 15.8687 3.86672C16.103 3.63241 16.4206 3.50054 16.752 3.50002C16.9509 3.50002 17.1416 3.421 17.2823 3.28035C17.4229 3.13969 17.502 2.94893 17.502 2.75002C17.502 2.5511 17.4229 2.36034 17.2823 2.21969C17.1416 2.07903 16.9509 2.00002 16.752 2.00002C16.1067 2.00279 15.4833 2.23455 14.993 2.65402C14.9206 2.50055 14.8401 2.35101 14.752 2.20602C15.1587 1.88559 15.6362 1.66715 16.1445 1.56894C16.6529 1.47072 17.1774 1.49559 17.6742 1.64145C18.171 1.78732 18.6257 2.04995 19.0003 2.4074C19.3749 2.76486 19.6585 3.20677 19.8275 3.69621C19.9964 4.18565 20.0458 4.70841 19.9715 5.22082C19.8972 5.73324 19.7013 6.22043 19.4003 6.6417C19.0992 7.06297 18.7017 7.40609 18.241 7.64239C17.7803 7.87869 17.2697 8.00131 16.752 8.00002V8.00002Z" fill="#7E8C9B"/>
<path d="M4.75195 2C4.02277 2.00053 3.32361 2.29043 2.808 2.80604C2.29239 3.32165 2.00248 4.02082 2.00195 4.75C2.00195 4.94891 2.08097 5.13968 2.22162 5.28033C2.36227 5.42098 2.55304 5.5 2.75195 5.5C2.95087 5.5 3.14164 5.42098 3.28229 5.28033C3.42294 5.13968 3.50195 4.94891 3.50195 4.75C3.50248 4.41864 3.63435 4.10101 3.86865 3.8667C4.10296 3.63239 4.42059 3.50053 4.75195 3.5C4.95087 3.5 5.14164 3.42098 5.28229 3.28033C5.42294 3.13968 5.50195 2.94891 5.50195 2.75C5.50195 2.55109 5.42294 2.36032 5.28229 2.21967C5.14164 2.07902 4.95087 2 4.75195 2Z" fill="#7E8C9B"/>
</svg>
