<svg xmlns="http://www.w3.org/2000/svg" xmlns:xlink="http://www.w3.org/1999/xlink" width="22" height="22" viewBox="0 0 22 22">
  <defs>
    <clipPath id="clip-path">
      <rect id="Rectangle_742" data-name="Rectangle 742" width="22" height="22" transform="translate(158 -1)" fill="#7e8c9b"/>
    </clipPath>
  </defs>
  <g id="Group_2645" data-name="Group 2645" transform="translate(-158 1)">
    <g id="Group_2644" data-name="Group 2644" clip-path="url(#clip-path)">
      <g id="Group_2643" data-name="Group 2643">
        <path id="Path_1138" data-name="Path 1138" d="M175,13.25h-2.817V11.332a.75.75,0,1,0-1.5,0V14a.75.75,0,0,0,.75.75h1.756L169,18.939l-4.189-4.189h1.756a.75.75,0,0,0,.75-.75V11.332a.75.75,0,1,0-1.5,0V13.25H163a.75.75,0,0,0-.53,1.28l6,6a.748.748,0,0,0,1.06,0l6-6a.75.75,0,0,0-.53-1.28Z" fill="#7e8c9b"/>
        <path id="Path_1139" data-name="Path 1139" d="M169,1.25A2.752,2.752,0,0,0,166.25,4a.75.75,0,0,0,1.5,0A1.252,1.252,0,0,1,169,2.75a.75.75,0,0,0,0-1.5Z" fill="#7e8c9b"/>
        <path id="Path_1140" data-name="Path 1140" d="M175-.75a4.722,4.722,0,0,0-3,1.1,4.647,4.647,0,0,0-6,0,4.74,4.74,0,1,0-3,8.4,4.722,4.722,0,0,0,3-1.1,4.647,4.647,0,0,0,6,0,4.74,4.74,0,1,0,3-8.4ZM159.75,4A3.236,3.236,0,0,1,165,1.456a4.674,4.674,0,0,0,0,5.088A3.236,3.236,0,0,1,159.75,4Zm6,0A3.25,3.25,0,1,1,169,7.25,3.254,3.254,0,0,1,165.75,4ZM175,7.25a3.232,3.232,0,0,1-2-.706A4.717,4.717,0,0,0,173.75,4,1.252,1.252,0,0,1,175,2.75a.75.75,0,0,0,0-1.5,2.724,2.724,0,0,0-1.759.654A4.826,4.826,0,0,0,173,1.456a3.245,3.245,0,1,1,2,5.794Z" fill="#7e8c9b"/>
        <path id="Path_1141" data-name="Path 1141" d="M163,1.25A2.752,2.752,0,0,0,160.25,4a.75.75,0,0,0,1.5,0A1.252,1.252,0,0,1,163,2.75a.75.75,0,0,0,0-1.5Z" fill="#7e8c9b"/>
      </g>
    </g>
  </g>
</svg>
