<svg xmlns="http://www.w3.org/2000/svg" width="20.5" height="20.5" viewBox="0 0 20.5 20.5">
  <g id="Group_2714" data-name="Group 2714" transform="translate(-16.25 -177.25)">
    <path id="Path_1190" data-name="Path 1190" d="M178,82.25A10.25,10.25,0,1,1,188.25,72,10.261,10.261,0,0,1,178,82.25Z" transform="translate(-151.5 115.5)" fill="#f5f6f9"/>
    <path id="Path_1191" data-name="Path 1191" d="M181.645,75.576a.751.751,0,0,1-.287.058h-5.373a.75.75,0,0,1,0-1.5h3.563L174.111,68.7a.75.75,0,1,1,1.06-1.06l5.437,5.437V69.51a.75.75,0,0,1,1.5,0v5.374a.753.753,0,0,1-.463.692Z" transform="translate(-151.5 116.45)" fill="#8ebda7"/>
  </g>
</svg>
