<svg xmlns="http://www.w3.org/2000/svg" width="20" height="20" viewBox="0 0 20 20">
  <g id="Group_2628" data-name="Group 2628" transform="translate(-484.77 141.423)">
    <circle id="Ellipse_4" data-name="Ellipse 4" cx="10" cy="10" r="10" transform="translate(484.77 -141.423)" fill="#519bfc"/>
    <path id="Path_154" data-name="Path 154" d="M497.127-123.26h0a9.749,9.749,0,0,1-2.485-.317h0a6.11,6.11,0,0,1-1.957-.843h0l.979-2.2h0a6.33,6.33,0,0,0,1.641.753h0a6.249,6.249,0,0,0,1.837.287h0q1.717,0,1.717-.859h0a.711.711,0,0,0-.489-.67h0a9.084,9.084,0,0,0-1.574-.458h0a15.1,15.1,0,0,1-1.988-.55h0a3.354,3.354,0,0,1-1.371-.941h0a2.543,2.543,0,0,1-.572-1.747h0a3.022,3.022,0,0,1,.528-1.739h0a3.52,3.52,0,0,1,1.574-1.227h0a6.47,6.47,0,0,1,2.566-.452h0a9.024,9.024,0,0,1,2.048.233h0a6.254,6.254,0,0,1,1.777.685h0l-.918,2.214h0a6.136,6.136,0,0,0-2.921-.813h0a2.444,2.444,0,0,0-1.295.263h0a.789.789,0,0,0-.407.685h0a.679.679,0,0,0,.482.632h0a8.713,8.713,0,0,0,1.551.437h0a14.647,14.647,0,0,1,2,.549h0a3.455,3.455,0,0,1,1.37.934h0a2.494,2.494,0,0,1,.58,1.74h0a2.965,2.965,0,0,1-.528,1.717h0a3.594,3.594,0,0,1-1.58,1.227h0a6.4,6.4,0,0,1-2.56.46Z" transform="translate(-2.433 -2.57)" fill="#fff"/>
  </g>
</svg>
