<svg xmlns="http://www.w3.org/2000/svg" xmlns:xlink="http://www.w3.org/1999/xlink" width="22" height="22" viewBox="0 0 22 22">
  <defs>
    <clipPath id="clip-path">
      <rect id="Rectangle_737" data-name="Rectangle 737" width="22" height="22" transform="translate(124 -1)" fill="#7e8c9b"/>
    </clipPath>
  </defs>
  <g id="Group_2642" data-name="Group 2642" transform="translate(-124 1)" clip-path="url(#clip-path)">
    <g id="Group_2641" data-name="Group 2641">
      <path id="Path_1135" data-name="Path 1135" d="M138.248,5.96a7.2,7.2,0,0,0-.848.054V4.82h1.67a.75.75,0,0,0,.531-1.28L135.53-.53a.749.749,0,0,0-1.06,0L130.4,3.54a.75.75,0,0,0,.53,1.28h1.67V8.675a7.207,7.207,0,0,0-.509.726,4.75,4.75,0,1,0,0,7.618A7.246,7.246,0,1,0,138.248,5.96ZM135,1.061l2.26,2.259h-.61a.75.75,0,0,0-.75.75V6.358a7.234,7.234,0,0,0-1.8.915V4.07a.75.75,0,0,0-.75-.75h-.609Zm-5.748,15.4a3.25,3.25,0,1,1,0-6.5,3.221,3.221,0,0,1,2.164.848,7.11,7.11,0,0,0,0,4.8A3.221,3.221,0,0,1,129.252,16.46Zm9,2.5A5.75,5.75,0,1,1,144,13.21,5.757,5.757,0,0,1,138.248,18.96Z" fill="#7e8c9b"/>
      <path id="Path_1136" data-name="Path 1136" d="M138.248,8.46a4.756,4.756,0,0,0-4.75,4.75.75.75,0,1,0,1.5,0,3.254,3.254,0,0,1,3.25-3.25.75.75,0,0,0,0-1.5Z" fill="#7e8c9b"/>
      <path id="Path_1137" data-name="Path 1137" d="M129.248,10.96A2.253,2.253,0,0,0,127,13.21a.75.75,0,0,0,1.5,0,.751.751,0,0,1,.75-.75.75.75,0,0,0,0-1.5Z" fill="#7e8c9b"/>
    </g>
  </g>
</svg>
