<svg width="21" height="22" viewBox="0 0 21 22" fill="none" xmlns="http://www.w3.org/2000/svg">
<path d="M13.745 6.70975C13.4615 6.71104 13.1783 6.72908 12.897 6.76375V5.56975H14.567C14.7153 5.56982 14.8603 5.52591 14.9837 5.44356C15.107 5.36122 15.2032 5.24414 15.2601 5.10714C15.3169 4.97014 15.3318 4.81936 15.303 4.67386C15.2741 4.52837 15.2028 4.3947 15.098 4.28975L11.027 0.219754C10.9574 0.15009 10.8748 0.0948238 10.7838 0.0571163C10.6929 0.0194088 10.5954 0 10.497 0C10.3985 0 10.301 0.0194088 10.2101 0.0571163C10.1191 0.0948238 10.0365 0.15009 9.96696 0.219754L5.89696 4.28975C5.7922 4.39464 5.72089 4.52822 5.692 4.67362C5.66312 4.81902 5.67797 4.96971 5.73468 5.10668C5.79139 5.24364 5.88742 5.36073 6.01064 5.44315C6.13385 5.52557 6.27872 5.56962 6.42696 5.56975H8.09697V9.42475C7.91256 9.65608 7.74257 9.89854 7.58797 10.1508C6.88161 9.62447 6.04283 9.30497 5.16534 9.22795C4.28786 9.15092 3.40625 9.31941 2.61902 9.71459C1.83178 10.1098 1.16994 10.7161 0.707436 11.4657C0.244936 12.2154 0 13.0789 0 13.9598C0 14.8406 0.244936 15.7041 0.707436 16.4538C1.16994 17.2034 1.83178 17.8097 2.61902 18.2049C3.40625 18.6001 4.28786 18.7686 5.16534 18.6916C6.04283 18.6145 6.88161 18.295 7.58797 17.7688C8.25245 18.8425 9.18602 19.724 10.2961 20.3258C11.4062 20.9277 12.6543 21.229 13.9168 21.1998C15.1792 21.1707 16.4121 20.8122 17.4932 20.1598C18.5744 19.5074 19.4663 18.5837 20.0805 17.4805C20.6948 16.3772 21.01 15.1325 20.9951 13.8699C20.9801 12.6072 20.6354 11.3704 19.9952 10.2819C19.355 9.19353 18.4414 8.29132 17.3451 7.66474C16.2487 7.03815 15.0077 6.70895 13.745 6.70975ZM10.497 1.81075L12.757 4.06975H12.147C12.0485 4.06975 11.9509 4.08915 11.86 4.12684C11.769 4.16454 11.6863 4.21978 11.6166 4.28942C11.547 4.35907 11.4917 4.44175 11.4541 4.53274C11.4164 4.62374 11.397 4.72126 11.397 4.81975V7.10775C10.7571 7.3271 10.1512 7.6351 9.59697 8.02275V4.81975C9.59697 4.62084 9.51794 4.43008 9.37729 4.28942C9.23664 4.14877 9.04588 4.06975 8.84697 4.06975H8.23796L10.497 1.81075ZM4.74896 17.2108C3.88701 17.2108 3.06036 16.8683 2.45087 16.2589C1.84137 15.6494 1.49896 14.8227 1.49896 13.9608C1.49896 13.0988 1.84137 12.2722 2.45087 11.6627C3.06036 11.0532 3.88701 10.7108 4.74896 10.7108C5.55069 10.7142 6.32231 11.0166 6.91296 11.5588C6.35655 13.1104 6.35655 14.8071 6.91296 16.3588C6.32276 16.902 5.5511 17.2054 4.74896 17.2098V17.2108ZM13.749 19.7108C12.6117 19.7111 11.4998 19.3743 10.554 18.7427C9.60818 18.1112 8.87087 17.2134 8.43533 16.1628C7.99979 15.1122 7.88557 13.9561 8.10713 12.8406C8.32869 11.7251 8.87607 10.7003 9.68004 9.89595C10.484 9.09156 11.5085 8.54365 12.6238 8.32151C13.7392 8.09937 14.8954 8.21298 15.9462 8.64797C16.9971 9.08296 17.8953 9.8198 18.5273 10.7653C19.1593 11.7108 19.4968 12.8225 19.497 13.9598C19.4951 15.4845 18.8884 16.9463 17.8101 18.0243C16.7317 19.1023 15.2697 19.7084 13.745 19.7098L13.749 19.7108Z" fill="#519BFC"/>
<path d="M13.745 9.20978C12.4857 9.21137 11.2784 9.71232 10.388 10.6028C9.49753 11.4932 8.99658 12.7005 8.995 13.9598C8.995 14.1587 9.07401 14.3495 9.21466 14.4901C9.35531 14.6308 9.54608 14.7098 9.745 14.7098C9.94391 14.7098 10.1347 14.6308 10.2753 14.4901C10.416 14.3495 10.495 14.1587 10.495 13.9598C10.4961 13.0981 10.8388 12.2721 11.4481 11.6628C12.0573 11.0536 12.8834 10.7108 13.745 10.7098C13.9439 10.7098 14.1347 10.6308 14.2753 10.4901C14.416 10.3495 14.495 10.1587 14.495 9.95978C14.495 9.76087 14.416 9.5701 14.2753 9.42945C14.1347 9.2888 13.9439 9.20978 13.745 9.20978Z" fill="#519BFC"/>
<path d="M4.74495 11.7098C4.1488 11.7111 3.57748 11.9486 3.15613 12.3704C2.73478 12.7921 2.49774 13.3636 2.49695 13.9598C2.49695 14.1587 2.57597 14.3495 2.71662 14.4901C2.85727 14.6308 3.04804 14.7098 3.24695 14.7098C3.44586 14.7098 3.63663 14.6308 3.77728 14.4901C3.91793 14.3495 3.99695 14.1587 3.99695 13.9598C3.99721 13.7609 4.07631 13.5703 4.2169 13.4297C4.3575 13.2891 4.54812 13.21 4.74695 13.2098C4.94586 13.2098 5.13663 13.1308 5.27728 12.9901C5.41793 12.8495 5.49695 12.6587 5.49695 12.4598C5.49695 12.2609 5.41793 12.0701 5.27728 11.9294C5.13663 11.7888 4.94586 11.7098 4.74695 11.7098H4.74495Z" fill="#519BFC"/>
</svg>
