<svg xmlns="http://www.w3.org/2000/svg" width="20.5" height="20.5" viewBox="0 0 20.5 20.5">
  <g id="Group_2703" data-name="Group 2703" transform="translate(-167.75 -61.75)">
    <path id="Path_1190" data-name="Path 1190" d="M178,61.75A10.25,10.25,0,1,0,188.25,72,10.261,10.261,0,0,0,178,61.75Z" fill="#f5f6f9"/>
    <path id="Path_1191" data-name="Path 1191" d="M181.645,67.474a.751.751,0,0,0-.287-.058h-5.373a.75.75,0,0,0,0,1.5h3.563l-5.437,5.438a.75.75,0,1,0,1.06,1.06l5.437-5.437V73.54a.75.75,0,0,0,1.5,0V68.166a.753.753,0,0,0-.463-.692Z" fill="#d69f99"/>
  </g>
</svg>
