<svg width="22" height="22" viewBox="0 0 22 22" fill="none" xmlns="http://www.w3.org/2000/svg">
<path d="M20.75 8H19.05C18.9165 7.59734 18.7537 7.20496 18.563 6.826L19.763 5.626C19.9033 5.48507 19.982 5.29433 19.982 5.0955C19.982 4.89667 19.9033 4.70593 19.763 4.565L16.937 1.734C16.7964 1.59355 16.6057 1.51466 16.407 1.51466C16.2082 1.51466 16.0176 1.59355 15.877 1.734L14.677 2.934C14.2969 2.74444 13.9035 2.58268 13.5 2.45V0.75C13.5 0.551088 13.421 0.360322 13.2803 0.21967C13.1397 0.0790177 12.9489 0 12.75 0H8.75C8.55109 0 8.36032 0.0790177 8.21967 0.21967C8.07901 0.360322 8 0.551088 8 0.75V2.45C7.59738 2.58287 7.20501 2.74497 6.826 2.935L5.62601 1.735C5.55636 1.66531 5.47365 1.61002 5.38263 1.5723C5.2916 1.53458 5.19404 1.51516 5.0955 1.51516C4.99697 1.51516 4.89941 1.53458 4.80838 1.5723C4.71735 1.61002 4.63465 1.66531 4.565 1.735L1.73599 4.564C1.6663 4.63365 1.61102 4.71635 1.5733 4.80738C1.53558 4.8984 1.51616 4.99597 1.51616 5.0945C1.51616 5.19303 1.53558 5.2906 1.5733 5.38162C1.61102 5.47265 1.6663 5.55535 1.73599 5.625L2.936 6.825C2.74559 7.2043 2.58315 7.59701 2.45 8H0.75C0.551088 8 0.360318 8.07902 0.219666 8.21967C0.0790132 8.36032 0 8.55109 0 8.75V12.75C0 12.9489 0.0790132 13.1397 0.219666 13.2803C0.360318 13.421 0.551088 13.5 0.75 13.5H2.45C2.58346 13.9025 2.7459 14.2949 2.936 14.674L1.73599 15.874C1.6663 15.9436 1.61102 16.0264 1.5733 16.1174C1.53558 16.2084 1.51616 16.306 1.51616 16.4045C1.51616 16.503 1.53558 16.6006 1.5733 16.6916C1.61102 16.7826 1.6663 16.8653 1.73599 16.935L4.565 19.763C4.70858 19.8981 4.89833 19.9734 5.0955 19.9734C5.29268 19.9734 5.48243 19.8981 5.62601 19.763L6.826 18.563C7.20518 18.7529 7.59752 18.9154 8 19.049V20.75C8 20.9489 8.07901 21.1397 8.21967 21.2803C8.36032 21.421 8.55109 21.5 8.75 21.5H12.75C12.9489 21.5 13.1397 21.421 13.2803 21.2803C13.421 21.1397 13.5 20.9489 13.5 20.75V19.05C13.9025 18.9165 14.2949 18.7541 14.674 18.564L15.874 19.764C15.9436 19.8337 16.0262 19.8889 16.1171 19.9266C16.2081 19.9643 16.3056 19.9838 16.404 19.9838C16.5025 19.9838 16.5999 19.9643 16.6909 19.9266C16.7818 19.8889 16.8644 19.8337 16.934 19.764L19.763 16.936C19.8327 16.8664 19.888 16.7836 19.9257 16.6926C19.9634 16.6016 19.9828 16.504 19.9828 16.4055C19.9828 16.307 19.9634 16.2094 19.9257 16.1184C19.888 16.0274 19.8327 15.9447 19.763 15.875L18.563 14.675C18.7539 14.2961 18.9166 13.9037 19.05 13.501H20.75C20.9489 13.501 21.1397 13.422 21.2803 13.2813C21.421 13.1407 21.5 12.9499 21.5 12.751V8.75C21.5 8.55109 21.421 8.36032 21.2803 8.21967C21.1397 8.07902 20.9489 8 20.75 8ZM20 12H18.488C18.3217 12.0001 18.1601 12.0554 18.0287 12.1573C17.8973 12.2592 17.8035 12.4019 17.762 12.563C17.5931 13.2171 17.3333 13.8442 16.99 14.426C16.9053 14.5692 16.8706 14.7366 16.8914 14.9017C16.9122 15.0668 16.9874 15.2203 17.105 15.338L18.175 16.407L16.407 18.175L15.338 17.105C15.2203 16.9874 15.0668 16.9122 14.9017 16.8914C14.7366 16.8706 14.5692 16.9053 14.426 16.99C13.8439 17.3334 13.2164 17.5933 12.562 17.762C12.4011 17.8037 12.2587 17.8976 12.1569 18.029C12.0552 18.1604 12 18.3218 12 18.488V20H9.5V18.488C9.50011 18.3219 9.44494 18.1605 9.34319 18.0292C9.24143 17.898 9.09888 17.8043 8.938 17.763C8.28378 17.5932 7.65642 17.333 7.07401 16.99C6.93082 16.9051 6.76343 16.8703 6.59828 16.8911C6.43313 16.912 6.27963 16.9872 6.162 17.105L5.093 18.175L3.325 16.407L4.394 15.338C4.51178 15.2204 4.58704 15.0669 4.60786 14.9017C4.62869 14.7366 4.5939 14.5692 4.509 14.426C4.16573 13.8443 3.90618 13.2171 3.73801 12.563C3.6967 12.4019 3.60291 12.2591 3.47145 12.1571C3.34 12.0552 3.17834 11.9999 3.01199 12H1.5V9.5H3.01199C3.17821 9.50016 3.33977 9.44502 3.47121 9.34328C3.60264 9.24153 3.69651 9.09895 3.73801 8.938C3.90626 8.28341 4.16615 7.65587 4.50999 7.074C4.5946 6.93066 4.62912 6.76326 4.60812 6.59814C4.58712 6.43303 4.51179 6.27959 4.394 6.162L3.325 5.093L5.093 3.325L6.162 4.394C6.2796 4.51179 6.43303 4.58712 6.59814 4.60812C6.76326 4.62912 6.93067 4.5946 7.07401 4.51C7.65561 4.16633 8.28278 3.90643 8.937 3.738C9.09814 3.69669 9.24094 3.60291 9.34288 3.47146C9.44482 3.34 9.5001 3.17835 9.5 3.012V1.5H12V3.012C11.9998 3.17822 12.055 3.33977 12.1567 3.4712C12.2585 3.60264 12.401 3.6965 12.562 3.738C13.2165 3.90598 13.844 4.16554 14.426 4.509C14.5692 4.5939 14.7366 4.62868 14.9017 4.60786C15.0669 4.58703 15.2204 4.51179 15.338 4.394L16.407 3.325L18.175 5.093L17.105 6.162C16.9874 6.27971 16.9122 6.43321 16.8914 6.59832C16.8706 6.76343 16.9053 6.93077 16.99 7.074C17.333 7.65641 17.5932 8.28378 17.763 8.938C17.8043 9.09887 17.898 9.24143 18.0292 9.34318C18.1605 9.44494 18.3219 9.50011 18.488 9.5H20V12Z" fill="#519BFC"/>
<path d="M10.75 5.99997C10.3056 5.99827 9.86329 6.06127 9.43701 6.18697C9.38455 6.19496 9.3332 6.20906 9.28401 6.22897C9.14449 6.28549 9.02494 6.38223 8.94054 6.50687C8.85613 6.63152 8.8107 6.77844 8.81001 6.92897C8.81001 7.12788 8.88902 7.31865 9.02968 7.4593C9.17033 7.59995 9.3611 7.67897 9.56001 7.67897C9.63924 7.68522 9.71887 7.6736 9.79301 7.64497C10.1024 7.54647 10.4254 7.49753 10.75 7.49997C11.3928 7.49997 12.0212 7.69058 12.5556 8.0477C13.0901 8.40481 13.5066 8.91239 13.7526 9.50625C13.9986 10.1001 14.063 10.7536 13.9376 11.384C13.8122 12.0145 13.5026 12.5935 13.0481 13.0481C12.5936 13.5026 12.0145 13.8121 11.3841 13.9375C10.7536 14.0629 10.1001 13.9986 9.50629 13.7526C8.91243 13.5066 8.40486 13.09 8.04774 12.5556C7.69063 12.0211 7.50001 11.3928 7.50001 10.75C7.49821 10.4263 7.54748 10.1043 7.64601 9.79597C7.66911 9.72048 7.68058 9.64192 7.68001 9.56297V9.56297C7.68001 9.36406 7.60099 9.17329 7.46034 9.03264C7.31969 8.89199 7.12892 8.81297 6.93001 8.81297C6.77948 8.81366 6.63256 8.85909 6.50792 8.94349C6.38327 9.0279 6.28653 9.14745 6.23001 9.28697C6.2101 9.33616 6.19601 9.38751 6.18802 9.43997C6.06226 9.86523 5.99893 10.3065 6.00001 10.75C6.00001 11.6894 6.2786 12.6078 6.80054 13.3889C7.32247 14.1701 8.06432 14.7789 8.93226 15.1384C9.80021 15.4979 10.7553 15.592 11.6767 15.4087C12.5981 15.2254 13.4445 14.773 14.1088 14.1087C14.7731 13.4444 15.2255 12.5981 15.4088 11.6767C15.592 10.7552 15.498 9.80018 15.1384 8.93223C14.7789 8.06428 14.1701 7.32243 13.389 6.80049C12.6078 6.27856 11.6895 5.99997 10.75 5.99997V5.99997Z" fill="#519BFC"/>
</svg>
