<svg xmlns="http://www.w3.org/2000/svg" xmlns:xlink="http://www.w3.org/1999/xlink" width="22" height="22" viewBox="0 0 22 22">
  <defs>
    <clipPath id="clip-path">
      <rect id="Rectangle_743" data-name="Rectangle 743" width="22" height="22" transform="translate(192 -1)" fill="#519bfc"/>
    </clipPath>
  </defs>
  <g id="Group_2648" data-name="Group 2648" transform="translate(-192 1)">
    <g id="Group_2647" data-name="Group 2647" clip-path="url(#clip-path)">
      <g id="Group_2646" data-name="Group 2646">
        <path id="Path_1142" data-name="Path 1142" d="M213,7.25h-1.7a8.718,8.718,0,0,0-.487-1.174l1.2-1.2a.752.752,0,0,0,0-1.061L209.187.984a.75.75,0,0,0-1.06,0l-1.2,1.2A8.789,8.789,0,0,0,205.75,1.7V0A.75.75,0,0,0,205-.75h-4a.75.75,0,0,0-.75.75V1.7a8.708,8.708,0,0,0-1.174.485l-1.2-1.2a.75.75,0,0,0-1.061,0l-2.829,2.829a.75.75,0,0,0,0,1.061l1.2,1.2A8.709,8.709,0,0,0,194.7,7.25H193a.75.75,0,0,0-.75.75v4a.75.75,0,0,0,.75.75h1.7a8.79,8.79,0,0,0,.486,1.174l-1.2,1.2a.75.75,0,0,0,0,1.061l2.829,2.828a.774.774,0,0,0,1.061,0l1.2-1.2a8.845,8.845,0,0,0,1.174.486V20a.75.75,0,0,0,.75.75h4a.75.75,0,0,0,.75-.75V18.3a8.789,8.789,0,0,0,1.174-.486l1.2,1.2a.749.749,0,0,0,1.06,0l2.829-2.828a.75.75,0,0,0,0-1.061l-1.2-1.2a8.664,8.664,0,0,0,.487-1.174H213a.75.75,0,0,0,.75-.75V8A.75.75,0,0,0,213,7.25Zm-.75,4h-1.512a.75.75,0,0,0-.726.563,7.217,7.217,0,0,1-.772,1.863.75.75,0,0,0,.115.912l1.07,1.069-1.768,1.768-1.069-1.07a.75.75,0,0,0-.912-.115,7.209,7.209,0,0,1-1.864.772.75.75,0,0,0-.562.726V19.25h-2.5V17.738a.748.748,0,0,0-.562-.725,7.276,7.276,0,0,1-1.864-.773.749.749,0,0,0-.912.115l-1.069,1.07-1.768-1.768,1.069-1.069a.749.749,0,0,0,.115-.912,7.186,7.186,0,0,1-.771-1.863.749.749,0,0,0-.726-.563H193.75V8.75h1.512a.749.749,0,0,0,.726-.562,7.175,7.175,0,0,1,.772-1.864.75.75,0,0,0-.116-.912l-1.069-1.069,1.768-1.768,1.069,1.069a.75.75,0,0,0,.912.116,7.182,7.182,0,0,1,1.863-.772.749.749,0,0,0,.563-.726V.75h2.5V2.262a.749.749,0,0,0,.562.726,7.178,7.178,0,0,1,1.864.771.749.749,0,0,0,.912-.115l1.069-1.069,1.768,1.768-1.07,1.069a.75.75,0,0,0-.115.912,7.276,7.276,0,0,1,.773,1.864.748.748,0,0,0,.725.562h1.512Z" fill="#519bfc"/>
        <path id="Path_1143" data-name="Path 1143" d="M203,5.25a4.58,4.58,0,0,0-1.313.187.681.681,0,0,0-.153.042.759.759,0,0,0-.474.7.75.75,0,0,0,.75.75h0a.531.531,0,0,0,.233-.034A3.078,3.078,0,0,1,203,6.75,3.25,3.25,0,1,1,199.75,10a3.078,3.078,0,0,1,.146-.954.777.777,0,0,0,.034-.233v0a.75.75,0,0,0-.75-.75.759.759,0,0,0-.7.474.681.681,0,0,0-.042.153A4.58,4.58,0,0,0,198.25,10,4.75,4.75,0,1,0,203,5.25Z" fill="#519bfc"/>
      </g>
    </g>
  </g>
</svg>
