<svg xmlns="http://www.w3.org/2000/svg" xmlns:xlink="http://www.w3.org/1999/xlink" width="239" height="239" viewBox="0 0 239 239">
  <defs>
    <clipPath id="clip-path">
      <circle id="Ellipse_69" data-name="Ellipse 69" cx="119.5" cy="119.5" r="119.5" transform="translate(1139.71 -319.5)" fill="none"/>
    </clipPath>
  </defs>
  <g id="Group_2842" data-name="Group 2842" transform="translate(-1139.71 319.5)">
    <g id="Group_2841" data-name="Group 2841" clip-path="url(#clip-path)">
      <g id="Group_2725" data-name="Group 2725" opacity="0.1">
        <circle id="Ellipse_69-2" data-name="Ellipse 69" cx="90" cy="90" r="90" transform="translate(1169.21 -290)" fill="#fff"/>
      </g>
      <g id="Group_2840" data-name="Group 2840">
        <g id="Group_2829" data-name="Group 2829">
          <path id="Path_1484" data-name="Path 1484" d="M1291.7-217.5v8a1,1,0,0,1-1,1h-11.92a1,1,0,0,1-1-1,1.008,1.008,0,0,1,.08-.39.875.875,0,0,1,.1-.19,1.042,1.042,0,0,1,.82-.42h10.92v-6h-58v6h3.07a1,1,0,0,1,1,1,1,1,0,0,1-1,1h-4.07a1,1,0,0,1-1-1v-8a1,1,0,0,1,1-1h60A1,1,0,0,1,1291.7-217.5Z" fill="#fff"/>
          <path id="Path_1485" data-name="Path 1485" d="M1289.7-216.5v6h-8.87a4.423,4.423,0,0,1,.51-.46,6.868,6.868,0,0,1,4.36-1.54,1,1,0,0,0,1-1,1,1,0,0,0-1-1h-44a8.978,8.978,0,0,0-7.47,4h-2.53v-6Z" fill="#3f7ed0" opacity="0.5"/>
          <path id="Path_1486" data-name="Path 1486" d="M1286.7-213.5a1,1,0,0,1-1,1,6.868,6.868,0,0,0-4.36,1.54,4.423,4.423,0,0,0-.51.46,6.788,6.788,0,0,0-1.45,2,6.921,6.921,0,0,0-.67,2.99v44.41a1.013,1.013,0,0,1-.31.74,1.133,1.133,0,0,1-.13.1,1.4,1.4,0,0,1-.17.09,1.087,1.087,0,0,1-.39.08,1.007,1.007,0,0,1-.73-.31,1.04,1.04,0,0,1-.27-.69v-44.42a8.84,8.84,0,0,1,1.15-4.38.875.875,0,0,1,.1-.19,9.115,9.115,0,0,1,2.1-2.42H1241.7a7,7,0,0,0-6.99,6.99v44.42a1.04,1.04,0,0,1-.27.69,1.007,1.007,0,0,1-.73.31,1.087,1.087,0,0,1-.39-.08,1.4,1.4,0,0,1-.17-.09,1.133,1.133,0,0,1-.13-.1,1.013,1.013,0,0,1-.31-.74v-44.41a8.7,8.7,0,0,1,.52-2.99,8.142,8.142,0,0,1,1-2,8.978,8.978,0,0,1,7.47-4h44A1,1,0,0,1,1286.7-213.5Z" fill="#fff"/>
          <path id="Path_1487" data-name="Path 1487" d="M1255.71-199.5a1,1,0,0,1-1,1h-15a1,1,0,0,1-1-1,1,1,0,0,1,1-1h15A1,1,0,0,1,1255.71-199.5Z" fill="#fff"/>
          <path id="Path_1488" data-name="Path 1488" d="M1271.71-199.5a1,1,0,0,1-1,1h-12a1,1,0,0,1-1-1,1,1,0,0,1,1-1h12A1,1,0,0,1,1271.71-199.5Z" fill="#fff"/>
          <path id="Path_1489" data-name="Path 1489" d="M1271.71-193.5a1,1,0,0,1-1,1h-17a1,1,0,0,1-1-1,1,1,0,0,1,1-1h17A1,1,0,0,1,1271.71-193.5Z" fill="#fff"/>
          <path id="Path_1490" data-name="Path 1490" d="M1250.71-193.5a1,1,0,0,1-1,1h-10a1,1,0,0,1-1-1,1,1,0,0,1,1-1h10A1,1,0,0,1,1250.71-193.5Z" fill="#fff"/>
          <path id="Path_1491" data-name="Path 1491" d="M1255.71-187.5a1,1,0,0,1-1,1h-15a1,1,0,0,1-1-1,1,1,0,0,1,1-1h15A1,1,0,0,1,1255.71-187.5Z" fill="#fff"/>
          <path id="Path_1492" data-name="Path 1492" d="M1271.71-187.5a1,1,0,0,1-1,1h-12a1,1,0,0,1-1-1,1,1,0,0,1,1-1h12A1,1,0,0,1,1271.71-187.5Z" fill="#fff"/>
          <g id="Group_2828" data-name="Group 2828">
            <path id="Path_1493" data-name="Path 1493" d="M1240.72-160.4a1,1,0,0,1-1.26.15.789.789,0,0,1-.15-.12c-.01,0-.03-.02-.04-.03l-2.41-2.55-2.42,2.55a1.007,1.007,0,0,1-.73.31,1.087,1.087,0,0,1-.39-.08,1.4,1.4,0,0,1-.17-.09,1.133,1.133,0,0,1-.13-.1,1.013,1.013,0,0,1-.31-.74,1,1,0,0,1,.27-.68l1.73-1.82,1.42-1.49a1.007,1.007,0,0,1,.73-.32,1,1,0,0,1,.72.32l2.42,2.55.72.76A1.006,1.006,0,0,1,1240.72-160.4Z" fill="#fff"/>
            <path id="Path_1494" data-name="Path 1494" d="M1247.11-160.52l-.11.12c0,.02-.02.03-.03.04a.444.444,0,0,1-.11.08.988.988,0,0,1-1.27-.09c-.01-.01-.03-.02-.04-.03l-2.41-2.55-2.42,2.55a1,1,0,0,1-1.26.15.789.789,0,0,1-.15-.12,1,1,0,0,1-.04-1.41l.73-.76,2.42-2.55a1,1,0,0,1,.72-.32,1.007,1.007,0,0,1,.73.32l2.41,2.55.72.76A1.014,1.014,0,0,1,1247.11-160.52Z" fill="#fff"/>
            <path id="Path_1495" data-name="Path 1495" d="M1259.58-160.4a1.009,1.009,0,0,1-.16.13.57.57,0,0,1-.13.08.935.935,0,0,1-.43.1,1,1,0,0,1-.69-.27c-.01-.01-.03-.02-.04-.04l-2.42-2.55-2.42,2.55c-.01.02-.03.03-.04.04a1,1,0,0,1-.69.27.9.9,0,0,1-.42-.1.638.638,0,0,1-.14-.08,1.01,1.01,0,0,1-.16-.13,1,1,0,0,1,0-1.38l.73-.76,2.41-2.55a1.038,1.038,0,0,1,1.46,0l2.42,2.55.72.76A1,1,0,0,1,1259.58-160.4Z" fill="#fff"/>
            <path id="Path_1496" data-name="Path 1496" d="M1253.29-160.4c-.01.02-.03.03-.04.04a1,1,0,0,1-.69.27.9.9,0,0,1-.42-.1.638.638,0,0,1-.14-.08,1.01,1.01,0,0,1-.16-.13l-2.42-2.55-2.31,2.43-.11.12a.526.526,0,0,1-.14.12.988.988,0,0,1-1.27-.09,1,1,0,0,1-.04-1.41l.73-.76,2.42-2.55a1.007,1.007,0,0,1,.73-.32,1,1,0,0,1,.72.32l2.42,2.55.72.76A1.006,1.006,0,0,1,1253.29-160.4Z" fill="#fff"/>
            <path id="Path_1497" data-name="Path 1497" d="M1278.71-161.1a1.013,1.013,0,0,1-.31.74,1.133,1.133,0,0,1-.13.1,1.4,1.4,0,0,1-.17.09,1.087,1.087,0,0,1-.39.08,1.007,1.007,0,0,1-.73-.31l-2.42-2.55-2.41,2.55c-.01.01-.03.03-.04.03a.785.785,0,0,1-.15.12.989.989,0,0,1-1.26-.15,1.006,1.006,0,0,1,0-1.38l.72-.76,2.42-2.55a1,1,0,0,1,.72-.32,1.007,1.007,0,0,1,.73.32l1.42,1.49,1.73,1.82A1,1,0,0,1,1278.71-161.1Z" fill="#fff"/>
            <path id="Path_1498" data-name="Path 1498" d="M1265.83-160.37a1.011,1.011,0,0,1-.69.28.938.938,0,0,1-.58-.19.524.524,0,0,1-.14-.12,1.183,1.183,0,0,1-.11-.12l-2.31-2.43-2.42,2.55a1.009,1.009,0,0,1-.16.13.57.57,0,0,1-.13.08.935.935,0,0,1-.43.1,1,1,0,0,1-.69-.27c-.01-.01-.03-.02-.04-.04a1.006,1.006,0,0,1,0-1.38l.73-.76,2.41-2.55a1,1,0,0,1,.72-.32,1.007,1.007,0,0,1,.73.32l2.42,2.55.73.76A1,1,0,0,1,1265.83-160.37Z" fill="#fff"/>
            <path id="Path_1499" data-name="Path 1499" d="M1272.11-160.37a.785.785,0,0,1-.15.12.989.989,0,0,1-1.26-.15l-2.42-2.55-2.41,2.55c-.01.01-.03.02-.04.03a1.011,1.011,0,0,1-.69.28.938.938,0,0,1-.58-.19.445.445,0,0,1-.11-.08c-.01-.01-.03-.02-.03-.04a1.183,1.183,0,0,1-.11-.12,1.014,1.014,0,0,1,.11-1.26l.72-.76,2.41-2.55a1.007,1.007,0,0,1,.73-.32,1,1,0,0,1,.72.32l2.42,2.55.73.76A1,1,0,0,1,1272.11-160.37Z" fill="#fff"/>
          </g>
        </g>
        <g id="Group_2830" data-name="Group 2830">
          <path id="Path_1500" data-name="Path 1500" d="M1267.459-176.177l-2.569,2.57a.876.876,0,0,1-.608.248.891.891,0,0,1-.608-.248l-1.713-1.713a.862.862,0,0,1,0-1.217.863.863,0,0,1,1.216,0l1.1,1.114,1.961-1.97a.863.863,0,0,1,1.216,0A.861.861,0,0,1,1267.459-176.177Z" fill="#fff"/>
          <path id="Path_1501" data-name="Path 1501" d="M1264.71-182.5a7.008,7.008,0,0,0-7,7,7.008,7.008,0,0,0,7,7,7.008,7.008,0,0,0,7-7A7.008,7.008,0,0,0,1264.71-182.5Zm0,12a5.008,5.008,0,0,1-5-5,5.008,5.008,0,0,1,5-5,5,5,0,0,1,5,5A5,5,0,0,1,1264.71-170.5Z" fill="#fff"/>
        </g>
        <g id="Group_2831" data-name="Group 2831">
          <path id="Path_1502" data-name="Path 1502" d="M1321.33-244.24a15.347,15.347,0,0,1-8.6,8.16,15.365,15.365,0,0,1-11.85-.32,1.418,1.418,0,0,1-.18-.08v-2.82c.39.22.78.44,1.19.62a12.884,12.884,0,0,0,5.29,1.14,12.944,12.944,0,0,0,4.65-.87,12.915,12.915,0,0,0,7.22-6.85,12.911,12.911,0,0,0,.27-9.95,12.9,12.9,0,0,0-6.85-7.21,12.9,12.9,0,0,0-14.36,2.57,4.933,4.933,0,0,0-2.41-.65h-.4a15.457,15.457,0,0,1,18.19-4.21A15.521,15.521,0,0,1,1321.33-244.24Z" fill="#3f7ed0" opacity="0.5"/>
          <path id="Path_1503" data-name="Path 1503" d="M1305.04-246a5.745,5.745,0,0,0,2.264.558,3.221,3.221,0,0,0,1.743-.428,2.663,2.663,0,0,0,1.058-1.214,2.235,2.235,0,0,0,.16-1.635,3.094,3.094,0,0,0-.782-1.265,13.022,13.022,0,0,0-1.433-1.178,7.737,7.737,0,0,1-1.111-.924.609.609,0,0,1-.164-.693.708.708,0,0,1,.583-.413,2.188,2.188,0,0,1,1.157.257,5.493,5.493,0,0,1,2.095,1.731l1.56-1.477a5.609,5.609,0,0,0-1.205-1.21,8.183,8.183,0,0,0-1.592-.938,5.807,5.807,0,0,0-2.267-.567,3.161,3.161,0,0,0-1.736.431,2.712,2.712,0,0,0-1.067,1.232,2.28,2.28,0,0,0-.168,1.639,2.993,2.993,0,0,0,.778,1.271,13.6,13.6,0,0,0,1.427,1.175,8.018,8.018,0,0,1,1.121.951.635.635,0,0,1,.157.727q-.313.7-1.719.076a5.586,5.586,0,0,1-1.4-.9,5.709,5.709,0,0,1-1.07-1.216l-1.6,1.444a5.476,5.476,0,0,0,1.295,1.4A8.737,8.737,0,0,0,1305.04-246Z" fill="#fff"/>
        </g>
        <g id="Group_2835" data-name="Group 2835">
          <g id="Group_2832" data-name="Group 2832">
            <path id="Path_1504" data-name="Path 1504" d="M1229.64-286.27a13.031,13.031,0,0,0-12.47-9.28,12.913,12.913,0,0,0-3.71.54,13.017,13.017,0,0,0-8.74,16.17,13.027,13.027,0,0,0,12.47,9.29,13.323,13.323,0,0,0,3.71-.54A13.027,13.027,0,0,0,1229.64-286.27Zm-9.32,14.26a11,11,0,0,1-13.68-7.4,11,11,0,0,1,7.4-13.68,11,11,0,0,1,13.68,7.39A11.011,11.011,0,0,1,1220.32-272.01Z" fill="#fff"/>
          </g>
          <g id="Group_2833" data-name="Group 2833">
            <path id="Path_1505" data-name="Path 1505" d="M1232.99-287.27a16.432,16.432,0,0,0-7.96-9.8,16.433,16.433,0,0,0-12.57-1.29,16.524,16.524,0,0,0-11.09,20.53,16.522,16.522,0,0,0,15.82,11.78,16.378,16.378,0,0,0,4.71-.69,16.413,16.413,0,0,0,9.8-7.97A16.4,16.4,0,0,0,1232.99-287.27Zm-2.17,12.09a15.4,15.4,0,0,1-9.21,7.48,15.513,15.513,0,0,1-19.28-10.42,15.505,15.505,0,0,1,10.42-19.28,15.477,15.477,0,0,1,4.45-.66,15.442,15.442,0,0,1,7.35,1.87,15.4,15.4,0,0,1,7.48,9.21A15.4,15.4,0,0,1,1230.82-275.18Z" fill="#fff"/>
            <path id="Path_1506" data-name="Path 1506" d="M1232.03-286.98a15.4,15.4,0,0,0-7.48-9.21,15.442,15.442,0,0,0-7.35-1.87,15.477,15.477,0,0,0-4.45.66,15.505,15.505,0,0,0-10.42,19.28,15.513,15.513,0,0,0,19.28,10.42,15.4,15.4,0,0,0,9.21-7.48A15.4,15.4,0,0,0,1232.03-286.98Zm-11.13,16.89a13.323,13.323,0,0,1-3.71.54,13.027,13.027,0,0,1-12.47-9.29,13.017,13.017,0,0,1,8.74-16.17,12.913,12.913,0,0,1,3.71-.54,13.031,13.031,0,0,1,12.47,9.28A13.027,13.027,0,0,1,1220.9-270.09Z" fill="#3f7ed0" opacity="0.5"/>
          </g>
          <g id="Group_2834" data-name="Group 2834">
            <path id="Path_1507" data-name="Path 1507" d="M1214.749-286.65l2.376-.709.805,7.749,3.549-1.059.23,2.2-5.939,1.771Z" fill="#fff"/>
          </g>
        </g>
        <g id="Group_2836" data-name="Group 2836">
          <path id="Path_1508" data-name="Path 1508" d="M1224.38-218.52a13.029,13.029,0,0,0-12.01-7.99,12.984,12.984,0,0,0-5,1.01,13,13,0,0,0-6.98,17.01,13.01,13.01,0,0,0,12.01,7.98,13.007,13.007,0,0,0,5-1A13.027,13.027,0,0,0,1224.38-218.52Zm-7.75,15.16a11.023,11.023,0,0,1-14.4-5.9,10.906,10.906,0,0,1-.85-4.23,11.013,11.013,0,0,1,6.76-10.17,11.091,11.091,0,0,1,4.23-.85,11.025,11.025,0,0,1,10.16,6.76A11.015,11.015,0,0,1,1216.63-203.36Z" fill="#fff"/>
          <path id="Path_1509" data-name="Path 1509" d="M1227.6-219.87a16.388,16.388,0,0,0-4.91-6.52,16.641,16.641,0,0,0-1.99-1.36,16.474,16.474,0,0,0-14.68-.98,16.363,16.363,0,0,0-8.9,8.96,16.365,16.365,0,0,0,.04,12.63,16.426,16.426,0,0,0,8.96,8.9,16.44,16.44,0,0,0,6.26,1.24,16.617,16.617,0,0,0,6.37-1.28,14.858,14.858,0,0,0,1.95-.99,14.263,14.263,0,0,0,1.99-1.36,16.408,16.408,0,0,0,4.96-6.61A16.365,16.365,0,0,0,1227.6-219.87Zm-.88,12.25a15.235,15.235,0,0,1-4.63,6.2,13.465,13.465,0,0,1-1.39.99,15.271,15.271,0,0,1-2.34,1.22,15.385,15.385,0,0,1-11.86.04,15.409,15.409,0,0,1-8.42-8.36,15.385,15.385,0,0,1-.04-11.86,15.407,15.407,0,0,1,8.36-8.42,15.51,15.51,0,0,1,5.96-1.2,15.579,15.579,0,0,1,8.34,2.43,15.905,15.905,0,0,1,1.38.99,15.246,15.246,0,0,1,4.6,6.1A15.41,15.41,0,0,1,1226.72-207.62Z" fill="#fff"/>
          <path id="Path_1510" data-name="Path 1510" d="M1226.68-219.49a15.246,15.246,0,0,0-4.6-6.1,15.905,15.905,0,0,0-1.38-.99,15.579,15.579,0,0,0-8.34-2.43,15.51,15.51,0,0,0-5.96,1.2,15.407,15.407,0,0,0-8.36,8.42,15.385,15.385,0,0,0,.04,11.86,15.409,15.409,0,0,0,8.42,8.36,15.385,15.385,0,0,0,11.86-.04,15.271,15.271,0,0,0,2.34-1.22,13.465,13.465,0,0,0,1.39-.99,15.235,15.235,0,0,0,4.63-6.2A15.41,15.41,0,0,0,1226.68-219.49Zm-9.28,17.98a13.007,13.007,0,0,1-5,1,13.01,13.01,0,0,1-12.01-7.98,13,13,0,0,1,6.98-17.01,12.984,12.984,0,0,1,5-1.01,13.029,13.029,0,0,1,12.01,7.99A13.027,13.027,0,0,1,1217.4-201.51Z" fill="#3f7ed0" opacity="0.5"/>
          <path id="Path_1511" data-name="Path 1511" d="M1215.343-209.353a5.737,5.737,0,0,0,1.7-1.593,3.228,3.228,0,0,0,.591-1.694,2.659,2.659,0,0,0-.44-1.549,2.237,2.237,0,0,0-1.284-1.026,3.091,3.091,0,0,0-1.486-.034,12.923,12.923,0,0,0-1.769.559,7.836,7.836,0,0,1-1.38.427.609.609,0,0,1-.671-.241.709.709,0,0,1-.028-.714,2.2,2.2,0,0,1,.846-.829,5.5,5.5,0,0,1,2.594-.812l-.388-2.114a5.62,5.62,0,0,0-1.671.351,8.1,8.1,0,0,0-1.654.823,5.809,5.809,0,0,0-1.712,1.591,3.17,3.17,0,0,0-.586,1.691,2.707,2.707,0,0,0,.452,1.565,2.277,2.277,0,0,0,1.282,1.036,3.01,3.01,0,0,0,1.49.04,13.535,13.535,0,0,0,1.763-.556,8.035,8.035,0,0,1,1.408-.421.638.638,0,0,1,.7.265q.418.646-.873,1.483a5.611,5.611,0,0,1-1.522.68,5.689,5.689,0,0,1-1.6.234l.335,2.131a5.468,5.468,0,0,0,1.884-.32A8.7,8.7,0,0,0,1215.343-209.353Z" fill="#fff"/>
        </g>
        <g id="Group_2838" data-name="Group 2838">
          <path id="Path_1512" data-name="Path 1512" d="M1328-163.05a13.02,13.02,0,0,0-16.99,7.01,13.019,13.019,0,0,0,7.01,17,12.861,12.861,0,0,0,4.97,1,13.016,13.016,0,0,0,12.02-8.01,12.911,12.911,0,0,0,1-4.98A13.036,13.036,0,0,0,1328-163.05Zm5.17,16.23a11.011,11.011,0,0,1-14.38,5.93,11.024,11.024,0,0,1-5.94-14.38,11.026,11.026,0,0,1,10.18-6.77,11.016,11.016,0,0,1,4.21.84A11.011,11.011,0,0,1,1333.17-146.82Z" fill="#fff"/>
          <path id="Path_1513" data-name="Path 1513" d="M1329.35-166.28a16.52,16.52,0,0,0-21.57,8.9,16.508,16.508,0,0,0,8.89,21.57,16.432,16.432,0,0,0,6.32,1.27,16.534,16.534,0,0,0,15.26-10.17,16.334,16.334,0,0,0,1.26-6.31A16.525,16.525,0,0,0,1329.35-166.28Zm7.97,21.19a15.52,15.52,0,0,1-20.26,8.36A15.531,15.531,0,0,1,1308.7-157a15.529,15.529,0,0,1,14.33-9.54,15.314,15.314,0,0,1,5.93,1.19A15.508,15.508,0,0,1,1337.32-145.09Z" fill="#fff"/>
          <path id="Path_1514" data-name="Path 1514" d="M1328.96-165.35a15.314,15.314,0,0,0-5.93-1.19A15.529,15.529,0,0,0,1308.7-157a15.531,15.531,0,0,0,8.36,20.27,15.52,15.52,0,0,0,20.26-8.36A15.508,15.508,0,0,0,1328.96-165.35Zm6.05,19.3a13.016,13.016,0,0,1-12.02,8.01,12.861,12.861,0,0,1-4.97-1,13.019,13.019,0,0,1-7.01-17,13.02,13.02,0,0,1,16.99-7.01,13.036,13.036,0,0,1,8.01,12.02A12.911,12.911,0,0,1,1335.01-146.05Z" fill="#3f7ed0" opacity="0.5"/>
          <g id="Group_2837" data-name="Group 2837">
            <path id="Path_1515" data-name="Path 1515" d="M1323.725-152.788l-4.111.331,2.648,3.186,4.148-.359-2.669-3.2Z" fill="#fff"/>
            <path id="Path_1516" data-name="Path 1516" d="M1319.322-151.767l1.407,6.207,5.4-3.376-4.238.593Z" fill="#fff"/>
            <path id="Path_1517" data-name="Path 1517" d="M1326.7-150.32l-1.409-6.207-5.394,3.378,4.236-.595Z" fill="#fff"/>
          </g>
        </g>
        <path id="Path_1518" data-name="Path 1518" d="M1353-215.5h-30a2,2,0,0,1-2-2,2,2,0,0,1,2-2h30a2,2,0,0,1,2,2A2,2,0,0,1,1353-215.5Z" fill="#fff"/>
        <path id="Path_1519" data-name="Path 1519" d="M1222.7-177.23v3.46a1.994,1.994,0,0,1-1,.27H1200a2.006,2.006,0,0,1-2-2,2.006,2.006,0,0,1,2-2h21.7A1.994,1.994,0,0,1,1222.7-177.23Z" fill="#fff"/>
        <path id="Path_1520" data-name="Path 1520" d="M1205-135.5h-19a2,2,0,0,1-2-2,2,2,0,0,1,2-2h19a2,2,0,0,1,2,2A2,2,0,0,1,1205-135.5Z" fill="#fff"/>
        <path id="Path_1521" data-name="Path 1521" d="M1348-179.5h-13a2,2,0,0,1-2-2,2,2,0,0,1,2-2h13a2,2,0,0,1,2,2A2,2,0,0,1,1348-179.5Z" fill="#fff"/>
        <path id="Path_1522" data-name="Path 1522" d="M1180-215.5h-30a2,2,0,0,1-2-2,2,2,0,0,1,2-2h30a2,2,0,0,1,2,2A2,2,0,0,1,1180-215.5Z" fill="#fff"/>
        <path id="Path_1523" data-name="Path 1523" d="M1286-275.5h-16a2,2,0,0,1-2-2,2,2,0,0,1,2-2h16a2,2,0,0,1,2,2A2,2,0,0,1,1286-275.5Z" fill="#fff"/>
        <path id="Path_1524" data-name="Path 1524" d="M1341-275.5h-44a2,2,0,0,1-2-2,2,2,0,0,1,2-2h44a2,2,0,0,1,2,2A2,2,0,0,1,1341-275.5Z" fill="#fff"/>
        <path id="Path_1525" data-name="Path 1525" d="M1366.5-198.5a6.508,6.508,0,0,1-6.5-6.5,6.508,6.508,0,0,1,6.5-6.5,6.508,6.508,0,0,1,6.5,6.5A6.508,6.508,0,0,1,1366.5-198.5Zm0-12a5.507,5.507,0,0,0-5.5,5.5,5.507,5.507,0,0,0,5.5,5.5,5.507,5.507,0,0,0,5.5-5.5A5.507,5.507,0,0,0,1366.5-210.5Z" fill="#fff"/>
        <g id="Group_2839" data-name="Group 2839">
          <path id="Path_1526" data-name="Path 1526" d="M1268.7-254h-16a1,1,0,0,0-1,1,1,1,0,0,0,1,1h16a1,1,0,0,0,1-1A1,1,0,0,0,1268.7-254Z" fill="#fff"/>
          <path id="Path_1527" data-name="Path 1527" d="M1280.149-254h-5a1,1,0,0,0-1,1,1,1,0,0,0,1,1h5a1,1,0,0,0,1-1A1,1,0,0,0,1280.149-254Z" fill="#fff"/>
          <path id="Path_1528" data-name="Path 1528" d="M1260.7-126.5a4.507,4.507,0,0,0,4.5-4.5,4.507,4.507,0,0,0-4.5-4.5,4.507,4.507,0,0,0-4.5,4.5A4.507,4.507,0,0,0,1260.7-126.5Zm0-7a2.5,2.5,0,0,1,2.5,2.5,2.5,2.5,0,0,1-2.5,2.5,2.5,2.5,0,0,1-2.5-2.5A2.5,2.5,0,0,1,1260.7-133.5Z" fill="#fff"/>
          <path id="Path_1529" data-name="Path 1529" d="M1360.52-205H1342a.5.5,0,0,0-.354.146L1330.793-194H1300.7v-41.39a16.471,16.471,0,0,0,6.48,1.35,16.421,16.421,0,0,0,5.91-1.11,16.382,16.382,0,0,0,9.16-8.69,16.524,16.524,0,0,0-8.36-21.79,16.443,16.443,0,0,0-19.85,5.13h-40.19v-6.25a.5.5,0,0,0-.147-.354l-7.393-7.4V-287a.5.5,0,0,0-.5-.5.5.5,0,0,0-.5.5v12.7a.5.5,0,0,0,.146.354l7.394,7.4v6.043H1225.7a5,5,0,0,0-5,5v28.92a15.905,15.905,0,0,1,1.38.99.967.967,0,0,0,.61-.8.486.486,0,0,0,.01-.12V-245h76v103.5h-76v-59a.57.57,0,0,0-.01-.13.992.992,0,0,0-.6-.79,13.465,13.465,0,0,1-1.39.99v37.93h-15.5a.5.5,0,0,0-.353.146L1193.993-151.5h-17.878a6.5,6.5,0,0,0-6.415-5.5,6.508,6.508,0,0,0-6.5,6.5,6.508,6.508,0,0,0,6.5,6.5,6.507,6.507,0,0,0,6.5-6.5h18a.5.5,0,0,0,.354-.146l10.853-10.854H1220.7v36a5,5,0,0,0,5,5h70a5,5,0,0,0,5-5V-193H1331a.5.5,0,0,0,.354-.146L1342.207-204h18.313a.5.5,0,0,0,.5-.5A.5.5,0,0,0,1360.52-205ZM1169.7-145a5.507,5.507,0,0,1-5.5-5.5,5.507,5.507,0,0,1,5.5-5.5,5.506,5.506,0,0,1,5.5,5.5A5.506,5.506,0,0,1,1169.7-145Zm129,19.5a3.009,3.009,0,0,1-3,3h-70a3.009,3.009,0,0,1-3-3v-14h76Zm0-121.5h-76v-8.5a3.009,3.009,0,0,1,3-3h70a3.009,3.009,0,0,1,3,3Zm-.59-12.85a4.933,4.933,0,0,0-2.41-.65h-.4a15.457,15.457,0,0,1,18.19-4.21,15.521,15.521,0,0,1,7.84,20.47,15.347,15.347,0,0,1-8.6,8.16,15.365,15.365,0,0,1-11.85-.32,1.418,1.418,0,0,1-.18-.08v-2.82c.39.22.78.44,1.19.62a12.884,12.884,0,0,0,5.29,1.14,12.944,12.944,0,0,0,4.65-.87,12.915,12.915,0,0,0,7.22-6.85,12.911,12.911,0,0,0,.27-9.95,12.9,12.9,0,0,0-6.85-7.21A12.9,12.9,0,0,0,1298.11-259.85Zm1.52,1.3a10.937,10.937,0,0,1,12.02-2.05,10.92,10.92,0,0,1,5.8,6.1,10.972,10.972,0,0,1-.22,8.42,10.938,10.938,0,0,1-6.11,5.8,10.974,10.974,0,0,1-8.42-.22,11.047,11.047,0,0,1-2-1.2v-13.8A4.957,4.957,0,0,0,1299.63-258.55Z" fill="#fff"/>
        </g>
        <path id="Path_1530" data-name="Path 1530" d="M1245.464-286.481a4.62,4.62,0,0,1-4.614-4.615,4.619,4.619,0,0,1,4.614-4.614,4.619,4.619,0,0,1,4.614,4.614A4.62,4.62,0,0,1,1245.464-286.481Zm0-8.229a3.618,3.618,0,0,0-3.614,3.614,3.619,3.619,0,0,0,3.614,3.615,3.619,3.619,0,0,0,3.614-3.615A3.618,3.618,0,0,0,1245.464-294.71Z" fill="#fff"/>
      </g>
    </g>
  </g>
</svg>
