<svg xmlns="http://www.w3.org/2000/svg" xmlns:xlink="http://www.w3.org/1999/xlink" width="239" height="239" viewBox="0 0 239 239">
  <defs>
    <clipPath id="clip-path">
      <circle id="Ellipse_69" data-name="Ellipse 69" cx="119.5" cy="119.5" r="119.5" transform="translate(1590.71 -319.5)" fill="none"/>
    </clipPath>
  </defs>
  <g id="Group_2845" data-name="Group 2845" transform="translate(-1590.71 319.5)">
    <g id="Group_2844" data-name="Group 2844" clip-path="url(#clip-path)">
      <circle id="Ellipse_69-2" data-name="Ellipse 69" cx="90" cy="90" r="90" transform="translate(1620.21 -290)" fill="#fff" opacity="0.1"/>
      <g id="Group_2843" data-name="Group 2843">
        <path id="Path_1531" data-name="Path 1531" d="M1773.16-243.39a16.339,16.339,0,0,0-11.06-1.09l.95-7.75a1.017,1.017,0,0,0-.87-1.12l-22.29-2.72,4.27-4.26h15.35a.469.469,0,0,0,.35-.15l12.73-12.73a6.46,6.46,0,0,0,4.6,1.91,6.437,6.437,0,0,0,4.59-1.91,6.466,6.466,0,0,0,1.9-4.59,6.488,6.488,0,0,0-1.9-4.6,6.427,6.427,0,0,0-4.59-1.9,6.492,6.492,0,0,0-4.6,1.9,6.451,6.451,0,0,0-1.9,4.6,6.386,6.386,0,0,0,1.25,3.83l-12.64,12.64h-15.35a.469.469,0,0,0-.35.15l-4.97,4.96-20.26-2.47a1.013,1.013,0,0,0-1.07.66l-4.42,12.61a1.01,1.01,0,0,0,.06.8l4.3,8.08-5.99,6.04a1.012,1.012,0,0,0-.26.91.951.951,0,0,0,.61.72l13.17,5.23L1709-211.3a.994.994,0,0,0-.31,1.18l6.83,15.97-4.02,9.49,1.26-8.18a1.031,1.031,0,0,0-.19-.76l-10.64-13.96,13.24-17.11a.983.983,0,0,0,.13-.99.985.985,0,0,0-.79-.61l-14.74-1.93,4.07-6.89a.994.994,0,0,0-.12-1.18l-6.55-7.22.02-.23v-.02a16.51,16.51,0,0,0,9.14-21.14,16.536,16.536,0,0,0-21.32-9.51,16.469,16.469,0,0,0-6.9,5.03,1.975,1.975,0,0,0-.73-.14h-5.53a2.006,2.006,0,0,0-2,2,2.006,2.006,0,0,0,2,2h3.94a16.391,16.391,0,0,0-.86,10.5h-.02l-16.67,2.13a1,1,0,0,0-.86,1.12l7.48,58.75h-11.8l-10.86-10.85a.469.469,0,0,0-.35-.15h-18a6.513,6.513,0,0,0-6.5-6.5,6.506,6.506,0,0,0-6.5,6.5,6.506,6.506,0,0,0,6.5,6.5,6.509,6.509,0,0,0,6.42-5.5h17.87l10.86,10.85a.469.469,0,0,0,.35.15h12.14l1.61,12.65a16.363,16.363,0,0,0-9.52.14,16.522,16.522,0,0,0-10.72,20.73,16.532,16.532,0,0,0,15.73,11.5,16.4,16.4,0,0,0,5-.78,16.249,16.249,0,0,0,3.34-1.49l1.49,11.68a.993.993,0,0,0,.74.84,1.068,1.068,0,0,0,.25.03,1.014,1.014,0,0,0,.81-.41l4.58-6.25,5.99,4.9a.946.946,0,0,0,.75.22,1.007,1.007,0,0,0,.69-.4l4.58-6.25,5.99,4.9a.947.947,0,0,0,.76.22,1.008,1.008,0,0,0,.68-.4l4.57-6.24,4.47,3.64a.935.935,0,0,0,.8.21,1,1,0,0,0,.69-.47l2.66-4.48,1.8,2.42a.986.986,0,0,0,.68.4,1.039,1.039,0,0,0,.76-.22l5.77-4.77,4.46,6.02a1.023,1.023,0,0,0,.68.4,1,1,0,0,0,.76-.23l5.76-4.77,4.48,6.02a.974.974,0,0,0,.68.39.958.958,0,0,0,.76-.22l5.75-4.76,4.47,6.01a1.014,1.014,0,0,0,.8.4,1.154,1.154,0,0,0,.26-.03.994.994,0,0,0,.73-.85l1.72-14.07a15.091,15.091,0,0,0,4.73-8.41,15.2,15.2,0,0,0-2.33-11.41l4.72-38.72c.21.11.42.22.63.32a16.457,16.457,0,0,0,7.08,1.61,16.549,16.549,0,0,0,5.53-.96,16.362,16.362,0,0,0,9.37-8.46A16.522,16.522,0,0,0,1773.16-243.39Zm-1.47-34.41a5.461,5.461,0,0,1,1.61-3.89,5.46,5.46,0,0,1,3.89-1.61,5.46,5.46,0,0,1,3.89,1.61,5.461,5.461,0,0,1,1.61,3.89,5.461,5.461,0,0,1-1.61,3.89,5.461,5.461,0,0,1-3.89,1.61,5.46,5.46,0,0,1-3.89-1.61A5.461,5.461,0,0,1,1771.69-277.8Zm-154.34,79.3a5.5,5.5,0,0,1-5.5-5.5,5.5,5.5,0,0,1,5.5-5.5,5.51,5.51,0,0,1,5.5,5.5A5.51,5.51,0,0,1,1617.35-198.5Zm76.72-58.94.55-2.16-1.85,2.33-3.9.5-1.13-.19.41.28-7.73.98a11.039,11.039,0,0,1,1.67-9.84,1.581,1.581,0,0,0,.38.04h5.38a2.006,2.006,0,0,0,2-2,2.006,2.006,0,0,0-2-2h-.12a11.019,11.019,0,0,1,13.46,6.59,10.989,10.989,0,0,1-3.41,12.52l.57-6.37a1.026,1.026,0,0,0-.31-.81.985.985,0,0,0-.82-.27Zm-17.2-8.06h.51a2.006,2.006,0,0,0,2-2,2.035,2.035,0,0,0-.46-1.27,15.346,15.346,0,0,1,6.45-4.68,15.519,15.519,0,0,1,20.02,8.93,15.491,15.491,0,0,1-8.1,19.64l.27-2.94v-.01a12.963,12.963,0,0,0,5.49-15.8,13,13,0,0,0-16.79-7.48,12.574,12.574,0,0,0-2.98,1.61,12.385,12.385,0,0,0-1.51,1.29,12.726,12.726,0,0,0-1.19,1.36,12.96,12.96,0,0,0-2.17,11.41l-2.48.32A15.416,15.416,0,0,1,1676.87-265.5Zm-5.19,114.18a13.4,13.4,0,0,1-1.39.98,15.323,15.323,0,0,1-3.5,1.62,15.52,15.52,0,0,1-19.48-10.06,15.519,15.519,0,0,1,10.07-19.47,15.352,15.352,0,0,1,4.69-.74,15.553,15.553,0,0,1,4.67.72,14.267,14.267,0,0,1,1.58.6,15.468,15.468,0,0,1,8.53,9.48A15.5,15.5,0,0,1,1671.68-151.32Zm38.29,1.49v.01l-.04.06-2.79,4.71-4.38-3.57a.947.947,0,0,0-.76-.22,1.008,1.008,0,0,0-.68.4l-4.57,6.24-5.99-4.9a.958.958,0,0,0-.76-.22,1.008,1.008,0,0,0-.68.4l-4.58,6.25-5.99-4.9a.946.946,0,0,0-.75-.22,1.007,1.007,0,0,0-.69.4l-3.73,5.08-1.3-10.2a16.54,16.54,0,0,0,5.53-17.98,16.443,16.443,0,0,0-9.1-10.1l-9.22-72.42,20.25-2.59a.276.276,0,0,0,.09-.01.376.376,0,0,0,.1-.01h.01l16.3-2.08-1.11,12.47a1.013,1.013,0,0,0,.26.76l6.35,7-4.46,7.55a1,1,0,0,0-.04.95,1,1,0,0,0,.77.55l14.51,1.91-12.64,16.34a1,1,0,0,0-.01,1.22l10.85,14.23-2.39,15.62-.01.03a.11.11,0,0,1-.01.05l-1.2,7.89a.989.989,0,0,0,.42.97l8.4,5.88.19.14.81.56Zm44.28-16.85a13.332,13.332,0,0,1-4.47,9.97l-.09.07-.01.01-.04.03a14.244,14.244,0,0,1-1.21.92,13.281,13.281,0,0,1-18.41-3.55,13.273,13.273,0,0,1,3.54-18.41,13.182,13.182,0,0,1,7.41-2.28,13.544,13.544,0,0,1,2.53.24,13.09,13.09,0,0,1,8.22,5.23.01.01,0,0,0,.01.01c.03.04.05.08.08.12l.03.03a.052.052,0,0,0,.02.04l.01.01a1.213,1.213,0,0,1,.1.14A13.209,13.209,0,0,1,1754.25-166.68Zm-2.35-10.65a15.11,15.11,0,0,0-3.65-2.77,15.573,15.573,0,0,0-4.37-1.55,15.183,15.183,0,0,0-11.44,2.35,15.273,15.273,0,0,0-4.08,21.19,15.265,15.265,0,0,0,12.66,6.7,15.1,15.1,0,0,0,8.01-2.29l-1.18,9.68-3.6-4.85a1.007,1.007,0,0,0-.69-.4,1.027,1.027,0,0,0-.75.22l-5.76,4.77-4.47-6.02a1.045,1.045,0,0,0-.69-.4.98.98,0,0,0-.75.23l-5.76,4.77-4.46-6.02a1,1,0,0,0-.68-.39.947.947,0,0,0-.76.22l-5.77,4.77-1.68-2.26,7.09-11.98a1,1,0,0,0-.29-1.33l-1-.7-7.04-4.93-.02-.01-1.59-1.11.08-.52.39-2.53.63-4.14,7.24-17.14a.963.963,0,0,0,0-.78l-4.83-11.3,30.07,3.66a.486.486,0,0,0,.12.01,1,1,0,0,0,.99-.88.993.993,0,0,0-.87-1.11l-31.22-3.8-.95-2.23,16.54-12.94a1,1,0,0,0,.37-.93.978.978,0,0,0-.62-.78l-13.38-5.32,5.44-5.48a.986.986,0,0,0,.17-1.17l-4.44-8.35,4.01-11.44,42.02,5.13Zm9.46-61.07a10.91,10.91,0,0,1,9.45-.02,10.948,10.948,0,0,1,5.64,6.25,10.958,10.958,0,0,1-.43,8.41,10.915,10.915,0,0,1-6.25,5.64,10.913,10.913,0,0,1-8.41-.43,11.458,11.458,0,0,1-2.24-1.45Zm18.72,16.58a15.377,15.377,0,0,1-8.81,7.94,15.383,15.383,0,0,1-11.85-.61c-.31-.15-.61-.31-.92-.48l.34-2.72a12.893,12.893,0,0,0,1.66.94,12.856,12.856,0,0,0,5.58,1.27,12.914,12.914,0,0,0,4.36-.76,12.9,12.9,0,0,0,7.38-6.66,12.854,12.854,0,0,0,.51-9.94,12.9,12.9,0,0,0-6.66-7.38,13.037,13.037,0,0,0-10.03-.46l.33-2.72a15.376,15.376,0,0,1,10.77.91A15.536,15.536,0,0,1,1780.08-221.82Z" fill="#fff"/>
        <path id="Path_1532" data-name="Path 1532" d="M1697.29-244.88l.27-2.94v-.01a12.963,12.963,0,0,0,5.49-15.8,13,13,0,0,0-16.79-7.48,12.574,12.574,0,0,0-2.98,1.61,12.385,12.385,0,0,0-1.51,1.29,12.726,12.726,0,0,0-1.19,1.36,12.96,12.96,0,0,0-2.17,11.41l-2.48.32a15.416,15.416,0,0,1,.94-10.38h.51a2.006,2.006,0,0,0,2-2,2.035,2.035,0,0,0-.46-1.27,15.346,15.346,0,0,1,6.45-4.68,15.519,15.519,0,0,1,20.02,8.93A15.491,15.491,0,0,1,1697.29-244.88Z" fill="#7a7fd7"/>
        <path id="Path_1533" data-name="Path 1533" d="M1676.85-168.19a15.468,15.468,0,0,0-8.53-9.48,14.267,14.267,0,0,0-1.58-.6,15.553,15.553,0,0,0-4.67-.72,15.352,15.352,0,0,0-4.69.74,15.519,15.519,0,0,0-10.07,19.47,15.52,15.52,0,0,0,19.48,10.06,15.323,15.323,0,0,0,3.5-1.62,13.4,13.4,0,0,0,1.39-.98A15.5,15.5,0,0,0,1676.85-168.19Zm-10.82,17.09a12.888,12.888,0,0,1-3.96.62,12.957,12.957,0,0,1-5.96-1.46,12.883,12.883,0,0,1-6.41-7.6,12.878,12.878,0,0,1,.84-9.92,12.882,12.882,0,0,1,7.6-6.41,12.9,12.9,0,0,1,3.94-.62,13.015,13.015,0,0,1,12.39,9.06A13.006,13.006,0,0,1,1666.03-151.1Z" fill="#7a7fd7"/>
        <path id="Path_1534" data-name="Path 1534" d="M1751.97-174.1a1.213,1.213,0,0,0-.1-.14l-.01-.01a.052.052,0,0,1-.02-.04l-.03-.03c-.03-.04-.05-.08-.08-.12a.01.01,0,0,1-.01-.01,13.09,13.09,0,0,0-8.22-5.23,13.544,13.544,0,0,0-2.53-.24,13.182,13.182,0,0,0-7.41,2.28,13.273,13.273,0,0,0-3.54,18.41,13.281,13.281,0,0,0,18.41,3.55,14.244,14.244,0,0,0,1.21-.92l.04-.03.01-.01.09-.07a13.332,13.332,0,0,0,4.47-9.97A13.209,13.209,0,0,0,1751.97-174.1Zm-5.27,4.78-4.32,2.92,2.93,4.32a1,1,0,0,1-.27,1.39.98.98,0,0,1-.56.18,1.012,1.012,0,0,1-.83-.44l-2.92-4.32-4.32,2.92a.991.991,0,0,1-.56.17.987.987,0,0,1-.83-.44.989.989,0,0,1,.27-1.38l4.31-2.93-2.92-4.32a1,1,0,0,1,.27-1.39,1,1,0,0,1,1.39.27l2.92,4.32,4.32-2.93a1,1,0,0,1,1.39.27A1,1,0,0,1,1746.7-169.32Z" fill="#7a7fd7"/>
        <path id="Path_1535" data-name="Path 1535" d="M1780.08-221.82a15.377,15.377,0,0,1-8.81,7.94,15.383,15.383,0,0,1-11.85-.61c-.31-.15-.61-.31-.92-.48l.34-2.72a12.893,12.893,0,0,0,1.66.94,12.856,12.856,0,0,0,5.58,1.27,12.914,12.914,0,0,0,4.36-.76,12.9,12.9,0,0,0,7.38-6.66,12.854,12.854,0,0,0,.51-9.94,12.9,12.9,0,0,0-6.66-7.38,13.037,13.037,0,0,0-10.03-.46l.33-2.72a15.376,15.376,0,0,1,10.77.91A15.536,15.536,0,0,1,1780.08-221.82Z" fill="#7a7fd7"/>
        <path id="Path_1536" data-name="Path 1536" d="M1704.686-216.341a1.006,1.006,0,0,0-1.119-.866l-28.667,3.652a1,1,0,0,0-.866,1.118,1,1,0,0,0,.991.874.912.912,0,0,0,.127-.008l28.667-3.651A1,1,0,0,0,1704.686-216.341Z" fill="#fff"/>
        <path id="Path_1537" data-name="Path 1537" d="M1744.237-213.319a1,1,0,0,0,.992-.879,1,1,0,0,0-.872-1.114l-22.282-2.714a1,1,0,0,0-1.113.871,1,1,0,0,0,.871,1.114l22.282,2.715A1.01,1.01,0,0,0,1744.237-213.319Z" fill="#fff"/>
        <path id="Path_1538" data-name="Path 1538" d="M1696.591-203.657a1,1,0,0,0-1.118-.866l-19.112,2.435a1,1,0,0,0-.866,1.118,1,1,0,0,0,.991.874,1.083,1.083,0,0,0,.127-.008l19.112-2.435A1,1,0,0,0,1696.591-203.657Z" fill="#fff"/>
        <path id="Path_1539" data-name="Path 1539" d="M1707.606-193.408a1,1,0,0,0-1.118-.865l-28.666,3.651a1,1,0,0,0-.866,1.119,1,1,0,0,0,.991.873.912.912,0,0,0,.127-.008l28.666-3.651A1,1,0,0,0,1707.606-193.408Z" fill="#fff"/>
        <path id="Path_1540" data-name="Path 1540" d="M1741.522-191.037a1,1,0,0,0,.992-.879,1,1,0,0,0-.871-1.114l-22.283-2.715a1,1,0,0,0-1.113.872,1,1,0,0,0,.871,1.114l22.282,2.715C1741.441-191.04,1741.482-191.037,1741.522-191.037Z" fill="#fff"/>
        <path id="Path_1541" data-name="Path 1541" d="M1746.7-169.32l-4.32,2.92,2.93,4.32a1,1,0,0,1-.27,1.39.98.98,0,0,1-.56.18,1.012,1.012,0,0,1-.83-.44l-2.92-4.32-4.32,2.92a.991.991,0,0,1-.56.17.987.987,0,0,1-.83-.44.989.989,0,0,1,.27-1.38l4.31-2.93-2.92-4.32a1,1,0,0,1,.27-1.39,1,1,0,0,1,1.39.27l2.92,4.32,4.32-2.93a1,1,0,0,1,1.39.27A1,1,0,0,1,1746.7-169.32Z" fill="#fff"/>
        <path id="Path_1542" data-name="Path 1542" d="M1674.47-167.43a13.015,13.015,0,0,0-12.39-9.06,12.9,12.9,0,0,0-3.94.62,12.882,12.882,0,0,0-7.6,6.41,12.878,12.878,0,0,0-.84,9.92,12.883,12.883,0,0,0,6.41,7.6,12.957,12.957,0,0,0,5.96,1.46,12.888,12.888,0,0,0,3.96-.62A13.006,13.006,0,0,0,1674.47-167.43ZM1665.42-153a10.934,10.934,0,0,1-8.39-.71,10.936,10.936,0,0,1-5.43-6.44,10.933,10.933,0,0,1,.71-8.39,10.936,10.936,0,0,1,6.44-5.43,11.021,11.021,0,0,1,13.82,7.15A11.016,11.016,0,0,1,1665.42-153Z" fill="#fff"/>
        <path id="Path_1543" data-name="Path 1543" d="M1665.607-164.167a3.086,3.086,0,0,0-1.425-.425,12.959,12.959,0,0,0-1.854.073,7.78,7.78,0,0,1-1.443.048.608.608,0,0,1-.584-.409.707.707,0,0,1,.161-.7,2.2,2.2,0,0,1,1.035-.577,5.5,5.5,0,0,1,2.716-.1l.183-2.141a5.621,5.621,0,0,0-1.7-.1,8.076,8.076,0,0,0-1.813.358,5.823,5.823,0,0,0-2.071,1.084,3.158,3.158,0,0,0-1.01,1.476,2.713,2.713,0,0,0,.022,1.629,2.285,2.285,0,0,0,.964,1.337,3,3,0,0,0,1.427.431,13.366,13.366,0,0,0,1.847-.071,8.061,8.061,0,0,1,1.47-.035.637.637,0,0,1,.6.439q.232.734-1.233,1.2a5.588,5.588,0,0,1-1.647.255,5.669,5.669,0,0,1-1.607-.2l-.239,2.144a5.483,5.483,0,0,0,1.9.188,8.725,8.725,0,0,0,2.208-.406,5.724,5.724,0,0,0,2.062-1.088,3.218,3.218,0,0,0,1.017-1.478,2.658,2.658,0,0,0-.016-1.61A2.237,2.237,0,0,0,1665.607-164.167Z" fill="#fff"/>
        <path id="Path_1544" data-name="Path 1544" d="M1766.71-222.42l1.31-1.79-3.35-1.59,4.59-6.29-2.24-1.07-5.9,8.08Z" fill="#fff"/>
        <path id="Path_1545" data-name="Path 1545" d="M1690.23-260.733l-2.751,3.073,4.114.484,2.758-3.119-4.136-.476Z" fill="#fff"/>
        <path id="Path_1546" data-name="Path 1546" d="M1694.087-261l-5.3-3.527-1.582,6.165,2.66-3.35Z" fill="#fff"/>
        <path id="Path_1547" data-name="Path 1547" d="M1657-139.5h-30a2,2,0,0,0-2,2,2,2,0,0,0,2,2h30a2,2,0,0,0,2-2A2,2,0,0,0,1657-139.5Z" fill="#fff"/>
        <path id="Path_1548" data-name="Path 1548" d="M1757-126.5h-19a2,2,0,0,0-2,2,2,2,0,0,0,2,2h19a2,2,0,0,0,2-2A2,2,0,0,0,1757-126.5Z" fill="#fff"/>
        <path id="Path_1549" data-name="Path 1549" d="M1629-224.5a2,2,0,0,0-2,2,2,2,0,0,0,2,2h13a2,2,0,0,0,2-2,2,2,0,0,0-2-2Z" fill="#fff"/>
        <path id="Path_1550" data-name="Path 1550" d="M1807.846-209.5h-30a2,2,0,0,0-2,2,2,2,0,0,0,2,2h30a2,2,0,0,0,2-2A2,2,0,0,0,1807.846-209.5Z" fill="#fff"/>
        <path id="Path_1551" data-name="Path 1551" d="M1616.846-265.5h44a2,2,0,0,0,2-2,2,2,0,0,0-2-2h-44a2,2,0,0,0-2,2A2,2,0,0,0,1616.846-265.5Z" fill="#fff"/>
        <path id="Path_1552" data-name="Path 1552" d="M1800-177.5h-7.662a2,2,0,0,0-2,2,2,2,0,0,0,2,2H1800a2,2,0,0,0,2-2A2,2,0,0,0,1800-177.5Z" fill="#fff"/>
        <path id="Path_1553" data-name="Path 1553" d="M1787.07-177.5H1766a2,2,0,0,0-2,2,2,2,0,0,0,2,2h21.07a2,2,0,0,0,2-2A2,2,0,0,0,1787.07-177.5Z" fill="#fff"/>
      </g>
    </g>
  </g>
</svg>
