<svg id="Group_2640" data-name="Group 2640" xmlns="http://www.w3.org/2000/svg" xmlns:xlink="http://www.w3.org/1999/xlink" width="28" height="22" viewBox="0 0 28 22">
  <defs>
    <clipPath id="clip-path">
      <rect id="Rectangle_736" data-name="Rectangle 736" width="28" height="22" fill="#519bfc"/>
    </clipPath>
  </defs>
  <g id="Group_2639" data-name="Group 2639" clip-path="url(#clip-path)">
    <path id="Path_1127" data-name="Path 1127" d="M17,20.3H1.8V1.8H3A.789.789,0,0,0,3.8,1,.709.709,0,0,0,3,.3H1A.684.684,0,0,0,.3,1V21a.789.789,0,0,0,.8.8h16a.789.789,0,0,0,.8-.8C17.9,20.5,17.4,20.3,17,20.3Z" fill="#519bfc"/>
    <path id="Path_1128" data-name="Path 1128" d="M27,7.3H25.7V1a.789.789,0,0,0-.8-.8H9a.849.849,0,0,0-.7.8.773.773,0,0,0,.7.8H24.3V7.3H19a.789.789,0,0,0-.8.8v6a.789.789,0,0,0,.8.8h5.3v5.5H23a.789.789,0,0,0-.8.8.736.736,0,0,0,.8.8h2a.789.789,0,0,0,.8-.8V14.9H27a.789.789,0,0,0,.8-.8V8A.773.773,0,0,0,27,7.3Zm-.7,6H19.8V8.8h6.5Z" fill="#519bfc"/>
    <path id="Path_1129" data-name="Path 1129" d="M17.5,3.2h-1a.713.713,0,0,0-.7.8.713.713,0,0,0,.8.7h1a.713.713,0,0,0,.7-.8A.849.849,0,0,0,17.5,3.2Z" fill="#519bfc"/>
    <path id="Path_1130" data-name="Path 1130" d="M12.5,4.8h1a.713.713,0,0,0,.7-.8.773.773,0,0,0-.8-.7h-1a.713.713,0,0,0-.7.8.849.849,0,0,0,.8.7Z" fill="#519bfc"/>
    <path id="Path_1131" data-name="Path 1131" d="M21.5,4.8a.789.789,0,0,0,.8-.8.736.736,0,0,0-.8-.8h-1a.789.789,0,0,0-.8.8.736.736,0,0,0,.8.8Z" fill="#519bfc"/>
    <path id="Path_1132" data-name="Path 1132" d="M8,18.7H9a.713.713,0,0,0,.7-.8.773.773,0,0,0-.8-.7h-1a.713.713,0,0,0-.7.8A.969.969,0,0,0,8,18.7Z" fill="#519bfc"/>
    <path id="Path_1133" data-name="Path 1133" d="M3.3,18a.713.713,0,0,0,.8.7h1A.752.752,0,0,0,5,17.2H4C3.6,17.3,3.2,17.6,3.3,18Z" fill="#519bfc"/>
    <path id="Path_1134" data-name="Path 1134" d="M11.3,18a.789.789,0,0,0,.8.8h1a.789.789,0,0,0,.8-.8.736.736,0,0,0-.8-.8h-1A.736.736,0,0,0,11.3,18Z" fill="#519bfc"/>
    <circle id="Ellipse_6" data-name="Ellipse 6" cx="0.8" cy="0.8" r="0.8" transform="translate(20.7 10.2)" fill="#519bfc"/>
  </g>
</svg>
