<svg width="28" height="23" viewBox="0 0 28 23" fill="none" xmlns="http://www.w3.org/2000/svg">
<path d="M16.7002 20.3001H1.50019V1.80005H2.70019C2.80566 1.80154 2.91035 1.78185 3.00808 1.74218C3.10581 1.7025 3.19459 1.64362 3.26918 1.56904C3.34376 1.49446 3.40263 1.40567 3.44231 1.30794C3.48199 1.21022 3.50167 1.10552 3.50019 1.00005C3.49975 0.899528 3.47793 0.800244 3.43619 0.708792C3.39445 0.617341 3.33373 0.535811 3.25808 0.469613C3.18242 0.403415 3.09356 0.354062 2.99737 0.324829C2.90119 0.295596 2.79989 0.287151 2.70019 0.300055H0.700192C0.607668 0.297864 0.515661 0.314472 0.429743 0.348875C0.343825 0.383278 0.265782 0.434759 0.200339 0.500202C0.134896 0.565645 0.0834151 0.643688 0.0490123 0.729606C0.0146095 0.815524 -0.00199916 0.90753 0.000191686 1.00005V21.0001C-0.00128925 21.1055 0.0183918 21.2102 0.0580712 21.3079C0.0977506 21.4057 0.156623 21.4945 0.231207 21.569C0.305791 21.6436 0.394572 21.7025 0.492302 21.7422C0.590031 21.7819 0.694725 21.8015 0.800192 21.8001H16.8002C16.9057 21.8015 17.0104 21.7819 17.1081 21.7422C17.2058 21.7025 17.2946 21.6436 17.3692 21.569C17.4438 21.4945 17.5026 21.4057 17.5423 21.3079C17.582 21.2102 17.6017 21.1055 17.6002 21.0001C17.6002 20.5001 17.1002 20.3001 16.7002 20.3001Z" fill="#519BFC"/>
<path d="M26.7002 7.30003H25.4002V1.00003C25.4017 0.894562 25.382 0.789868 25.3424 0.692139C25.3027 0.594409 25.2438 0.505628 25.1692 0.431044C25.0946 0.35646 25.0059 0.297588 24.9081 0.257909C24.8104 0.218229 24.7057 0.198548 24.6002 0.200029H8.70023C8.50992 0.233777 8.33681 0.331455 8.20953 0.476917C8.08225 0.622379 8.00842 0.806917 8.00023 1.00003C7.99246 1.1976 8.06069 1.39065 8.19089 1.53945C8.3211 1.68826 8.50337 1.78151 8.70023 1.80003H24.0002V7.30003H18.7002C18.5948 7.29855 18.4901 7.31823 18.3923 7.35791C18.2946 7.39759 18.2058 7.45646 18.1312 7.53104C18.0567 7.60563 17.9978 7.69441 17.9581 7.79214C17.9184 7.88987 17.8988 7.99456 17.9002 8.10003V14.1C17.8988 14.2055 17.9184 14.3102 17.9581 14.4079C17.9978 14.5056 18.0567 14.5944 18.1312 14.669C18.2058 14.7436 18.2946 14.8025 18.3923 14.8421C18.4901 14.8818 18.5948 14.9015 18.7002 14.9H24.0002V20.4H22.7002C22.5948 20.3985 22.4901 20.4182 22.3923 20.4579C22.2946 20.4976 22.2058 20.5565 22.1312 20.631C22.0567 20.7056 21.9978 20.7944 21.9581 20.8921C21.9184 20.9899 21.8988 21.0946 21.9002 21.2C21.8904 21.3075 21.9043 21.4159 21.9411 21.5174C21.9778 21.619 22.0364 21.7112 22.1127 21.7875C22.1891 21.8639 22.2813 21.9225 22.3828 21.9592C22.4843 21.9959 22.5927 22.0099 22.7002 22H24.7002C24.8057 22.0015 24.9104 21.9818 25.0081 21.9421C25.1059 21.9025 25.1946 21.8436 25.2692 21.769C25.3438 21.6944 25.4027 21.6056 25.4424 21.5079C25.482 21.4102 25.5017 21.3055 25.5002 21.2V14.9H26.7002C26.8057 14.9015 26.9104 14.8818 27.0081 14.8421C27.1059 14.8025 27.1946 14.7436 27.2692 14.669C27.3438 14.5944 27.4027 14.5056 27.4424 14.4079C27.482 14.3102 27.5017 14.2055 27.5002 14.1V8.00003C27.4817 7.80317 27.3885 7.62089 27.2397 7.49069C27.0908 7.36048 26.8978 7.29225 26.7002 7.30003V7.30003ZM26.0002 13.3H19.5002V8.80003H26.0002V13.3Z" fill="#519BFC"/>
<path d="M17.2002 3.20001H16.2002C16.0999 3.20109 16.0009 3.22333 15.9098 3.26528C15.8186 3.30723 15.7374 3.36795 15.6713 3.44346C15.6052 3.51897 15.5558 3.60757 15.5263 3.70348C15.4969 3.79938 15.488 3.90043 15.5002 4.00001C15.5013 4.10034 15.5235 4.19931 15.5655 4.29046C15.6074 4.3816 15.6681 4.46286 15.7437 4.52893C15.8192 4.595 15.9078 4.64439 16.0037 4.67387C16.0996 4.70335 16.2006 4.71226 16.3002 4.70001H17.3002C17.4005 4.69893 17.4995 4.67669 17.5906 4.63474C17.6818 4.59279 17.7631 4.53208 17.8291 4.45657C17.8952 4.38106 17.9446 4.29245 17.9741 4.19655C18.0035 4.10064 18.0125 3.9996 18.0002 3.90001C17.9665 3.7097 17.8688 3.53659 17.7233 3.40931C17.5779 3.28203 17.3933 3.2082 17.2002 3.20001V3.20001Z" fill="#519BFC"/>
<path d="M12.2002 4.80004H13.2002C13.3006 4.79896 13.3995 4.77672 13.4907 4.73477C13.5818 4.69282 13.6631 4.6321 13.7292 4.55659C13.7952 4.48108 13.8446 4.39248 13.8741 4.29657C13.9036 4.20067 13.9125 4.09962 13.9002 4.00004C13.8817 3.80318 13.7885 3.6209 13.6397 3.4907C13.4908 3.36049 13.2978 3.29226 13.1002 3.30004H12.1002C11.9999 3.30112 11.9009 3.32336 11.8098 3.36531C11.7186 3.40726 11.6374 3.46797 11.5713 3.54348C11.5052 3.61899 11.4559 3.70759 11.4264 3.8035C11.3969 3.89941 11.388 4.00045 11.4002 4.10004C11.434 4.29035 11.5317 4.46346 11.6771 4.59074C11.8226 4.71802 12.0071 4.79185 12.2002 4.80004V4.80004Z" fill="#519BFC"/>
<path d="M21.2002 4.80002C21.3056 4.8015 21.4103 4.78182 21.508 4.74214C21.6058 4.70246 21.6946 4.64359 21.7691 4.56901C21.8437 4.49442 21.9026 4.40564 21.9423 4.30791C21.982 4.21018 22.0016 4.10549 22.0002 4.00002C22.01 3.8925 21.9961 3.78414 21.9593 3.68261C21.9226 3.58108 21.864 3.48887 21.7876 3.41253C21.7113 3.33619 21.6191 3.27757 21.5176 3.24085C21.416 3.20412 21.3077 3.19018 21.2002 3.20002H20.2002C20.0947 3.19854 19.99 3.21822 19.8923 3.2579C19.7945 3.29758 19.7058 3.35645 19.6312 3.43104C19.5566 3.50562 19.4977 3.5944 19.458 3.69213C19.4184 3.78986 19.3987 3.89455 19.4002 4.00002C19.3903 4.10754 19.4043 4.21591 19.441 4.31743C19.4777 4.41896 19.5363 4.51117 19.6127 4.58751C19.689 4.66386 19.7812 4.72247 19.8827 4.7592C19.9843 4.79592 20.0926 4.80986 20.2002 4.80002H21.2002Z" fill="#519BFC"/>
<path d="M7.70023 18.7H8.70023C8.80056 18.6989 8.89953 18.6767 8.99067 18.6347C9.08182 18.5928 9.16308 18.5321 9.22915 18.4566C9.29522 18.381 9.34461 18.2924 9.37409 18.1965C9.40357 18.1006 9.41248 17.9996 9.40023 17.9C9.38171 17.7031 9.28846 17.5209 9.13965 17.3907C8.99085 17.2605 8.7978 17.1922 8.60023 17.2H7.60023C7.4999 17.2011 7.40093 17.2233 7.30979 17.2653C7.21864 17.3072 7.13738 17.3679 7.07131 17.4434C7.00524 17.519 6.95585 17.6076 6.92637 17.7035C6.89689 17.7994 6.88798 17.9004 6.90023 18C6.95086 18.1819 7.05355 18.3451 7.19567 18.4695C7.3378 18.5939 7.51318 18.674 7.70023 18.7V18.7Z" fill="#519BFC"/>
<path d="M3.00016 18C3.00124 18.1004 3.02348 18.1993 3.06543 18.2905C3.10738 18.3816 3.1681 18.4629 3.24361 18.5289C3.31911 18.595 3.40772 18.6444 3.50362 18.6739C3.59953 18.7034 3.70058 18.7123 3.80016 18.7H4.80016C4.99481 18.6812 5.17447 18.5873 5.30103 18.4382C5.42759 18.2891 5.4911 18.0966 5.4781 17.9015C5.46509 17.7064 5.37658 17.524 5.23135 17.393C5.08612 17.2621 4.89558 17.1929 4.70016 17.2H3.70016C3.30016 17.3 2.90016 17.6 3.00016 18Z" fill="#519BFC"/>
<path d="M11.0001 18C10.9987 18.1055 11.0183 18.2102 11.058 18.3079C11.0977 18.4056 11.1566 18.4944 11.2311 18.569C11.3057 18.6436 11.3945 18.7025 11.4922 18.7421C11.59 18.7818 11.6947 18.8015 11.8001 18.8H12.8001C12.9056 18.8015 13.0103 18.7818 13.108 18.7421C13.2058 18.7025 13.2945 18.6436 13.3691 18.569C13.4437 18.4944 13.5026 18.4056 13.5423 18.3079C13.5819 18.2102 13.6016 18.1055 13.6001 18C13.61 17.8925 13.596 17.7841 13.5593 17.6826C13.5226 17.5811 13.464 17.4889 13.3876 17.4125C13.3113 17.3362 13.2191 17.2776 13.1175 17.2408C13.016 17.2041 12.9077 17.1902 12.8001 17.2H11.8001C11.6926 17.1902 11.5842 17.2041 11.4827 17.2408C11.3812 17.2776 11.289 17.3362 11.2126 17.4125C11.1363 17.4889 11.0777 17.5811 11.041 17.6826C11.0042 17.7841 10.9903 17.8925 11.0001 18Z" fill="#519BFC"/>
<path d="M21.2001 11.8C21.642 11.8 22.0001 11.4418 22.0001 11C22.0001 10.5582 21.642 10.2 21.2001 10.2C20.7583 10.2 20.4001 10.5582 20.4001 11C20.4001 11.4418 20.7583 11.8 21.2001 11.8Z" fill="#519BFC"/>
</svg>
