<svg width="28" height="22" viewBox="0 0 28 22" fill="none" xmlns="http://www.w3.org/2000/svg">
<path d="M16.7002 20.1001H1.50019V1.6001H2.70019C2.80566 1.60158 2.91035 1.5819 3.00808 1.54222C3.10581 1.50254 3.19459 1.44367 3.26918 1.36909C3.34376 1.2945 3.40263 1.20572 3.44231 1.10799C3.48199 1.01026 3.50167 0.905571 3.50019 0.800103C3.49975 0.699576 3.47793 0.600293 3.43619 0.508841C3.39445 0.417389 3.33373 0.33586 3.25808 0.269661C3.18242 0.203463 3.09356 0.154111 2.99737 0.124878C2.90119 0.0956445 2.79989 0.0871997 2.70019 0.100103H0.700192C0.607668 0.0979126 0.515661 0.114521 0.429743 0.148924C0.343825 0.183327 0.265782 0.234808 0.200339 0.300251C0.134896 0.365693 0.0834151 0.443736 0.0490123 0.529655C0.0146095 0.615573 -0.00199916 0.707579 0.000191686 0.800103V20.8001C-0.00128925 20.9056 0.0183918 21.0103 0.0580712 21.108C0.0977506 21.2057 0.156623 21.2945 0.231207 21.3691C0.305791 21.4437 0.394572 21.5025 0.492302 21.5422C0.590031 21.5819 0.694725 21.6016 0.800192 21.6001H16.8002C16.9057 21.6016 17.0104 21.5819 17.1081 21.5422C17.2058 21.5025 17.2946 21.4437 17.3692 21.3691C17.4438 21.2945 17.5026 21.2057 17.5423 21.108C17.582 21.0103 17.6017 20.9056 17.6002 20.8001C17.6002 20.3001 17.1002 20.1001 16.7002 20.1001Z" fill="#7E8C9B"/>
<path d="M26.7002 7.10008H25.4002V0.800078C25.4017 0.694611 25.382 0.589917 25.3424 0.492188C25.3027 0.394458 25.2438 0.305677 25.1692 0.231093C25.0946 0.156509 25.0059 0.0976367 24.9081 0.0579573C24.8104 0.0182779 24.7057 -0.00140316 24.6002 7.77775e-05H8.70023C8.50992 0.033826 8.33681 0.131504 8.20953 0.276966C8.08225 0.422428 8.00842 0.606966 8.00023 0.800078C7.99246 0.997652 8.06069 1.1907 8.19089 1.3395C8.3211 1.48831 8.50337 1.58156 8.70023 1.60008H24.0002V7.10008H18.7002C18.5948 7.0986 18.4901 7.11828 18.3923 7.15796C18.2946 7.19764 18.2058 7.25651 18.1312 7.33109C18.0567 7.40568 17.9978 7.49446 17.9581 7.59219C17.9184 7.68992 17.8988 7.79461 17.9002 7.90008V13.9001C17.8988 14.0055 17.9184 14.1102 17.9581 14.208C17.9978 14.3057 18.0567 14.3945 18.1312 14.4691C18.2058 14.5436 18.2946 14.6025 18.3923 14.6422C18.4901 14.6819 18.5948 14.7016 18.7002 14.7001H24.0002V20.2001H22.7002C22.5948 20.1986 22.4901 20.2183 22.3923 20.258C22.2946 20.2976 22.2058 20.3565 22.1312 20.4311C22.0567 20.5057 21.9978 20.5945 21.9581 20.6922C21.9184 20.7899 21.8988 20.8946 21.9002 21.0001C21.8904 21.1076 21.9043 21.216 21.9411 21.3175C21.9778 21.419 22.0364 21.5112 22.1127 21.5876C22.1891 21.6639 22.2813 21.7225 22.3828 21.7593C22.4843 21.796 22.5927 21.8099 22.7002 21.8001H24.7002C24.8057 21.8016 24.9104 21.7819 25.0081 21.7422C25.1059 21.7025 25.1946 21.6436 25.2692 21.5691C25.3438 21.4945 25.4027 21.4057 25.4424 21.308C25.482 21.2102 25.5017 21.1055 25.5002 21.0001V14.7001H26.7002C26.8057 14.7016 26.9104 14.6819 27.0081 14.6422C27.1059 14.6025 27.1946 14.5436 27.2692 14.4691C27.3438 14.3945 27.4027 14.3057 27.4424 14.208C27.482 14.1102 27.5017 14.0055 27.5002 13.9001V7.80008C27.4817 7.60322 27.3885 7.42094 27.2397 7.29074C27.0908 7.16053 26.8978 7.0923 26.7002 7.10008V7.10008ZM26.0002 13.1001H19.5002V8.60008H26.0002V13.1001Z" fill="#7E8C9B"/>
<path d="M17.2002 3.00006H16.2002C16.0999 3.00114 16.0009 3.02338 15.9098 3.06533C15.8186 3.10728 15.7374 3.168 15.6713 3.24351C15.6052 3.31902 15.5558 3.40762 15.5263 3.50352C15.4969 3.59943 15.488 3.70048 15.5002 3.80006C15.5013 3.90039 15.5235 3.99936 15.5655 4.0905C15.6074 4.18165 15.6681 4.26291 15.7437 4.32898C15.8192 4.39505 15.9078 4.44444 16.0037 4.47392C16.0996 4.5034 16.2006 4.51231 16.3002 4.50006H17.3002C17.4005 4.49898 17.4995 4.47674 17.5906 4.43479C17.6818 4.39284 17.7631 4.33213 17.8291 4.25662C17.8952 4.18111 17.9446 4.0925 17.9741 3.9966C18.0035 3.90069 18.0125 3.79964 18.0002 3.70006C17.9665 3.50974 17.8688 3.33664 17.7233 3.20936C17.5779 3.08208 17.3933 3.00825 17.2002 3.00006V3.00006Z" fill="#7E8C9B"/>
<path d="M12.2002 4.60009H13.2002C13.3006 4.59901 13.3995 4.57676 13.4907 4.53481C13.5818 4.49286 13.6631 4.43215 13.7292 4.35664C13.7952 4.28113 13.8446 4.19253 13.8741 4.09662C13.9036 4.00072 13.9125 3.89967 13.9002 3.80009C13.8817 3.60323 13.7885 3.42095 13.6397 3.29075C13.4908 3.16054 13.2978 3.09231 13.1002 3.10009H12.1002C11.9999 3.10116 11.9009 3.12341 11.8098 3.16536C11.7186 3.20731 11.6374 3.26802 11.5713 3.34353C11.5052 3.41904 11.4559 3.50764 11.4264 3.60355C11.3969 3.69945 11.388 3.8005 11.4002 3.90009C11.434 4.0904 11.5317 4.26351 11.6771 4.39079C11.8226 4.51806 12.0071 4.5919 12.2002 4.60009V4.60009Z" fill="#7E8C9B"/>
<path d="M21.2002 4.60007C21.3056 4.60155 21.4103 4.58187 21.508 4.54219C21.6058 4.50251 21.6946 4.44364 21.7691 4.36906C21.8437 4.29447 21.9026 4.20569 21.9423 4.10796C21.982 4.01023 22.0016 3.90554 22.0002 3.80007C22.01 3.69255 21.9961 3.58419 21.9593 3.48266C21.9226 3.38113 21.864 3.28892 21.7876 3.21258C21.7113 3.13623 21.6191 3.07762 21.5176 3.0409C21.416 3.00417 21.3077 2.99023 21.2002 3.00007H20.2002C20.0947 2.99859 19.99 3.01827 19.8923 3.05795C19.7945 3.09763 19.7058 3.1565 19.6312 3.23109C19.5566 3.30567 19.4977 3.39445 19.458 3.49218C19.4184 3.58991 19.3987 3.6946 19.4002 3.80007C19.3903 3.90759 19.4043 4.01595 19.441 4.11748C19.4777 4.21901 19.5363 4.31122 19.6127 4.38756C19.689 4.46391 19.7812 4.52252 19.8827 4.55925C19.9843 4.59597 20.0926 4.60991 20.2002 4.60007H21.2002Z" fill="#7E8C9B"/>
<path d="M7.70023 18.5H8.70023C8.80056 18.499 8.89953 18.4767 8.99067 18.4348C9.08182 18.3928 9.16308 18.3321 9.22915 18.2566C9.29522 18.1811 9.34461 18.0925 9.37409 17.9966C9.40357 17.9007 9.41248 17.7996 9.40023 17.7C9.38171 17.5032 9.28846 17.3209 9.13965 17.1907C8.99085 17.0605 8.7978 16.9923 8.60023 17H7.60023C7.4999 17.0011 7.40093 17.0234 7.30979 17.0653C7.21864 17.1073 7.13738 17.168 7.07131 17.2435C7.00524 17.319 6.95585 17.4076 6.92637 17.5035C6.89689 17.5994 6.88798 17.7005 6.90023 17.8C6.95086 17.982 7.05355 18.1452 7.19567 18.2695C7.3378 18.3939 7.51318 18.474 7.70023 18.5V18.5Z" fill="#7E8C9B"/>
<path d="M3.00016 17.8001C3.00124 17.9004 3.02348 17.9994 3.06543 18.0905C3.10738 18.1817 3.1681 18.2629 3.24361 18.329C3.31911 18.3951 3.40772 18.4445 3.50362 18.4739C3.59953 18.5034 3.70058 18.5123 3.80016 18.5001H4.80016C4.99481 18.4813 5.17447 18.3873 5.30103 18.2383C5.42759 18.0892 5.4911 17.8967 5.4781 17.7015C5.46509 17.5064 5.37658 17.324 5.23135 17.1931C5.08612 17.0621 4.89558 16.9929 4.70016 17.0001H3.70016C3.30016 17.1001 2.90016 17.4001 3.00016 17.8001Z" fill="#7E8C9B"/>
<path d="M11.0001 17.8001C10.9987 17.9055 11.0183 18.0102 11.058 18.108C11.0977 18.2057 11.1566 18.2945 11.2311 18.3691C11.3057 18.4436 11.3945 18.5025 11.4922 18.5422C11.59 18.5819 11.6947 18.6016 11.8001 18.6001H12.8001C12.9056 18.6016 13.0103 18.5819 13.108 18.5422C13.2058 18.5025 13.2945 18.4436 13.3691 18.3691C13.4437 18.2945 13.5026 18.2057 13.5423 18.108C13.5819 18.0102 13.6016 17.9055 13.6001 17.8001C13.61 17.6926 13.596 17.5842 13.5593 17.4827C13.5226 17.3811 13.464 17.2889 13.3876 17.2126C13.3113 17.1362 13.2191 17.0776 13.1175 17.0409C13.016 17.0042 12.9077 16.9902 12.8001 17.0001H11.8001C11.6926 16.9902 11.5842 17.0042 11.4827 17.0409C11.3812 17.0776 11.289 17.1362 11.2126 17.2126C11.1363 17.2889 11.0777 17.3811 11.041 17.4827C11.0042 17.5842 10.9903 17.6926 11.0001 17.8001Z" fill="#7E8C9B"/>
<path d="M21.2001 11.6001C21.642 11.6001 22.0001 11.2419 22.0001 10.8001C22.0001 10.3582 21.642 10.0001 21.2001 10.0001C20.7583 10.0001 20.4001 10.3582 20.4001 10.8001C20.4001 11.2419 20.7583 11.6001 21.2001 11.6001Z" fill="#7E8C9B"/>
</svg>
