<?xml version="1.0" encoding="utf-8"?>
<!-- Generator: Adobe Illustrator 24.0.1, SVG Export Plug-In . SVG Version: 6.00 Build 0)  -->
<svg version="1.1" id="base" xmlns="http://www.w3.org/2000/svg" xmlns:xlink="http://www.w3.org/1999/xlink" x="0px" y="0px"
	 viewBox="0 0 1024 1024" style="enable-background:new 0 0 1024 1024;" xml:space="preserve">
<style type="text/css">
	.st0{fill:url(#Background_1_);}
	.st1{fill:#FFFFFF;}
</style>
<linearGradient id="Background_1_" gradientUnits="userSpaceOnUse" x1="263.7971" y1="763.1432" x2="263.7848" y2="761.5985" gradientTransform="matrix(375 0 0 -667 -98409.6016 509013.0313)">
	<stop  offset="0" style="stop-color:#51CDFC"/>
	<stop  offset="1" style="stop-color:#3F7ED0"/>
</linearGradient>
<rect id="Background" class="st0" width="1024" height="1024"/>
<g>
	<g>
		<path class="st1" d="M724,521.3l0-19.1c0-1.6,1-2.9,2.1-2.9h1.2c-0.2-2.5-0.4-6-0.7-9.1l-1.2,0.3c-1.2,0.2-2.3-0.9-2.6-2.5
			l-3-18.8c-0.2-1.5,0.5-2.9,1.7-3.1l1.2-0.2c-0.7-3-1.4-6-2.1-8.9l-1.2,0.4c-1.1,0.4-2.4-0.5-2.9-2l-5.9-18.1c-0.5-1.5,0-3,1.1-3.3
			l1.2-0.4c-1.1-2.9-2.3-5.7-3.5-8.5l-1.1,0.6c-1.1,0.5-2.5-0.2-3.2-1.6l-8.6-17c-0.7-1.4-0.4-3,0.6-3.5l1.1-0.5
			c-1.5-2.6-3.1-5.3-4.8-7.8l-1,0.7c-1,0.7-2.5,0.2-3.4-1L678,379.5c-0.9-1.3-0.9-2.8,0.1-3.5l0.9-0.7c-1.9-2.4-3.9-4.7-6-7
			l-0.8,0.8c-0.8,0.8-2.4,0.6-3.5-0.5l-13.5-13.5c-1.1-1.1-1.3-2.7-0.5-3.5l0.8-0.8c-2.3-2-4.6-4-7-6l-0.7,0.9c-0.7,1-2.3,1-3.5,0.1
			l-15.4-11.2c-1.3-0.9-1.7-2.4-1-3.4l0.7-1c-2.6-1.7-5.2-3.3-7.8-4.8l-0.5,1.1c-0.5,1.1-2.1,1.3-3.5,0.6l-17-8.6
			c-1.4-0.7-2.1-2.1-1.6-3.2l0.6-1.1c-2.8-1.2-5.6-2.4-8.5-3.5l-0.4,1.2c-0.4,1.1-1.9,1.6-3.3,1.2l-18.1-5.9c-1.5-0.5-2.4-1.8-2-2.9
			l0.4-1.2c-3-0.8-5.9-1.5-8.9-2.1l-0.2,1.2c-0.2,1.2-1.6,1.9-3.1,1.7l-18.8-3c-1.5-0.2-2.6-1.4-2.4-2.5l0.3-1.2
			c-3-0.3-6.4-0.5-9-0.7v1.2c0,1.2-1.5,2.1-3,2.1l-19.2,0c-1.6,0-2.8-1-2.8-2.1l0-1.2c-3.1,0.2-6.1,0.4-9.2,0.7l0.2,1.2
			c0.2,1.2-0.9,2.3-2.5,2.5l-18.8,3c-1.5,0.2-2.9-0.5-3.1-1.7l-0.2-1.2c-3,0.7-6,1.4-8.9,2.1l0.4,1.2c0.4,1.1-0.5,2.4-2,2.9
			l-18.1,5.9c-1.5,0.5-3,0-3.4-1.2l-0.4-1.2c-2.9,1.1-5.7,2.3-8.5,3.5l0.6,1.1c0.5,1.1-0.2,2.5-1.6,3.2l-17,8.6
			c-1.4,0.7-3,0.4-3.5-0.6l-0.5-1c-2.6,1.5-5.3,3.1-7.8,4.8l0.7,1c0.7,1,0.2,2.5-1,3.4l-15.4,11.2c-1.3,0.9-2.8,0.9-3.5-0.1
			l-0.7-0.9c-2.4,1.9-4.7,3.9-7,6l0.8,0.8c0.8,0.8,0.6,2.4-0.5,3.5l-13.5,13.5c-1.1,1.1-2.7,1.3-3.5,0.5l-0.8-0.8c-2,2.3-4,4.6-6,7
			l0.9,0.7c1,0.7,1,2.3,0.1,3.5l-11.2,15.4c-0.9,1.3-2.4,1.7-3.4,1l-0.9-0.7c-1.7,2.6-3.3,5.2-4.8,7.8l1.1,0.5
			c1.1,0.5,1.3,2.1,0.6,3.5l-8.6,17c-0.7,1.4-2.1,2.1-3.2,1.6l-1.1-0.6c-1.2,2.8-2.4,5.6-3.5,8.5l1.2,0.4c1.1,0.4,1.6,1.9,1.2,3.3
			l-5.9,18.1c-0.5,1.5-1.8,2.4-2.9,2l-1.2-0.4c-0.8,3-1.5,5.9-2.1,8.9l1.2,0.2c1.2,0.2,1.9,1.6,1.7,3.1l-3,18.8
			c-0.2,1.5-1.4,2.6-2.5,2.4l-1.2-0.2c-0.3,3-0.5,6.5-0.7,9.1h1.2c1.2,0,2.1,1.4,2.1,2.9l0,19.1c0,1.6-1,2.8-2.1,2.8l-1.2,0
			c0.2,3.1,0.4,6.1,0.7,9.2l1.2-0.2c1.2-0.2,2.3,0.9,2.5,2.5l3,18.8c0.2,1.5-0.5,2.9-1.7,3.1l-1.2,0.2c0.7,3,1.4,6,2.1,8.9l1.2-0.4
			c1.1-0.4,2.4,0.5,2.9,2l5.9,18.1c0.5,1.5,0,3-1.2,3.3l-1.2,0.4c1.1,2.9,2.3,5.7,3.5,8.5l1.1-0.6c1.1-0.5,2.5,0.2,3.2,1.6l8.6,17
			c0.7,1.4,0.4,3-0.6,3.5l-1.1,0.5c1.5,2.6,3.1,5.3,4.8,7.8l1-0.7c1-0.7,2.5-0.2,3.4,1l11.2,15.4c0.9,1.3,0.9,2.8-0.1,3.5l-0.9,0.7
			c1.9,2.4,3.9,4.7,6,7l0.8-0.8c0.8-0.8,2.4-0.6,3.5,0.5l13.5,13.5c1.1,1.1,1.3,2.7,0.5,3.5l-0.8,0.8c2.3,2,4.6,4,7,6l0.7-0.9
			c0.7-1,2.3-1,3.5-0.1l15.4,11.2c1.3,0.9,1.7,2.4,1,3.4l-0.7,1c2.6,1.7,5.2,3.3,7.8,4.8l0.5-1.1c0.5-1,2.1-1.3,3.5-0.6l17,8.6
			c1.4,0.7,2.1,2.1,1.6,3.2l-0.6,1.1c2.8,1.2,5.6,2.4,8.5,3.5l0.4-1.2c0.4-1.1,1.9-1.6,3.3-1.2l18.1,5.9c1.5,0.5,2.4,1.8,2,2.9
			l-0.4,1.2c3,0.8,5.9,1.5,8.9,2.1l0.2-1.2c0.2-1.2,1.6-1.9,3.1-1.7l18.8,3c1.5,0.2,2.6,1.4,2.5,2.6l-0.2,1.2c3,0.3,6.1,0.5,9.2,0.7
			l0-1.2c0-1.2,1.3-2.1,2.9-2.1l19.1,0c1.6,0,3,1,3,2.1v1.2c2.5-0.2,5.9-0.4,9-0.7l-0.4-1.2c-0.2-1.2,0.9-2.3,2.5-2.5l18.8-3
			c1.5-0.2,2.9,0.5,3.1,1.7l0.2,1.2c3-0.7,6-1.4,8.9-2.1l-0.4-1.2c-0.4-1.1,0.5-2.4,2-2.9l18.1-5.9c1.5-0.5,3,0,3.3,1.2l0.4,1.2
			c2.9-1.1,5.7-2.3,8.5-3.5l-0.6-1.1c-0.5-1.1,0.2-2.5,1.6-3.2l17-8.6c1.4-0.7,3-0.4,3.5,0.6l0.5,1.1c2.6-1.5,5.3-3.1,7.8-4.8
			l-0.7-1c-0.7-1-0.2-2.5,1-3.4l15.4-11.2c1.3-0.9,2.8-0.9,3.5,0.1l0.7,0.9c2.4-1.9,4.7-3.9,7-6l-0.8-0.8c-0.8-0.8-0.6-2.4,0.5-3.5
			l13.5-13.5c1.1-1.1,2.7-1.3,3.5-0.5l0.8,0.8c2-2.3,4-4.6,6-7l-0.9-0.7c-1-0.7-1-2.3-0.1-3.5l11.2-15.4c0.9-1.3,2.4-1.7,3.4-1
			l1,0.7c1.7-2.6,3.3-5.2,4.8-7.8l-1.1-0.5c-1.1-0.5-1.3-2.1-0.6-3.5l8.6-17c0.7-1.4,2.1-2.1,3.2-1.6l1.1,0.6
			c1.2-2.8,2.4-5.6,3.5-8.5l-1.2-0.4c-1.1-0.4-1.6-1.9-1.2-3.4l5.9-18.1c0.5-1.5,1.8-2.4,2.9-2l1.2,0.4c0.8-3,1.5-5.9,2.1-8.9
			l-1.2-0.2c-1.2-0.2-1.9-1.6-1.7-3.1l3-18.8c0.2-1.5,1.4-2.6,2.5-2.5l1.2,0.2c0.3-3,0.5-6.1,0.7-9.2l-1.2,0
			C725,524.1,724,522.8,724,521.3z M512.1,718.2c-113.8,0-206.1-92.2-206.1-205.9c0-113.7,92.3-205.9,206.1-205.9
			c113.8,0,206.1,92.2,206.1,205.9C718.2,626,625.9,718.2,512.1,718.2z"/>
		<path class="st1" d="M486.6,750.7c-0.6-0.9-1.4-1.5-2.3-2c-0.9-0.5-2-0.8-3.2-1c-1.2-0.2-2.3-0.1-3.3,0.1c-1,0.2-2,0.7-2.8,1.3
			c-0.8,0.7-1.5,1.6-2.1,2.7c-0.6,1.2-1,2.6-1.2,4.3l-0.5,3.5c-0.2,1.7-0.2,3.2,0,4.4c0.2,1.3,0.7,2.3,1.3,3.2
			c0.6,0.9,1.4,1.5,2.3,2c0.9,0.5,2,0.8,3.2,1c1.2,0.2,2.3,0.1,3.3-0.1c1-0.2,2-0.7,2.8-1.3c0.8-0.7,1.5-1.6,2.1-2.7
			c0.6-1.2,1-2.6,1.2-4.3l0.5-3.5c0.2-1.7,0.2-3.2,0-4.4C487.6,752.6,487.2,751.5,486.6,750.7z"/>
		<path class="st1" d="M380.6,728.3c-0.1,0.6-0.2,1.2-0.3,1.6c-0.1,0.5-0.2,0.9-0.3,1.3c-0.1,0.4-0.2,0.9-0.3,1.4
			c-0.1,0.5-0.2,1-0.4,1.7c0.5-0.5,1-0.9,1.4-1.2c0.4-0.3,0.7-0.6,1-0.9c0.3-0.3,0.7-0.6,1-0.9c0.4-0.3,0.8-0.6,1.3-1l5.7-4.5
			l-7.8-4.7L380.6,728.3z"/>
		<path class="st1" d="M446.5,754.6c-1.2,0.6-1.9,1.6-2.3,2.9l-0.2,0.8c-0.3,1.4-0.1,2.6,0.6,3.6c0.7,1,2.1,1.8,4.2,2.3l6,1.5
			l2.5-9.8l-5.6-1.4C449.4,754,447.7,754.1,446.5,754.6z"/>
		<path class="st1" d="M560.2,754.9c-0.3-1.7-0.7-3.1-1.3-4.2c-0.6-1.1-1.3-2-2.1-2.7c-0.8-0.6-1.8-1.1-2.8-1.3
			c-1-0.2-2.1-0.2-3.3,0c-1.2,0.2-2.2,0.5-3.1,1.1c-0.9,0.5-1.7,1.2-2.3,2.1c-0.6,0.9-1,1.9-1.2,3.2c-0.2,1.3-0.2,2.7,0.1,4.4
			l0.6,3.5c0.3,1.7,0.7,3.1,1.3,4.2c0.6,1.1,1.3,2,2.1,2.7c0.8,0.6,1.8,1.1,2.8,1.3c1,0.2,2.1,0.2,3.3,0c1.2-0.2,2.2-0.5,3.1-1.1
			c0.9-0.5,1.7-1.2,2.3-2.1c0.6-0.9,1-1.9,1.2-3.2c0.2-1.3,0.2-2.7-0.1-4.4L560.2,754.9z"/>
		<path class="st1" d="M378.7,298.8c0.4-1.3,0.2-2.5-0.6-3.7l-0.4-0.7c-0.8-1.2-1.8-1.9-3.1-2c-1.3-0.2-2.8,0.3-4.5,1.5l-5.2,3.4
			l5.6,8.5l4.8-3.2C377.2,301.4,378.3,300.1,378.7,298.8z"/>
		<path class="st1" d="M596.9,752.4l0.3,0.7c0.6,1.6,1.5,2.5,2.8,2.9c1.3,0.4,2.8,0.2,4.6-0.5l6-2.3l-3.9-10.1l-5.6,2.1
			C597,746.8,595.6,749.2,596.9,752.4z"/>
		<path class="st1" d="M644.7,726c-0.4,1.3-0.2,2.5,0.6,3.7l0.4,0.7c0.8,1.2,1.8,1.9,3.1,2.1c1.3,0.2,2.8-0.3,4.6-1.4l5.2-3.4
			l-5.5-8.5l-4.9,3.1C646.2,723.5,645.1,724.8,644.7,726z"/>
		<path class="st1" d="M462.9,269.2c0.3,1.7,0.7,3.1,1.3,4.2c0.6,1.1,1.3,2,2.2,2.7c0.8,0.6,1.8,1.1,2.8,1.2c1,0.2,2.1,0.2,3.3,0
			c1.2-0.2,2.2-0.6,3.1-1.1c0.9-0.5,1.7-1.2,2.2-2.1c0.6-0.9,1-2,1.2-3.2c0.2-1.3,0.2-2.7-0.1-4.4l-0.6-3.5
			c-0.3-1.7-0.7-3.1-1.3-4.2c-0.6-1.1-1.3-2-2.2-2.7c-0.8-0.6-1.8-1.1-2.8-1.2c-1-0.2-2.1-0.2-3.3,0c-1.2,0.2-2.2,0.6-3.1,1.1
			c-0.9,0.5-1.7,1.2-2.2,2.1c-0.6,0.9-1,2-1.2,3.2c-0.2,1.3-0.1,2.7,0.1,4.4L462.9,269.2z"/>
		<path class="st1" d="M426.3,272l-0.3-0.7c-0.6-1.6-1.5-2.5-2.8-2.9c-1.3-0.4-2.8-0.2-4.6,0.5l-6,2.3l4,10.1l5.5-2.2
			C426.1,277.6,427.5,275.2,426.3,272z"/>
		<path class="st1" d="M536.6,272.8c0.6,0.8,1.4,1.5,2.3,2c0.9,0.5,2,0.8,3.2,0.9c1.2,0.1,2.3,0.1,3.3-0.1c1-0.2,1.9-0.7,2.7-1.4
			c0.8-0.7,1.5-1.6,2-2.8c0.6-1.2,0.9-2.6,1.1-4.3l0.4-3.5c0.2-1.7,0.2-3.2-0.1-4.4c-0.3-1.3-0.7-2.3-1.3-3.2
			c-0.6-0.8-1.4-1.5-2.3-2c-0.9-0.5-2-0.8-3.2-0.9c-1.2-0.1-2.3-0.1-3.3,0.1c-1,0.2-1.9,0.7-2.7,1.4c-0.8,0.7-1.5,1.6-2,2.8
			c-0.6,1.2-0.9,2.6-1.1,4.3l-0.4,3.5c-0.2,1.7-0.2,3.2,0.1,4.4C535.5,270.9,535.9,271.9,536.6,272.8z"/>
		<path class="st1" d="M280.4,405.2c0.9,0.9,2.1,1.7,3.7,2.5l3.1,1.6c1.5,0.8,2.9,1.2,4.2,1.4c1.3,0.2,2.4,0.1,3.4-0.2
			c1-0.3,1.9-0.8,2.7-1.5c0.8-0.7,1.4-1.6,1.9-2.7c0.5-1.1,0.8-2.1,1-3.2c0.1-1.1,0-2.1-0.4-3c-0.4-1-1-1.9-1.9-2.8
			c-0.9-0.9-2.1-1.7-3.7-2.5l-3.1-1.6c-1.5-0.8-2.9-1.2-4.2-1.4c-1.3-0.2-2.4-0.1-3.4,0.2c-1,0.3-1.9,0.8-2.7,1.5
			c-0.8,0.7-1.4,1.6-1.9,2.7c-0.5,1.1-0.8,2.1-1,3.2c-0.1,1.1,0,2.1,0.4,3C278.8,403.4,279.4,404.3,280.4,405.2z"/>
		<path class="st1" d="M576.5,268.4c1.2-0.6,1.9-1.6,2.2-3l0.2-0.8c0.3-1.4,0.1-2.6-0.6-3.6c-0.8-1-2.2-1.8-4.2-2.3l-6-1.5l-2.4,9.8
			l5.6,1.4C573.6,269,575.3,269,576.5,268.4z"/>
		<path class="st1" d="M280.1,450.5c-0.5-0.9-1.3-1.7-2.3-2.4c-1-0.7-2.3-1.2-3.9-1.6l-3.6-0.9c-1.6-0.4-3-0.5-4.2-0.4
			c-1.2,0.1-2.3,0.5-3.2,1.1c-0.9,0.6-1.6,1.4-2.2,2.3c-0.6,1-1,2.1-1.3,3.4l-1.3,5.3l21.4,5.1l1.3-5.3c0.3-1.3,0.4-2.5,0.4-3.7
			C280.9,452.5,280.6,451.5,280.1,450.5z"/>
		<path class="st1" d="M512.9,233.3C358.3,232.8,232.5,357.2,232,511.1C231.5,665,356.5,790.2,511.1,790.7
			c154.6,0.5,280.4-123.9,280.9-277.8C792.5,359,667.5,233.8,512.9,233.3z M771.5,459.6l-3.3,0.8l-3.4-14.3l-8.8,2.1l3.2,13.4
			l-3.3,0.8l-3.2-13.4l-9.5,2.3l3.5,14.6l-3.3,0.8l-4.5-18.6l28.3-6.8L771.5,459.6z M758.3,415l-19.7,16.3l25.7,0.4l1.4,4l-31.2-1
			l-1.3-3.7l23.6-20.4L758.3,415z M754.5,406.1L727.9,418l-1.7-3.8l26.6-11.9L754.5,406.1z M744.1,385l-22.7,12l6.8,12.8l-3,1.6
			l-8.7-16.5l25.7-13.6L744.1,385z M712.5,343.7c1.5,0.2,3,0.7,4.4,1.6c1.4,0.9,2.7,2.1,3.9,3.6c1.2,1.5,2.1,3.1,2.8,4.7
			c0.6,1.6,1,3.3,1,5.1l-3.9,0.3c0-1.6-0.3-3.1-0.8-4.3c-0.5-1.2-1.2-2.4-2-3.5c-1.6-2.1-3.5-3.2-5.7-3.4c-2.1-0.2-4.5,0.7-7.2,2.8
			l-2.6,2.1c-2.6,2.1-4.1,4.2-4.3,6.5c-0.2,2.2,0.5,4.4,2.2,6.5c0.7,0.9,1.5,1.7,2.3,2.4c0.8,0.7,1.6,1.2,2.4,1.6l6.4-5.1l-4.2-5.3
			l2.7-2.1l6.7,8.5l-10.8,8.6c-1.5-0.5-3-1.3-4.5-2.5c-1.5-1.1-2.8-2.5-4-4c-1.2-1.6-2.2-3.2-2.7-4.7c-0.6-1.6-0.8-3.1-0.6-4.7
			c0.2-1.5,0.7-3,1.5-4.5c0.9-1.5,2.2-2.8,3.8-4.2l3.5-2.7c1.7-1.3,3.3-2.2,4.9-2.8C709.4,343.7,711,343.5,712.5,343.7z M695,321.1
			l-5.6,22.2c-0.1,0.6-0.3,1.2-0.6,2c-0.3,0.8-0.6,1.6-0.9,2.5l16.9-16.8l2.7,2.7l-20.6,20.5l-3.4-3.4l5.5-22.1
			c0.2-0.6,0.4-1.3,0.6-2.1c0.2-0.8,0.5-1.6,0.9-2.5l-16.9,16.8l-2.7-2.7l20.6-20.5L695,321.1z M685.7,312.7l-18.9,22.1l-3.2-2.7
			l18.9-22.1L685.7,312.7z M657.4,290.8l3.7,2.7l-7.1,24.6l21.4-14.1l3.5,2.5l-26.4,16.8l-3.2-2.3L657.4,290.8z M648,285.3l-5,30.8
			l-3.8-2.2l1.6-9l-10-5.9l-7.1,5.8l-3.7-2.1l24.4-19.4L648,285.3z M603.9,288.5c0.3,0.6,0.8,1.2,1.3,1.9c0.5,0.6,1.1,1.2,1.6,1.8
			c0.6,0.6,1.2,1.1,1.8,1.5c0.6,0.5,1.2,0.8,1.8,1.1c2,0.9,3.6,1.2,4.9,0.8c1.3-0.3,2.2-1,2.7-2.1l0.3-0.6c0.3-0.6,0.4-1.1,0.4-1.7
			c0-0.5-0.2-1.1-0.5-1.6c-0.3-0.6-0.8-1.2-1.5-1.8c-0.6-0.6-1.5-1.3-2.5-2c-1.2-0.9-2.2-1.7-3.2-2.6c-1-0.9-1.7-1.8-2.3-2.7
			c-0.6-0.9-0.9-1.9-1-2.9c-0.1-1,0.1-2.2,0.7-3.4l0.3-0.7c0.4-0.9,1-1.7,1.8-2.4c0.8-0.7,1.7-1.2,2.8-1.5c1.1-0.3,2.3-0.4,3.7-0.3
			c1.4,0.1,2.8,0.5,4.4,1.3c1.7,0.8,3.1,1.6,4.3,2.7c1.2,1,2.2,2.2,3,3.5l-3.1,2c-0.7-1.1-1.5-2.1-2.5-2.8c-0.9-0.8-2-1.4-3.3-2
			c-1.7-0.8-3.3-1-4.7-0.8c-1.4,0.3-2.3,0.9-2.8,2l-0.3,0.6c-0.3,0.6-0.4,1.2-0.3,1.8c0.1,0.6,0.3,1.1,0.7,1.7
			c0.4,0.6,0.9,1.1,1.6,1.7c0.7,0.6,1.5,1.2,2.4,1.9c1.5,1.1,2.8,2.2,3.7,3.2c0.9,1,1.6,1.9,2,2.9c0.4,0.9,0.6,1.8,0.5,2.7
			c0,0.9-0.3,1.8-0.7,2.7l-0.3,0.7c-0.6,1.2-1.3,2.2-2.2,2.9c-0.9,0.7-1.9,1.1-3.1,1.4c-1.1,0.2-2.4,0.2-3.7,0
			c-1.4-0.2-2.7-0.7-4.1-1.3c-2-0.9-3.6-2-5-3.3c-1.4-1.3-2.4-2.7-3.2-4.1L603.9,288.5z M564.8,253l10.6,2.6
			c1.5,0.4,2.8,0.9,3.9,1.6c1.1,0.7,1.9,1.4,2.6,2.3c0.6,0.9,1,1.8,1.2,2.9c0.2,1,0.2,2.1-0.1,3.3l-0.2,1c-0.4,1.6-1.2,2.9-2.3,3.9
			c-1.2,1-2.6,1.6-4.3,1.9l2.8,14l-4.4-1.1l-2.5-13.1l-7.2-1.7l-2.8,11.8l-4-1L564.8,253z M531,265.1l0.5-4.4
			c0.3-2.1,0.8-3.9,1.6-5.4c0.8-1.5,1.8-2.7,3-3.7c1.2-0.9,2.6-1.6,4.2-1.9c1.6-0.3,3.2-0.4,5-0.2c1.8,0.2,3.4,0.7,4.8,1.4
			c1.4,0.7,2.6,1.7,3.6,2.9c1,1.2,1.6,2.6,2,4.3c0.4,1.6,0.5,3.5,0.2,5.6l-0.5,4.4c-0.3,2.1-0.8,4-1.6,5.5c-0.8,1.5-1.8,2.7-3,3.7
			c-1.2,0.9-2.6,1.6-4.2,1.9c-1.6,0.3-3.2,0.4-5,0.2c-1.8-0.2-3.4-0.7-4.8-1.4c-1.4-0.7-2.6-1.7-3.6-2.9c-1-1.2-1.6-2.6-2-4.3
			C530.8,269.1,530.7,267.2,531,265.1z M508.6,247.9l18.7,0.3l-0.1,3.4l-14.6-0.2l-0.2,9.7l13.7,0.2l-0.1,3.4l-13.7-0.2l-0.2,12.5
			l-4.2-0.1L508.6,247.9z M458.1,260.3c0.3-1.7,0.9-3.1,1.8-4.4c0.9-1.2,2-2.3,3.4-3c1.4-0.8,3-1.3,4.7-1.6c1.8-0.3,3.4-0.3,5,0
			c1.6,0.3,3,0.9,4.3,1.7c1.3,0.9,2.3,2,3.2,3.5c0.9,1.5,1.5,3.2,1.8,5.3l0.7,4.3c0.4,2.1,0.4,4,0,5.7c-0.3,1.7-0.9,3.1-1.8,4.4
			c-0.9,1.2-2,2.3-3.4,3c-1.4,0.8-3,1.3-4.7,1.6c-1.8,0.3-3.5,0.3-5,0.1c-1.6-0.3-3-0.8-4.2-1.7c-1.3-0.9-2.3-2-3.2-3.5
			c-0.9-1.5-1.5-3.3-1.8-5.4l-0.7-4.3C457.8,263.9,457.8,262,458.1,260.3z M452,254.7l0.9,3.3l-8.9,2.5l6.9,24.7l-4,1.1l-6.9-24.7
			l-8.9,2.5l-0.9-3.3L452,254.7z M417.5,265.7c1.6-0.6,3-1,4.4-1c1.3-0.1,2.5,0.1,3.5,0.5c1,0.4,1.9,1,2.7,1.8
			c0.8,0.8,1.3,1.8,1.8,2.9l0.3,0.8c0.4,1.1,0.6,2.2,0.6,3.3c0,1.1-0.3,2.2-0.8,3.2c-0.5,1-1.2,2-2.2,2.9c-1,0.9-2.3,1.6-3.8,2.2
			l-6.2,2.4l4.1,10.6l-3.9,1.5l-10.6-27.1L417.5,265.7z M384.4,281.1l13.3,8.4l0.6-15.6l4.1-2.1l-1.2,20.2l5.4,10.4l-3.7,1.9
			l-5.4-10.4l-17.2-10.6L384.4,281.1z M368.6,290.8c1.3-0.8,2.5-1.4,3.8-1.8c1.2-0.3,2.4-0.4,3.4-0.3c1.1,0.1,2,0.5,2.9,1.1
			c0.9,0.6,1.7,1.3,2.3,2.3l0.6,0.9c0.9,1.4,1.3,2.8,1.3,4.4c0,1.5-0.6,3-1.6,4.4l12.1,7.5l-3.8,2.5l-11.2-7.2l-6.2,4.1l6.7,10.1
			l-3.5,2.3l-16-24.3L368.6,290.8z M340.8,315.1c0.1-1.5,0.6-3,1.4-4.3c0.8-1.4,1.9-2.6,3.3-3.7c1.6-1.3,3.2-2.3,4.7-2.9
			c1.5-0.6,3.2-1,5-1l0.4,3.9c-1.7,0-3.2,0.3-4.4,0.8c-1.2,0.5-2.3,1.2-3.4,2.1c-0.9,0.7-1.6,1.5-2.1,2.5c-0.5,0.9-0.8,1.9-0.8,2.9
			c-0.1,1.1,0.2,2.2,0.6,3.4c0.5,1.2,1.2,2.4,2.3,3.7l2.1,2.6c1.1,1.3,2.1,2.3,3.2,3c1.1,0.7,2.1,1.1,3.2,1.2c1,0.1,2.1,0.1,3-0.3
			s1.9-0.8,2.8-1.6c1.1-0.9,2.1-2,3-3.3c0.8-1.3,1.4-2.7,1.6-4.5l3.7,0.9c-0.3,2-0.9,3.8-2,5.4c-1,1.6-2.3,3-3.9,4.3
			c-1.4,1.2-2.8,2-4.3,2.5c-1.5,0.5-3,0.7-4.5,0.6c-1.5-0.2-3-0.7-4.5-1.5c-1.5-0.9-2.9-2.1-4.2-3.8l-2.8-3.4
			c-1.4-1.6-2.3-3.3-2.9-4.9C340.9,318.2,340.7,316.7,340.8,315.1z M331.7,338.9l3.4,3.2l-3.3,3.5l-3.4-3.2L331.7,338.9z
			 M294.2,363.8l22.8,1.8c0.6,0,1.3,0.1,2.1,0.2c0.8,0.1,1.7,0.3,2.6,0.5l-19.4-13.9l2.2-3.1l23.7,16.9l-2.8,3.9l-22.7-1.8
			c-0.6-0.1-1.3-0.2-2.1-0.3c-0.8-0.1-1.7-0.3-2.6-0.5l19.4,13.8l-2.2,3.1l-23.7-16.9L294.2,363.8z M287.4,374.4l24.9,15l-2.1,3.6
			l-24.9-15L287.4,374.4z M274.3,399.4c0.2-1.6,0.7-3.2,1.5-4.8c0.8-1.6,1.8-3,2.9-4.1c1.2-1.1,2.5-1.9,3.9-2.4
			c1.4-0.5,3-0.7,4.7-0.5c1.7,0.2,3.5,0.7,5.4,1.7l3.9,2c1.9,1,3.5,2.1,4.6,3.3c1.2,1.2,2,2.6,2.5,4c0.5,1.5,0.6,3,0.4,4.6
			c-0.2,1.6-0.7,3.2-1.5,4.8c-0.8,1.6-1.8,3-2.9,4.1c-1.1,1.1-2.4,1.9-3.9,2.4c-1.4,0.5-3,0.7-4.7,0.5c-1.7-0.2-3.5-0.7-5.4-1.7
			l-3.9-2c-1.9-0.9-3.4-2-4.6-3.3c-1.2-1.2-2-2.6-2.5-4C274.2,402.5,274.1,401,274.3,399.4z M264.4,421.1c0.7-2,1.6-3.6,2.6-4.9
			c1-1.3,2.2-2.4,3.7-3.4l2.3,3.1c-1.5,0.9-2.6,1.9-3.3,3c-0.8,1.1-1.4,2.2-1.8,3.5c-0.4,1.1-0.6,2.1-0.5,3.2c0,1,0.3,2,0.8,3
			c0.5,0.9,1.2,1.8,2.2,2.6c1,0.8,2.3,1.5,3.9,2l3.1,1.1c1.6,0.6,3,0.9,4.3,0.9c1.3,0,2.4-0.1,3.4-0.5c1-0.4,1.8-1,2.5-1.8
			c0.7-0.8,1.2-1.7,1.6-2.8c0.5-1.4,0.8-2.8,0.9-4.3c0.1-1.5-0.2-3.1-0.9-4.7l3.7-1.1c0.8,1.9,1.2,3.8,1.1,5.6
			c-0.1,1.9-0.5,3.8-1.2,5.7c-0.6,1.7-1.4,3.2-2.4,4.4c-1,1.2-2.2,2.1-3.6,2.8c-1.4,0.6-2.9,1-4.6,1c-1.7,0-3.6-0.3-5.6-1.1
			l-4.1-1.5c-2-0.7-3.6-1.6-4.9-2.7c-1.3-1.1-2.3-2.3-2.9-3.7c-0.6-1.4-1-2.9-1-4.4C263.5,424.4,263.8,422.8,264.4,421.1z
			 M255.9,451c1-4.1,2.8-6.9,5.3-8.5c2.6-1.6,5.8-1.9,9.8-1l4,1c3.9,0.9,6.7,2.7,8.3,5.2c1.6,2.5,1.9,5.9,0.9,10.1l-2.3,9.8
			l-28.3-6.8L255.9,451z M250.5,478.1c0.2-1.8,0.7-3.5,1.3-4.9c0.6-1.4,1.4-2.8,2.4-3.9l2.8,2.3c-0.9,1-1.5,2.1-2,3.2
			c-0.5,1.1-0.8,2.3-1,3.7c-0.2,1.9,0,3.4,0.6,4.7c0.7,1.2,1.6,1.9,2.7,2.1l0.6,0.1c0.7,0.1,1.3,0,1.8-0.2c0.5-0.2,1-0.6,1.4-1.2
			c0.4-0.5,0.8-1.2,1.2-2.1c0.4-0.8,0.7-1.8,1.1-2.9c0.6-1.8,1.3-3.3,2-4.5c0.7-1.2,1.4-2.1,2.2-2.8c0.8-0.7,1.6-1.1,2.4-1.3
			c0.9-0.2,1.8-0.3,2.8-0.1l0.7,0.1c1.3,0.2,2.5,0.6,3.4,1.3c0.9,0.7,1.7,1.5,2.2,2.5c0.6,1,0.9,2.2,1.1,3.6c0.2,1.4,0.2,2.8,0,4.3
			c-0.3,2.1-0.8,4.1-1.7,5.8c-0.9,1.7-1.9,3.1-3,4.3l-3-2.5c0.5-0.5,0.9-1.1,1.4-1.8c0.5-0.7,0.9-1.4,1.3-2.1
			c0.4-0.7,0.7-1.4,0.9-2.2c0.3-0.7,0.4-1.4,0.5-2.1c0.3-2.1,0.1-3.8-0.6-5c-0.7-1.2-1.6-1.8-2.8-2l-0.6-0.1c-0.6-0.1-1.2,0-1.7,0.1
			c-0.5,0.2-1,0.5-1.4,1c-0.4,0.5-0.9,1.1-1.3,1.9c-0.4,0.8-0.8,1.8-1.2,3c-0.5,1.4-1,2.7-1.5,3.8c-0.5,1.2-1.2,2.2-1.9,3
			c-0.7,0.8-1.5,1.4-2.5,1.8c-1,0.4-2.1,0.5-3.4,0.4l-0.7-0.1c-1-0.1-1.9-0.5-2.8-1c-0.9-0.5-1.6-1.3-2.2-2.2
			c-0.6-1-1.1-2.1-1.3-3.4C250.3,481.3,250.3,479.8,250.5,478.1z M267,509.2l-0.1,4.8l-4.6-0.1l0.1-4.8L267,509.2z M250.4,544.5
			c-0.2-1.8-0.2-3.5,0-5.1c0.2-1.6,0.7-3,1.4-4.4l3.3,1.6c-0.6,1.2-1,2.4-1.1,3.6c-0.2,1.2-0.2,2.5,0,3.8c0.2,1.9,0.8,3.3,1.8,4.4
			c0.9,1,2,1.5,3.1,1.3l0.6-0.1c0.7-0.1,1.2-0.3,1.6-0.7c0.4-0.4,0.8-0.9,1.1-1.5c0.3-0.6,0.5-1.4,0.6-2.3c0.1-0.9,0.3-1.9,0.4-3
			c0.2-1.9,0.4-3.5,0.8-4.8c0.4-1.3,0.8-2.4,1.4-3.2c0.6-0.8,1.3-1.5,2-1.9c0.8-0.4,1.7-0.7,2.7-0.8l0.7-0.1c1.3-0.2,2.5,0,3.6,0.4
			c1.1,0.4,2,1.1,2.8,1.9c0.8,0.9,1.4,1.9,1.9,3.2c0.5,1.3,0.8,2.7,1,4.2c0.3,2.1,0.2,4.1-0.2,6c-0.4,1.9-1,3.5-1.9,4.9l-3.5-1.7
			c0.3-0.6,0.6-1.3,0.9-2.1c0.3-0.8,0.5-1.5,0.7-2.3c0.2-0.8,0.3-1.6,0.4-2.4c0.1-0.8,0.1-1.5,0-2.1c-0.3-2.1-0.9-3.7-1.8-4.7
			c-1-1-2-1.4-3.2-1.2l-0.6,0.1c-0.6,0.1-1.2,0.3-1.6,0.5c-0.5,0.3-0.8,0.7-1.1,1.3c-0.3,0.6-0.6,1.3-0.8,2.2
			c-0.2,0.9-0.3,1.9-0.4,3.2c-0.1,1.5-0.3,2.8-0.5,4.1c-0.2,1.3-0.6,2.4-1.1,3.3c-0.5,1-1.1,1.8-2,2.4c-0.8,0.6-1.9,1-3.2,1.2
			l-0.7,0.1c-1,0.1-2,0-2.9-0.3c-1-0.3-1.9-0.8-2.7-1.6c-0.8-0.8-1.5-1.8-2.1-3C251,547.7,250.6,546.2,250.4,544.5z M253.3,561.6
			l3.3-0.8l3.3,14.3l8.8-2l-3.1-13.5l3.3-0.8l3.1,13.5l9.5-2.2l-3.4-14.6l3.3-0.8l4.3,18.7l-28.4,6.5L253.3,561.6z M266.1,606.4
			l19.9-16.2l-25.7-0.6l-1.4-4l31.2,1.3l1.3,3.7l-23.8,20.1L266.1,606.4z M269.9,615.3l26.7-11.6l1.7,3.8l-26.7,11.6L269.9,615.3z
			 M280.1,636.5l22.8-11.8l-6.7-12.9l3-1.6l8.6,16.5L282,640.2L280.1,636.5z M311.3,678.1c-1.5-0.2-3-0.8-4.3-1.6
			c-1.4-0.9-2.7-2.1-3.8-3.6c-1.2-1.5-2.1-3.1-2.7-4.7c-0.6-1.6-1-3.3-1-5.1l3.9-0.3c0,1.6,0.3,3.1,0.7,4.3c0.5,1.2,1.1,2.4,2,3.5
			c1.6,2.1,3.5,3.2,5.6,3.5c2.1,0.2,4.5-0.7,7.2-2.7l2.6-2.1c2.7-2.1,4.1-4.2,4.3-6.4c0.2-2.2-0.5-4.4-2.1-6.5
			c-0.7-0.9-1.4-1.7-2.2-2.4c-0.8-0.7-1.6-1.2-2.4-1.6l-6.5,5l4.1,5.3l-2.7,2.1l-6.7-8.6l10.9-8.5c1.5,0.5,3,1.4,4.5,2.5
			c1.4,1.2,2.8,2.5,3.9,4c1.2,1.6,2.1,3.2,2.7,4.8c0.6,1.6,0.8,3.1,0.6,4.7c-0.2,1.5-0.7,3-1.6,4.5c-0.9,1.4-2.2,2.8-3.9,4.2
			l-3.5,2.7c-1.7,1.3-3.3,2.2-4.9,2.7C314.3,678.2,312.8,678.3,311.3,678.1z M328.6,700.9l5.8-22.1c0.1-0.6,0.3-1.2,0.6-2
			c0.3-0.8,0.6-1.6,0.9-2.5l-17,16.7l-2.7-2.8l20.8-20.3l3.3,3.4l-5.7,22.1c-0.2,0.6-0.4,1.3-0.6,2.1c-0.3,0.8-0.6,1.6-0.9,2.5
			l17-16.6l2.7,2.8l-20.8,20.3L328.6,700.9z M337.8,709.4l19.1-21.9l3.1,2.7l-19.1,21.9L337.8,709.4z M365.9,731.5l-3.6-2.7
			l7.3-24.5l-21.6,13.9l-3.4-2.6l26.5-16.5l3.1,2.3L365.9,731.5z M375.3,737.1l5.3-30.8l3.7,2.2l-1.7,9l9.9,6l7.1-5.7l3.6,2.2
			l-24.6,19.2L375.3,737.1z M419.4,734.3c-0.3-0.6-0.8-1.2-1.3-1.9c-0.5-0.6-1-1.3-1.6-1.8c-0.6-0.6-1.2-1.1-1.8-1.6
			c-0.6-0.5-1.2-0.8-1.8-1.1c-2-0.9-3.6-1.2-4.9-0.9c-1.3,0.3-2.2,1-2.7,2l-0.3,0.6c-0.3,0.6-0.4,1.1-0.4,1.7c0,0.5,0.2,1.1,0.5,1.6
			c0.3,0.6,0.8,1.2,1.4,1.8c0.6,0.6,1.5,1.3,2.5,2.1c1.2,0.9,2.2,1.7,3.2,2.6c1,0.9,1.7,1.8,2.3,2.7c0.6,0.9,0.9,1.9,1,2.9
			c0.1,1-0.1,2.2-0.7,3.3l-0.3,0.7c-0.4,0.9-1,1.7-1.8,2.4c-0.8,0.7-1.7,1.1-2.8,1.4c-1.1,0.3-2.3,0.4-3.7,0.2
			c-1.4-0.1-2.8-0.6-4.4-1.3c-1.7-0.8-3.1-1.7-4.3-2.7c-1.2-1-2.2-2.2-3-3.5l3.1-2c0.7,1.1,1.5,2.1,2.4,2.9c0.9,0.8,2,1.5,3.3,2
			c1.7,0.8,3.3,1.1,4.6,0.8c1.4-0.3,2.3-0.9,2.8-2l0.3-0.6c0.3-0.6,0.4-1.2,0.3-1.8c-0.1-0.6-0.3-1.1-0.7-1.7
			c-0.4-0.6-0.9-1.1-1.6-1.7c-0.7-0.6-1.5-1.2-2.4-1.9c-1.5-1.2-2.8-2.2-3.7-3.2c-0.9-1-1.6-2-2-2.9c-0.4-0.9-0.6-1.8-0.5-2.7
			c0.1-0.9,0.3-1.8,0.7-2.7l0.3-0.7c0.6-1.2,1.3-2.2,2.2-2.8c0.9-0.7,1.9-1.1,3.1-1.4c1.2-0.2,2.4-0.2,3.7,0
			c1.3,0.3,2.7,0.7,4.1,1.3c2,0.9,3.6,2,5,3.4c1.4,1.4,2.4,2.7,3.1,4.1L419.4,734.3z M458.1,770.2l-10.6-2.7
			c-1.5-0.4-2.8-0.9-3.8-1.6c-1.1-0.7-1.9-1.5-2.5-2.3c-0.6-0.9-1-1.8-1.2-2.9c-0.2-1-0.1-2.1,0.1-3.3l0.3-1
			c0.4-1.6,1.2-2.9,2.3-3.9c1.2-1,2.6-1.6,4.3-1.8l-2.7-14l4.4,1.1l2.3,13.1l7.2,1.8l3-11.8l4,1L458.1,770.2z M492.1,758.4l-0.6,4.4
			c-0.3,2.1-0.8,3.9-1.6,5.4c-0.8,1.5-1.8,2.7-3,3.6c-1.2,0.9-2.6,1.6-4.2,1.9c-1.6,0.3-3.2,0.4-5,0.1c-1.8-0.2-3.4-0.7-4.8-1.5
			c-1.4-0.7-2.6-1.7-3.6-2.9c-0.9-1.2-1.6-2.6-2-4.3c-0.4-1.7-0.4-3.5-0.2-5.6l0.6-4.4c0.3-2.1,0.8-3.9,1.6-5.4
			c0.8-1.5,1.8-2.7,3-3.6c1.2-0.9,2.6-1.5,4.2-1.9c1.6-0.3,3.2-0.4,5-0.1c1.8,0.2,3.4,0.7,4.8,1.4c1.4,0.7,2.6,1.7,3.5,2.9
			c0.9,1.2,1.6,2.6,2,4.3C492.3,754.3,492.4,756.2,492.1,758.4z M514.2,775.8l-18.7-0.5l0.1-3.4l14.6,0.4l0.3-9.7l-13.7-0.4l0.1-3.4
			l13.7,0.4l0.3-12.5l4.2,0.1L514.2,775.8z M564.9,763.8c-0.3,1.7-1,3.1-1.9,4.3c-0.9,1.2-2.1,2.2-3.5,3c-1.4,0.8-3,1.3-4.8,1.6
			c-1.8,0.3-3.4,0.3-5,0c-1.6-0.3-3-0.9-4.2-1.8c-1.2-0.9-2.3-2.1-3.1-3.5c-0.8-1.5-1.4-3.3-1.8-5.4l-0.7-4.3c-0.3-2.1-0.3-4,0-5.7
			c0.3-1.7,1-3.1,1.9-4.3c0.9-1.2,2.1-2.2,3.5-3c1.4-0.8,3-1.3,4.8-1.6c1.8-0.3,3.5-0.3,5,0c1.6,0.3,3,0.9,4.2,1.8
			c1.2,0.9,2.3,2.1,3.1,3.5c0.8,1.5,1.4,3.3,1.8,5.4l0.7,4.3C565.3,760.3,565.3,762.1,564.9,763.8z M570.9,769.4l-0.9-3.3l8.9-2.4
			l-6.7-24.8l4-1.1l6.7,24.8l8.9-2.4l0.9,3.3L570.9,769.4z M605.5,758.8c-1.6,0.6-3.1,0.9-4.4,1c-1.3,0.1-2.5-0.1-3.5-0.5
			c-1-0.4-1.9-1-2.7-1.8c-0.7-0.8-1.3-1.8-1.7-2.9l-0.3-0.8c-0.4-1.1-0.6-2.2-0.6-3.3c0-1.1,0.3-2.2,0.8-3.2c0.5-1,1.3-2,2.3-2.8
			c1-0.9,2.3-1.6,3.8-2.2l6.2-2.4l-4-10.6l3.9-1.5l10.4,27.2L605.5,758.8z M638.8,743.7l-13.2-8.5l-0.7,15.6l-4.1,2.1l1.3-20.2
			l-5.3-10.4l3.7-1.9l5.3,10.4l17.1,10.8L638.8,743.7z M654.7,734.2c-1.3,0.8-2.6,1.4-3.8,1.7c-1.2,0.3-2.4,0.4-3.4,0.2
			c-1.1-0.1-2-0.5-2.9-1.1c-0.9-0.6-1.6-1.4-2.3-2.3l-0.6-0.9c-0.9-1.4-1.3-2.8-1.2-4.4c0.1-1.5,0.6-3,1.6-4.4l-12-7.6l3.8-2.4
			l11.2,7.3l6.2-4l-6.6-10.2l3.5-2.3l15.8,24.5L654.7,734.2z M682.7,710.1c-0.2,1.5-0.6,2.9-1.5,4.3c-0.8,1.4-1.9,2.6-3.3,3.7
			c-1.6,1.3-3.2,2.3-4.7,2.9c-1.5,0.6-3.2,0.9-5,1l-0.4-3.9c1.7,0,3.2-0.3,4.4-0.8c1.2-0.5,2.3-1.2,3.4-2.1c0.9-0.7,1.6-1.5,2.1-2.4
			c0.5-0.9,0.8-1.9,0.9-2.9c0.1-1.1-0.1-2.2-0.6-3.4c-0.5-1.2-1.2-2.4-2.3-3.7l-2.1-2.6c-1-1.3-2.1-2.3-3.2-3
			c-1.1-0.7-2.1-1.1-3.2-1.3c-1-0.2-2.1-0.1-3,0.2c-1,0.3-1.9,0.8-2.8,1.6c-1.1,0.9-2.1,2-3,3.2c-0.9,1.3-1.4,2.7-1.6,4.4l-3.7-1
			c0.3-2,1-3.8,2-5.4c1.1-1.5,2.4-3,4-4.2c1.4-1.1,2.9-2,4.3-2.5c1.5-0.5,3-0.7,4.5-0.5c1.5,0.2,3,0.7,4.4,1.5
			c1.5,0.9,2.9,2.1,4.2,3.8l2.8,3.4c1.3,1.7,2.3,3.3,2.8,4.9C682.7,707,682.8,708.5,682.7,710.1z M682,650.6l-1.6-1.1
			c-2,2.4-4.1,4.8-6.2,7.2l1.4,1.4c0.8,0.8,0.6,2.4-0.5,3.5L661.7,675c-1.1,1.1-2.7,1.3-3.5,0.5l-1.4-1.4c-2.4,2.1-4.7,4.2-7.2,6.2
			l1.1,1.6c0.7,1,0.2,2.5-1,3.4l-15.4,11.2c-1.3,0.9-2.9,0.9-3.5-0.1l-1.1-1.5c-2.7,1.7-5.3,3.4-8.1,5l0.8,1.7
			c0.5,1-0.2,2.5-1.6,3.2l-17,8.6c-1.4,0.7-3,0.4-3.5-0.6l-0.8-1.6c-2.9,1.3-5.8,2.5-8.7,3.6l0.6,1.7c0.4,1.1-0.5,2.4-2,2.9
			l-18.1,5.9c-1.5,0.5-3,0-3.3-1.2l-0.6-1.8c-3,0.8-6.1,1.5-9.2,2.2l0.3,1.9c0.2,1.2-0.9,2.3-2.5,2.6l-18.8,3
			c-1.5,0.2-2.9-0.5-3.1-1.7l-0.3-1.9c-3.1,0.3-6.3,0.5-9.4,0.7l0,2c0,1.2-1.3,2.1-2.8,2.1l-19,0c-1.6,0-2.8-1-2.8-2.1l0-1.9
			c-3.2-0.2-6.3-0.4-9.4-0.7l-0.3,1.9c-0.2,1.2-1.6,1.9-3.1,1.7l-18.8-3c-1.5-0.2-2.6-1.4-2.5-2.5l0.3-1.9c-3.1-0.7-6.2-1.4-9.2-2.2
			l-0.6,1.8c-0.4,1.1-1.9,1.6-3.3,1.1l-18.1-5.9c-1.5-0.5-2.4-1.8-2-2.9l0.6-1.7c-2.9-1.1-5.9-2.4-8.7-3.6l-0.8,1.6
			c-0.5,1-2.1,1.3-3.5,0.6l-17-8.6c-1.4-0.7-2.1-2.1-1.5-3.2l0.8-1.7c-2.7-1.6-5.4-3.2-8.1-5l-1.1,1.5c-0.7,1-2.3,1-3.5,0.1
			l-15.4-11.2c-1.3-0.9-1.7-2.4-1-3.4l1.1-1.6c-2.4-2-4.8-4.1-7.2-6.2l-1.4,1.4c-0.8,0.8-2.4,0.6-3.5-0.5l-13.5-13.5
			c-1.1-1.1-1.3-2.7-0.5-3.5l1.4-1.4c-2.1-2.4-4.2-4.7-6.2-7.2l-1.6,1.1c-1,0.7-2.5,0.2-3.4-1l-11.2-15.4c-0.9-1.3-0.9-2.9,0.1-3.5
			l1.5-1.1c-1.7-2.7-3.4-5.3-5-8.1l-1.7,0.8c-1,0.5-2.5-0.2-3.2-1.6l-8.6-17c-0.7-1.4-0.4-3,0.6-3.5l1.6-0.8
			c-1.3-2.9-2.5-5.8-3.6-8.8l-1.7,0.6c-1.1,0.4-2.4-0.5-2.9-2l-5.9-18.1c-0.5-1.5,0-3,1.2-3.3l1.8-0.6c-0.8-3-1.5-6.1-2.2-9.2
			l-1.9,0.3c-1.2,0.2-2.3-0.9-2.5-2.5l-3-18.8c-0.2-1.5,0.5-2.9,1.7-3.1l1.9-0.3c-0.3-3.1-0.5-6.3-0.7-9.4l-2,0
			c-1.2,0-2.1-1.3-2.1-2.9l0-19.1c0-1.6,1-2.9,2.1-2.9h1.9c0.2-2.5,0.4-6.2,0.7-9.3l-1.9-0.2c-1.2-0.2-1.9-1.6-1.7-3.1l3-18.8
			c0.2-1.5,1.4-2.6,2.5-2.5l1.9,0.3c0.7-3.1,1.4-6.2,2.2-9.2l-1.8-0.6c-1.1-0.4-1.6-1.9-1.1-3.3l5.9-18.1c0.5-1.5,1.8-2.4,2.9-2
			l1.7,0.6c1.1-2.9,2.4-5.9,3.6-8.8l-1.6-0.8c-1.1-0.5-1.3-2.1-0.6-3.5l8.6-17c0.7-1.4,2.1-2.1,3.2-1.5l1.7,0.8
			c1.6-2.7,3.2-5.4,5-8.1l-1.5-1.1c-1-0.7-1-2.3-0.1-3.5l11.2-15.4c0.9-1.3,2.4-1.7,3.4-1l1.6,1.1c2-2.4,4.1-4.8,6.2-7.2l-1.4-1.4
			c-0.8-0.8-0.6-2.4,0.5-3.5l13.5-13.5c1.1-1.1,2.7-1.3,3.5-0.5l1.4,1.4c2.4-2.1,4.7-4.2,7.2-6.2l-1.1-1.6c-0.7-1-0.2-2.5,1-3.4
			l15.4-11.2c1.3-0.9,2.8-0.9,3.5,0.1l1.1,1.5c2.7-1.7,5.3-3.4,8.1-5l-0.8-1.7c-0.5-1,0.2-2.5,1.6-3.2l17-8.6c1.4-0.7,3-0.4,3.5,0.6
			l0.8,1.6c2.9-1.3,5.8-2.5,8.7-3.6l-0.6-1.7c-0.4-1.1,0.5-2.4,2-2.9l18.1-5.9c1.5-0.5,3,0,3.3,1.2l0.6,1.8c3-0.8,6.1-1.5,9.2-2.2
			l-0.3-1.9c-0.2-1.2,0.9-2.3,2.5-2.5l18.8-3c1.5-0.2,2.9,0.5,3.1,1.7l0.3,1.9c3.1-0.3,6.3-0.5,9.4-0.7l0-2c0-1.2,1.3-2.1,2.8-2.1
			l19,0c1.6,0,2.8,1,2.8,2.1l0,1.9c3.2,0.2,6.3,0.4,9.4,0.7l0.3-1.9c0.2-1.2,1.6-1.9,3.1-1.7l18.8,3c1.5,0.2,2.6,1.4,2.5,2.5
			l-0.3,1.9c3.1,0.7,6.2,1.4,9.2,2.2l0.6-1.8c0.4-1.1,1.9-1.6,3.3-1.1l18.1,5.9c1.5,0.5,2.4,1.8,2,2.9l-0.6,1.7
			c2.9,1.1,5.9,2.4,8.7,3.6l0.8-1.6c0.5-1,2.1-1.3,3.5-0.6l17,8.6c1.4,0.7,2.1,2.1,1.6,3.2l-0.8,1.7c2.7,1.6,5.4,3.2,8.1,5l1.1-1.5
			c0.7-1,2.3-1,3.5-0.1l15.4,11.2c1.3,0.9,1.7,2.4,1,3.4l-1.1,1.6c2.4,2,4.8,4.1,7.2,6.2l1.4-1.4c0.8-0.8,2.4-0.6,3.5,0.5l13.5,13.5
			c1.1,1.1,1.3,2.7,0.5,3.5l-1.4,1.4c2.1,2.4,4.2,4.7,6.2,7.2l1.6-1.1c1-0.7,2.5-0.2,3.4,1l11.2,15.4c0.9,1.3,0.9,2.8-0.1,3.5
			l-1.5,1.1c1.7,2.7,3.4,5.3,5,8.1l1.7-0.8c1-0.5,2.5,0.2,3.2,1.6l8.6,17c0.7,1.4,0.4,3-0.6,3.5l-1.6,0.8c1.3,2.9,2.5,5.8,3.6,8.7
			l1.7-0.6c1.1-0.4,2.4,0.5,2.9,2l5.9,18.1c0.5,1.5,0,3-1.2,3.3l-1.8,0.6c0.8,3,1.5,6.1,2.2,9.2l1.9-0.3c1.2-0.2,2.3,0.9,2.5,2.5
			l3,18.8c0.2,1.5-0.5,2.9-1.7,3.1l-1.9,0.3c0.3,3.1,0.5,6.3,0.7,9.4l2,0c1.2,0,2.1,1.3,2.1,2.8l0,19c0,1.6-1,2.8-2.1,2.8l-1.9,0
			c-0.2,3.2-0.4,6.3-0.7,9.4l1.9,0.3c1.2,0.2,1.9,1.6,1.7,3.1l-3,18.8c-0.2,1.5-1.4,2.6-2.5,2.5l-1.9-0.3c-0.7,3.1-1.4,6.2-2.2,9.2
			l1.8,0.6c1.1,0.4,1.6,1.9,1.2,3.3l-5.9,18.1c-0.5,1.5-1.8,2.4-2.9,2l-1.7-0.6c-1.1,2.9-2.4,5.9-3.6,8.7l1.6,0.8
			c1,0.5,1.3,2.1,0.6,3.5l-8.6,17c-0.7,1.4-2.1,2.1-3.2,1.6l-1.7-0.8c-1.6,2.7-3.2,5.4-5,8.1l1.5,1.1c1,0.7,1,2.3,0.1,3.5
			l-11.2,15.4C684.4,650.8,682.9,651.3,682,650.6z M692,686.4l-3.4-3.2l3.3-3.5l3.4,3.2L692,686.4z M729.8,661.8l-22.8-2.1
			c-0.6,0-1.3-0.1-2.1-0.3c-0.8-0.1-1.7-0.3-2.6-0.5l19.3,14l-2.3,3.1L695.9,659l2.8-3.9l22.7,2c0.6,0.1,1.3,0.2,2.1,0.3
			c0.8,0.1,1.7,0.3,2.6,0.5l-19.2-14l2.3-3.1l23.5,17.1L729.8,661.8z M736.6,651.3l-24.8-15.2l2.2-3.5l24.8,15.2L736.6,651.3z
			 M750,626.4c-0.2,1.6-0.7,3.2-1.5,4.8c-0.8,1.6-1.8,2.9-3,4.1c-1.2,1.1-2.5,1.9-3.9,2.4c-1.5,0.5-3,0.6-4.7,0.5
			c-1.7-0.2-3.5-0.8-5.4-1.7l-3.9-2c-1.9-1-3.5-2.1-4.6-3.3c-1.1-1.3-1.9-2.6-2.4-4.1c-0.5-1.5-0.6-3-0.4-4.6
			c0.2-1.6,0.7-3.2,1.5-4.8c0.8-1.6,1.8-3,3-4.1c1.1-1.1,2.4-1.9,3.9-2.4c1.5-0.5,3-0.6,4.7-0.5c1.7,0.2,3.5,0.8,5.4,1.7l3.9,2
			c1.9,1,3.4,2.1,4.6,3.3c1.1,1.3,1.9,2.6,2.4,4.1C750.1,623.3,750.2,624.8,750,626.4z M760.1,604.8c-0.7,2-1.6,3.6-2.6,4.9
			c-1,1.3-2.3,2.4-3.8,3.4l-2.3-3.1c1.5-0.9,2.6-1.9,3.4-2.9c0.8-1,1.4-2.2,1.9-3.5c0.4-1.1,0.6-2.1,0.6-3.2c0-1-0.3-2-0.8-3
			c-0.5-0.9-1.2-1.8-2.2-2.6c-1-0.8-2.3-1.5-3.8-2.1l-3.1-1.2c-1.6-0.6-3-0.9-4.3-1c-1.3-0.1-2.4,0.1-3.4,0.5c-1,0.4-1.8,1-2.5,1.8
			c-0.7,0.8-1.2,1.7-1.6,2.8c-0.5,1.4-0.8,2.8-0.9,4.3c-0.1,1.5,0.2,3.1,0.9,4.7l-3.7,1.1c-0.8-1.9-1.1-3.8-1-5.7
			c0.1-1.9,0.5-3.8,1.2-5.7c0.6-1.7,1.5-3.2,2.5-4.4c1-1.2,2.2-2.1,3.6-2.7c1.4-0.6,2.9-0.9,4.6-0.9c1.7,0,3.5,0.4,5.6,1.1l4.1,1.5
			c2,0.7,3.6,1.7,4.9,2.8c1.3,1.1,2.2,2.3,2.9,3.7c0.6,1.4,0.9,2.9,0.9,4.4C761,601.5,760.7,603.2,760.1,604.8z M768.9,575
			c-1,4-2.8,6.9-5.4,8.4c-2.6,1.6-5.9,1.9-9.8,0.9l-4-1c-3.9-1-6.7-2.7-8.2-5.3c-1.6-2.6-1.8-5.9-0.8-10.1l2.4-9.7l28.2,7.1
			L768.9,575z M774.5,548c-0.2,1.8-0.7,3.5-1.3,4.9c-0.6,1.4-1.4,2.7-2.4,3.9l-2.8-2.4c0.9-1,1.5-2.1,2-3.2c0.5-1.1,0.8-2.3,1-3.7
			c0.3-1.9,0.1-3.4-0.6-4.7c-0.6-1.2-1.5-1.9-2.7-2.1l-0.6-0.1c-0.7-0.1-1.3,0-1.8,0.2c-0.5,0.2-1,0.6-1.4,1.2
			c-0.4,0.5-0.8,1.2-1.2,2c-0.4,0.8-0.8,1.8-1.1,2.9c-0.7,1.8-1.3,3.3-2,4.4c-0.7,1.2-1.4,2.1-2.2,2.7c-0.8,0.7-1.6,1.1-2.5,1.3
			c-0.9,0.2-1.8,0.2-2.8,0.1l-0.7-0.1c-1.3-0.2-2.5-0.6-3.4-1.3s-1.6-1.5-2.2-2.6c-0.6-1-0.9-2.2-1.1-3.6c-0.2-1.4-0.1-2.8,0.1-4.3
			c0.3-2.1,0.9-4.1,1.8-5.8c0.9-1.7,1.9-3.1,3-4.2l3,2.5c-0.5,0.5-0.9,1.1-1.4,1.8c-0.5,0.7-0.9,1.4-1.3,2.1c-0.4,0.7-0.7,1.4-1,2.2
			c-0.3,0.7-0.4,1.4-0.5,2.1c-0.3,2.1-0.1,3.8,0.6,5c0.7,1.2,1.6,1.8,2.7,2l0.6,0.1c0.6,0.1,1.2,0.1,1.7-0.1c0.5-0.2,1-0.5,1.4-0.9
			c0.4-0.5,0.9-1.1,1.3-1.9c0.4-0.8,0.8-1.8,1.2-3c0.5-1.4,1-2.6,1.6-3.8c0.6-1.2,1.2-2.2,1.9-3c0.7-0.8,1.6-1.4,2.5-1.8
			c1-0.4,2.1-0.5,3.4-0.3l0.7,0.1c1,0.1,1.9,0.5,2.8,1c0.9,0.5,1.6,1.3,2.2,2.2c0.6,1,1,2.1,1.3,3.5
			C774.7,544.7,774.7,546.2,774.5,548z M758.3,516.7l0.1-4.8l4.6,0.1l-0.1,4.8L758.3,516.7z M773.3,486.2l-3.3-1.5
			c0.6-1.2,0.9-2.4,1.1-3.6c0.2-1.2,0.2-2.5,0-3.8c-0.3-1.9-0.9-3.3-1.8-4.4c-1-1-2-1.4-3.1-1.3l-0.6,0.1c-0.7,0.1-1.2,0.3-1.6,0.7
			c-0.4,0.4-0.8,0.9-1,1.5c-0.3,0.6-0.5,1.4-0.6,2.3c-0.1,0.9-0.3,1.9-0.3,3.1c-0.2,1.9-0.4,3.5-0.8,4.8c-0.4,1.3-0.8,2.4-1.4,3.2
			c-0.6,0.8-1.2,1.5-2,1.9c-0.8,0.4-1.7,0.7-2.7,0.8l-0.7,0.1c-1.3,0.2-2.5,0.1-3.6-0.3c-1.1-0.4-2-1-2.8-1.9
			c-0.8-0.9-1.5-1.9-2-3.2c-0.5-1.3-0.9-2.7-1.1-4.2c-0.3-2.1-0.2-4.1,0.2-6c0.4-1.9,1-3.5,1.8-4.9l3.5,1.6
			c-0.3,0.6-0.6,1.3-0.9,2.1c-0.3,0.8-0.5,1.6-0.7,2.3c-0.2,0.8-0.3,1.6-0.4,2.4c-0.1,0.8,0,1.5,0,2.1c0.3,2.1,0.9,3.7,1.9,4.6
			c1,1,2,1.4,3.2,1.2l0.6-0.1c0.6-0.1,1.2-0.3,1.6-0.6c0.4-0.3,0.8-0.7,1.1-1.3c0.3-0.6,0.6-1.3,0.7-2.2c0.2-0.9,0.3-1.9,0.4-3.2
			c0.1-1.5,0.3-2.8,0.5-4.1c0.2-1.3,0.6-2.4,1.1-3.4c0.5-1,1.1-1.8,2-2.4c0.8-0.6,1.9-1,3.2-1.2l0.7-0.1c1-0.1,2-0.1,2.9,0.2
			c1,0.3,1.9,0.8,2.7,1.6c0.8,0.8,1.6,1.8,2.2,3c0.6,1.2,1,2.7,1.3,4.4c0.2,1.8,0.3,3.5,0,5.1C774.4,483.4,774,484.8,773.3,486.2z"
			/>
		<path class="st1" d="M642.7,294.1c0.1-0.6,0.2-1.2,0.3-1.6c0.1-0.5,0.2-0.9,0.3-1.3c0.1-0.4,0.2-0.9,0.3-1.4
			c0.1-0.5,0.2-1,0.4-1.7c-0.5,0.5-1,0.9-1.3,1.2c-0.4,0.3-0.7,0.6-1,0.9c-0.3,0.3-0.7,0.6-1,0.9c-0.4,0.3-0.8,0.7-1.3,1.1l-5.7,4.6
			l7.8,4.6L642.7,294.1z"/>
		<path class="st1" d="M744,620.5c-0.9-0.9-2.1-1.8-3.6-2.5l-3.1-1.6c-1.5-0.8-2.9-1.2-4.2-1.4c-1.3-0.2-2.4-0.1-3.4,0.1
			c-1,0.3-1.9,0.8-2.7,1.5c-0.8,0.7-1.4,1.6-2,2.7c-0.5,1-0.9,2.1-1,3.1c-0.1,1,0,2.1,0.4,3c0.4,1,1,1.9,1.9,2.8
			c0.9,0.9,2.1,1.8,3.6,2.5l3.1,1.6c1.5,0.8,2.9,1.2,4.2,1.4c1.3,0.2,2.4,0.1,3.4-0.1c1-0.3,1.9-0.8,2.7-1.5c0.8-0.7,1.4-1.6,2-2.7
			c0.5-1,0.9-2.1,1-3.1c0.1-1.1,0-2.1-0.4-3C745.5,622.4,744.9,621.4,744,620.5z"/>
		<path class="st1" d="M744.7,575.2c0.5,0.9,1.3,1.7,2.3,2.4c1,0.7,2.3,1.2,3.9,1.6l3.6,0.9c1.6,0.4,3,0.5,4.2,0.4
			c1.2-0.1,2.3-0.5,3.2-1c0.9-0.6,1.7-1.3,2.2-2.3c0.6-1,1-2.1,1.4-3.4l1.3-5.3l-21.4-5.3l-1.3,5.3c-0.3,1.3-0.5,2.5-0.4,3.7
			C743.8,573.3,744.1,574.3,744.7,575.2z"/>
		<g>
			<path class="st1" d="M485.9,558.2c-17.2-9.5-28-27.6-28-47.3c0-29.8,24.2-54,54-54c20.3,0,38.7,11.2,48,29.3l-0.6,0.3
				c-9.2-17.9-27.4-28.9-47.4-28.9c-29.4,0-53.3,23.9-53.3,53.3c0,19.4,10.6,37.3,27.6,46.7L485.9,558.2z"/>
			<path class="st1" d="M485.9,570.2c-23.6-10.3-38.8-33.6-38.8-59.4c0-35.7,29.1-64.8,64.8-64.8c26.4,0,49.9,15.8,59.9,40.1
				l-0.6,0.2c-9.9-24.1-33.2-39.7-59.3-39.7c-35.4,0-64.1,28.8-64.1,64.2c0,25.5,15.1,48.5,38.4,58.8L485.9,570.2z"/>
			<path class="st1" d="M485.9,593.2c-17.1-5.4-32.5-16.3-43.3-30.8c-11.2-15-17.1-32.8-17.1-51.5c0-47.6,38.7-86.3,86.3-86.3
				c19,0,37,6,52.1,17.5c14.6,11.1,25.5,26.8,30.7,44.2l-0.6,0.2c-10.7-36.1-44.5-61.3-82.2-61.3c-47.3,0-85.7,38.4-85.7,85.7
				c0,37.6,24.1,70.5,60,81.8L485.9,593.2z"/>
			<path class="st1" d="M486,604.6c-20.1-5.6-38.3-17.8-51.1-34.4c-13.2-17.1-20.2-37.7-20.2-59.4c0-53.6,43.6-97.3,97.3-97.3
				c44.3,0,83,29.9,94.1,72.7l-0.6,0.2c-11.1-42.5-49.5-72.2-93.5-72.2c-53.3,0-96.6,43.3-96.6,96.6c0,43.3,29.1,81.6,70.9,93.2
				L486,604.6z"/>
			<path class="st1" d="M486,615.8c-23.1-5.7-43.9-19.1-58.8-37.8c-15.3-19.3-23.4-42.5-23.4-67.2c0-28.9,11.2-56,31.7-76.4
				c20.4-20.4,47.6-31.7,76.4-31.7c24.6,0,48.6,8.5,67.7,23.8c18.8,15.1,32.2,36.3,37.6,59.7l-0.6,0.1c-11.4-48.9-54.4-83-104.7-83
				c-59.3,0-107.5,48.2-107.5,107.5c0,49.6,33.6,92.5,81.7,104.3L486,615.8z"/>
			<rect x="544.5" y="642.3" class="st1" width="0.6" height="71.7"/>
			<rect x="533.7" y="651.6" class="st1" width="0.6" height="63.7"/>
			<rect x="479.5" y="702.6" class="st1" width="0.6" height="11.5"/>
			<rect x="490.4" y="693.2" class="st1" width="0.6" height="22.1"/>
			<rect x="501.2" y="683.3" class="st1" width="0.6" height="32.9"/>
			<rect x="522.8" y="662.1" class="st1" width="0.6" height="54.1"/>
			<path class="st1" d="M544.8,642.6c-11.8-0.5-24.9-0.8-28.9-0.8c-17.5,0-34.7-3.5-51.1-10.4c-15.9-6.7-30.2-16.2-42.6-28.2
				c-12.5-12.1-22.3-26.1-29.2-41.7c-7.2-16.2-10.8-33.2-10.8-50.7c0-34.7,13.5-67.2,38-91.7c24.5-24.5,57.1-38,91.7-38
				c34.5,0,67,13.5,91.5,37.9c24.3,24.3,38.4,56.8,39.6,91.6c0.4,12.8,0.2,22.6,0,32.2l-0.1,3.2l-0.6,0l0.1-3.2
				c0.2-9.5,0.4-19.3,0-32.1c-2.5-72.3-59.7-129-130.4-129c-71.2,0-129.1,57.9-129.1,129.1c0,70.7,61,130.4,133.2,130.4
				c4,0,17.1,0.3,28.9,0.8L544.8,642.6z"/>
			<rect x="642.6" y="545.7" class="st1" width="72.1" height="0.6"/>
			<path class="st1" d="M534,651.9c-3.9-0.1-6.7-0.1-9.1-0.2c-3.9-0.1-7-0.2-13-0.3c-37.7-0.6-73-15.3-99.4-41.6
				c-26.6-26.4-41.2-61.5-41.2-99c0-37.5,14.6-72.9,41.2-99.4c26.6-26.6,61.9-41.2,99.4-41.2c18.8,0,37.3,3.9,54.9,11.7
				c16.7,7.4,31.9,17.9,45,31.2c26.5,26.8,41.7,62.1,41.7,97v24.9h-0.6v-24.9c0-74.2-65.9-139.3-141-139.3
				c-77.2,0-139.9,62.8-139.9,139.9c0,77.3,61.5,138.8,139.9,139.9c6.1,0.1,9.1,0.2,13,0.3c2.4,0.1,5.1,0.1,9.1,0.2L534,651.9z"/>
			<rect x="653.2" y="534.9" class="st1" width="63" height="0.6"/>
			<path class="st1" d="M511.6,662.4c-0.6,0-1.3,0-2,0c-82.2-0.8-149.1-68.8-149.1-151.6c0-40.4,15.7-78.5,44.3-107.1
				s66.6-44.3,107.1-44.3c20.4,0,40.4,4.4,59.6,13.1c18,8.2,35,20.2,49.1,34.7c28.9,29.9,44.7,68.8,43.5,106.6c0,0,0,1.6,0.6,10.4
				l-0.6,0c-0.6-8.9-0.6-10.4-0.6-10.4c1.3-37.7-14.5-76.4-43.3-106.2c-29.3-30.3-68.7-47.7-108.2-47.7
				c-83.1,0-150.8,67.6-150.8,150.8c0,82.4,66.6,150.1,148.5,150.9c2.9,0,4.9,0,6.7,0c2.3,0,4.1-0.1,6.9,0l0,0.6
				c-2.7-0.1-4.5-0.1-6.8,0C515,662.4,513.5,662.4,511.6,662.4z"/>
			<rect x="664.2" y="524.1" class="st1" width="52.5" height="0.6"/>
			<path class="st1" d="M501.5,683.6c-95.8-9.5-162.6-80.5-162.6-172.7c0-23.4,4.6-46,13.6-67.4c8.7-20.6,21.2-39.1,37.1-55
				c15.9-15.9,34.4-28.4,55-37.1c21.3-9,44-13.6,67.4-13.6c44.8,0,87.3,17.1,119.6,48c32.2,30.9,51.1,72.4,53.2,116.9l-0.6,0
				c-4.3-92.1-79.9-164.3-172.2-164.3c-95.1,0-172.4,77.3-172.4,172.4c0,91.9,66.6,162.6,162.1,172.1L501.5,683.6z"/>
			<rect x="684.4" y="502.4" class="st1" width="33.1" height="0.6"/>
			<path class="st1" d="M490.6,693.5c-44.5-5.1-85.6-26.4-115.6-59.9c-30.3-33.8-47-77.4-47-122.8c0-24.8,4.9-48.9,14.5-71.6
				c9.3-21.9,22.5-41.6,39.4-58.5c16.9-16.9,36.6-30.1,58.5-39.4c22.7-9.6,46.8-14.5,71.6-14.5c45.8,0,89.7,16.9,123.6,47.7
				c33.6,30.5,54.7,72.2,59.3,117.2l-0.6,0.1c-9.6-93.7-88-164.3-182.3-164.3c-101,0-183.2,82.2-183.2,183.3
				c0,93.1,69.7,171.4,162.1,182L490.6,693.5z"/>
			<rect x="694.5" y="491.6" class="st1" width="22.3" height="0.6"/>
			<path class="st1" d="M479.8,702.9c-45-7.5-86.1-30.7-115.9-65.5c-14.8-17.3-26.3-36.7-34.3-57.9c-8.3-21.9-12.4-45-12.4-68.6
				c0-26.3,5.1-51.8,15.3-75.8c9.8-23.2,23.8-44,41.7-61.9c17.9-17.9,38.7-31.9,61.9-41.7c24-10.2,49.5-15.3,75.8-15.3
				c23.8,0,47.1,4.2,69.1,12.6c21.3,8.1,40.9,19.8,58.2,34.8c35,30.3,58.1,72,65.1,117.4l-0.6,0.1
				c-14.4-93.7-96.9-164.3-191.8-164.3c-107,0-194.1,87.1-194.1,194.1c0,95.3,68.2,175.9,162.1,191.4L479.8,702.9z"/>
			<rect x="704" y="480.7" class="st1" width="11.5" height="0.6"/>
			<polygon class="st1" points="646.9,666.4 646.3,666.4 646.3,647.6 665.4,647.6 665.4,648.2 646.9,648.2 			"/>
		</g>
		<g>
			<rect x="510.9" y="306.4" class="st1" width="1.3" height="162.8"/>
			
				<rect x="518" y="423.5" transform="matrix(0.7071 -0.7071 0.7071 0.7071 -124.3621 548.074)" class="st1" width="162.8" height="1.3"/>
			
				<rect x="423.1" y="342.8" transform="matrix(0.7071 -0.7071 0.7071 0.7071 -175.82 423.8423)" class="st1" width="1.3" height="162.8"/>
			<rect x="305.9" y="511.4" class="st1" width="162.8" height="1.3"/>
			
				<rect x="342.3" y="599.2" transform="matrix(0.7071 -0.7071 0.7071 0.7071 -300.0505 475.3022)" class="st1" width="162.8" height="1.3"/>
		</g>
		<g>
			<path class="st1" d="M512,555.5c-24,0-43.5-19.5-43.5-43.5c0-24,19.5-43.5,43.5-43.5c24,0,43.5,19.5,43.5,43.5
				C555.5,536,536,555.5,512,555.5z M512,469.8c-23.3,0-42.2,18.9-42.2,42.2c0,23.3,18.9,42.2,42.2,42.2c23.3,0,42.2-18.9,42.2-42.2
				C554.2,488.7,535.3,469.8,512,469.8z"/>
			<path class="st1" d="M485.9,583.5c-14.5-5.3-26.9-14.8-35.9-27.4c-9.2-12.9-14.1-28.2-14.1-44.1c0-42,34.1-76.1,76.1-76.1
				c32.5,0,61.4,20.6,72,51.3l-1.2,0.4c-10.4-30.2-38.8-50.4-70.7-50.4c-41.2,0-74.8,33.6-74.8,74.8c0,31.3,19.7,59.5,49.1,70.3
				L485.9,583.5z"/>
			<path class="st1" d="M486,628.6c-26.1-5.8-49.8-20.5-66.8-41.4c-8.5-10.4-15-22.1-19.6-34.6c-4.7-13-7.1-26.7-7.1-40.6
				c0-31.9,12.4-61.9,35-84.5c22.6-22.6,52.6-35,84.5-35c27.6,0,54.5,9.6,75.8,27.1c21,17.2,35.6,41.3,41.2,67.7l-1.2,0.3
				c-11.4-54.3-60.1-93.8-115.7-93.8c-65.2,0-118.2,53-118.2,118.2c0,55,38.9,103.5,92.4,115.4L486,628.6z"/>
			<polygon class="st1" points="557.5,713.3 556.2,713.3 556.2,638 485.5,638 485.5,558.3 556.2,558.3 556.2,486.8 635.9,486.8 
				635.9,558.3 712.8,558.3 712.8,559.6 634.6,559.6 634.6,488.1 557.5,488.1 557.5,559.6 486.8,559.6 486.8,636.7 557.5,636.7 			
				"/>
			<polygon class="st1" points="634.5,676.7 634.4,636.7 675.1,636.8 675.1,638.1 635.7,638 635.8,676.7 			"/>
			<rect x="511.4" y="674.2" class="st1" width="1.3" height="43.9"/>
			<path class="st1" d="M512.4,674.9h-0.7c-22,0-43.3-4.4-63.3-12.9c-19.4-8.2-36.8-20-51.7-34.9c-30.7-30.8-47.6-71.6-47.6-115.1
				c0-22,4.3-43.3,12.8-63.4c8.2-19.4,19.9-36.8,34.9-51.8c15-15,32.4-26.7,51.8-34.9c20.1-8.5,41.4-12.8,63.4-12.8
				c22,0,43.3,4.3,63.4,12.8c19.4,8.2,36.8,19.9,51.8,34.9c15,15,26.7,32.4,34.9,51.8c8.5,20.1,12.8,41.4,12.8,63.4
				c0,0.9,0,1.8,0,2.7l-1.3,0c0-0.9,0-1.8,0-2.7c0-89.1-72.5-161.6-161.6-161.6S350.4,422.9,350.4,512c0,89,72.4,161.5,161.4,161.6
				h0.7V674.9z"/>
			<rect x="673.8" y="514" class="st1" width="43.8" height="1.3"/>
			<path class="st1" d="M512,718.8c-27.9,0-55-5.5-80.5-16.3c-24.6-10.4-46.7-25.3-65.7-44.3c-19-19-33.9-41.1-44.3-65.7
				c-10.8-25.5-16.3-52.6-16.3-80.5c0-27.9,5.5-55,16.3-80.5c10.4-24.6,25.3-46.7,44.3-65.7c19-19,41.1-33.9,65.7-44.3
				c25.5-10.8,52.6-16.3,80.5-16.3c27.9,0,55,5.5,80.5,16.3c24.6,10.4,46.7,25.3,65.7,44.3s33.9,41.1,44.3,65.7
				c10.8,25.5,16.3,52.6,16.3,80.5c0,27.9-5.5,55-16.3,80.5c-10.4,24.6-25.3,46.7-44.3,65.7c-19,19-41.1,33.9-65.7,44.3
				C567,713.3,539.9,718.8,512,718.8z M512,306.5c-113.3,0-205.5,92.2-205.5,205.5c0,113.3,92.2,205.5,205.5,205.5
				c113.3,0,205.5-92.2,205.5-205.5C717.5,398.7,625.3,306.5,512,306.5z"/>
		</g>
		<g>
			<path class="st1" d="M479.8,524.1L479.8,524.1c0.2-0.1,0.5-0.2,0.7-0.3c3-1.2,6.5-1.8,9.6-2.4c2.7-0.5,5.3-1.6,8.2-1.7
				c0,1.8-1,3.9-1.7,5.4v0.6c1.7,0,3.6,0.7,5.2,0.2c1-0.3,2.5-3.5,3-4.5c1.4,0-3.7-2.7-4-2.8c0-1.5,4-6.1,4.9-7.6
				c0.9-1.4,1-2.7,1-4.6c0-1.4,0.1-3-0.5-4.1c-0.8-1.2-2.5-2.1-3.6-2.8c-2.6-1.9-5.2-3.7-7.7-5.5h-0.3c-1.5,1.8-3,3.6-4.4,5.5
				c-3,3.9-6,7.8-9,11.7c-1.6,2.2-4,4.4-4.9,7C475.9,519.4,474.4,525.3,479.8,524.1z"/>
			<g>
				<path class="st1" d="M440.6,587.6L440.6,587.6c-0.7-1-4.6-6.9-4.7-7c-2.2-3.1-4.3-6.2-6.5-9.2c-1.1-1.6-3-3-3.6-4.8
					c-0.3-0.8-0.1-1.9-0.1-2.8c0.1-2.8,0.7-6.4,0.1-9c-0.9-3.9-3.9-7.1-4.9-11.1c-0.8-3.2,0.5-6.9,0.2-10.2
					c-0.3-2.8-2.9-5.1-3.7-7.7c-0.3-0.8,0.1-1.7-0.1-2.5c-0.4-2.1-0.9-4.3-1.8-6.2c-2.4-3.1-4.9-6.3-7.3-9.4c1.3,0,2.1-1.9,3.2-2.3
					c1.8-0.8,4.4-1.1,6.4-1.4v0.6c-0.5,0-1.1,0.7-1.4,1.1c-0.5,0,0,1,0.1,1.4c0.7,3,1.4,6.1,2.1,9.1c0.2,1.8-0.3,3.5-0.2,5.4h6.8
					c-0.8-1.6-1.7-3.2-2.5-4.8c-0.5-1.6,0.8-3.2,0.8-4.8c-0.1-3.1-2.1-6.2-2.3-9.4h-0.9c0,0.5-0.5,0.4-0.9,0.4
					c-0.9,0.1-1.3-0.6-1.7-1.3c-0.4-0.9-0.9-1.7-1.4-2.6c-0.3-1.6,3.1-3.7,4.2-4.4c2.8,0.2,6.8,0.6,8.1,3.3c0.5,1.1,0.5,2.5,0.7,3.8
					c0.1,1.1,0.7,2.8,0,3.8c-0.8,1.3-3.1,2.2-4.3,3c0,0.2,0,0.4,0.1,0.5c0.2,0.9,0.8,2.2,1.6,2.7c0.5,0.3,1.5,0.1,2.3,0.1v0
					c0,0,2.2-0.4,2.7-0.6c0.4-0.2,1.1-0.7,2.4-0.4c0,0,0.1,0,0.2,0c0.3,0.1,0.5,0.2,0.8,0.3c2.5,0.9,5,1.8,7.6,2.6
					c1.9,0.6,4.2,0.2,6.2,0.7c2.4,0.6,4.4,2.8,6.5,3.9c0.8,0.4,1.9,0.3,2.6,1.1c1.1,1.4,2,3.5,2.5,5.2c1.4,0,5.2-0.5,6.3-1.2
					c1.4-0.9,2-3.2,2.7-4.6c0.9-1.8,1.8-3.5,2.7-5.3c1.3-1.3,2.5-2.6,3.8-3.8c0.8-0.8,1.7-2,2.8-2.5c1.2-0.2,2.4-0.4,3.5-0.6
					c0.3-0.8,0.5-1.5,0.8-2.3c0.7-2.2,1.7-4.2,2.1-6.5c0.1-5,0.3-10,0.4-15c0.4-2.1,4.2-6.2,5.7-8c1.1-1.4,2.1-2.8,3.2-4.2
					c1.8-2,4.7-2.6,7-3.7c1.7-0.8,3.2-2.6,4.5-4c0.6-0.6,1.5-1.2,1.7-2c0.4-1.6-0.6-3.8-1.4-5c-1-1.5-10.3-8.9-11.7-9.3
					c-1.7-0.4-6.8,4.1-8.5,5.1c-2,1.2-4.4,1.4-6.7,2c-2.5,0.6-6.1,2.1-8.8,2c-2-0.1-3.9-0.7-5.7-1.1c-1.3-0.3-2.7-0.5-3.8-1.2
					c-0.9-0.8-1.9-1.7-2.8-2.5c0,0-0.1,0-0.1,0c-0.7-0.6-4.2-1.4-5.3-1.5c-1.1-0.1-3.2-0.2-3.2-0.2l-0.2,0c-0.4,0.1-0.7,0.2-1.1,0.3
					c-3.4,0-7.9-0.6-11,0.2c-2,0.5-4.7,2.7-6.4,3.9c-1.8,1.2-3.5,2.4-5.3,3.5c-2.4,2.3-4.7,4.7-7.1,7c-2.7,4.5-5.4,9-8.2,13.4
					c-0.5,0-0.3,0.4-0.3,0.8c0.7,0,1.1,0.8,1.1,1.4c0,1.9-2.4,4.8-3.2,6.6c-0.7,2.3-1.4,4.7-2,7.1c-0.7,2.1-3,11.6-4.2,12.5
					c-1,0.7-7.7,0.5-11.2,0.5c-4.3-0.1-5.3,4.1-5.3,4.1h0c-1.1,3.2-5.9,7.6-7.9,9.9c-2.3,2.6-1.9,7.2-3.1,10.3
					c-0.6,1.4-2.8,1.9-4.1,2.4c-2.1,0.7-4.3,2-6.6,2.4c-3.4,0.5-6.8-0.2-10.2-0.4c-3.5-0.1-5.9,1.5-5.9,1.5l0,0
					c-1.6,1.3-4.8,2.6-6,3.3c-5.3,3.1-5.8,6.2-7.5,11.5c-0.5,1.4-1.4,3.4-1.3,4.9c0.5,3,0.9,6,1.4,9h0.3v0.3c1.4,0,3-2.6,5.4-2.3
					c2.2,0.7,4.4,1.5,6.6,2.2c2,0.8,4.5,1.2,6.3,2.4c1,1.2,2.1,2.4,3.1,3.6c0.9,0.8,1.8,1.7,2.7,2.5l0,0c0,0,4.4,4.2,5.8,3.8
					c0.4-0.1,0.8-0.3,1.1-0.5c0.5,0.1,0.9,0.3,1.4,0.4c0.6,0.5,1,2.4,2,3.3c4.5,4.1,9,8.2,13.5,12.3c5.7,5,13.5,4,20.2,6.8
					c2.5,1.1,4.3,4.2,6.9,4.9c0.8,0.1,1.7,0.1,2.5,0.2c0.3,0,6.1-0.1,7.4-0.2v0c0.9-0.1,1.9-0.1,2.7-0.3c0.8,0,1.7,0,2.5,0l0,0
					c0,0,5.7-0.4,7.6-0.3c2.8,0,8.2-0.1,9.9-0.9c1.5-0.7,2.5-2.6,3.4-3.8c0.5-0.7,1.4-1.5,1.2-2.6
					C446.7,594.9,442.6,590.7,440.6,587.6z"/>
				<path class="st1" d="M622.7,471v0.3c-1,0-1.9,1.3-2.9,1.5c-1.8,0.4-3.6-0.3-5.3-0.4v-0.3h-0.3c0-1.4,3.4-4.2,3.3-6.2
					c0-1.3-1.6-2.3-2.4-3.2c-1.2-1.2-2.7-3.3-4.2-3.9c-1.1-0.5-2.5-0.3-3.8-0.3c-3-0.1-6.7,0.5-9.3-0.5c-1.6-0.6-3.1-4.1-4.4-5.4
					c-1.6-1.6-4-3-5.9-4v-0.3c-0.5,0-0.3-0.2-0.3-0.6c1.7,0,3.2,0.4,4.8,0.6c0-2.6-3.8-2.2-5.4-3.1h-0.3l0,0c-0.5,0-2.2-0.1-3.2,0.2
					c-1.2,0.3-2.5,0.8-3.4,0.8c0,0,0,0,0,0c-0.7,0-1.5-0.1-2.2-0.1c-1.6,0.1-3.9,1.5-4.7-0.6c-1.4-3.3,2.2-4.6,4.2-5.8h0.3
					c0-1-1.5-1.2-2.2-1c-1.1,0.3-2,1.2-3.2,1.4c-0.2,0-0.3-0.1-0.5-0.1c-1.5-0.5-2.7-2.3-3.9-3.3c-2.3-2-6.3-2-9.5-1.8v-0.6h0.3
					c0.9-1.3,2.1-1.6,3.1-2.6c0.3-0.4,0.5-0.8,0.8-1.1c-1-0.1-1.9-0.3-2.9-0.4c-0.7,0.2-0.1,2.1-1.9,2.8c0,0,0,0,0,0
					c-0.3,0.1-1.2,0.7-1.9,1c-0.7,0.3-2.6,1.4-2.6,1.4v0.6c-0.7,0-1.9,1.7-2.3,2.3h-0.3v0.3c1.4,0,3.2-1.5,4.8-1.7v0.6
					c-0.3,0-3.1,3.2-3.4,3.7c-0.4,0,1,1.9,1.4,2.3c0,1.5-4.7,5.9-6.1,6.5c-1.1,0.2-2.2,0.4-3.3,0.6c-0.9,0-2.1-0.1-2.8,0.3
					c-2.3,0-3.4,0.9-5.1,2v0.3c-0.9,0-1.9-0.4-2.5-0.9h-0.3v-0.6c0.3,0,2-3.1,2.3-3.7c0.5,0-0.8-4.5-0.8-5.4H534
					c0,0.3-2.7,3.1-3.1,3.7h-0.3c0,0.1,0.1,0.2,0.1,0.2c1.1,2.9,0.6,2.3-1.5,3.7c-0.6,0.1-1.1,0.2-1.7,0.3c-2.2,0-8,1.1-9.6,2h-0.6
					c0,3.2-1.1,2.6-3.7,3.1v0c-0.6,0.1-1.3,0.4-2.2,0.7c-0.7,0.2-1.5,0.8-1.9,1.1c0,0.2-0.1,0.5-0.1,0.7c0.6,0,1.2,0.5,1.7,0.8
					c2.4,1.1,4.7,2.2,7.1,3.3c1.1,0.5,2.4,0.9,3.3,1.8c1.3,1.3,10.9,15.3,10.9,16.4c-0.1,1.3-2.2,2-3,2.9h-0.3
					c0.1,0.1,0.1,0.1,0.1,0.2c1.4,2.4,2.6,4.9,3.8,7.4c0.5,1.2,1.7,2.4,1.7,3.8c0,1-0.9,2.1-1.6,2.8c0,2.3,1.9,4.1,1.7,6.5
					c-0.2,1.6-1.4,3.1-2,4.6c-1.5,3.2-3.3,6.5-4.3,9.9c0,0.5-0.9,1.3-1.1,1.7c-0.4,0.7-0.8,1.9-1.5,2.4c-0.6,0.4-1.7,0.4-2.5,0.4
					c-3.3,0.1-6-0.3-7.9,2.3c-0.5,0-0.2,0.6-0.2,1.1c-0.1,1-0.2,2-0.3,3.1c-0.6,2.3-2.5,5.4-1.2,8c0,0.6,0.8,0.8,0.8,1.4
					c0.3,2.6-1.1,4.9-3.4,5.6v0.3h-0.3c0-1.1-0.9-1.5-1.3-2.3c-0.6-1.2-1.1-3.9-0.7-5.3c0-0.5-0.2-0.4-0.6-0.6v0.3
					c-0.4,0-0.3,0.1-0.4,0.3c-0.3,0.8-0.5,1.5-0.8,2.3c-1,1.7-2.2,1.1-2.5,3.6c1.3,0,2-1.2,2.3-2.3h0.3c0.2,0.6,0.4,1.2,0.6,1.7
					c0.2,1.2-0.3,2.8-0.8,3.9l0,0c0,0-1,2.9,1.2,4.3v0c0.4,0.2,0.7,0.4,0.9,0.7c0.1,0.2,0.2,0.3,0.3,0.6c0.5,1.6-0.2,4.4-0.7,5.6
					c-2.5,0-4.2-0.7-5.2,0.1c-0.2,0.2-0.4,0.5-0.6,0.9h13.5c0.7-0.2,1.2-0.1,1.7,0h38.1l0.1-71.4h48.8c0.1-0.3,0.1-0.6,0.2-0.9
					c0.3-1.6,0.7-2.9,1-3.2c1.2-1.4,3.4-1.8,5.3-2.5c0.4-0.2,0.8-0.3,1.1-0.5c1-0.6,1.3-1.9,2.1-2.7c1.1-1,2.8-0.7,4-1.5
					c1.4-1.5,2.8-3,4.1-4.6C623,471.2,622.9,471.2,622.7,471z"/>
				<g>
					<path class="st1" d="M628.2,474.7c0.3,0,1.9-0.2,2.3-0.9c0.4-0.7,0.3-3.3,0.3-3.3s0,0,0,0c0-3.6,4.1-5.9,2.7-9.8v-0.6h-0.3v0.3
						c-0.3,0-3.1,3.7-4,4.3v0.3h-0.3v-2c-0.2,0.1-0.4,0.1-0.6,0.2v0c-2.1,0.9-2.7,4-2.7,4l0,0c-0.1,0.8-0.4,1.5-0.6,2.1v0.3h0.6
						c0-0.4,0.3-0.6,0.6-0.8v-0.3h0.6c0,0.4-0.1,0.3,0.3,0.3c0.2,0.7,0.4,1.4,0.6,2c0.2,1.2-0.3,2.5-0.6,3.6h0.6
						C627.5,474.7,627.9,474.7,628.2,474.7L628.2,474.7z"/>
					<path class="st1" d="M582.5,413.8c0,0,3.1-2.6,1.5-4.2l0,0c-0.1-0.1-0.2-0.2-0.3-0.2c-0.9-0.9-1.9-1.9-2.8-2.9
						c-1.2-1.2-2.7-2.7-3.4-4.2c-1.2-2.6,0.3-6.9-1.4-9.1c-1.1-1.5-2.9-2.3-4.2-3.4c-3.3-2.6-6.5-5.1-9.8-7.7
						c-1.5-1.2-3.4-2.3-4.7-3.8h-0.6c0,2.6,3.1,12.1,3.2,15.9l0,0c0,0,0.3,4.1,1.5,6.7c0.5,0.8,0.8,1.8,1.6,2.6
						c2.4,2.2,4.9,4.4,7.3,6.6c2.5,2.3,5,5.1,7.9,6.8c0,0.5,0.2,0.3,0.6,0.3c0-0.6,1.6-1.6,2-2C581.4,414.7,581.9,414.1,582.5,413.8
						L582.5,413.8z"/>
					<path class="st1" d="M618.6,434.9c-0.9-1.2-1.6-2.5-2.8-3.4c-1.4-1.1-3.3-1.2-4.7-2.1c-0.4,0-0.3,0.1-0.3-0.3
						c0.5,0,1-1.1,1.3-1.5c1.2-2.1,0.3-2.8-0.3-4h0c-1.4-1.3-2.4-3.5-2.8-4.7h0c0-0.1,0-0.1,0-0.2c-0.1-0.3-0.2-0.5-0.2-0.6
						c-0.3-0.7-0.9-1.4-1.2-1.8V416c-0.9,0-2,4.5-2.6,5.4v0.3h-0.3v-0.3c-0.6,0-1.2-1.1-2-1.3c-1.7-0.4-4.1,0.3-5.6-0.4
						c-1.3-0.6-2.4-1.7-3.4-2.7c-0.1-0.1-1.4-1.3-2.5-0.6c-1.1,0.7-0.4,1.8,0.2,2.3l0,0c1.5,1.3,3,2.6,4.5,4c1.5,1.5,3.1,3,4.6,4.4
						c0,0,2.3,2.6,2.8,3.4l0,0c0.5,0.4,0.9,0.9,1.2,1.4c0.4,0,0.3-0.1,0.3,0.3c-0.5,0-1.3,1.6-1.7,2c0,0.8,0.6,1.5,1,2.1
						c0.6,0.9,1.4,2.1,2.4,2.5c1.8,0.7,3.8,0.2,5.2,1.8c0.4,0.5,0.8,1,1.2,1.5l0,0c0,0,8.2,6.7,8.9,7.3c0.2,0.2,0.4,0.3,0.5,0.4
						c0,0.4-0.1,0.3,0.3,0.3c0-0.2,2.5-2.8,2.8-3.4h0.3c0-0.1-0.1-0.2-0.1-0.2C623.2,442.5,621.3,438.6,618.6,434.9z"/>
					<path class="st1" d="M644.1,432.7c0.8-0.3,2.2-1.8,3.4-2.8l0,0c0,0,6.4-5.8,7.1-6.5h0c1.7-1.5,3.8-3.1,4.6-4
						c0.4,0,0.3,0.1,0.3-0.3c-0.4,0-0.3-0.1-0.5-0.3c-1.6-2.4-4.2-4.4-6.2-6.5c-4.5-4.6-8.9-9.2-13.4-13.8l0,0
						c-0.8-0.7-1.7-1.5-2.5-2.3h0c0,0,0,0,0,0c-2.5-2.4-4.8-5-4.8-5l0,0c-4.1-3.8-11.2-11.2-11.4-12.3c0-0.9,0-1.8,0-2.8
						c-0.1-3.1-0.1-6.3-0.2-9.4c0-1.2,0.1-2.6-0.5-3.6c-1.2-1.9-3-3.6-4.7-5.1c-1.8-1.7-3.5-3.5-5.3-5.2c-1.3-0.9-3.4-0.2-4.8-0.9
						c-1.7-1.2-3.3-2.3-4.9-3.5c-1.2-0.7-2.5-1.3-3.8-2c-0.9-0.5-2.1-1.3-3.2-1.4H593c-0.1,0-0.2,0-0.3,0c-1.9,0.2-3.5,1-5.2,1.6
						c-5.3,1.9-10.5,3.9-15.8,5.8c0,1.8-0.1,3.5,0,5.2c0.1,0.5,0.7,4.8,1.6,7.6c0,0,0,0.1,0,0.1c0,0,0,0.1,0,0.1l0,0
						c0.6,1.9,0.9,4.2,1.3,5.6c1.4,5.5,2.7,11,4.1,16.5c0.4,1.8,0.7,3.7,1.5,5.4c0,0.8,1.6,0,1.9-0.1c3.7-1.6,7.4-3.2,11-4.9
						c1.7-0.8,3.7-2.2,5.7-1.8c0,2.1,2.4,3.9,1.9,6.2c-0.5,2.3-4.8,4.4-5,6.6c-0.1,1.3,2.4,5.2,3.5,6c5,2.8,9.9,5.6,14.8,8.4v0
						c1.5,1,4.2,3,4.2,3v0c1,0.6,2,1.5,3,2.2c1.9,1.4,3.9,2.8,5.8,4.2c1.3,1.2,2.6,2.5,3.9,3.7c1.9,1.7,3.4,4.1,5.6,5.4
						C637.7,432.7,642.8,433.2,644.1,432.7z"/>
				</g>
			</g>
		</g>
	</g>
</g>
</svg>
